<svg width="7410" height="1140" viewBox="0 0 7410 1140" fill="none" xmlns="http://www.w3.org/2000/svg">
<g id="stremio-icons">
<g id="search-outline">
<rect id="outer" y="627" width="512" height="512" fill="#191919"/>
<g id="search-outline 1">
<path id="Vector" d="M221.09 691C190.02 691 159.649 700.213 133.815 717.474C107.982 734.736 87.8475 759.27 75.9577 787.974C64.0679 816.679 60.957 848.264 67.0184 878.737C73.0797 909.209 88.0411 937.2 110.011 959.169C131.98 981.139 159.971 996.1 190.443 1002.16C220.916 1008.22 252.501 1005.11 281.206 993.222C309.91 981.332 334.444 961.198 351.706 935.365C368.967 909.531 378.18 879.159 378.18 848.09C378.177 806.428 361.626 766.473 332.166 737.014C302.707 707.554 262.752 691.003 221.09 691Z" stroke="white" stroke-width="32" stroke-miterlimit="10"/>
<path id="Vector_2" d="M338.29 965.29L448 1075" stroke="white" stroke-width="32" stroke-miterlimit="10" stroke-linecap="round"/>
</g>
</g>
<g id="search">
<rect id="outer_2" width="512" height="512" fill="#191919"/>
<g id="search 1">
<path id="Vector_3" d="M456.69 437.39L362.6 343.3C385.253 313.143 397.481 276.437 397.44 238.72C397.44 142.38 319.06 64 222.72 64C126.38 64 48 142.38 48 238.72C48 335.06 126.38 413.44 222.72 413.44C260.437 413.481 297.143 401.253 327.3 378.6L421.39 472.69C426.153 476.948 432.365 479.22 438.751 479.042C445.137 478.863 451.212 476.246 455.729 471.729C460.246 467.212 462.863 461.137 463.042 454.751C463.22 448.365 460.948 442.153 456.69 437.39ZM97.92 238.72C97.92 214.037 105.239 189.908 118.953 169.385C132.666 148.862 152.157 132.866 174.961 123.42C197.765 113.974 222.858 111.503 247.067 116.318C271.276 121.133 293.513 133.019 310.967 150.473C328.421 167.927 340.307 190.164 345.122 214.373C349.937 238.582 347.466 263.675 338.02 286.479C328.574 309.283 312.578 328.774 292.055 342.487C271.532 356.201 247.403 363.52 222.72 363.52C189.633 363.48 157.913 350.319 134.517 326.923C111.121 303.527 97.9597 271.807 97.92 238.72Z" fill="white"/>
</g>
</g>
<g id="home-outline">
<rect id="outer_3" x="627" y="627" width="512" height="512" fill="#191919"/>
<g id="home-outline 1">
<path id="Vector_4" d="M707 839V1075C707 1079.24 708.686 1083.31 711.686 1086.31C714.687 1089.31 718.757 1091 723 1091H819V955C819 948.635 821.529 942.53 826.029 938.029C830.53 933.529 836.635 931 843 931H923C929.365 931 935.47 933.529 939.971 938.029C944.471 942.53 947 948.635 947 955V1091H1043C1047.24 1091 1051.31 1089.31 1054.31 1086.31C1057.31 1083.31 1059 1079.24 1059 1075V839" stroke="white" stroke-width="32" stroke-linecap="round" stroke-linejoin="round"/>
<path id="Vector_5" d="M1107 883L893.89 679C888.89 673.72 877.2 673.66 872.11 679L659 883" stroke="white" stroke-width="32" stroke-linecap="round" stroke-linejoin="round"/>
<path id="Vector_6" d="M1027 806V691H979V760" stroke="white" stroke-width="32" stroke-linecap="round" stroke-linejoin="round"/>
</g>
</g>
<g id="home">
<rect id="outer_4" x="627" width="512" height="512" fill="#191919"/>
<g id="home 2">
<path id="Vector_7" d="M888.56 101.28C887.071 99.8558 885.09 99.0609 883.03 99.0609C880.97 99.0609 878.989 99.8558 877.5 101.28L693.4 277.15C692.618 277.898 691.996 278.797 691.572 279.792C691.147 280.787 690.929 281.858 690.93 282.94L690.9 448C690.9 456.487 694.271 464.626 700.273 470.627C706.274 476.629 714.413 480 722.9 480H819C823.243 480 827.313 478.314 830.314 475.314C833.314 472.313 835 468.243 835 464V328C835 325.878 835.843 323.843 837.343 322.343C838.843 320.843 840.878 320 843 320H923C925.122 320 927.157 320.843 928.657 322.343C930.157 323.843 931 325.878 931 328V464C931 468.243 932.686 472.313 935.686 475.314C938.687 478.314 942.757 480 947 480H1043.06C1051.55 480 1059.69 476.629 1065.69 470.627C1071.69 464.626 1075.06 456.487 1075.06 448V282.94C1075.06 281.858 1074.84 280.787 1074.42 279.792C1073.99 278.797 1073.37 277.898 1072.59 277.15L888.56 101.28Z" fill="white"/>
<path id="Vector_8" d="M1117.91 244.15L1043.11 172.59V64C1043.11 59.7565 1041.42 55.6869 1038.42 52.6863C1035.42 49.6857 1031.35 48 1027.11 48H979.11C974.867 48 970.797 49.6857 967.796 52.6863C964.796 55.6869 963.11 59.7565 963.11 64V96L905.19 40.62C899.77 35.14 891.71 32 883 32C874.32 32 866.28 35.14 860.86 40.63L648.16 244.13C641.94 250.13 641.16 260 646.82 266.5C648.241 268.141 649.982 269.475 651.935 270.422C653.888 271.368 656.014 271.908 658.182 272.007C660.351 272.106 662.517 271.763 664.548 270.999C666.58 270.234 668.435 269.064 670 267.56L877.5 69.28C878.989 67.8558 880.97 67.0609 883.03 67.0609C885.09 67.0609 887.071 67.8558 888.56 69.28L1096.08 267.56C1099.14 270.491 1103.23 272.091 1107.47 272.009C1111.7 271.926 1115.73 270.168 1118.67 267.12C1124.81 260.76 1124.3 250.26 1117.91 244.15Z" fill="white"/>
</g>
</g>
<g id="discover-outline">
<rect id="outer_5" x="1254" y="627" width="512" height="512" fill="#191919"/>
<g id="compass-outline 1">
<path id="Vector_9" d="M1702 883C1702 777 1616 691 1510 691C1404 691 1318 777 1318 883C1318 989 1404 1075 1510 1075C1616 1075 1702 989 1702 883Z" stroke="white" stroke-width="32" stroke-miterlimit="10"/>
<path id="Vector_10" d="M1604.67 777.93L1487.47 824.81C1479.42 828.029 1472.11 832.85 1465.98 838.98C1459.85 845.109 1455.03 852.421 1451.81 860.47L1404.93 977.67C1404.35 979.124 1404.21 980.716 1404.52 982.251C1404.83 983.785 1405.59 985.192 1406.7 986.3C1407.81 987.407 1409.22 988.165 1410.75 988.48C1412.28 988.794 1413.88 988.652 1415.33 988.07L1532.53 941.19C1540.58 937.971 1547.89 933.15 1554.02 927.02C1560.15 920.891 1564.97 913.579 1568.19 905.53L1615.07 788.33C1615.65 786.876 1615.79 785.284 1615.48 783.75C1615.17 782.216 1614.41 780.808 1613.3 779.7C1612.19 778.593 1610.78 777.835 1609.25 777.52C1607.72 777.206 1606.12 777.348 1604.67 777.93ZM1510 907C1505.25 907 1500.61 905.592 1496.67 902.955C1492.72 900.318 1489.64 896.57 1487.83 892.184C1486.01 887.799 1485.54 882.973 1486.46 878.318C1487.39 873.662 1489.67 869.386 1493.03 866.029C1496.39 862.673 1500.66 860.387 1505.32 859.461C1509.97 858.535 1514.8 859.01 1519.18 860.827C1523.57 862.643 1527.32 865.72 1529.96 869.666C1532.59 873.613 1534 878.253 1534 883C1534 889.365 1531.47 895.47 1526.97 899.971C1522.47 904.471 1516.37 907 1510 907Z" fill="white"/>
</g>
</g>
<g id="discover">
<rect id="outer_6" x="1254" width="512" height="512" fill="#191919"/>
<g id="compass 2">
<path id="Vector_11" d="M1510 280C1523.25 280 1534 269.255 1534 256C1534 242.745 1523.25 232 1510 232C1496.75 232 1486 242.745 1486 256C1486 269.255 1496.75 280 1510 280Z" fill="white"/>
<path id="Vector_12" d="M1510 48C1395.31 48 1302 141.31 1302 256C1302 370.69 1395.31 464 1510 464C1624.69 464 1718 370.69 1718 256C1718 141.31 1624.69 48 1510 48ZM1615.07 161.33L1568.19 278.53C1564.97 286.579 1560.15 293.891 1554.02 300.02C1547.89 306.15 1540.58 310.971 1532.53 314.19L1415.33 361.07C1413.88 361.652 1412.28 361.794 1410.75 361.48C1409.22 361.165 1407.81 360.407 1406.7 359.3C1405.59 358.192 1404.83 356.785 1404.52 355.25C1404.21 353.716 1404.35 352.124 1404.93 350.67L1451.81 233.47C1455.03 225.421 1459.85 218.109 1465.98 211.98C1472.11 205.85 1479.42 201.029 1487.47 197.81L1604.67 150.93C1606.12 150.348 1607.72 150.206 1609.25 150.52C1610.78 150.835 1612.19 151.593 1613.3 152.7C1614.41 153.808 1615.17 155.215 1615.48 156.75C1615.79 158.284 1615.65 159.876 1615.07 161.33Z" fill="white"/>
</g>
</g>
<g id="library-outline">
<rect id="outer_7" x="1882" y="628" width="512" height="512" fill="#191919"/>
<g id="albums-outline 1">
<path id="Vector_13" d="M2301.13 804H1974.87C1958.93 804 1946 816.926 1946 832.87V1031.13C1946 1047.07 1958.93 1060 1974.87 1060H2301.13C2317.07 1060 2330 1047.07 2330 1031.13V832.87C2330 816.926 2317.07 804 2301.13 804Z" stroke="white" stroke-width="32" stroke-linejoin="round"/>
<path id="Vector_14" d="M2026 708H2250" stroke="white" stroke-width="32" stroke-miterlimit="10" stroke-linecap="round"/>
<path id="Vector_15" d="M1994 756H2282" stroke="white" stroke-width="32" stroke-miterlimit="10" stroke-linecap="round"/>
</g>
</g>
<g id="library">
<rect id="outer_8" x="1882" y="1" width="512" height="512" fill="#191919"/>
<g id="albums 2">
<path id="Vector_16" d="M2250 97H2026C2021.76 97 2017.69 95.3143 2014.69 92.3137C2011.69 89.3131 2010 85.2435 2010 81C2010 76.7565 2011.69 72.6869 2014.69 69.6863C2017.69 66.6857 2021.76 65 2026 65H2250C2254.24 65 2258.31 66.6857 2261.31 69.6863C2264.31 72.6869 2266 76.7565 2266 81C2266 85.2435 2264.31 89.3131 2261.31 92.3137C2258.31 95.3143 2254.24 97 2250 97Z" fill="white"/>
<path id="Vector_17" d="M2282 145H1994C1989.76 145 1985.69 143.314 1982.69 140.314C1979.69 137.313 1978 133.243 1978 129C1978 124.757 1979.69 120.687 1982.69 117.686C1985.69 114.686 1989.76 113 1994 113H2282C2286.24 113 2290.31 114.686 2293.31 117.686C2296.31 120.687 2298 124.757 2298 129C2298 133.243 2296.31 137.313 2293.31 140.314C2290.31 143.314 2286.24 145 2282 145Z" fill="white"/>
<path id="Vector_18" d="M2301.13 449H1974.87C1962.97 448.987 1951.57 444.255 1943.16 435.843C1934.74 427.431 1930.01 416.026 1930 404.13V205.87C1930.01 193.974 1934.74 182.569 1943.16 174.157C1951.57 165.745 1962.97 161.013 1974.87 161H2301.13C2313.03 161.013 2324.43 165.745 2332.84 174.157C2341.26 182.569 2345.99 193.974 2346 205.87V404.13C2345.99 416.026 2341.26 427.431 2332.84 435.843C2324.43 444.255 2313.03 448.987 2301.13 449Z" fill="white"/>
</g>
</g>
<g id="addons-outline">
<rect id="outer_9" x="2509" y="628" width="512" height="512" fill="#191919"/>
<g id="extension-puzzle-outline 1">
<path id="Vector_19" d="M2922.66 874.1H2895C2894.47 874.1 2893.96 873.889 2893.59 873.514C2893.21 873.139 2893 872.63 2893 872.1V794.86C2893 784.554 2888.91 774.669 2881.62 767.382C2874.33 760.094 2864.45 756 2854.14 756H2776.9C2776.37 756 2775.86 755.789 2775.49 755.414C2775.11 755.039 2774.9 754.53 2774.9 754V726.34C2774.9 699.2 2753.4 676.48 2726.26 676.01C2719.68 675.894 2713.15 677.09 2707.04 679.526C2700.93 681.962 2695.37 685.59 2690.68 690.199C2685.99 694.807 2682.26 700.304 2679.72 706.369C2677.17 712.433 2675.86 718.943 2675.86 725.52V754C2675.86 754.53 2675.65 755.039 2675.27 755.414C2674.9 755.789 2674.39 756 2673.86 756H2596.62C2586.12 756.032 2576.06 760.216 2568.64 767.639C2561.22 775.063 2557.03 785.122 2557 795.62V866C2557 866.53 2557.21 867.039 2557.59 867.414C2557.96 867.789 2558.47 868 2559 868H2585.91C2615.28 868 2639.59 893.48 2640 922.85C2640.42 952.72 2616.49 980 2586.71 980H2559C2558.47 980 2557.96 980.211 2557.59 980.586C2557.21 980.961 2557 981.47 2557 982V1052.38C2557.03 1062.88 2561.22 1072.94 2568.64 1080.36C2576.06 1087.78 2586.12 1091.97 2596.62 1092H2667C2667.53 1092 2668.04 1091.79 2668.41 1091.41C2668.79 1091.04 2669 1090.53 2669 1090V1069.07C2669 1038.79 2693.75 1012.72 2724 1012.01C2754.1 1011.31 2781 1032.32 2781 1062.29V1090C2781 1090.53 2781.21 1091.04 2781.59 1091.41C2781.96 1091.79 2782.47 1092 2783 1092H2854.14C2864.45 1092 2874.33 1087.91 2881.62 1080.62C2888.91 1073.33 2893 1063.45 2893 1053.14V975.14C2893 974.61 2893.21 974.101 2893.59 973.726C2893.96 973.351 2894.47 973.14 2895 973.14H2923.48C2951.11 973.14 2973 950.47 2973 922.74C2973 895.01 2949.8 874.1 2922.66 874.1Z" stroke="white" stroke-width="32" stroke-linecap="round" stroke-linejoin="round"/>
</g>
</g>
<g id="addons">
<rect id="outer_10" x="2509" y="1" width="512" height="512" fill="#191919"/>
<g id="extension-puzzle 1">
<path id="Vector_20" d="M2854.14 481H2783C2778.23 481 2773.65 479.104 2770.27 475.728C2766.9 472.352 2765 467.774 2765 463V435.29C2765.01 431.034 2764.16 426.82 2762.49 422.905C2760.82 418.99 2758.37 415.456 2755.29 412.52C2747.51 404.93 2736.21 400.72 2724.4 401.01C2703.04 401.51 2685 420.31 2685 442.07V463C2685 467.774 2683.1 472.352 2679.73 475.728C2676.35 479.104 2671.77 481 2667 481H2596.62C2589.32 481 2582.08 479.561 2575.34 476.766C2568.59 473.971 2562.46 469.874 2557.29 464.709C2546.86 454.278 2541 440.131 2541 425.38V355C2541 350.226 2542.9 345.648 2546.27 342.272C2549.65 338.896 2554.23 337 2559 337H2586.71C2595.87 337 2604.78 333.08 2611.8 326C2615.71 322.063 2618.79 317.393 2620.89 312.258C2622.98 307.123 2624.04 301.625 2624 296.08C2623.7 274.89 2606.26 257 2585.91 257H2559C2554.23 257 2549.65 255.104 2546.27 251.728C2542.9 248.352 2541 243.774 2541 239V168.62C2541 161.316 2542.44 154.083 2545.23 147.335C2548.03 140.587 2552.13 134.455 2557.29 129.291C2567.72 118.86 2581.87 113 2596.62 113H2651.86C2653.98 113 2656.02 112.157 2657.52 110.657C2659.02 109.157 2659.86 107.122 2659.86 105V98.52C2659.86 89.8176 2661.59 81.2025 2664.96 73.1773C2668.32 65.1521 2673.25 57.8776 2679.46 51.7784C2685.67 45.6791 2693.03 40.8773 2701.11 37.6532C2709.19 34.4291 2717.84 32.8472 2726.54 33C2762.03 33.62 2790.9 63.38 2790.9 99.33V105C2790.9 107.122 2791.74 109.157 2793.24 110.657C2794.74 112.157 2796.78 113 2798.9 113H2854.14C2861.34 113 2868.48 114.419 2875.13 117.176C2881.79 119.933 2887.84 123.974 2892.93 129.068C2898.03 134.162 2902.07 140.21 2904.82 146.866C2907.58 153.522 2909 160.656 2909 167.86V223.1C2909 225.222 2909.84 227.257 2911.34 228.757C2912.84 230.257 2914.88 231.1 2917 231.1H2922.66C2959.24 231.1 2989 260.1 2989 295.74C2989 332.35 2959.61 362.14 2923.48 362.14H2917C2914.88 362.14 2912.84 362.983 2911.34 364.483C2909.84 365.983 2909 368.018 2909 370.14V426.14C2909 433.344 2907.58 440.478 2904.82 447.134C2902.07 453.79 2898.03 459.838 2892.93 464.932C2887.84 470.026 2881.79 474.067 2875.13 476.824C2868.48 479.581 2861.34 481 2854.14 481Z" fill="white"/>
</g>
</g>
<g id="settings-outline">
<rect id="outer_11" x="3136" y="627" width="512" height="512" fill="#191919"/>
<g id="cog-outline 1">
<path id="Vector_21" d="M3592.7 869.27L3566.62 865.07C3564.94 864.786 3563.39 863.972 3562.2 862.744C3561.01 861.517 3560.25 859.942 3560.02 858.25C3559.52 855.05 3559.02 851.84 3558.32 848.74C3557.98 847.076 3558.18 845.347 3558.88 843.799C3559.58 842.252 3560.75 840.965 3562.22 840.12L3585.31 827.3C3587.06 826.406 3588.42 824.905 3589.14 823.078C3589.86 821.251 3589.88 819.225 3589.21 817.38L3585.21 806.38C3584.54 804.53 3583.21 802.995 3581.47 802.071C3579.74 801.147 3577.72 800.901 3575.81 801.38L3549.92 806.38C3548.24 806.706 3546.49 806.482 3544.95 805.742C3543.4 805.002 3542.13 803.785 3541.33 802.27C3539.83 799.47 3538.23 796.667 3536.53 793.86C3535.63 792.401 3535.22 790.696 3535.34 788.987C3535.47 787.278 3536.13 785.652 3537.23 784.34L3554.52 764.4C3555.86 762.973 3556.63 761.104 3556.69 759.147C3556.74 757.19 3556.08 755.28 3554.82 753.78L3547.33 744.78C3546.08 743.266 3544.31 742.273 3542.37 741.994C3540.43 741.714 3538.45 742.169 3536.83 743.27L3514.14 756.9C3512.68 757.764 3510.99 758.143 3509.3 757.981C3507.61 757.819 3506.02 757.126 3504.75 756C3502.35 753.89 3499.85 751.79 3497.35 749.78C3496.02 748.724 3495.06 747.271 3494.61 745.633C3494.16 743.996 3494.25 742.257 3494.85 740.67L3504.25 715.92C3505.05 714.124 3505.16 712.097 3504.56 710.225C3503.96 708.353 3502.69 706.767 3501 705.77L3490.8 699.86C3489.1 698.893 3487.1 698.584 3485.19 698.992C3483.27 699.399 3481.57 700.494 3480.41 702.07L3463.77 722.91C3462.84 724.222 3461.5 725.182 3459.95 725.635C3458.41 726.089 3456.76 726.009 3455.27 725.41C3455.27 725.41 3449.67 723.11 3445.47 721.7C3443.86 721.163 3442.46 720.128 3441.48 718.743C3440.49 717.359 3439.98 715.698 3440 714L3440.4 687.55C3440.52 685.583 3439.91 683.64 3438.7 682.089C3437.48 680.538 3435.74 679.485 3433.8 679.13L3422.21 677.13C3420.27 676.794 3418.27 677.179 3416.6 678.212C3414.92 679.245 3413.68 680.856 3413.11 682.74L3404.51 707.79C3403.96 709.405 3402.9 710.801 3401.5 711.774C3400.1 712.747 3398.43 713.247 3396.72 713.2H3386.92C3385.22 713.236 3383.55 712.732 3382.15 711.76C3380.75 710.788 3379.69 709.399 3379.13 707.79L3370.53 682.74C3369.96 680.856 3368.72 679.245 3367.04 678.212C3365.37 677.179 3363.37 676.794 3361.43 677.13L3349.84 679.13C3347.9 679.485 3346.16 680.538 3344.94 682.089C3343.73 683.64 3343.12 685.583 3343.24 687.55L3343.64 714C3343.66 715.702 3343.14 717.367 3342.16 718.754C3341.17 720.141 3339.77 721.176 3338.15 721.71C3335.85 722.61 3330.85 724.52 3328.45 725.42C3325.65 726.42 3322.35 725.62 3319.65 722.51L3303.14 702.17C3301.97 700.601 3300.27 699.514 3298.36 699.114C3296.44 698.714 3294.45 699.029 3292.75 700L3282.55 705.91C3280.85 706.888 3279.58 708.46 3278.97 710.322C3278.36 712.185 3278.46 714.207 3279.25 716L3288.65 740.75C3289.24 742.338 3289.32 744.074 3288.87 745.71C3288.43 747.345 3287.47 748.798 3286.15 749.86C3283.65 751.86 3281.15 753.97 3278.75 756.08C3277.48 757.206 3275.89 757.899 3274.2 758.061C3272.51 758.223 3270.82 757.844 3269.36 756.98L3247 743.14C3245.37 742.066 3243.4 741.626 3241.46 741.904C3239.53 742.183 3237.76 743.159 3236.5 744.65L3229.01 753.65C3227.75 755.15 3227.09 757.06 3227.14 759.017C3227.2 760.974 3227.97 762.843 3229.31 764.27L3246.6 784.21C3247.72 785.511 3248.4 787.139 3248.53 788.854C3248.65 790.569 3248.22 792.279 3247.3 793.73C3245.6 796.397 3244 799.2 3242.5 802.14C3241.68 803.643 3240.41 804.85 3238.87 805.589C3237.33 806.327 3235.59 806.558 3233.91 806.25L3208.02 801.25C3206.11 800.785 3204.1 801.037 3202.37 801.959C3200.63 802.881 3199.3 804.408 3198.62 806.25L3194.62 817.25C3193.95 819.095 3193.97 821.121 3194.69 822.948C3195.41 824.775 3196.77 826.276 3198.52 827.17L3221.58 840C3223.07 840.828 3224.25 842.113 3224.95 843.666C3225.66 845.218 3225.84 846.955 3225.48 848.62C3224.88 851.82 3224.28 854.93 3223.78 858.13C3223.54 859.818 3222.77 861.386 3221.59 862.611C3220.4 863.836 3218.86 864.655 3217.18 864.95L3191.1 869.15C3189.16 869.389 3187.37 870.323 3186.07 871.779C3184.76 873.235 3184.03 875.115 3184 877.07V888.79C3183.98 890.76 3184.69 892.667 3186.01 894.133C3187.32 895.6 3189.14 896.52 3191.1 896.71L3217.18 900.91C3218.86 901.194 3220.41 902.008 3221.6 903.236C3222.79 904.463 3223.55 906.038 3223.78 907.73C3224.28 910.93 3224.78 914.14 3225.48 917.24C3225.82 918.904 3225.62 920.633 3224.92 922.181C3224.22 923.728 3223.05 925.015 3221.58 925.86L3198.49 938.7C3196.74 939.594 3195.38 941.095 3194.66 942.922C3193.94 944.749 3193.92 946.775 3194.59 948.62L3198.59 959.62C3199.26 961.47 3200.59 963.005 3202.33 963.929C3204.06 964.853 3206.08 965.099 3207.99 964.62L3233.88 959.62C3235.56 959.294 3237.31 959.518 3238.85 960.258C3240.4 960.998 3241.67 962.215 3242.47 963.73C3243.97 966.53 3245.57 969.333 3247.27 972.14C3248.17 973.599 3248.58 975.304 3248.46 977.013C3248.33 978.722 3247.67 980.348 3246.57 981.66L3229.28 1001.62C3227.94 1003.05 3227.17 1004.92 3227.11 1006.87C3227.06 1008.83 3227.72 1010.74 3228.98 1012.24L3236.47 1021.24C3237.72 1022.75 3239.49 1023.75 3241.43 1024.03C3243.37 1024.31 3245.35 1023.85 3246.97 1022.75L3269.66 1009.12C3271.12 1008.26 3272.81 1007.88 3274.5 1008.04C3276.19 1008.2 3277.78 1008.89 3279.05 1010.02C3281.45 1012.13 3283.95 1014.23 3286.45 1016.24C3287.78 1017.3 3288.74 1018.75 3289.19 1020.39C3289.64 1022.02 3289.55 1023.76 3288.95 1025.35L3279.55 1050.1C3278.76 1051.9 3278.66 1053.92 3279.27 1055.79C3279.88 1057.65 3281.15 1059.23 3282.85 1060.22L3293.05 1066.13C3294.75 1067.1 3296.75 1067.41 3298.66 1067C3300.58 1066.59 3302.28 1065.5 3303.44 1063.92L3320.23 1043.28C3322.33 1040.68 3325.73 1039.58 3328.43 1040.68C3331.83 1042.08 3334.13 1042.88 3338.33 1044.29C3339.95 1044.82 3341.35 1045.86 3342.34 1047.25C3343.32 1048.63 3343.84 1050.3 3343.82 1052L3343.42 1078.45C3343.3 1080.42 3343.91 1082.36 3345.12 1083.91C3346.34 1085.46 3348.08 1086.51 3350.02 1086.87L3361.61 1088.87C3363.55 1089.21 3365.55 1088.82 3367.22 1087.79C3368.9 1086.75 3370.14 1085.14 3370.71 1083.26L3379.31 1058.26C3379.86 1056.65 3380.92 1055.25 3382.32 1054.28C3383.72 1053.3 3385.39 1052.8 3387.1 1052.85H3396.9C3398.6 1052.81 3400.27 1053.32 3401.67 1054.29C3403.07 1055.26 3404.13 1056.65 3404.69 1058.26L3413.29 1083.26C3413.86 1085.14 3415.1 1086.75 3416.78 1087.79C3418.45 1088.82 3420.45 1089.21 3422.39 1088.87L3433.98 1086.87C3435.92 1086.51 3437.66 1085.46 3438.88 1083.91C3440.09 1082.36 3440.7 1080.42 3440.58 1078.45L3440.18 1052C3440.16 1050.3 3440.68 1048.63 3441.66 1047.25C3442.65 1045.86 3444.05 1044.82 3445.67 1044.29C3449.87 1042.88 3452.67 1041.78 3455.27 1040.78C3457.87 1039.78 3461.07 1039.78 3463.57 1042.88L3480.57 1063.82C3481.74 1065.4 3483.45 1066.5 3485.37 1066.9C3487.29 1067.3 3489.3 1066.98 3491 1066L3501.2 1060.09C3502.91 1059.11 3504.19 1057.54 3504.8 1055.67C3505.41 1053.8 3505.3 1051.77 3504.5 1049.97L3495.1 1025.22C3494.51 1023.63 3494.43 1021.89 3494.88 1020.26C3495.33 1018.62 3496.28 1017.16 3497.6 1016.1C3500.1 1014.1 3502.6 1012 3505 1009.89C3506.27 1008.76 3507.86 1008.07 3509.55 1007.91C3511.24 1007.75 3512.93 1008.13 3514.39 1008.99L3537 1022.66C3538.63 1023.73 3540.6 1024.17 3542.54 1023.9C3544.47 1023.62 3546.24 1022.64 3547.5 1021.15L3554.99 1012.15C3556.25 1010.65 3556.91 1008.74 3556.86 1006.78C3556.8 1004.83 3556.03 1002.96 3554.69 1001.53L3537.4 981.59C3536.28 980.289 3535.6 978.661 3535.47 976.946C3535.35 975.231 3535.78 973.521 3536.7 972.07C3538.4 969.37 3540 966.567 3541.5 963.66C3542.32 962.157 3543.59 960.95 3545.13 960.212C3546.67 959.473 3548.41 959.242 3550.09 959.55L3575.98 964.55C3577.89 965.015 3579.9 964.763 3581.63 963.841C3583.37 962.919 3584.7 961.392 3585.38 959.55L3589.38 948.55C3590.05 946.705 3590.03 944.679 3589.31 942.852C3588.59 941.025 3587.23 939.524 3585.48 938.63L3562.39 925.81C3560.9 924.982 3559.72 923.697 3559.02 922.144C3558.31 920.592 3558.13 918.855 3558.49 917.19C3559.09 913.99 3559.69 910.88 3560.19 907.68C3560.43 905.992 3561.2 904.424 3562.38 903.199C3563.57 901.974 3565.11 901.155 3566.79 900.86L3592.87 896.66C3594.81 896.421 3596.6 895.487 3597.9 894.031C3599.21 892.575 3599.94 890.695 3599.97 888.74V877C3599.86 875.062 3599.07 873.225 3597.74 871.811C3596.41 870.397 3594.63 869.497 3592.7 869.27ZM3392 739C3423.94 738.986 3454.98 749.605 3480.21 769.182C3505.45 788.759 3523.45 816.18 3531.38 847.12C3531.97 849.479 3532.01 851.942 3531.51 854.321C3531 856.701 3529.96 858.933 3528.47 860.85C3526.97 862.766 3525.05 864.316 3522.87 865.382C3520.68 866.448 3518.28 867.001 3515.85 867H3410.61C3407.78 867 3405.01 866.252 3402.56 864.831C3400.12 863.41 3398.1 861.367 3396.7 858.91L3344.6 767.2C3343.39 765.068 3342.68 762.685 3342.53 760.237C3342.39 757.788 3342.81 755.338 3343.76 753.077C3344.71 750.817 3346.17 748.805 3348.03 747.198C3349.88 745.591 3352.08 744.432 3354.45 743.81C3366.71 740.594 3379.33 738.978 3392 739ZM3248 883C3247.98 863.719 3251.84 844.63 3259.33 826.867C3266.83 809.103 3277.82 793.027 3291.65 779.59C3293.4 777.861 3295.52 776.558 3297.85 775.781C3300.18 775.004 3302.66 774.775 3305.09 775.11C3307.53 775.446 3309.85 776.338 3311.88 777.716C3313.92 779.095 3315.61 780.923 3316.82 783.06L3369.06 875C3370.44 877.417 3371.17 880.152 3371.17 882.935C3371.17 885.718 3370.44 888.453 3369.06 890.87L3316.39 982.57C3315.17 984.7 3313.47 986.521 3311.43 987.89C3309.39 989.259 3307.06 990.14 3304.63 990.465C3302.19 990.79 3299.72 990.55 3297.39 989.763C3295.06 988.977 3292.95 987.665 3291.21 985.93C3277.52 972.515 3266.64 956.5 3259.22 938.824C3251.8 921.149 3247.99 902.17 3248 883ZM3392 1027C3379.11 1027.03 3366.27 1025.37 3353.81 1022.05C3351.44 1021.42 3349.24 1020.25 3347.39 1018.64C3345.54 1017.02 3344.09 1015 3343.15 1012.74C3342.21 1010.47 3341.8 1008.02 3341.95 1005.57C3342.11 1003.12 3342.83 1000.74 3344.05 998.61L3396.63 907.06C3398.04 904.624 3400.06 902.602 3402.5 901.198C3404.93 899.793 3407.7 899.056 3410.51 899.06H3515.9C3518.33 899.06 3520.73 899.615 3522.92 900.681C3525.1 901.747 3527.01 903.298 3528.51 905.214C3530.01 907.131 3531.05 909.363 3531.55 911.741C3532.05 914.119 3532.01 916.581 3531.42 918.94C3523.48 949.874 3505.46 977.284 3480.22 996.85C3454.97 1016.41 3423.94 1027.02 3392 1027Z" fill="white"/>
</g>
</g>
<g id="settings">
<rect id="outer_12" x="3136" width="512" height="512" fill="#191919"/>
<g id="cog 1">
<path id="Vector_22" d="M3600 249.93C3599.87 247.435 3598.85 245.067 3597.14 243.248C3595.42 241.429 3593.12 240.275 3590.64 239.99L3565 235.84C3563.85 235.651 3562.79 235.094 3561.97 234.252C3561.16 233.411 3560.65 232.33 3560.5 231.17C3560.01 228.02 3559.5 224.75 3558.8 221.65C3558.57 220.522 3558.71 219.353 3559.18 218.304C3559.65 217.255 3560.44 216.38 3561.43 215.8L3584.21 203.15C3586.47 201.997 3588.23 200.053 3589.15 197.687C3590.08 195.321 3590.1 192.7 3589.21 190.32L3585.26 179.42C3584.39 177.032 3582.68 175.048 3580.44 173.847C3578.2 172.646 3575.6 172.312 3573.13 172.91L3547.58 177.91C3546.44 178.114 3545.26 177.952 3544.21 177.448C3543.17 176.943 3542.31 176.122 3541.76 175.1C3540.27 172.31 3538.65 169.47 3536.96 166.68C3536.35 165.686 3536.06 164.525 3536.14 163.359C3536.22 162.194 3536.66 161.082 3537.4 160.18L3554.4 140.54C3556.13 138.686 3557.12 136.266 3557.19 133.734C3557.26 131.201 3556.41 128.729 3554.79 126.78L3547.37 117.87C3545.76 115.914 3543.47 114.627 3540.96 114.258C3538.46 113.888 3535.9 114.463 3533.79 115.87L3511.42 129.3C3510.43 129.894 3509.27 130.154 3508.12 130.04C3506.97 129.927 3505.89 129.446 3505.03 128.67C3502.56 126.5 3500.03 124.41 3497.66 122.48C3496.75 121.762 3496.09 120.773 3495.78 119.656C3495.47 118.54 3495.53 117.353 3495.94 116.27L3505.2 91.87C3506.21 89.5418 3506.33 86.9244 3505.53 84.5148C3504.74 82.1053 3503.09 80.0716 3500.89 78.8L3490.8 72.91C3488.6 71.6431 3486.02 71.2312 3483.53 71.7534C3481.05 72.2756 3478.85 73.6951 3477.35 75.74L3461 96.28C3460.41 97.1727 3459.53 97.8328 3458.51 98.1467C3457.49 98.4606 3456.39 98.4087 3455.4 98C3454.79 97.75 3449.63 95.64 3445.62 94.3C3444.52 93.9415 3443.56 93.2405 3442.89 92.2994C3442.22 91.3584 3441.86 90.2267 3441.88 89.07L3442.27 63C3442.41 60.4544 3441.62 57.9453 3440.04 55.9425C3438.46 53.9398 3436.21 52.5808 3433.7 52.12L3422.25 50.12C3419.76 49.689 3417.19 50.1783 3415.03 51.4971C3412.87 52.8158 3411.26 54.8743 3410.5 57.29L3402 82.1C3401.61 83.2013 3400.89 84.15 3399.92 84.8069C3398.96 85.4638 3397.81 85.7943 3396.64 85.75H3386.89C3385.73 85.7737 3384.6 85.4318 3383.65 84.7729C3382.69 84.1139 3381.97 83.1716 3381.59 82.08L3373.13 57.41C3372.39 54.9767 3370.78 52.8981 3368.61 51.5636C3366.45 50.229 3363.87 49.73 3361.36 50.16L3349.89 52.16C3347.4 52.6172 3345.16 53.9629 3343.58 55.9473C3342.01 57.9316 3341.21 60.4199 3341.33 62.95L3341.73 89.11C3341.74 90.2841 3341.37 91.4294 3340.67 92.3754C3339.98 93.3214 3338.99 94.0174 3337.87 94.36C3335.58 95.25 3330.61 97.15 3328.35 97.99C3326.35 98.71 3324.17 97.92 3322.41 95.89L3306.15 75.89C3304.66 73.8326 3302.46 72.3994 3299.97 71.8659C3297.49 71.3324 3294.89 71.7363 3292.69 73L3282.63 78.83C3280.41 80.1039 3278.74 82.1544 3277.94 84.5861C3277.15 87.0179 3277.28 89.6588 3278.31 92L3287.56 116.34C3287.96 117.426 3288.02 118.611 3287.71 119.728C3287.41 120.846 3286.76 121.84 3285.86 122.57C3283.43 124.57 3280.94 126.57 3278.46 128.79C3277.61 129.56 3276.53 130.038 3275.39 130.153C3274.25 130.268 3273.1 130.015 3272.11 129.43L3250 115.74C3247.88 114.359 3245.32 113.8 3242.82 114.168C3240.31 114.537 3238.03 115.807 3236.39 117.74L3229 126.63C3227.36 128.566 3226.49 131.039 3226.56 133.576C3226.63 136.113 3227.63 138.535 3229.37 140.38L3246.45 160C3247.21 160.884 3247.66 161.989 3247.74 163.151C3247.82 164.312 3247.53 165.469 3246.9 166.45C3245.19 169.17 3243.56 172.03 3242.08 174.89C3241.53 175.919 3240.66 176.746 3239.61 177.252C3238.56 177.759 3237.37 177.919 3236.22 177.71L3210.71 172.78C3208.24 172.184 3205.64 172.518 3203.4 173.719C3201.16 174.92 3199.44 176.903 3198.57 179.29L3194.57 190.17C3193.69 192.553 3193.71 195.177 3194.63 197.545C3195.55 199.914 3197.31 201.862 3199.57 203.02L3222.35 215.67C3223.37 216.235 3224.19 217.119 3224.67 218.187C3225.14 219.255 3225.26 220.449 3225 221.59L3224.76 222.86C3224.24 225.65 3223.76 228.29 3223.3 231.1C3223.14 232.245 3222.62 233.31 3221.82 234.144C3221.02 234.977 3219.98 235.536 3218.84 235.74L3193.15 239.89C3190.64 240.198 3188.32 241.411 3186.64 243.301C3184.96 245.191 3184.02 247.629 3184 250.16V261.74C3183.99 264.281 3184.91 266.737 3186.61 268.632C3188.3 270.528 3190.63 271.728 3193.16 272L3218.84 276.14C3219.99 276.328 3221.06 276.884 3221.87 277.726C3222.68 278.568 3223.2 279.65 3223.34 280.81C3223.83 283.97 3224.34 287.23 3225.04 290.33C3225.27 291.458 3225.13 292.627 3224.66 293.676C3224.19 294.725 3223.4 295.6 3222.41 296.18L3199.64 308.85C3197.38 310.003 3195.62 311.947 3194.7 314.313C3193.78 316.678 3193.75 319.3 3194.64 321.68L3198.64 332.58C3199.51 334.966 3201.23 336.949 3203.46 338.15C3205.7 339.351 3208.3 339.685 3210.77 339.09L3236.32 334.14C3237.46 333.933 3238.64 334.093 3239.69 334.598C3240.73 335.103 3241.59 335.926 3242.14 336.95C3243.64 339.75 3245.25 342.58 3246.94 345.37C3247.56 346.363 3247.85 347.525 3247.77 348.691C3247.69 349.857 3247.24 350.969 3246.5 351.87L3229.5 371.5C3227.75 373.34 3226.74 375.755 3226.65 378.29C3226.55 380.826 3227.39 383.308 3229 385.27L3236.41 394.18C3238.02 396.138 3240.31 397.426 3242.81 397.796C3245.32 398.165 3247.88 397.589 3249.99 396.18L3272.36 382.75C3273.35 382.156 3274.51 381.896 3275.66 382.01C3276.81 382.123 3277.89 382.603 3278.75 383.38C3281.23 385.55 3283.75 387.64 3286.12 389.57C3287.03 390.288 3287.69 391.277 3288 392.393C3288.31 393.509 3288.26 394.695 3287.85 395.78L3278.58 420.18C3277.57 422.508 3277.45 425.126 3278.25 427.535C3279.04 429.945 3280.69 431.978 3282.89 433.25L3293 439.09C3295.2 440.358 3297.78 440.771 3300.26 440.251C3302.75 439.731 3304.95 438.313 3306.45 436.27L3323 415.92C3324.4 414.19 3326.6 413.42 3328.23 414.08C3331.71 415.52 3334.04 416.33 3338.17 417.71C3339.27 418.069 3340.23 418.77 3340.9 419.711C3341.58 420.652 3341.93 421.783 3341.92 422.94L3341.52 448.99C3341.39 451.535 3342.18 454.042 3343.76 456.043C3345.33 458.045 3347.58 459.405 3350.09 459.87L3361.54 461.87C3364.04 462.305 3366.6 461.818 3368.77 460.499C3370.93 459.179 3372.54 457.118 3373.29 454.7L3381.79 429.93C3382.17 428.828 3382.9 427.878 3383.87 427.221C3384.83 426.564 3385.98 426.234 3387.15 426.28H3396.9C3398.06 426.255 3399.19 426.596 3400.15 427.255C3401.1 427.914 3401.82 428.858 3402.2 429.95L3410.67 454.62C3411.33 456.762 3412.65 458.637 3414.45 459.97C3416.25 461.304 3418.43 462.026 3420.67 462.03C3421.27 462.031 3421.86 461.978 3422.45 461.87L3433.92 459.87C3436.41 459.413 3438.65 458.067 3440.23 456.083C3441.8 454.098 3442.6 451.61 3442.48 449.08L3442.08 422.92C3442.07 421.767 3442.43 420.642 3443.11 419.707C3443.78 418.773 3444.73 418.077 3445.83 417.72C3449.67 416.43 3452.37 415.39 3454.74 414.47L3455.34 414.24C3458.44 413.17 3459.94 414.47 3460.81 415.55L3477.56 436.18C3479.06 438.221 3481.26 439.636 3483.74 440.157C3486.22 440.677 3488.81 440.265 3491 439L3501.07 433.17C3503.27 431.898 3504.93 429.859 3505.72 427.442C3506.52 425.026 3506.4 422.402 3505.38 420.07L3496.14 395.73C3495.73 394.646 3495.68 393.46 3495.98 392.342C3496.28 391.224 3496.93 390.23 3497.83 389.5C3500.26 387.5 3502.75 385.5 3505.23 383.28C3506.09 382.507 3507.17 382.03 3508.32 381.918C3509.47 381.807 3510.62 382.067 3511.61 382.66L3534 396.06C3536.12 397.443 3538.68 398.003 3541.18 397.635C3543.69 397.267 3545.98 395.995 3547.61 394.06L3555.01 385.16C3556.65 383.224 3557.52 380.751 3557.45 378.214C3557.38 375.677 3556.38 373.255 3554.64 371.41L3537.58 351.74C3536.82 350.856 3536.37 349.751 3536.29 348.589C3536.21 347.428 3536.5 346.271 3537.13 345.29C3538.84 342.58 3540.47 339.72 3541.95 336.85C3542.51 335.823 3543.37 334.998 3544.42 334.492C3545.48 333.985 3546.66 333.824 3547.81 334.03L3573.29 339C3575.76 339.596 3578.36 339.262 3580.6 338.061C3582.84 336.86 3584.56 334.877 3585.43 332.49L3589.38 321.61C3590.26 319.229 3590.24 316.606 3589.32 314.239C3588.4 311.873 3586.64 309.927 3584.38 308.77L3561.58 296.1C3560.57 295.529 3559.77 294.648 3559.3 293.587C3558.83 292.526 3558.71 291.342 3558.97 290.21L3559.21 288.94C3559.73 286.15 3560.21 283.51 3560.67 280.7C3560.83 279.555 3561.35 278.49 3562.15 277.656C3562.95 276.823 3563.99 276.264 3565.13 276.06L3590.82 271.92C3593.34 271.616 3595.66 270.405 3597.35 268.512C3599.04 266.62 3599.98 264.177 3600 261.64V249.93ZM3317.55 343.93C3316.3 346.097 3314.56 347.937 3312.47 349.3C3310.37 350.662 3307.98 351.508 3305.49 351.768C3303.01 352.027 3300.5 351.693 3298.16 350.793C3295.83 349.893 3293.75 348.453 3292.08 346.59C3269.55 321.68 3257.11 289.27 3257.19 255.684C3257.27 222.098 3269.86 189.745 3292.5 164.94C3294.18 163.078 3296.27 161.641 3298.61 160.747C3300.95 159.853 3303.47 159.528 3305.96 159.799C3308.45 160.069 3310.84 160.928 3312.93 162.303C3315.03 163.678 3316.76 165.532 3318 167.71L3363.65 248.06C3365.02 250.456 3365.74 253.169 3365.74 255.93C3365.74 258.691 3365.02 261.404 3363.65 263.8L3317.55 343.93ZM3392 391.11C3382.48 391.112 3372.99 390.107 3363.69 388.11C3361.27 387.568 3359 386.464 3357.09 384.885C3355.17 383.306 3353.65 381.298 3352.66 379.022C3351.66 376.747 3351.21 374.27 3351.35 371.79C3351.49 369.31 3352.21 366.899 3353.46 364.75L3399.46 284.75C3400.84 282.339 3402.84 280.337 3405.24 278.944C3407.65 277.552 3410.38 276.819 3413.16 276.82H3505.3C3507.78 276.816 3510.23 277.397 3512.45 278.516C3514.66 279.634 3516.58 281.259 3518.05 283.258C3519.52 285.258 3520.5 287.576 3520.91 290.024C3521.32 292.472 3521.14 294.982 3520.4 297.35C3502.91 351.67 3452 391.11 3392 391.11ZM3399.51 227.21L3354 147.07C3352.77 144.918 3352.06 142.506 3351.93 140.029C3351.8 137.552 3352.26 135.079 3353.26 132.811C3354.26 130.543 3355.79 128.543 3357.71 126.972C3359.63 125.401 3361.89 124.304 3364.31 123.77C3373.42 121.851 3382.7 120.886 3392 120.89C3452 120.89 3502.91 160.33 3520.37 214.68C3521.11 217.048 3521.29 219.558 3520.88 222.006C3520.47 224.454 3519.49 226.772 3518.02 228.772C3516.55 230.771 3514.63 232.396 3512.42 233.514C3510.2 234.633 3507.75 235.214 3505.27 235.21H3413.27C3410.47 235.216 3407.73 234.478 3405.31 233.072C3402.89 231.666 3400.89 229.643 3399.51 227.21Z" fill="white"/>
</g>
</g>
<g id="ellipsis-horizontal-outline">
<rect id="outer_13" x="3763" y="628" width="512" height="512" fill="#191919"/>
<g id="ellipsis-horizontal-outline 1">
<path id="Vector_23" d="M4019 916C4036.67 916 4051 901.673 4051 884C4051 866.327 4036.67 852 4019 852C4001.33 852 3987 866.327 3987 884C3987 901.673 4001.33 916 4019 916Z" stroke="white" stroke-width="32" stroke-miterlimit="10"/>
<path id="Vector_24" d="M4179 916C4196.67 916 4211 901.673 4211 884C4211 866.327 4196.67 852 4179 852C4161.33 852 4147 866.327 4147 884C4147 901.673 4161.33 916 4179 916Z" stroke="white" stroke-width="32" stroke-miterlimit="10"/>
<path id="Vector_25" d="M3859 916C3876.67 916 3891 901.673 3891 884C3891 866.327 3876.67 852 3859 852C3841.33 852 3827 866.327 3827 884C3827 901.673 3841.33 916 3859 916Z" stroke="white" stroke-width="32" stroke-miterlimit="10"/>
</g>
</g>
<g id="ellipsis-horizontal">
<rect id="outer_14" x="3763" y="1" width="512" height="512" fill="#191919"/>
<g id="ellipsis-horizontal 1">
<path id="Vector_26" d="M4019 305C4045.51 305 4067 283.51 4067 257C4067 230.49 4045.51 209 4019 209C3992.49 209 3971 230.49 3971 257C3971 283.51 3992.49 305 4019 305Z" fill="white"/>
<path id="Vector_27" d="M4179 305C4205.51 305 4227 283.51 4227 257C4227 230.49 4205.51 209 4179 209C4152.49 209 4131 230.49 4131 257C4131 283.51 4152.49 305 4179 305Z" fill="white"/>
<path id="Vector_28" d="M3859 305C3885.51 305 3907 283.51 3907 257C3907 230.49 3885.51 209 3859 209C3832.49 209 3811 230.49 3811 257C3811 283.51 3832.49 305 3859 305Z" fill="white"/>
</g>
</g>
<g id="movie-outline">
<rect id="outer_15" x="4390" y="627" width="512" height="512" fill="#191919"/>
<g id="film-outline 1">
<path id="Vector_29" d="M4826 723H4466C4450.54 723 4438 735.536 4438 751V1015C4438 1030.46 4450.54 1043 4466 1043H4826C4841.46 1043 4854 1030.46 4854 1015V751C4854 735.536 4841.46 723 4826 723Z" stroke="white" stroke-width="32" stroke-linejoin="round"/>
<path id="Vector_30" d="M4826 963H4802C4786.54 963 4774 975.536 4774 991V1015C4774 1030.46 4786.54 1043 4802 1043H4826C4841.46 1043 4854 1030.46 4854 1015V991C4854 975.536 4841.46 963 4826 963Z" stroke="white" stroke-width="32" stroke-linejoin="round"/>
<path id="Vector_31" d="M4826 883H4802C4786.54 883 4774 895.536 4774 911V935C4774 950.464 4786.54 963 4802 963H4826C4841.46 963 4854 950.464 4854 935V911C4854 895.536 4841.46 883 4826 883Z" stroke="white" stroke-width="32" stroke-linejoin="round"/>
<path id="Vector_32" d="M4826 803H4802C4786.54 803 4774 815.536 4774 831V855C4774 870.464 4786.54 883 4802 883H4826C4841.46 883 4854 870.464 4854 855V831C4854 815.536 4841.46 803 4826 803Z" stroke="white" stroke-width="32" stroke-linejoin="round"/>
<path id="Vector_33" d="M4826 723H4802C4786.54 723 4774 735.536 4774 751V775C4774 790.464 4786.54 803 4802 803H4826C4841.46 803 4854 790.464 4854 775V751C4854 735.536 4841.46 723 4826 723Z" stroke="white" stroke-width="32" stroke-linejoin="round"/>
<path id="Vector_34" d="M4490 963H4466C4450.54 963 4438 975.536 4438 991V1015C4438 1030.46 4450.54 1043 4466 1043H4490C4505.46 1043 4518 1030.46 4518 1015V991C4518 975.536 4505.46 963 4490 963Z" stroke="white" stroke-width="32" stroke-linejoin="round"/>
<path id="Vector_35" d="M4490 883H4466C4450.54 883 4438 895.536 4438 911V935C4438 950.464 4450.54 963 4466 963H4490C4505.46 963 4518 950.464 4518 935V911C4518 895.536 4505.46 883 4490 883Z" stroke="white" stroke-width="32" stroke-linejoin="round"/>
<path id="Vector_36" d="M4490 803H4466C4450.54 803 4438 815.536 4438 831V855C4438 870.464 4450.54 883 4466 883H4490C4505.46 883 4518 870.464 4518 855V831C4518 815.536 4505.46 803 4490 803Z" stroke="white" stroke-width="32" stroke-linejoin="round"/>
<path id="Vector_37" d="M4490 723H4466C4450.54 723 4438 735.536 4438 751V775C4438 790.464 4450.54 803 4466 803H4490C4505.46 803 4518 790.464 4518 775V751C4518 735.536 4505.46 723 4490 723Z" stroke="white" stroke-width="32" stroke-linejoin="round"/>
<path id="Vector_38" d="M4746 723H4546C4530.54 723 4518 735.536 4518 751V855C4518 870.464 4530.54 883 4546 883H4746C4761.46 883 4774 870.464 4774 855V751C4774 735.536 4761.46 723 4746 723Z" stroke="white" stroke-width="32" stroke-linejoin="round"/>
<path id="Vector_39" d="M4746 883H4546C4530.54 883 4518 895.536 4518 911V1015C4518 1030.46 4530.54 1043 4546 1043H4746C4761.46 1043 4774 1030.46 4774 1015V911C4774 895.536 4761.46 883 4746 883Z" stroke="white" stroke-width="32" stroke-linejoin="round"/>
</g>
</g>
<g id="movie">
<rect id="outer_16" x="4390" width="512" height="512" fill="#191919"/>
<g id="film 1">
<path id="Vector_40" d="M4826 80H4466C4454.33 80.0132 4443.15 84.6532 4434.9 92.9019C4426.65 101.151 4422.01 112.335 4422 124V388C4422.01 399.665 4426.65 410.849 4434.9 419.098C4443.15 427.347 4454.33 431.987 4466 432H4826C4837.67 431.987 4848.85 427.347 4857.1 419.098C4865.35 410.849 4869.99 399.665 4870 388V124C4869.99 112.335 4865.35 101.151 4857.1 92.9019C4848.85 84.6532 4837.67 80.0132 4826 80ZM4502 388C4502 391.183 4500.74 394.235 4498.49 396.485C4496.23 398.736 4493.18 400 4490 400H4466C4462.82 400 4459.77 398.736 4457.51 396.485C4455.26 394.235 4454 391.183 4454 388V364C4454 360.817 4455.26 357.765 4457.51 355.515C4459.77 353.264 4462.82 352 4466 352H4490C4493.18 352 4496.23 353.264 4498.49 355.515C4500.74 357.765 4502 360.817 4502 364V388ZM4502 308C4502 311.183 4500.74 314.235 4498.49 316.485C4496.23 318.736 4493.18 320 4490 320H4466C4462.82 320 4459.77 318.736 4457.51 316.485C4455.26 314.235 4454 311.183 4454 308V284C4454 280.817 4455.26 277.765 4457.51 275.515C4459.77 273.264 4462.82 272 4466 272H4490C4493.18 272 4496.23 273.264 4498.49 275.515C4500.74 277.765 4502 280.817 4502 284V308ZM4502 228C4502 231.183 4500.74 234.235 4498.49 236.485C4496.23 238.736 4493.18 240 4490 240H4466C4462.82 240 4459.77 238.736 4457.51 236.485C4455.26 234.235 4454 231.183 4454 228V204C4454 200.817 4455.26 197.765 4457.51 195.515C4459.77 193.264 4462.82 192 4466 192H4490C4493.18 192 4496.23 193.264 4498.49 195.515C4500.74 197.765 4502 200.817 4502 204V228ZM4502 148C4502 151.183 4500.74 154.235 4498.49 156.485C4496.23 158.736 4493.18 160 4490 160H4466C4462.82 160 4459.77 158.736 4457.51 156.485C4455.26 154.235 4454 151.183 4454 148V124C4454 120.817 4455.26 117.765 4457.51 115.515C4459.77 113.264 4462.82 112 4466 112H4490C4493.18 112 4496.23 113.264 4498.49 115.515C4500.74 117.765 4502 120.817 4502 124V148ZM4743.68 272H4548.32C4544.08 272 4540.01 270.314 4537.01 267.314C4534.01 264.313 4532.32 260.243 4532.32 256C4532.32 251.757 4534.01 247.687 4537.01 244.686C4540.01 241.686 4544.08 240 4548.32 240H4743.68C4747.92 240 4751.99 241.686 4754.99 244.686C4757.99 247.687 4759.68 251.757 4759.68 256C4759.68 260.243 4757.99 264.313 4754.99 267.314C4751.99 270.314 4747.92 272 4743.68 272ZM4838 388C4838 391.183 4836.74 394.235 4834.49 396.485C4832.23 398.736 4829.18 400 4826 400H4802C4798.82 400 4795.77 398.736 4793.51 396.485C4791.26 394.235 4790 391.183 4790 388V364C4790 360.817 4791.26 357.765 4793.51 355.515C4795.77 353.264 4798.82 352 4802 352H4826C4829.18 352 4832.23 353.264 4834.49 355.515C4836.74 357.765 4838 360.817 4838 364V388ZM4838 308C4838 311.183 4836.74 314.235 4834.49 316.485C4832.23 318.736 4829.18 320 4826 320H4802C4798.82 320 4795.77 318.736 4793.51 316.485C4791.26 314.235 4790 311.183 4790 308V284C4790 280.817 4791.26 277.765 4793.51 275.515C4795.77 273.264 4798.82 272 4802 272H4826C4829.18 272 4832.23 273.264 4834.49 275.515C4836.74 277.765 4838 280.817 4838 284V308ZM4838 228C4838 231.183 4836.74 234.235 4834.49 236.485C4832.23 238.736 4829.18 240 4826 240H4802C4798.82 240 4795.77 238.736 4793.51 236.485C4791.26 234.235 4790 231.183 4790 228V204C4790 200.817 4791.26 197.765 4793.51 195.515C4795.77 193.264 4798.82 192 4802 192H4826C4829.18 192 4832.23 193.264 4834.49 195.515C4836.74 197.765 4838 200.817 4838 204V228ZM4838 148C4838 151.183 4836.74 154.235 4834.49 156.485C4832.23 158.736 4829.18 160 4826 160H4802C4798.82 160 4795.77 158.736 4793.51 156.485C4791.26 154.235 4790 151.183 4790 148V124C4790 120.817 4791.26 117.765 4793.51 115.515C4795.77 113.264 4798.82 112 4802 112H4826C4829.18 112 4832.23 113.264 4834.49 115.515C4836.74 117.765 4838 120.817 4838 124V148Z" fill="white"/>
</g>
</g>
<g id="series-outline">
<rect id="outer_17" x="5017" y="627" width="512" height="512" fill="#191919"/>
<g id="easel-outline 1">
<path id="Vector_41" d="M5449 707H5097C5079.33 707 5065 721.327 5065 739V947C5065 964.673 5079.33 979 5097 979H5449C5466.67 979 5481 964.673 5481 947V739C5481 721.327 5466.67 707 5449 707Z" stroke="white" stroke-width="32" stroke-linejoin="round"/>
<path id="Vector_42" d="M5273 1043V979" stroke="white" stroke-width="32" stroke-linecap="round" stroke-linejoin="round"/>
<path id="Vector_43" d="M5273 707V675" stroke="white" stroke-width="32" stroke-linecap="round" stroke-linejoin="round"/>
<path id="Vector_44" d="M5417 1091L5385 979" stroke="white" stroke-width="32" stroke-linecap="round" stroke-linejoin="round"/>
<path id="Vector_45" d="M5129 1091L5161 979" stroke="white" stroke-width="32" stroke-linecap="round" stroke-linejoin="round"/>
</g>
</g>
<g id="series">
<rect id="outer_18" x="5017" width="512" height="512" fill="#191919"/>
<g id="easel 1">
<path id="Vector_46" d="M5437 112H5109C5102.37 112 5097 117.373 5097 124V308C5097 314.627 5102.37 320 5109 320H5437C5443.63 320 5449 314.627 5449 308V124C5449 117.373 5443.63 112 5437 112Z" fill="white"/>
<path id="Vector_47" d="M5449 64H5289V48C5289 43.7565 5287.31 39.6869 5284.31 36.6863C5281.31 33.6857 5277.24 32 5273 32C5268.76 32 5264.69 33.6857 5261.69 36.6863C5258.69 39.6869 5257 43.7565 5257 48V64H5097C5084.27 64.0132 5072.07 69.0746 5063.07 78.0735C5054.07 87.0724 5049.01 99.2737 5049 112V320C5049.01 332.726 5054.07 344.928 5063.07 353.927C5072.07 362.925 5084.27 367.987 5097 368H5139.79L5113.62 459.6C5113 461.633 5112.78 463.771 5112.99 465.888C5113.21 468.004 5113.84 470.057 5114.85 471.927C5115.87 473.797 5117.24 475.446 5118.9 476.777C5120.56 478.108 5122.47 479.095 5124.51 479.68C5126.56 480.265 5128.7 480.437 5130.81 480.184C5132.92 479.932 5134.97 479.261 5136.82 478.211C5138.67 477.16 5140.29 475.752 5141.59 474.067C5142.88 472.383 5143.83 470.456 5144.38 468.4L5173.07 368H5257V416C5257 420.243 5258.69 424.313 5261.69 427.314C5264.69 430.314 5268.76 432 5273 432C5277.24 432 5281.31 430.314 5284.31 427.314C5287.31 424.313 5289 420.243 5289 416V368H5372.93L5401.62 468.4C5402.17 470.456 5403.12 472.383 5404.41 474.067C5405.71 475.752 5407.33 477.16 5409.18 478.211C5411.03 479.261 5413.08 479.932 5415.19 480.184C5417.3 480.437 5419.44 480.265 5421.49 479.68C5423.53 479.095 5425.44 478.108 5427.1 476.777C5428.76 475.446 5430.13 473.797 5431.15 471.927C5432.16 470.057 5432.79 468.004 5433.01 465.888C5433.22 463.771 5433 461.633 5432.38 459.6L5406.21 368H5449C5461.73 367.987 5473.93 362.925 5482.93 353.927C5491.93 344.928 5496.99 332.726 5497 320V112C5496.99 99.2737 5491.93 87.0724 5482.93 78.0735C5473.93 69.0746 5461.73 64.0132 5449 64ZM5465 320C5465 324.243 5463.31 328.313 5460.31 331.314C5457.31 334.314 5453.24 336 5449 336H5097C5092.76 336 5088.69 334.314 5085.69 331.314C5082.69 328.313 5081 324.243 5081 320V112C5081 107.757 5082.69 103.687 5085.69 100.686C5088.69 97.6857 5092.76 96 5097 96H5449C5453.24 96 5457.31 97.6857 5460.31 100.686C5463.31 103.687 5465 107.757 5465 112V320Z" fill="white"/>
</g>
</g>
<g id="channel-outline">
<rect id="outer_19" x="5644" y="628" width="512" height="512" fill="#191919"/>
<g id="tv-outline 1">
<path id="Vector_48" d="M6091.86 724H5708.14C5690.39 724 5676 738.39 5676 756.14V963.86C5676 981.61 5690.39 996 5708.14 996H6091.86C6109.61 996 6124 981.61 6124 963.86V756.14C6124 738.39 6109.61 724 6091.86 724Z" stroke="white" stroke-width="32" stroke-linejoin="round"/>
<path id="Vector_49" d="M5772 1044H6028" stroke="white" stroke-width="32" stroke-miterlimit="10" stroke-linecap="round"/>
</g>
</g>
<g id="channel">
<rect id="outer_20" x="5644" y="1" width="512" height="512" fill="#191919"/>
<g id="tv 1">
<path id="Vector_50" d="M6091.86 385H5708.14C5695.38 384.984 5683.14 379.907 5674.12 370.883C5665.09 361.858 5660.02 349.623 5660 336.86V129.14C5660.02 116.377 5665.09 104.142 5674.12 95.1174C5683.14 86.0929 5695.38 81.0159 5708.14 81H6091.86C6104.62 81.0159 6116.86 86.0929 6125.88 95.1174C6134.91 104.142 6139.98 116.377 6140 129.14V336.86C6139.98 349.623 6134.91 361.858 6125.88 370.883C6116.86 379.907 6104.62 384.984 6091.86 385Z" fill="white"/>
<path id="Vector_51" d="M5772 417H6028" stroke="white" stroke-width="32" stroke-miterlimit="10" stroke-linecap="round"/>
</g>
</g>
<g id="tv-outline">
<rect id="outer_21" x="6271" y="627" width="512" height="512" fill="#191919"/>
<g id="videocam-outline 1">
<path id="Vector_52" d="M6645.79 935.78L6728.5 994C6730.94 995.083 6733.6 995.54 6736.26 995.33C6738.92 995.12 6741.48 994.249 6743.72 992.796C6745.95 991.344 6747.79 989.356 6749.06 987.013C6750.33 984.67 6751 982.046 6751 979.38V786.62C6751 783.954 6750.33 781.33 6749.06 778.987C6747.79 776.644 6745.95 774.656 6743.72 773.204C6741.48 771.751 6738.92 770.88 6736.26 770.67C6733.6 770.46 6730.94 770.917 6728.5 772L6645.79 830.22C6643.69 831.696 6641.98 833.655 6640.8 835.932C6639.62 838.208 6639 840.735 6639 843.3V922.7C6639 925.265 6639.62 927.792 6640.8 930.068C6641.98 932.345 6643.69 934.304 6645.79 935.78Z" stroke="white" stroke-width="32" stroke-linecap="round" stroke-linejoin="round"/>
<path id="Vector_53" d="M6539 1011H6355C6341.22 1010.96 6328.02 1005.47 6318.27 995.726C6308.53 985.983 6303.04 972.779 6303 959V807C6303.04 793.221 6308.53 780.017 6318.27 770.274C6328.02 760.531 6341.22 755.04 6355 755H6539.48C6553.13 755.042 6566.21 760.484 6575.86 770.136C6585.52 779.789 6590.96 792.869 6591 806.52V959C6590.96 972.779 6585.47 985.983 6575.73 995.726C6565.98 1005.47 6552.78 1010.96 6539 1011Z" stroke="white" stroke-width="32" stroke-miterlimit="10"/>
</g>
</g>
<g id="tv">
<rect id="outer_22" x="6271" width="512" height="512" fill="#191919"/>
<g id="videocam 1">
<path id="Vector_54" d="M6735 384.39C6730.52 384.387 6726.09 383.443 6722 381.62C6721.05 381.197 6720.14 380.682 6719.29 380.08L6636.58 321.86C6632.39 318.907 6628.96 314.989 6626.6 310.437C6624.24 305.884 6623 300.83 6623 295.7V216.3C6623 211.17 6624.24 206.116 6626.6 201.563C6628.96 197.011 6632.39 193.093 6636.58 190.14L6719.29 131.92C6720.14 131.318 6721.05 130.803 6722 130.38C6726.87 128.214 6732.21 127.3 6737.52 127.72C6742.84 128.14 6747.96 129.882 6752.44 132.787C6756.91 135.693 6760.58 139.669 6763.12 144.355C6765.67 149.041 6767 154.288 6767 159.62V352.38C6767 360.867 6763.63 369.006 6757.63 375.007C6751.63 381.009 6743.49 384.38 6735 384.38V384.39Z" fill="white"/>
<path id="Vector_55" d="M6539 400H6355C6336.97 399.981 6319.69 392.811 6306.94 380.063C6294.19 367.314 6287.02 350.029 6287 332V180C6287.02 161.971 6294.19 144.686 6306.94 131.937C6319.69 119.189 6336.97 112.019 6355 112H6539.48C6557.38 112.021 6574.54 119.142 6587.2 131.8C6599.86 144.457 6606.98 161.619 6607 179.52V332C6606.98 350.029 6599.81 367.314 6587.06 380.063C6574.31 392.811 6557.03 399.981 6539 400Z" fill="white"/>
</g>
</g>
<g id="back-outline">
<rect id="outer_23" x="6898" y="627" width="512" height="512" fill="#191919"/>
<g id="chevron-back-outline 1">
<path id="Vector_56" d="M7226 739L7082 883L7226 1027" stroke="white" stroke-width="48" stroke-linecap="round" stroke-linejoin="round"/>
</g>
</g>
<g id="back">
<rect id="outer_24" x="6898" width="512" height="512" fill="#191919"/>
<g id="chevron-back 1">
<path id="Vector_57" d="M7226 112L7082 256L7226 400" stroke="white" stroke-width="48" stroke-linecap="round" stroke-linejoin="round"/>
</g>
</g>
</g>
</svg>
