<svg width="10544" height="1140" viewBox="0 0 10544 1140" fill="none" xmlns="http://www.w3.org/2000/svg">
<g id="stremio-icons">
<g id="symbol">
<rect id="outer" y="16" width="512" height="512" fill="#191919"/>
<g id="symbol_2">
<path id="Subtract" fill-rule="evenodd" clip-rule="evenodd" d="M267.1 68.6863C260.852 62.4379 250.721 62.4379 244.473 68.6863L52.6863 260.473C46.4379 266.721 46.4379 276.852 52.6863 283.1L244.473 474.886C250.721 481.135 260.852 481.135 267.1 474.886L458.886 283.1C465.135 276.852 465.135 266.721 458.886 260.473L267.1 68.6863ZM327.404 281.175C333.67 276.797 333.67 267.52 327.404 263.142L242.86 204.063C235.568 198.967 225.559 204.184 225.559 213.079V331.237C225.559 340.133 235.568 345.349 242.86 340.254L327.404 281.175Z" fill="white"/>
</g>
</g>
<g id="search-outline">
<rect id="outer_2" x="627" y="627" width="512" height="512" fill="#191919"/>
<g id="search-outline 1">
<path id="Vector" d="M848.09 691C817.02 691 786.649 700.213 760.815 717.474C734.982 734.736 714.847 759.27 702.958 787.974C691.068 816.679 687.957 848.264 694.018 878.737C700.08 909.209 715.041 937.2 737.011 959.169C758.98 981.139 786.971 996.1 817.443 1002.16C847.916 1008.22 879.501 1005.11 908.206 993.222C936.91 981.332 961.444 961.198 978.706 935.365C995.967 909.531 1005.18 879.159 1005.18 848.09C1005.18 806.428 988.626 766.473 959.166 737.014C929.707 707.554 889.752 691.003 848.09 691Z" stroke="white" stroke-width="32" stroke-miterlimit="10"/>
<path id="Vector_2" d="M965.29 965.29L1075 1075" stroke="white" stroke-width="32" stroke-miterlimit="10" stroke-linecap="round"/>
</g>
</g>
<g id="search">
<rect id="outer_3" x="627" width="512" height="512" fill="#191919"/>
<g id="search 1">
<path id="Vector_3" d="M1083.69 437.39L989.6 343.3C1012.25 313.143 1024.48 276.437 1024.44 238.72C1024.44 142.38 946.06 64 849.72 64C753.38 64 675 142.38 675 238.72C675 335.06 753.38 413.44 849.72 413.44C887.437 413.481 924.143 401.253 954.3 378.6L1048.39 472.69C1053.15 476.948 1059.36 479.22 1065.75 479.042C1072.14 478.863 1078.21 476.246 1082.73 471.729C1087.25 467.212 1089.86 461.137 1090.04 454.751C1090.22 448.365 1087.95 442.153 1083.69 437.39ZM724.92 238.72C724.92 214.037 732.239 189.908 745.953 169.385C759.666 148.862 779.157 132.866 801.961 123.42C824.765 113.974 849.858 111.503 874.067 116.318C898.276 121.133 920.513 133.019 937.967 150.473C955.421 167.927 967.307 190.164 972.122 214.373C976.937 238.582 974.466 263.675 965.02 286.479C955.574 309.283 939.578 328.774 919.055 342.487C898.532 356.201 874.403 363.52 849.72 363.52C816.633 363.48 784.913 350.319 761.517 326.923C738.121 303.527 724.96 271.807 724.92 238.72Z" fill="white"/>
</g>
</g>
<g id="home-outline">
<rect id="outer_4" x="1254" y="627" width="512" height="512" fill="#191919"/>
<g id="home-outline 1">
<path id="Vector_4" d="M1334 839V1075C1334 1079.24 1335.69 1083.31 1338.69 1086.31C1341.69 1089.31 1345.76 1091 1350 1091H1446V955C1446 948.635 1448.53 942.53 1453.03 938.029C1457.53 933.529 1463.63 931 1470 931H1550C1556.37 931 1562.47 933.529 1566.97 938.029C1571.47 942.53 1574 948.635 1574 955V1091H1670C1674.24 1091 1678.31 1089.31 1681.31 1086.31C1684.31 1083.31 1686 1079.24 1686 1075V839" stroke="white" stroke-width="32" stroke-linecap="round" stroke-linejoin="round"/>
<path id="Vector_5" d="M1734 883L1520.89 679C1515.89 673.72 1504.2 673.66 1499.11 679L1286 883" stroke="white" stroke-width="32" stroke-linecap="round" stroke-linejoin="round"/>
<path id="Vector_6" d="M1654 806V691H1606V760" stroke="white" stroke-width="32" stroke-linecap="round" stroke-linejoin="round"/>
</g>
</g>
<g id="home">
<rect id="outer_5" x="1254" width="512" height="512" fill="#191919"/>
<g id="home 2">
<path id="Vector_7" d="M1515.56 101.28C1514.07 99.8558 1512.09 99.0609 1510.03 99.0609C1507.97 99.0609 1505.99 99.8558 1504.5 101.28L1320.4 277.15C1319.62 277.898 1319 278.797 1318.57 279.792C1318.15 280.787 1317.93 281.858 1317.93 282.94L1317.9 448C1317.9 456.487 1321.27 464.626 1327.27 470.627C1333.27 476.629 1341.41 480 1349.9 480H1446C1450.24 480 1454.31 478.314 1457.31 475.314C1460.31 472.313 1462 468.243 1462 464V328C1462 325.878 1462.84 323.843 1464.34 322.343C1465.84 320.843 1467.88 320 1470 320H1550C1552.12 320 1554.16 320.843 1555.66 322.343C1557.16 323.843 1558 325.878 1558 328V464C1558 468.243 1559.69 472.313 1562.69 475.314C1565.69 478.314 1569.76 480 1574 480H1670.06C1678.55 480 1686.69 476.629 1692.69 470.627C1698.69 464.626 1702.06 456.487 1702.06 448V282.94C1702.06 281.858 1701.84 280.787 1701.42 279.792C1700.99 278.797 1700.37 277.898 1699.59 277.15L1515.56 101.28Z" fill="white"/>
<path id="Vector_8" d="M1744.91 244.15L1670.11 172.59V64C1670.11 59.7565 1668.42 55.6869 1665.42 52.6863C1662.42 49.6857 1658.35 48 1654.11 48H1606.11C1601.87 48 1597.8 49.6857 1594.8 52.6863C1591.8 55.6869 1590.11 59.7565 1590.11 64V96L1532.19 40.62C1526.77 35.14 1518.71 32 1510 32C1501.32 32 1493.28 35.14 1487.86 40.63L1275.16 244.13C1268.94 250.13 1268.16 260 1273.82 266.5C1275.24 268.141 1276.98 269.475 1278.93 270.422C1280.89 271.368 1283.01 271.908 1285.18 272.007C1287.35 272.106 1289.52 271.763 1291.55 270.999C1293.58 270.234 1295.43 269.064 1297 267.56L1504.5 69.28C1505.99 67.8558 1507.97 67.0609 1510.03 67.0609C1512.09 67.0609 1514.07 67.8558 1515.56 69.28L1723.08 267.56C1726.14 270.491 1730.23 272.091 1734.47 272.009C1738.7 271.926 1742.73 270.168 1745.67 267.12C1751.81 260.76 1751.3 250.26 1744.91 244.15Z" fill="white"/>
</g>
</g>
<g id="discover-outline">
<rect id="outer_6" x="1881" y="627" width="512" height="512" fill="#191919"/>
<g id="compass-outline 1">
<path id="Vector_9" d="M2329 883C2329 777 2243 691 2137 691C2031 691 1945 777 1945 883C1945 989 2031 1075 2137 1075C2243 1075 2329 989 2329 883Z" stroke="white" stroke-width="32" stroke-miterlimit="10"/>
<path id="Vector_10" d="M2231.67 777.93L2114.47 824.81C2106.42 828.029 2099.11 832.85 2092.98 838.98C2086.85 845.109 2082.03 852.421 2078.81 860.47L2031.93 977.67C2031.35 979.124 2031.21 980.716 2031.52 982.251C2031.83 983.785 2032.59 985.192 2033.7 986.3C2034.81 987.407 2036.22 988.165 2037.75 988.48C2039.28 988.794 2040.88 988.652 2042.33 988.07L2159.53 941.19C2167.58 937.971 2174.89 933.15 2181.02 927.02C2187.15 920.891 2191.97 913.579 2195.19 905.53L2242.07 788.33C2242.65 786.876 2242.79 785.284 2242.48 783.75C2242.17 782.216 2241.41 780.808 2240.3 779.7C2239.19 778.593 2237.78 777.835 2236.25 777.52C2234.72 777.206 2233.12 777.348 2231.67 777.93ZM2137 907C2132.25 907 2127.61 905.592 2123.67 902.955C2119.72 900.318 2116.64 896.57 2114.83 892.184C2113.01 887.799 2112.54 882.973 2113.46 878.318C2114.39 873.662 2116.67 869.386 2120.03 866.029C2123.39 862.673 2127.66 860.387 2132.32 859.461C2136.97 858.535 2141.8 859.01 2146.18 860.827C2150.57 862.643 2154.32 865.72 2156.96 869.666C2159.59 873.613 2161 878.253 2161 883C2161 889.365 2158.47 895.47 2153.97 899.971C2149.47 904.471 2143.37 907 2137 907Z" fill="white"/>
</g>
</g>
<g id="discover">
<rect id="outer_7" x="1881" width="512" height="512" fill="#191919"/>
<g id="compass 2">
<path id="Vector_11" d="M2137 280C2150.25 280 2161 269.255 2161 256C2161 242.745 2150.25 232 2137 232C2123.75 232 2113 242.745 2113 256C2113 269.255 2123.75 280 2137 280Z" fill="white"/>
<path id="Vector_12" d="M2137 48C2022.31 48 1929 141.31 1929 256C1929 370.69 2022.31 464 2137 464C2251.69 464 2345 370.69 2345 256C2345 141.31 2251.69 48 2137 48ZM2242.07 161.33L2195.19 278.53C2191.97 286.579 2187.15 293.891 2181.02 300.02C2174.89 306.15 2167.58 310.971 2159.53 314.19L2042.33 361.07C2040.88 361.652 2039.28 361.794 2037.75 361.48C2036.22 361.165 2034.81 360.407 2033.7 359.3C2032.59 358.192 2031.83 356.785 2031.52 355.25C2031.21 353.716 2031.35 352.124 2031.93 350.67L2078.81 233.47C2082.03 225.421 2086.85 218.109 2092.98 211.98C2099.11 205.85 2106.42 201.029 2114.47 197.81L2231.67 150.93C2233.12 150.348 2234.72 150.206 2236.25 150.52C2237.78 150.835 2239.19 151.593 2240.3 152.7C2241.41 153.808 2242.17 155.215 2242.48 156.75C2242.79 158.284 2242.65 159.876 2242.07 161.33Z" fill="white"/>
</g>
</g>
<g id="library-outline">
<rect id="outer_8" x="2508" y="628" width="512" height="512" fill="#191919"/>
<g id="albums-outline 1">
<path id="Vector_13" d="M2927.13 804H2600.87C2584.93 804 2572 816.926 2572 832.87V1031.13C2572 1047.07 2584.93 1060 2600.87 1060H2927.13C2943.07 1060 2956 1047.07 2956 1031.13V832.87C2956 816.926 2943.07 804 2927.13 804Z" stroke="white" stroke-width="32" stroke-linejoin="round"/>
<path id="Vector_14" d="M2652 708H2876" stroke="white" stroke-width="32" stroke-miterlimit="10" stroke-linecap="round"/>
<path id="Vector_15" d="M2620 756H2908" stroke="white" stroke-width="32" stroke-miterlimit="10" stroke-linecap="round"/>
</g>
</g>
<g id="library">
<rect id="outer_9" x="2508" y="1" width="512" height="512" fill="#191919"/>
<g id="albums 2">
<path id="Vector_16" d="M2876 97H2652C2647.76 97 2643.69 95.3143 2640.69 92.3137C2637.69 89.3131 2636 85.2435 2636 81C2636 76.7565 2637.69 72.6869 2640.69 69.6863C2643.69 66.6857 2647.76 65 2652 65H2876C2880.24 65 2884.31 66.6857 2887.31 69.6863C2890.31 72.6869 2892 76.7565 2892 81C2892 85.2435 2890.31 89.3131 2887.31 92.3137C2884.31 95.3143 2880.24 97 2876 97Z" fill="white"/>
<path id="Vector_17" d="M2908 145H2620C2615.76 145 2611.69 143.314 2608.69 140.314C2605.69 137.313 2604 133.243 2604 129C2604 124.757 2605.69 120.687 2608.69 117.686C2611.69 114.686 2615.76 113 2620 113H2908C2912.24 113 2916.31 114.686 2919.31 117.686C2922.31 120.687 2924 124.757 2924 129C2924 133.243 2922.31 137.313 2919.31 140.314C2916.31 143.314 2912.24 145 2908 145Z" fill="white"/>
<path id="Vector_18" d="M2927.13 449H2600.87C2588.97 448.987 2577.57 444.255 2569.16 435.843C2560.74 427.431 2556.01 416.026 2556 404.13V205.87C2556.01 193.974 2560.74 182.569 2569.16 174.157C2577.57 165.745 2588.97 161.013 2600.87 161H2927.13C2939.03 161.013 2950.43 165.745 2958.84 174.157C2967.26 182.569 2971.99 193.974 2972 205.87V404.13C2971.99 416.026 2967.26 427.431 2958.84 435.843C2950.43 444.255 2939.03 448.987 2927.13 449Z" fill="white"/>
</g>
</g>
<g id="addons-outline">
<rect id="outer_10" x="3135" y="628" width="512" height="512" fill="#191919"/>
<g id="extension-puzzle-outline 1">
<path id="Vector_19" d="M3548.66 874.1H3521C3520.47 874.1 3519.96 873.889 3519.59 873.514C3519.21 873.139 3519 872.63 3519 872.1V794.86C3519 784.554 3514.91 774.669 3507.62 767.382C3500.33 760.094 3490.45 756 3480.14 756H3402.9C3402.37 756 3401.86 755.789 3401.49 755.414C3401.11 755.039 3400.9 754.53 3400.9 754V726.34C3400.9 699.2 3379.4 676.48 3352.26 676.01C3345.68 675.894 3339.15 677.09 3333.04 679.526C3326.93 681.962 3321.37 685.59 3316.68 690.199C3311.99 694.807 3308.26 700.304 3305.72 706.369C3303.17 712.433 3301.86 718.943 3301.86 725.52V754C3301.86 754.53 3301.65 755.039 3301.27 755.414C3300.9 755.789 3300.39 756 3299.86 756H3222.62C3212.12 756.032 3202.06 760.216 3194.64 767.639C3187.22 775.063 3183.03 785.122 3183 795.62V866C3183 866.53 3183.21 867.039 3183.59 867.414C3183.96 867.789 3184.47 868 3185 868H3211.91C3241.28 868 3265.59 893.48 3266 922.85C3266.42 952.72 3242.49 980 3212.71 980H3185C3184.47 980 3183.96 980.211 3183.59 980.586C3183.21 980.961 3183 981.47 3183 982V1052.38C3183.03 1062.88 3187.22 1072.94 3194.64 1080.36C3202.06 1087.78 3212.12 1091.97 3222.62 1092H3293C3293.53 1092 3294.04 1091.79 3294.41 1091.41C3294.79 1091.04 3295 1090.53 3295 1090V1069.07C3295 1038.79 3319.75 1012.72 3350 1012.01C3380.1 1011.31 3407 1032.32 3407 1062.29V1090C3407 1090.53 3407.21 1091.04 3407.59 1091.41C3407.96 1091.79 3408.47 1092 3409 1092H3480.14C3490.45 1092 3500.33 1087.91 3507.62 1080.62C3514.91 1073.33 3519 1063.45 3519 1053.14V975.14C3519 974.61 3519.21 974.101 3519.59 973.726C3519.96 973.351 3520.47 973.14 3521 973.14H3549.48C3577.11 973.14 3599 950.47 3599 922.74C3599 895.01 3575.8 874.1 3548.66 874.1Z" stroke="white" stroke-width="32" stroke-linecap="round" stroke-linejoin="round"/>
</g>
</g>
<g id="addons">
<rect id="outer_11" x="3135" y="1" width="512" height="512" fill="#191919"/>
<g id="extension-puzzle 1">
<path id="Vector_20" d="M3480.14 481H3409C3404.23 481 3399.65 479.104 3396.27 475.728C3392.9 472.352 3391 467.774 3391 463V435.29C3391.01 431.034 3390.16 426.82 3388.49 422.905C3386.82 418.99 3384.37 415.456 3381.29 412.52C3373.51 404.93 3362.21 400.72 3350.4 401.01C3329.04 401.51 3311 420.31 3311 442.07V463C3311 467.774 3309.1 472.352 3305.73 475.728C3302.35 479.104 3297.77 481 3293 481H3222.62C3215.32 481 3208.08 479.561 3201.34 476.766C3194.59 473.971 3188.46 469.874 3183.29 464.709C3172.86 454.278 3167 440.131 3167 425.38V355C3167 350.226 3168.9 345.648 3172.27 342.272C3175.65 338.896 3180.23 337 3185 337H3212.71C3221.87 337 3230.78 333.08 3237.8 326C3241.71 322.063 3244.79 317.393 3246.89 312.258C3248.98 307.123 3250.04 301.625 3250 296.08C3249.7 274.89 3232.26 257 3211.91 257H3185C3180.23 257 3175.65 255.104 3172.27 251.728C3168.9 248.352 3167 243.774 3167 239V168.62C3167 161.316 3168.44 154.083 3171.23 147.335C3174.03 140.587 3178.13 134.455 3183.29 129.291C3193.72 118.86 3207.87 113 3222.62 113H3277.86C3279.98 113 3282.02 112.157 3283.52 110.657C3285.02 109.157 3285.86 107.122 3285.86 105V98.52C3285.86 89.8176 3287.59 81.2025 3290.96 73.1773C3294.32 65.1521 3299.25 57.8776 3305.46 51.7784C3311.67 45.6791 3319.03 40.8773 3327.11 37.6532C3335.19 34.4291 3343.84 32.8472 3352.54 33C3388.03 33.62 3416.9 63.38 3416.9 99.33V105C3416.9 107.122 3417.74 109.157 3419.24 110.657C3420.74 112.157 3422.78 113 3424.9 113H3480.14C3487.34 113 3494.48 114.419 3501.13 117.176C3507.79 119.933 3513.84 123.974 3518.93 129.068C3524.03 134.162 3528.07 140.21 3530.82 146.866C3533.58 153.522 3535 160.656 3535 167.86V223.1C3535 225.222 3535.84 227.257 3537.34 228.757C3538.84 230.257 3540.88 231.1 3543 231.1H3548.66C3585.24 231.1 3615 260.1 3615 295.74C3615 332.35 3585.61 362.14 3549.48 362.14H3543C3540.88 362.14 3538.84 362.983 3537.34 364.483C3535.84 365.983 3535 368.018 3535 370.14V426.14C3535 433.344 3533.58 440.478 3530.82 447.134C3528.07 453.79 3524.03 459.838 3518.93 464.932C3513.84 470.026 3507.79 474.067 3501.13 476.824C3494.48 479.581 3487.34 481 3480.14 481Z" fill="white"/>
</g>
</g>
<g id="settings-outline">
<rect id="outer_12" x="3762" y="627" width="512" height="512" fill="#191919"/>
<g id="cog-outline 1">
<path id="Vector_21" d="M4218.7 869.27L4192.62 865.07C4190.94 864.786 4189.39 863.972 4188.2 862.744C4187.01 861.517 4186.25 859.942 4186.02 858.25C4185.52 855.05 4185.02 851.84 4184.32 848.74C4183.98 847.076 4184.18 845.347 4184.88 843.799C4185.58 842.252 4186.75 840.965 4188.22 840.12L4211.31 827.3C4213.06 826.406 4214.42 824.905 4215.14 823.078C4215.86 821.251 4215.88 819.225 4215.21 817.38L4211.21 806.38C4210.54 804.53 4209.21 802.995 4207.47 802.071C4205.74 801.147 4203.72 800.901 4201.81 801.38L4175.92 806.38C4174.24 806.706 4172.49 806.482 4170.95 805.742C4169.4 805.002 4168.13 803.785 4167.33 802.27C4165.83 799.47 4164.23 796.667 4162.53 793.86C4161.63 792.401 4161.22 790.696 4161.34 788.987C4161.47 787.278 4162.13 785.652 4163.23 784.34L4180.52 764.4C4181.86 762.973 4182.63 761.104 4182.69 759.147C4182.74 757.19 4182.08 755.28 4180.82 753.78L4173.33 744.78C4172.08 743.266 4170.31 742.273 4168.37 741.994C4166.43 741.714 4164.45 742.169 4162.83 743.27L4140.14 756.9C4138.68 757.764 4136.99 758.143 4135.3 757.981C4133.61 757.819 4132.02 757.126 4130.75 756C4128.35 753.89 4125.85 751.79 4123.35 749.78C4122.02 748.724 4121.06 747.271 4120.61 745.633C4120.16 743.996 4120.25 742.257 4120.85 740.67L4130.25 715.92C4131.05 714.124 4131.16 712.097 4130.56 710.225C4129.96 708.353 4128.69 706.767 4127 705.77L4116.8 699.86C4115.1 698.893 4113.1 698.584 4111.19 698.992C4109.27 699.399 4107.57 700.494 4106.41 702.07L4089.77 722.91C4088.84 724.222 4087.5 725.182 4085.95 725.635C4084.41 726.089 4082.76 726.009 4081.27 725.41C4081.27 725.41 4075.67 723.11 4071.47 721.7C4069.86 721.163 4068.46 720.128 4067.48 718.743C4066.49 717.359 4065.98 715.698 4066 714L4066.4 687.55C4066.52 685.583 4065.91 683.64 4064.7 682.089C4063.48 680.538 4061.74 679.485 4059.8 679.13L4048.21 677.13C4046.27 676.794 4044.27 677.179 4042.6 678.212C4040.92 679.245 4039.68 680.856 4039.11 682.74L4030.51 707.79C4029.96 709.405 4028.9 710.801 4027.5 711.774C4026.1 712.747 4024.43 713.247 4022.72 713.2H4012.92C4011.22 713.236 4009.55 712.732 4008.15 711.76C4006.75 710.788 4005.69 709.399 4005.13 707.79L3996.53 682.74C3995.96 680.856 3994.72 679.245 3993.04 678.212C3991.37 677.179 3989.37 676.794 3987.43 677.13L3975.84 679.13C3973.9 679.485 3972.16 680.538 3970.94 682.089C3969.73 683.64 3969.12 685.583 3969.24 687.55L3969.64 714C3969.66 715.702 3969.14 717.367 3968.16 718.754C3967.17 720.141 3965.77 721.176 3964.15 721.71C3961.85 722.61 3956.85 724.52 3954.45 725.42C3951.65 726.42 3948.35 725.62 3945.65 722.51L3929.14 702.17C3927.97 700.601 3926.27 699.514 3924.36 699.114C3922.44 698.714 3920.45 699.029 3918.75 700L3908.55 705.91C3906.85 706.888 3905.58 708.46 3904.97 710.322C3904.36 712.185 3904.46 714.207 3905.25 716L3914.65 740.75C3915.24 742.338 3915.32 744.074 3914.87 745.71C3914.43 747.345 3913.47 748.798 3912.15 749.86C3909.65 751.86 3907.15 753.97 3904.75 756.08C3903.48 757.206 3901.89 757.899 3900.2 758.061C3898.51 758.223 3896.82 757.844 3895.36 756.98L3873 743.14C3871.37 742.066 3869.4 741.626 3867.46 741.904C3865.53 742.183 3863.76 743.159 3862.5 744.65L3855.01 753.65C3853.75 755.15 3853.09 757.06 3853.14 759.017C3853.2 760.974 3853.97 762.843 3855.31 764.27L3872.6 784.21C3873.72 785.511 3874.4 787.139 3874.53 788.854C3874.65 790.569 3874.22 792.279 3873.3 793.73C3871.6 796.397 3870 799.2 3868.5 802.14C3867.68 803.643 3866.41 804.85 3864.87 805.589C3863.33 806.327 3861.59 806.558 3859.91 806.25L3834.02 801.25C3832.11 800.785 3830.1 801.037 3828.37 801.959C3826.63 802.881 3825.3 804.408 3824.62 806.25L3820.62 817.25C3819.95 819.095 3819.97 821.121 3820.69 822.948C3821.41 824.775 3822.77 826.276 3824.52 827.17L3847.58 840C3849.07 840.828 3850.25 842.113 3850.95 843.666C3851.66 845.218 3851.84 846.955 3851.48 848.62C3850.88 851.82 3850.28 854.93 3849.78 858.13C3849.54 859.818 3848.77 861.386 3847.59 862.611C3846.4 863.836 3844.86 864.655 3843.18 864.95L3817.1 869.15C3815.16 869.389 3813.37 870.323 3812.07 871.779C3810.76 873.235 3810.03 875.115 3810 877.07V888.79C3809.98 890.76 3810.69 892.667 3812.01 894.133C3813.32 895.6 3815.14 896.52 3817.1 896.71L3843.18 900.91C3844.86 901.194 3846.41 902.008 3847.6 903.236C3848.79 904.463 3849.55 906.038 3849.78 907.73C3850.28 910.93 3850.78 914.14 3851.48 917.24C3851.82 918.904 3851.62 920.633 3850.92 922.181C3850.22 923.728 3849.05 925.015 3847.58 925.86L3824.49 938.7C3822.74 939.594 3821.38 941.095 3820.66 942.922C3819.94 944.749 3819.92 946.775 3820.59 948.62L3824.59 959.62C3825.26 961.47 3826.59 963.005 3828.33 963.929C3830.06 964.853 3832.08 965.099 3833.99 964.62L3859.88 959.62C3861.56 959.294 3863.31 959.518 3864.85 960.258C3866.4 960.998 3867.67 962.215 3868.47 963.73C3869.97 966.53 3871.57 969.333 3873.27 972.14C3874.17 973.599 3874.58 975.304 3874.46 977.013C3874.33 978.722 3873.67 980.348 3872.57 981.66L3855.28 1001.62C3853.94 1003.05 3853.17 1004.92 3853.11 1006.87C3853.06 1008.83 3853.72 1010.74 3854.98 1012.24L3862.47 1021.24C3863.72 1022.75 3865.49 1023.75 3867.43 1024.03C3869.37 1024.31 3871.35 1023.85 3872.97 1022.75L3895.66 1009.12C3897.12 1008.26 3898.81 1007.88 3900.5 1008.04C3902.19 1008.2 3903.78 1008.89 3905.05 1010.02C3907.45 1012.13 3909.95 1014.23 3912.45 1016.24C3913.78 1017.3 3914.74 1018.75 3915.19 1020.39C3915.64 1022.02 3915.55 1023.76 3914.95 1025.35L3905.55 1050.1C3904.76 1051.9 3904.66 1053.92 3905.27 1055.79C3905.88 1057.65 3907.15 1059.23 3908.85 1060.22L3919.05 1066.13C3920.75 1067.1 3922.75 1067.41 3924.66 1067C3926.58 1066.59 3928.28 1065.5 3929.44 1063.92L3946.23 1043.28C3948.33 1040.68 3951.73 1039.58 3954.43 1040.68C3957.83 1042.08 3960.13 1042.88 3964.33 1044.29C3965.95 1044.82 3967.35 1045.86 3968.34 1047.25C3969.32 1048.63 3969.84 1050.3 3969.82 1052L3969.42 1078.45C3969.3 1080.42 3969.91 1082.36 3971.12 1083.91C3972.34 1085.46 3974.08 1086.51 3976.02 1086.87L3987.61 1088.87C3989.55 1089.21 3991.55 1088.82 3993.22 1087.79C3994.9 1086.75 3996.14 1085.14 3996.71 1083.26L4005.31 1058.26C4005.86 1056.65 4006.92 1055.25 4008.32 1054.28C4009.72 1053.3 4011.39 1052.8 4013.1 1052.85H4022.9C4024.6 1052.81 4026.27 1053.32 4027.67 1054.29C4029.07 1055.26 4030.13 1056.65 4030.69 1058.26L4039.29 1083.26C4039.86 1085.14 4041.1 1086.75 4042.78 1087.79C4044.45 1088.82 4046.45 1089.21 4048.39 1088.87L4059.98 1086.87C4061.92 1086.51 4063.66 1085.46 4064.88 1083.91C4066.09 1082.36 4066.7 1080.42 4066.58 1078.45L4066.18 1052C4066.16 1050.3 4066.68 1048.63 4067.66 1047.25C4068.65 1045.86 4070.05 1044.82 4071.67 1044.29C4075.87 1042.88 4078.67 1041.78 4081.27 1040.78C4083.87 1039.78 4087.07 1039.78 4089.57 1042.88L4106.57 1063.82C4107.74 1065.4 4109.45 1066.5 4111.37 1066.9C4113.29 1067.3 4115.3 1066.98 4117 1066L4127.2 1060.09C4128.91 1059.11 4130.19 1057.54 4130.8 1055.67C4131.41 1053.8 4131.3 1051.77 4130.5 1049.97L4121.1 1025.22C4120.51 1023.63 4120.43 1021.89 4120.88 1020.26C4121.33 1018.62 4122.28 1017.16 4123.6 1016.1C4126.1 1014.1 4128.6 1012 4131 1009.89C4132.27 1008.76 4133.86 1008.07 4135.55 1007.91C4137.24 1007.75 4138.93 1008.13 4140.39 1008.99L4163 1022.66C4164.63 1023.73 4166.6 1024.17 4168.54 1023.9C4170.47 1023.62 4172.24 1022.64 4173.5 1021.15L4180.99 1012.15C4182.25 1010.65 4182.91 1008.74 4182.86 1006.78C4182.8 1004.83 4182.03 1002.96 4180.69 1001.53L4163.4 981.59C4162.28 980.289 4161.6 978.661 4161.47 976.946C4161.35 975.231 4161.78 973.521 4162.7 972.07C4164.4 969.37 4166 966.567 4167.5 963.66C4168.32 962.157 4169.59 960.95 4171.13 960.212C4172.67 959.473 4174.41 959.242 4176.09 959.55L4201.98 964.55C4203.89 965.015 4205.9 964.763 4207.63 963.841C4209.37 962.919 4210.7 961.392 4211.38 959.55L4215.38 948.55C4216.05 946.705 4216.03 944.679 4215.31 942.852C4214.59 941.025 4213.23 939.524 4211.48 938.63L4188.39 925.81C4186.9 924.982 4185.72 923.697 4185.02 922.144C4184.31 920.592 4184.13 918.855 4184.49 917.19C4185.09 913.99 4185.69 910.88 4186.19 907.68C4186.43 905.992 4187.2 904.424 4188.38 903.199C4189.57 901.974 4191.11 901.155 4192.79 900.86L4218.87 896.66C4220.81 896.421 4222.6 895.487 4223.9 894.031C4225.21 892.575 4225.94 890.695 4225.97 888.74V877C4225.86 875.062 4225.07 873.225 4223.74 871.811C4222.41 870.397 4220.63 869.497 4218.7 869.27ZM4018 739C4049.94 738.986 4080.98 749.605 4106.21 769.182C4131.45 788.759 4149.45 816.18 4157.38 847.12C4157.97 849.479 4158.01 851.942 4157.51 854.321C4157 856.701 4155.96 858.933 4154.47 860.85C4152.97 862.766 4151.05 864.316 4148.87 865.382C4146.68 866.448 4144.28 867.001 4141.85 867H4036.61C4033.78 867 4031.01 866.252 4028.56 864.831C4026.12 863.41 4024.1 861.367 4022.7 858.91L3970.6 767.2C3969.39 765.068 3968.68 762.685 3968.53 760.237C3968.39 757.788 3968.81 755.338 3969.76 753.077C3970.71 750.817 3972.17 748.805 3974.03 747.198C3975.88 745.591 3978.08 744.432 3980.45 743.81C3992.71 740.594 4005.33 738.978 4018 739ZM3874 883C3873.98 863.719 3877.84 844.63 3885.33 826.867C3892.83 809.103 3903.82 793.027 3917.65 779.59C3919.4 777.861 3921.52 776.558 3923.85 775.781C3926.18 775.004 3928.66 774.775 3931.09 775.11C3933.53 775.446 3935.85 776.338 3937.88 777.716C3939.92 779.095 3941.61 780.923 3942.82 783.06L3995.06 875C3996.44 877.417 3997.17 880.152 3997.17 882.935C3997.17 885.718 3996.44 888.453 3995.06 890.87L3942.39 982.57C3941.17 984.7 3939.47 986.521 3937.43 987.89C3935.39 989.259 3933.06 990.14 3930.63 990.465C3928.19 990.79 3925.72 990.55 3923.39 989.763C3921.06 988.977 3918.95 987.665 3917.21 985.93C3903.52 972.515 3892.64 956.5 3885.22 938.824C3877.8 921.149 3873.99 902.17 3874 883ZM4018 1027C4005.11 1027.03 3992.27 1025.37 3979.81 1022.05C3977.44 1021.42 3975.24 1020.25 3973.39 1018.64C3971.54 1017.02 3970.09 1015 3969.15 1012.74C3968.21 1010.47 3967.8 1008.02 3967.95 1005.57C3968.11 1003.12 3968.83 1000.74 3970.05 998.61L4022.63 907.06C4024.04 904.624 4026.06 902.602 4028.5 901.198C4030.93 899.793 4033.7 899.056 4036.51 899.06H4141.9C4144.33 899.06 4146.73 899.615 4148.92 900.681C4151.1 901.747 4153.01 903.298 4154.51 905.214C4156.01 907.131 4157.05 909.363 4157.55 911.741C4158.05 914.119 4158.01 916.581 4157.42 918.94C4149.48 949.874 4131.46 977.284 4106.22 996.85C4080.97 1016.41 4049.94 1027.02 4018 1027Z" fill="white"/>
</g>
</g>
<g id="settings">
<rect id="outer_13" x="3762" width="512" height="512" fill="#191919"/>
<g id="cog 1">
<path id="Vector_22" d="M4226 249.93C4225.87 247.435 4224.85 245.067 4223.14 243.248C4221.42 241.429 4219.12 240.275 4216.64 239.99L4191 235.84C4189.85 235.651 4188.79 235.094 4187.97 234.252C4187.16 233.411 4186.65 232.33 4186.5 231.17C4186.01 228.02 4185.5 224.75 4184.8 221.65C4184.57 220.522 4184.71 219.353 4185.18 218.304C4185.65 217.255 4186.44 216.38 4187.43 215.8L4210.21 203.15C4212.47 201.997 4214.23 200.053 4215.15 197.687C4216.08 195.321 4216.1 192.7 4215.21 190.32L4211.26 179.42C4210.39 177.032 4208.68 175.048 4206.44 173.847C4204.2 172.646 4201.6 172.312 4199.13 172.91L4173.58 177.91C4172.44 178.114 4171.26 177.952 4170.21 177.448C4169.17 176.943 4168.31 176.122 4167.76 175.1C4166.27 172.31 4164.65 169.47 4162.96 166.68C4162.35 165.686 4162.06 164.525 4162.14 163.359C4162.22 162.194 4162.66 161.082 4163.4 160.18L4180.4 140.54C4182.13 138.686 4183.12 136.266 4183.19 133.734C4183.26 131.201 4182.41 128.729 4180.79 126.78L4173.37 117.87C4171.76 115.914 4169.47 114.627 4166.96 114.258C4164.46 113.888 4161.9 114.463 4159.79 115.87L4137.42 129.3C4136.43 129.894 4135.27 130.154 4134.12 130.04C4132.97 129.927 4131.89 129.446 4131.03 128.67C4128.56 126.5 4126.03 124.41 4123.66 122.48C4122.75 121.762 4122.09 120.773 4121.78 119.656C4121.47 118.54 4121.53 117.353 4121.94 116.27L4131.2 91.87C4132.21 89.5418 4132.33 86.9244 4131.53 84.5148C4130.74 82.1053 4129.09 80.0716 4126.89 78.8L4116.8 72.91C4114.6 71.6431 4112.02 71.2312 4109.53 71.7534C4107.05 72.2756 4104.85 73.6951 4103.35 75.74L4087 96.28C4086.41 97.1727 4085.53 97.8328 4084.51 98.1467C4083.49 98.4606 4082.39 98.4087 4081.4 98C4080.79 97.75 4075.63 95.64 4071.62 94.3C4070.52 93.9415 4069.56 93.2405 4068.89 92.2994C4068.22 91.3584 4067.86 90.2267 4067.88 89.07L4068.27 63C4068.41 60.4544 4067.62 57.9453 4066.04 55.9425C4064.46 53.9398 4062.21 52.5808 4059.7 52.12L4048.25 50.12C4045.76 49.689 4043.19 50.1783 4041.03 51.4971C4038.87 52.8158 4037.26 54.8743 4036.5 57.29L4028 82.1C4027.61 83.2013 4026.89 84.15 4025.92 84.8069C4024.96 85.4638 4023.81 85.7943 4022.64 85.75H4012.89C4011.73 85.7737 4010.6 85.4318 4009.65 84.7729C4008.69 84.1139 4007.97 83.1716 4007.59 82.08L3999.13 57.41C3998.39 54.9767 3996.78 52.8981 3994.61 51.5636C3992.45 50.229 3989.87 49.73 3987.36 50.16L3975.89 52.16C3973.4 52.6172 3971.16 53.9629 3969.58 55.9473C3968.01 57.9316 3967.21 60.4199 3967.33 62.95L3967.73 89.11C3967.74 90.2841 3967.37 91.4294 3966.67 92.3754C3965.98 93.3214 3964.99 94.0174 3963.87 94.36C3961.58 95.25 3956.61 97.15 3954.35 97.99C3952.35 98.71 3950.17 97.92 3948.41 95.89L3932.15 75.89C3930.66 73.8326 3928.46 72.3994 3925.97 71.8659C3923.49 71.3324 3920.89 71.7363 3918.69 73L3908.63 78.83C3906.41 80.1039 3904.74 82.1544 3903.94 84.5861C3903.15 87.0179 3903.28 89.6588 3904.31 92L3913.56 116.34C3913.96 117.426 3914.02 118.611 3913.71 119.728C3913.41 120.846 3912.76 121.84 3911.86 122.57C3909.43 124.57 3906.94 126.57 3904.46 128.79C3903.61 129.56 3902.53 130.038 3901.39 130.153C3900.25 130.268 3899.1 130.015 3898.11 129.43L3876 115.74C3873.88 114.359 3871.32 113.8 3868.82 114.168C3866.31 114.537 3864.03 115.807 3862.39 117.74L3855 126.63C3853.36 128.566 3852.49 131.039 3852.56 133.576C3852.63 136.113 3853.63 138.535 3855.37 140.38L3872.45 160C3873.21 160.884 3873.66 161.989 3873.74 163.151C3873.82 164.312 3873.53 165.469 3872.9 166.45C3871.19 169.17 3869.56 172.03 3868.08 174.89C3867.53 175.919 3866.66 176.746 3865.61 177.252C3864.56 177.759 3863.37 177.919 3862.22 177.71L3836.71 172.78C3834.24 172.184 3831.64 172.518 3829.4 173.719C3827.16 174.92 3825.44 176.903 3824.57 179.29L3820.57 190.17C3819.69 192.553 3819.71 195.177 3820.63 197.545C3821.55 199.914 3823.31 201.862 3825.57 203.02L3848.35 215.67C3849.37 216.235 3850.19 217.119 3850.67 218.187C3851.14 219.255 3851.26 220.449 3851 221.59L3850.76 222.86C3850.24 225.65 3849.76 228.29 3849.3 231.1C3849.14 232.245 3848.62 233.31 3847.82 234.144C3847.02 234.977 3845.98 235.536 3844.84 235.74L3819.15 239.89C3816.64 240.198 3814.32 241.411 3812.64 243.301C3810.96 245.191 3810.02 247.629 3810 250.16V261.74C3809.99 264.281 3810.91 266.737 3812.61 268.632C3814.3 270.528 3816.63 271.728 3819.16 272L3844.84 276.14C3845.99 276.328 3847.06 276.884 3847.87 277.726C3848.68 278.568 3849.2 279.65 3849.34 280.81C3849.83 283.97 3850.34 287.23 3851.04 290.33C3851.27 291.458 3851.13 292.627 3850.66 293.676C3850.19 294.725 3849.4 295.6 3848.41 296.18L3825.64 308.85C3823.38 310.003 3821.62 311.947 3820.7 314.313C3819.78 316.678 3819.75 319.3 3820.64 321.68L3824.64 332.58C3825.51 334.966 3827.23 336.949 3829.46 338.15C3831.7 339.351 3834.3 339.685 3836.77 339.09L3862.32 334.14C3863.46 333.933 3864.64 334.093 3865.69 334.598C3866.73 335.103 3867.59 335.926 3868.14 336.95C3869.64 339.75 3871.25 342.58 3872.94 345.37C3873.56 346.363 3873.85 347.525 3873.77 348.691C3873.69 349.857 3873.24 350.969 3872.5 351.87L3855.5 371.5C3853.75 373.34 3852.74 375.755 3852.65 378.29C3852.55 380.826 3853.39 383.308 3855 385.27L3862.41 394.18C3864.02 396.138 3866.31 397.426 3868.81 397.796C3871.32 398.165 3873.88 397.589 3875.99 396.18L3898.36 382.75C3899.35 382.156 3900.51 381.896 3901.66 382.01C3902.81 382.123 3903.89 382.603 3904.75 383.38C3907.23 385.55 3909.75 387.64 3912.12 389.57C3913.03 390.288 3913.69 391.277 3914 392.393C3914.31 393.509 3914.26 394.695 3913.85 395.78L3904.58 420.18C3903.57 422.508 3903.45 425.126 3904.25 427.535C3905.04 429.945 3906.69 431.978 3908.89 433.25L3919 439.09C3921.2 440.358 3923.78 440.771 3926.26 440.251C3928.75 439.731 3930.95 438.313 3932.45 436.27L3949 415.92C3950.4 414.19 3952.6 413.42 3954.23 414.08C3957.71 415.52 3960.04 416.33 3964.17 417.71C3965.27 418.069 3966.23 418.77 3966.9 419.711C3967.58 420.652 3967.93 421.783 3967.92 422.94L3967.52 448.99C3967.39 451.535 3968.18 454.042 3969.76 456.043C3971.33 458.045 3973.58 459.405 3976.09 459.87L3987.54 461.87C3990.04 462.305 3992.6 461.818 3994.77 460.499C3996.93 459.179 3998.54 457.118 3999.29 454.7L4007.79 429.93C4008.17 428.828 4008.9 427.878 4009.87 427.221C4010.83 426.564 4011.98 426.234 4013.15 426.28H4022.9C4024.06 426.255 4025.19 426.596 4026.15 427.255C4027.1 427.914 4027.82 428.858 4028.2 429.95L4036.67 454.62C4037.33 456.762 4038.65 458.637 4040.45 459.97C4042.25 461.304 4044.43 462.026 4046.67 462.03C4047.27 462.031 4047.86 461.978 4048.45 461.87L4059.92 459.87C4062.41 459.413 4064.65 458.067 4066.23 456.083C4067.8 454.098 4068.6 451.61 4068.48 449.08L4068.08 422.92C4068.07 421.767 4068.43 420.642 4069.11 419.707C4069.78 418.773 4070.73 418.077 4071.83 417.72C4075.67 416.43 4078.37 415.39 4080.74 414.47L4081.34 414.24C4084.44 413.17 4085.94 414.47 4086.81 415.55L4103.56 436.18C4105.06 438.221 4107.26 439.636 4109.74 440.157C4112.22 440.677 4114.81 440.265 4117 439L4127.07 433.17C4129.27 431.898 4130.93 429.859 4131.72 427.442C4132.52 425.026 4132.4 422.402 4131.38 420.07L4122.14 395.73C4121.73 394.646 4121.68 393.46 4121.98 392.342C4122.28 391.224 4122.93 390.23 4123.83 389.5C4126.26 387.5 4128.75 385.5 4131.23 383.28C4132.09 382.507 4133.17 382.03 4134.32 381.918C4135.47 381.807 4136.62 382.067 4137.61 382.66L4160 396.06C4162.12 397.443 4164.68 398.003 4167.18 397.635C4169.69 397.267 4171.98 395.995 4173.61 394.06L4181.01 385.16C4182.65 383.224 4183.52 380.751 4183.45 378.214C4183.38 375.677 4182.38 373.255 4180.64 371.41L4163.58 351.74C4162.82 350.856 4162.37 349.751 4162.29 348.589C4162.21 347.428 4162.5 346.271 4163.13 345.29C4164.84 342.58 4166.47 339.72 4167.95 336.85C4168.51 335.823 4169.37 334.998 4170.42 334.492C4171.48 333.985 4172.66 333.824 4173.81 334.03L4199.29 339C4201.76 339.596 4204.36 339.262 4206.6 338.061C4208.84 336.86 4210.56 334.877 4211.43 332.49L4215.38 321.61C4216.26 319.229 4216.24 316.606 4215.32 314.239C4214.4 311.873 4212.64 309.927 4210.38 308.77L4187.58 296.1C4186.57 295.529 4185.77 294.648 4185.3 293.587C4184.83 292.526 4184.71 291.342 4184.97 290.21L4185.21 288.94C4185.73 286.15 4186.21 283.51 4186.67 280.7C4186.83 279.555 4187.35 278.49 4188.15 277.656C4188.95 276.823 4189.99 276.264 4191.13 276.06L4216.82 271.92C4219.34 271.616 4221.66 270.405 4223.35 268.512C4225.04 266.62 4225.98 264.177 4226 261.64V249.93ZM3943.55 343.93C3942.3 346.097 3940.56 347.937 3938.47 349.3C3936.37 350.662 3933.98 351.508 3931.49 351.768C3929.01 352.027 3926.5 351.693 3924.16 350.793C3921.83 349.893 3919.75 348.453 3918.08 346.59C3895.55 321.68 3883.11 289.27 3883.19 255.684C3883.27 222.098 3895.86 189.745 3918.5 164.94C3920.18 163.078 3922.27 161.641 3924.61 160.747C3926.95 159.853 3929.47 159.528 3931.96 159.799C3934.45 160.069 3936.84 160.928 3938.93 162.303C3941.03 163.678 3942.76 165.532 3944 167.71L3989.65 248.06C3991.02 250.456 3991.74 253.169 3991.74 255.93C3991.74 258.691 3991.02 261.404 3989.65 263.8L3943.55 343.93ZM4018 391.11C4008.48 391.112 3998.99 390.107 3989.69 388.11C3987.27 387.568 3985 386.464 3983.09 384.885C3981.17 383.306 3979.65 381.298 3978.66 379.022C3977.66 376.747 3977.21 374.27 3977.35 371.79C3977.49 369.31 3978.21 366.899 3979.46 364.75L4025.46 284.75C4026.84 282.339 4028.84 280.337 4031.24 278.944C4033.65 277.552 4036.38 276.819 4039.16 276.82H4131.3C4133.78 276.816 4136.23 277.397 4138.45 278.516C4140.66 279.634 4142.58 281.259 4144.05 283.258C4145.52 285.258 4146.5 287.576 4146.91 290.024C4147.32 292.472 4147.14 294.982 4146.4 297.35C4128.91 351.67 4078 391.11 4018 391.11ZM4025.51 227.21L3980 147.07C3978.77 144.918 3978.06 142.506 3977.93 140.029C3977.8 137.552 3978.26 135.079 3979.26 132.811C3980.26 130.543 3981.79 128.543 3983.71 126.972C3985.63 125.401 3987.89 124.304 3990.31 123.77C3999.42 121.851 4008.7 120.886 4018 120.89C4078 120.89 4128.91 160.33 4146.37 214.68C4147.11 217.048 4147.29 219.558 4146.88 222.006C4146.47 224.454 4145.49 226.772 4144.02 228.772C4142.55 230.771 4140.63 232.396 4138.42 233.514C4136.2 234.633 4133.75 235.214 4131.27 235.21H4039.27C4036.47 235.216 4033.73 234.478 4031.31 233.072C4028.89 231.666 4026.89 229.643 4025.51 227.21Z" fill="white"/>
</g>
</g>
<g id="ellipsis-horizontal-outline">
<rect id="outer_14" x="4389" y="628" width="512" height="512" fill="#191919"/>
<g id="ellipsis-horizontal-outline 1">
<path id="Vector_23" d="M4645 916C4662.67 916 4677 901.673 4677 884C4677 866.327 4662.67 852 4645 852C4627.33 852 4613 866.327 4613 884C4613 901.673 4627.33 916 4645 916Z" stroke="white" stroke-width="32" stroke-miterlimit="10"/>
<path id="Vector_24" d="M4805 916C4822.67 916 4837 901.673 4837 884C4837 866.327 4822.67 852 4805 852C4787.33 852 4773 866.327 4773 884C4773 901.673 4787.33 916 4805 916Z" stroke="white" stroke-width="32" stroke-miterlimit="10"/>
<path id="Vector_25" d="M4485 916C4502.67 916 4517 901.673 4517 884C4517 866.327 4502.67 852 4485 852C4467.33 852 4453 866.327 4453 884C4453 901.673 4467.33 916 4485 916Z" stroke="white" stroke-width="32" stroke-miterlimit="10"/>
</g>
</g>
<g id="ellipsis-horizontal">
<rect id="outer_15" x="4389" y="1" width="512" height="512" fill="#191919"/>
<g id="ellipsis-horizontal 1">
<path id="Vector_26" d="M4645 305C4671.51 305 4693 283.51 4693 257C4693 230.49 4671.51 209 4645 209C4618.49 209 4597 230.49 4597 257C4597 283.51 4618.49 305 4645 305Z" fill="white"/>
<path id="Vector_27" d="M4805 305C4831.51 305 4853 283.51 4853 257C4853 230.49 4831.51 209 4805 209C4778.49 209 4757 230.49 4757 257C4757 283.51 4778.49 305 4805 305Z" fill="white"/>
<path id="Vector_28" d="M4485 305C4511.51 305 4533 283.51 4533 257C4533 230.49 4511.51 209 4485 209C4458.49 209 4437 230.49 4437 257C4437 283.51 4458.49 305 4485 305Z" fill="white"/>
</g>
</g>
<g id="movie-outline">
<rect id="outer_16" x="5016" y="627" width="512" height="512" fill="#191919"/>
<g id="film-outline 1">
<path id="Vector_29" d="M5452 723H5092C5076.54 723 5064 735.536 5064 751V1015C5064 1030.46 5076.54 1043 5092 1043H5452C5467.46 1043 5480 1030.46 5480 1015V751C5480 735.536 5467.46 723 5452 723Z" stroke="white" stroke-width="32" stroke-linejoin="round"/>
<path id="Vector_30" d="M5452 963H5428C5412.54 963 5400 975.536 5400 991V1015C5400 1030.46 5412.54 1043 5428 1043H5452C5467.46 1043 5480 1030.46 5480 1015V991C5480 975.536 5467.46 963 5452 963Z" stroke="white" stroke-width="32" stroke-linejoin="round"/>
<path id="Vector_31" d="M5452 883H5428C5412.54 883 5400 895.536 5400 911V935C5400 950.464 5412.54 963 5428 963H5452C5467.46 963 5480 950.464 5480 935V911C5480 895.536 5467.46 883 5452 883Z" stroke="white" stroke-width="32" stroke-linejoin="round"/>
<path id="Vector_32" d="M5452 803H5428C5412.54 803 5400 815.536 5400 831V855C5400 870.464 5412.54 883 5428 883H5452C5467.46 883 5480 870.464 5480 855V831C5480 815.536 5467.46 803 5452 803Z" stroke="white" stroke-width="32" stroke-linejoin="round"/>
<path id="Vector_33" d="M5452 723H5428C5412.54 723 5400 735.536 5400 751V775C5400 790.464 5412.54 803 5428 803H5452C5467.46 803 5480 790.464 5480 775V751C5480 735.536 5467.46 723 5452 723Z" stroke="white" stroke-width="32" stroke-linejoin="round"/>
<path id="Vector_34" d="M5116 963H5092C5076.54 963 5064 975.536 5064 991V1015C5064 1030.46 5076.54 1043 5092 1043H5116C5131.46 1043 5144 1030.46 5144 1015V991C5144 975.536 5131.46 963 5116 963Z" stroke="white" stroke-width="32" stroke-linejoin="round"/>
<path id="Vector_35" d="M5116 883H5092C5076.54 883 5064 895.536 5064 911V935C5064 950.464 5076.54 963 5092 963H5116C5131.46 963 5144 950.464 5144 935V911C5144 895.536 5131.46 883 5116 883Z" stroke="white" stroke-width="32" stroke-linejoin="round"/>
<path id="Vector_36" d="M5116 803H5092C5076.54 803 5064 815.536 5064 831V855C5064 870.464 5076.54 883 5092 883H5116C5131.46 883 5144 870.464 5144 855V831C5144 815.536 5131.46 803 5116 803Z" stroke="white" stroke-width="32" stroke-linejoin="round"/>
<path id="Vector_37" d="M5116 723H5092C5076.54 723 5064 735.536 5064 751V775C5064 790.464 5076.54 803 5092 803H5116C5131.46 803 5144 790.464 5144 775V751C5144 735.536 5131.46 723 5116 723Z" stroke="white" stroke-width="32" stroke-linejoin="round"/>
<path id="Vector_38" d="M5372 723H5172C5156.54 723 5144 735.536 5144 751V855C5144 870.464 5156.54 883 5172 883H5372C5387.46 883 5400 870.464 5400 855V751C5400 735.536 5387.46 723 5372 723Z" stroke="white" stroke-width="32" stroke-linejoin="round"/>
<path id="Vector_39" d="M5372 883H5172C5156.54 883 5144 895.536 5144 911V1015C5144 1030.46 5156.54 1043 5172 1043H5372C5387.46 1043 5400 1030.46 5400 1015V911C5400 895.536 5387.46 883 5372 883Z" stroke="white" stroke-width="32" stroke-linejoin="round"/>
</g>
</g>
<g id="movie">
<rect id="outer_17" x="5016" width="512" height="512" fill="#191919"/>
<g id="film 1">
<path id="Vector_40" d="M5452 80H5092C5080.33 80.0132 5069.15 84.6532 5060.9 92.9019C5052.65 101.151 5048.01 112.335 5048 124V388C5048.01 399.665 5052.65 410.849 5060.9 419.098C5069.15 427.347 5080.33 431.987 5092 432H5452C5463.67 431.987 5474.85 427.347 5483.1 419.098C5491.35 410.849 5495.99 399.665 5496 388V124C5495.99 112.335 5491.35 101.151 5483.1 92.9019C5474.85 84.6532 5463.67 80.0132 5452 80ZM5128 388C5128 391.183 5126.74 394.235 5124.49 396.485C5122.23 398.736 5119.18 400 5116 400H5092C5088.82 400 5085.77 398.736 5083.51 396.485C5081.26 394.235 5080 391.183 5080 388V364C5080 360.817 5081.26 357.765 5083.51 355.515C5085.77 353.264 5088.82 352 5092 352H5116C5119.18 352 5122.23 353.264 5124.49 355.515C5126.74 357.765 5128 360.817 5128 364V388ZM5128 308C5128 311.183 5126.74 314.235 5124.49 316.485C5122.23 318.736 5119.18 320 5116 320H5092C5088.82 320 5085.77 318.736 5083.51 316.485C5081.26 314.235 5080 311.183 5080 308V284C5080 280.817 5081.26 277.765 5083.51 275.515C5085.77 273.264 5088.82 272 5092 272H5116C5119.18 272 5122.23 273.264 5124.49 275.515C5126.74 277.765 5128 280.817 5128 284V308ZM5128 228C5128 231.183 5126.74 234.235 5124.49 236.485C5122.23 238.736 5119.18 240 5116 240H5092C5088.82 240 5085.77 238.736 5083.51 236.485C5081.26 234.235 5080 231.183 5080 228V204C5080 200.817 5081.26 197.765 5083.51 195.515C5085.77 193.264 5088.82 192 5092 192H5116C5119.18 192 5122.23 193.264 5124.49 195.515C5126.74 197.765 5128 200.817 5128 204V228ZM5128 148C5128 151.183 5126.74 154.235 5124.49 156.485C5122.23 158.736 5119.18 160 5116 160H5092C5088.82 160 5085.77 158.736 5083.51 156.485C5081.26 154.235 5080 151.183 5080 148V124C5080 120.817 5081.26 117.765 5083.51 115.515C5085.77 113.264 5088.82 112 5092 112H5116C5119.18 112 5122.23 113.264 5124.49 115.515C5126.74 117.765 5128 120.817 5128 124V148ZM5369.68 272H5174.32C5170.08 272 5166.01 270.314 5163.01 267.314C5160.01 264.313 5158.32 260.243 5158.32 256C5158.32 251.757 5160.01 247.687 5163.01 244.686C5166.01 241.686 5170.08 240 5174.32 240H5369.68C5373.92 240 5377.99 241.686 5380.99 244.686C5383.99 247.687 5385.68 251.757 5385.68 256C5385.68 260.243 5383.99 264.313 5380.99 267.314C5377.99 270.314 5373.92 272 5369.68 272ZM5464 388C5464 391.183 5462.74 394.235 5460.49 396.485C5458.23 398.736 5455.18 400 5452 400H5428C5424.82 400 5421.77 398.736 5419.51 396.485C5417.26 394.235 5416 391.183 5416 388V364C5416 360.817 5417.26 357.765 5419.51 355.515C5421.77 353.264 5424.82 352 5428 352H5452C5455.18 352 5458.23 353.264 5460.49 355.515C5462.74 357.765 5464 360.817 5464 364V388ZM5464 308C5464 311.183 5462.74 314.235 5460.49 316.485C5458.23 318.736 5455.18 320 5452 320H5428C5424.82 320 5421.77 318.736 5419.51 316.485C5417.26 314.235 5416 311.183 5416 308V284C5416 280.817 5417.26 277.765 5419.51 275.515C5421.77 273.264 5424.82 272 5428 272H5452C5455.18 272 5458.23 273.264 5460.49 275.515C5462.74 277.765 5464 280.817 5464 284V308ZM5464 228C5464 231.183 5462.74 234.235 5460.49 236.485C5458.23 238.736 5455.18 240 5452 240H5428C5424.82 240 5421.77 238.736 5419.51 236.485C5417.26 234.235 5416 231.183 5416 228V204C5416 200.817 5417.26 197.765 5419.51 195.515C5421.77 193.264 5424.82 192 5428 192H5452C5455.18 192 5458.23 193.264 5460.49 195.515C5462.74 197.765 5464 200.817 5464 204V228ZM5464 148C5464 151.183 5462.74 154.235 5460.49 156.485C5458.23 158.736 5455.18 160 5452 160H5428C5424.82 160 5421.77 158.736 5419.51 156.485C5417.26 154.235 5416 151.183 5416 148V124C5416 120.817 5417.26 117.765 5419.51 115.515C5421.77 113.264 5424.82 112 5428 112H5452C5455.18 112 5458.23 113.264 5460.49 115.515C5462.74 117.765 5464 120.817 5464 124V148Z" fill="white"/>
</g>
</g>
<g id="series-outline">
<rect id="outer_18" x="5643" y="627" width="512" height="512" fill="#191919"/>
<g id="easel-outline 1">
<path id="Vector_41" d="M6075 707H5723C5705.33 707 5691 721.327 5691 739V947C5691 964.673 5705.33 979 5723 979H6075C6092.67 979 6107 964.673 6107 947V739C6107 721.327 6092.67 707 6075 707Z" stroke="white" stroke-width="32" stroke-linejoin="round"/>
<path id="Vector_42" d="M5899 1043V979" stroke="white" stroke-width="32" stroke-linecap="round" stroke-linejoin="round"/>
<path id="Vector_43" d="M5899 707V675" stroke="white" stroke-width="32" stroke-linecap="round" stroke-linejoin="round"/>
<path id="Vector_44" d="M6043 1091L6011 979" stroke="white" stroke-width="32" stroke-linecap="round" stroke-linejoin="round"/>
<path id="Vector_45" d="M5755 1091L5787 979" stroke="white" stroke-width="32" stroke-linecap="round" stroke-linejoin="round"/>
</g>
</g>
<g id="series">
<rect id="outer_19" x="5643" width="512" height="512" fill="#191919"/>
<g id="easel 1">
<path id="Vector_46" d="M6063 112H5735C5728.37 112 5723 117.373 5723 124V308C5723 314.627 5728.37 320 5735 320H6063C6069.63 320 6075 314.627 6075 308V124C6075 117.373 6069.63 112 6063 112Z" fill="white"/>
<path id="Vector_47" d="M6075 64H5915V48C5915 43.7565 5913.31 39.6869 5910.31 36.6863C5907.31 33.6857 5903.24 32 5899 32C5894.76 32 5890.69 33.6857 5887.69 36.6863C5884.69 39.6869 5883 43.7565 5883 48V64H5723C5710.27 64.0132 5698.07 69.0746 5689.07 78.0735C5680.07 87.0724 5675.01 99.2737 5675 112V320C5675.01 332.726 5680.07 344.928 5689.07 353.927C5698.07 362.925 5710.27 367.987 5723 368H5765.79L5739.62 459.6C5739 461.633 5738.78 463.771 5738.99 465.888C5739.21 468.004 5739.84 470.057 5740.85 471.927C5741.87 473.797 5743.24 475.446 5744.9 476.777C5746.56 478.108 5748.47 479.095 5750.51 479.68C5752.56 480.265 5754.7 480.437 5756.81 480.184C5758.92 479.932 5760.97 479.261 5762.82 478.211C5764.67 477.16 5766.29 475.752 5767.59 474.067C5768.88 472.383 5769.83 470.456 5770.38 468.4L5799.07 368H5883V416C5883 420.243 5884.69 424.313 5887.69 427.314C5890.69 430.314 5894.76 432 5899 432C5903.24 432 5907.31 430.314 5910.31 427.314C5913.31 424.313 5915 420.243 5915 416V368H5998.93L6027.62 468.4C6028.17 470.456 6029.12 472.383 6030.41 474.067C6031.71 475.752 6033.33 477.16 6035.18 478.211C6037.03 479.261 6039.08 479.932 6041.19 480.184C6043.3 480.437 6045.44 480.265 6047.49 479.68C6049.53 479.095 6051.44 478.108 6053.1 476.777C6054.76 475.446 6056.13 473.797 6057.15 471.927C6058.16 470.057 6058.79 468.004 6059.01 465.888C6059.22 463.771 6059 461.633 6058.38 459.6L6032.21 368H6075C6087.73 367.987 6099.93 362.925 6108.93 353.927C6117.93 344.928 6122.99 332.726 6123 320V112C6122.99 99.2737 6117.93 87.0724 6108.93 78.0735C6099.93 69.0746 6087.73 64.0132 6075 64ZM6091 320C6091 324.243 6089.31 328.313 6086.31 331.314C6083.31 334.314 6079.24 336 6075 336H5723C5718.76 336 5714.69 334.314 5711.69 331.314C5708.69 328.313 5707 324.243 5707 320V112C5707 107.757 5708.69 103.687 5711.69 100.686C5714.69 97.6857 5718.76 96 5723 96H6075C6079.24 96 6083.31 97.6857 6086.31 100.686C6089.31 103.687 6091 107.757 6091 112V320Z" fill="white"/>
</g>
</g>
<g id="channel-outline">
<rect id="outer_20" x="6270" y="628" width="512" height="512" fill="#191919"/>
<g id="tv-outline 1">
<path id="Vector_48" d="M6717.86 724H6334.14C6316.39 724 6302 738.39 6302 756.14V963.86C6302 981.61 6316.39 996 6334.14 996H6717.86C6735.61 996 6750 981.61 6750 963.86V756.14C6750 738.39 6735.61 724 6717.86 724Z" stroke="white" stroke-width="32" stroke-linejoin="round"/>
<path id="Vector_49" d="M6398 1044H6654" stroke="white" stroke-width="32" stroke-miterlimit="10" stroke-linecap="round"/>
</g>
</g>
<g id="channel">
<rect id="outer_21" x="6270" y="1" width="512" height="512" fill="#191919"/>
<g id="tv 1">
<path id="Vector_50" d="M6717.86 385H6334.14C6321.38 384.984 6309.14 379.907 6300.12 370.883C6291.09 361.858 6286.02 349.623 6286 336.86V129.14C6286.02 116.377 6291.09 104.142 6300.12 95.1174C6309.14 86.0929 6321.38 81.0159 6334.14 81H6717.86C6730.62 81.0159 6742.86 86.0929 6751.88 95.1174C6760.91 104.142 6765.98 116.377 6766 129.14V336.86C6765.98 349.623 6760.91 361.858 6751.88 370.883C6742.86 379.907 6730.62 384.984 6717.86 385Z" fill="white"/>
<path id="Vector_51" d="M6398 417H6654" stroke="white" stroke-width="32" stroke-miterlimit="10" stroke-linecap="round"/>
</g>
</g>
<g id="tv-outline">
<rect id="outer_22" x="6897" y="627" width="512" height="512" fill="#191919"/>
<g id="videocam-outline 1">
<path id="Vector_52" d="M7271.79 935.78L7354.5 994C7356.94 995.083 7359.6 995.54 7362.26 995.33C7364.92 995.12 7367.48 994.249 7369.72 992.796C7371.95 991.344 7373.79 989.356 7375.06 987.013C7376.33 984.67 7377 982.046 7377 979.38V786.62C7377 783.954 7376.33 781.33 7375.06 778.987C7373.79 776.644 7371.95 774.656 7369.72 773.204C7367.48 771.751 7364.92 770.88 7362.26 770.67C7359.6 770.46 7356.94 770.917 7354.5 772L7271.79 830.22C7269.69 831.696 7267.98 833.655 7266.8 835.932C7265.62 838.208 7265 840.735 7265 843.3V922.7C7265 925.265 7265.62 927.792 7266.8 930.068C7267.98 932.345 7269.69 934.304 7271.79 935.78Z" stroke="white" stroke-width="32" stroke-linecap="round" stroke-linejoin="round"/>
<path id="Vector_53" d="M7165 1011H6981C6967.22 1010.96 6954.02 1005.47 6944.27 995.726C6934.53 985.983 6929.04 972.779 6929 959V807C6929.04 793.221 6934.53 780.017 6944.27 770.274C6954.02 760.531 6967.22 755.04 6981 755H7165.48C7179.13 755.042 7192.21 760.484 7201.86 770.136C7211.52 779.789 7216.96 792.869 7217 806.52V959C7216.96 972.779 7211.47 985.983 7201.73 995.726C7191.98 1005.47 7178.78 1010.96 7165 1011Z" stroke="white" stroke-width="32" stroke-miterlimit="10"/>
</g>
</g>
<g id="tv">
<rect id="outer_23" x="6897" width="512" height="512" fill="#191919"/>
<g id="videocam 1">
<path id="Vector_54" d="M7361 384.39C7356.52 384.387 7352.09 383.443 7348 381.62C7347.05 381.197 7346.14 380.682 7345.29 380.08L7262.58 321.86C7258.39 318.907 7254.96 314.989 7252.6 310.437C7250.24 305.884 7249 300.83 7249 295.7V216.3C7249 211.17 7250.24 206.116 7252.6 201.563C7254.96 197.011 7258.39 193.093 7262.58 190.14L7345.29 131.92C7346.14 131.318 7347.05 130.803 7348 130.38C7352.87 128.214 7358.21 127.3 7363.52 127.72C7368.84 128.14 7373.96 129.882 7378.44 132.787C7382.91 135.693 7386.58 139.669 7389.12 144.355C7391.67 149.041 7393 154.288 7393 159.62V352.38C7393 360.867 7389.63 369.006 7383.63 375.007C7377.63 381.009 7369.49 384.38 7361 384.38V384.39Z" fill="white"/>
<path id="Vector_55" d="M7165 400H6981C6962.97 399.981 6945.69 392.811 6932.94 380.063C6920.19 367.314 6913.02 350.029 6913 332V180C6913.02 161.971 6920.19 144.686 6932.94 131.937C6945.69 119.189 6962.97 112.019 6981 112H7165.48C7183.38 112.021 7200.54 119.142 7213.2 131.8C7225.86 144.457 7232.98 161.619 7233 179.52V332C7232.98 350.029 7225.81 367.314 7213.06 380.063C7200.31 392.811 7183.03 399.981 7165 400Z" fill="white"/>
</g>
</g>
<g id="back-outline">
<rect id="outer_24" x="7524" y="627" width="512" height="512" fill="#191919"/>
<g id="chevron-back-outline 1">
<path id="Vector_56" d="M7852 739L7708 883L7852 1027" stroke="white" stroke-width="48" stroke-linecap="round" stroke-linejoin="round"/>
</g>
</g>
<g id="back">
<rect id="outer_25" x="7524" width="512" height="512" fill="#191919"/>
<g id="chevron-back 1">
<path id="Vector_57" d="M7852 112L7708 256L7852 400" stroke="white" stroke-width="48" stroke-linecap="round" stroke-linejoin="round"/>
</g>
</g>
<g id="play">
<rect id="outer_26" x="8151" width="512" height="512" fill="#191919"/>
<g id="play 1">
<path id="Vector_58" d="M8284 440C8277.86 439.989 8271.83 438.379 8266.5 435.33C8254.5 428.53 8247.04 415.33 8247.04 401V111C8247.04 96.6301 8254.5 83.4701 8266.5 76.6701C8271.96 73.5344 8278.15 71.9219 8284.45 72.0011C8290.74 72.0802 8296.89 73.8482 8302.27 77.1201L8550.12 225.48C8555.29 228.719 8559.54 233.217 8562.5 238.551C8565.45 243.886 8567 249.883 8567 255.98C8567 262.077 8565.45 268.074 8562.5 273.409C8559.54 278.743 8555.29 283.241 8550.12 286.48L8302.23 434.88C8296.73 438.206 8290.43 439.975 8284 440Z" fill="white"/>
</g>
</g>
<g id="pause">
<rect id="outer_27" x="8778" y="1" width="512" height="512" fill="#191919"/>
<g id="pause 1">
<path id="Vector_59" d="M8986 433H8938C8933.76 433 8929.69 431.314 8926.69 428.314C8923.69 425.313 8922 421.243 8922 417V97C8922 92.7565 8923.69 88.6869 8926.69 85.6863C8929.69 82.6857 8933.76 81 8938 81H8986C8990.24 81 8994.31 82.6857 8997.31 85.6863C9000.31 88.6869 9002 92.7565 9002 97V417C9002 421.243 9000.31 425.313 8997.31 428.314C8994.31 431.314 8990.24 433 8986 433Z" fill="white"/>
<path id="Vector_60" d="M9130 433H9082C9077.76 433 9073.69 431.314 9070.69 428.314C9067.69 425.313 9066 421.243 9066 417V97C9066 92.7565 9067.69 88.6869 9070.69 85.6863C9073.69 82.6857 9077.76 81 9082 81H9130C9134.24 81 9138.31 82.6857 9141.31 85.6863C9144.31 88.6869 9146 92.7565 9146 97V417C9146 421.243 9144.31 425.313 9141.31 428.314C9138.31 431.314 9134.24 433 9130 433Z" fill="white"/>
</g>
</g>
<g id="ellipsis-vertical">
<rect id="outer_28" x="9405" width="512" height="512" fill="#191919"/>
<g id="ellipsis-vertical 1">
<path id="Vector_61" d="M9661 304C9687.51 304 9709 282.51 9709 256C9709 229.49 9687.51 208 9661 208C9634.49 208 9613 229.49 9613 256C9613 282.51 9634.49 304 9661 304Z" fill="white"/>
<path id="Vector_62" d="M9661 464C9687.51 464 9709 442.51 9709 416C9709 389.49 9687.51 368 9661 368C9634.49 368 9613 389.49 9613 416C9613 442.51 9634.49 464 9661 464Z" fill="white"/>
<path id="Vector_63" d="M9661 144C9687.51 144 9709 122.51 9709 96C9709 69.4903 9687.51 48 9661 48C9634.49 48 9613 69.4903 9613 96C9613 122.51 9634.49 144 9661 144Z" fill="white"/>
</g>
</g>
<g id="star">
<rect id="outer_29" x="10032" y="1" width="512" height="512" fill="#191919"/>
<g id="star 1">
<path id="Vector_64" d="M10426 481C10422.6 481.013 10419.3 479.963 10416.6 478L10288 384.76L10159.4 478C10156.6 479.993 10153.3 481.06 10149.9 481.048C10146.5 481.036 10143.2 479.944 10140.5 477.931C10137.8 475.919 10135.8 473.089 10134.7 469.851C10133.7 466.613 10133.8 463.135 10134.8 459.92L10185 311.35L10055 222.2C10052.2 220.271 10050.1 217.492 10048.9 214.27C10047.8 211.047 10047.7 207.549 10048.8 204.287C10049.8 201.025 10051.8 198.171 10054.5 196.14C10057.3 194.109 10060.6 193.009 10064 193H10224.4L10272.8 44.05C10273.8 40.8342 10275.9 38.0313 10278.6 36.0434C10281.3 34.0555 10284.6 32.9847 10288 32.9847C10291.4 32.9847 10294.7 34.0555 10297.4 36.0434C10300.1 38.0313 10302.2 40.8342 10303.2 44.05L10351.6 193.05H10512C10515.4 193.048 10518.7 194.141 10521.5 196.168C10524.2 198.195 10526.3 201.049 10527.3 204.313C10528.3 207.578 10528.2 211.08 10527.1 214.308C10526 217.535 10523.9 220.319 10521 222.25L10391 311.35L10441.1 459.88C10441.9 462.285 10442.2 464.848 10441.8 467.359C10441.4 469.869 10440.5 472.255 10439 474.318C10437.5 476.381 10435.6 478.063 10433.3 479.225C10431 480.387 10428.5 480.995 10426 481Z" fill="white"/>
</g>
</g>
</g>
</svg>
