<svg width="8663" height="3150" viewBox="0 0 8663 3150" fill="none" xmlns="http://www.w3.org/2000/svg">
<g id="stremio-icons">
<g id="symbol">
<path id="outer" d="M512 0H0V512H512V0Z" fill="#191919"/>
<g id="symbol_2">
<path id="Subtract" fill-rule="evenodd" clip-rule="evenodd" d="M267.1 52.6863C260.852 46.4379 250.721 46.4379 244.473 52.6863L52.6863 244.473C46.4379 250.721 46.4379 260.852 52.6863 267.1L244.473 458.886C250.721 465.135 260.852 465.135 267.1 458.886L458.886 267.1C465.135 260.852 465.135 250.721 458.886 244.473L267.1 52.6863ZM327.404 265.175C333.67 260.797 333.67 251.52 327.404 247.142L242.86 188.063C235.568 182.967 225.559 188.184 225.559 197.079V315.237C225.559 324.133 235.568 329.349 242.86 324.254L327.404 265.175Z" fill="white"/>
</g>
</g>
<g id="imdb">
<path id="outer_2" d="M1139 0H627V512H1139V0Z" fill="#191919"/>
<g id="Subtract_2">
<path id="Vector" d="M921.456 217.517C920.149 216.81 917.647 216.47 914.008 216.47V294.347C918.813 294.347 921.769 293.483 922.878 291.677C923.987 289.897 924.555 285.08 924.555 277.175V231.155C924.555 225.789 924.356 222.36 923.987 220.841C923.617 219.323 922.793 218.224 921.456 217.517Z" fill="white"/>
<path id="Vector_2" d="M1010.96 255.626V283.749C1010.96 289.049 1010.68 292.414 1010.14 293.793C1009.59 295.173 1006.98 295.903 1005.19 295.903C1003.4 295.903 1000.84 295.148 1000.25 293.793V246.187C1000.77 244.953 1003.45 244.221 1005.19 244.221C1006.93 244.221 1009.41 245.122 1010.04 246.526C1010.66 247.929 1010.96 250.979 1010.96 255.626Z" fill="white"/>
<path id="Vector_3" fill-rule="evenodd" clip-rule="evenodd" d="M672 176.375C672 161.808 683.808 150 698.375 150H1067.62C1082.19 150 1094 161.808 1094 176.375V334.625C1094 349.192 1082.19 361 1067.62 361H698.375C683.808 361 672 349.192 672 334.625V176.375ZM724.75 314.844H757.719V196.156H724.75V314.844ZM820.712 251.6L828.091 196.156H869.812V314.844H841.926L841.844 234.741L830.668 314.844H810.756L798.983 236.469L798.875 314.844H770.906V196.156H812.303C813.523 203.355 814.798 211.784 816.128 221.443L820.712 251.6ZM883 314.844V196.156H934.461C946.098 196.156 955.531 205.519 955.531 217.102V293.898C955.531 305.466 946.113 314.844 934.461 314.844H883ZM1019.82 225.873H1017.71C1010.62 225.873 1004.34 229.192 1000.27 234.272V196.156H968.719V313.319H998.284L1000.18 306.063C1004.06 311.373 1010.47 314.844 1017.71 314.844H1019.82C1031.66 314.844 1041.25 305.58 1041.25 294.153V246.565C1041.25 235.143 1031.65 225.873 1019.82 225.873Z" fill="white"/>
</g>
</g>
<g id="search-outline">
<path id="outer_3" d="M512 1631H0V2143H512V1631Z" fill="#191919"/>
<g id="search-outline 1">
<path id="Vector_4" d="M221.09 1695C190.02 1695 159.649 1704.21 133.815 1721.47C107.982 1738.74 87.8475 1763.27 75.9577 1791.97C64.0679 1820.68 60.957 1852.26 67.0184 1882.74C73.0797 1913.21 88.0411 1941.2 110.011 1963.17C131.98 1985.14 159.971 2000.1 190.443 2006.16C220.916 2012.22 252.501 2009.11 281.206 1997.22C309.91 1985.33 334.444 1965.2 351.706 1939.36C368.967 1913.53 378.18 1883.16 378.18 1852.09C378.177 1810.43 361.626 1770.47 332.166 1741.01C302.707 1711.55 262.752 1695 221.09 1695Z" stroke="white" stroke-width="32" stroke-miterlimit="10"/>
<path id="Vector_2_2" d="M338.29 1969.29L448 2079" stroke="white" stroke-width="32" stroke-miterlimit="10" stroke-linecap="round"/>
</g>
</g>
<g id="search">
<path id="outer_4" d="M512 1004H0V1516H512V1004Z" fill="#191919"/>
<g id="search 1">
<path id="Vector_3_2" d="M456.69 1441.39L362.6 1347.3C385.253 1317.14 397.481 1280.44 397.44 1242.72C397.44 1146.38 319.06 1068 222.72 1068C126.38 1068 48 1146.38 48 1242.72C48 1339.06 126.38 1417.44 222.72 1417.44C260.437 1417.48 297.143 1405.25 327.3 1382.6L421.39 1476.69C426.153 1480.95 432.365 1483.22 438.751 1483.04C445.137 1482.86 451.212 1480.25 455.729 1475.73C460.246 1471.21 462.863 1465.14 463.042 1458.75C463.22 1452.36 460.948 1446.15 456.69 1441.39ZM97.92 1242.72C97.92 1218.04 105.239 1193.91 118.953 1173.38C132.666 1152.86 152.157 1136.87 174.961 1127.42C197.765 1117.97 222.858 1115.5 247.067 1120.32C271.276 1125.13 293.513 1137.02 310.967 1154.47C328.421 1171.93 340.307 1194.16 345.122 1218.37C349.937 1242.58 347.466 1267.67 338.02 1290.48C328.574 1313.28 312.578 1332.77 292.055 1346.49C271.532 1360.2 247.403 1367.52 222.72 1367.52C189.633 1367.48 157.913 1354.32 134.517 1330.92C111.121 1307.53 97.9597 1275.81 97.92 1242.72Z" fill="white"/>
</g>
</g>
<g id="home-outline">
<path id="outer_5" d="M1139 1631H627V2143H1139V1631Z" fill="#191919"/>
<g id="home-outline 1">
<path id="Vector_4_2" d="M707 1843V2079C707 2083.24 708.686 2087.31 711.686 2090.31C714.687 2093.31 718.757 2095 723 2095H819V1959C819 1952.63 821.529 1946.53 826.029 1942.03C830.53 1937.53 836.635 1935 843 1935H923C929.365 1935 935.47 1937.53 939.971 1942.03C944.471 1946.53 947 1952.63 947 1959V2095H1043C1047.24 2095 1051.31 2093.31 1054.31 2090.31C1057.31 2087.31 1059 2083.24 1059 2079V1843" stroke="white" stroke-width="32" stroke-linecap="round" stroke-linejoin="round"/>
<path id="Vector_5" d="M1107 1887L893.89 1683C888.89 1677.72 877.2 1677.66 872.11 1683L659 1887" stroke="white" stroke-width="32" stroke-linecap="round" stroke-linejoin="round"/>
<path id="Vector_6" d="M1027 1810V1695H979V1764" stroke="white" stroke-width="32" stroke-linecap="round" stroke-linejoin="round"/>
</g>
</g>
<g id="home">
<path id="outer_6" d="M1139 1004H627V1516H1139V1004Z" fill="#191919"/>
<g id="home 2">
<path id="Vector_7" d="M888.56 1105.28C887.071 1103.86 885.09 1103.06 883.03 1103.06C880.97 1103.06 878.989 1103.86 877.5 1105.28L693.4 1281.15C692.618 1281.9 691.996 1282.8 691.572 1283.79C691.147 1284.79 690.929 1285.86 690.93 1286.94L690.9 1452C690.9 1460.49 694.271 1468.63 700.273 1474.63C706.274 1480.63 714.413 1484 722.9 1484H819C823.243 1484 827.313 1482.31 830.314 1479.31C833.314 1476.31 835 1472.24 835 1468V1332C835 1329.88 835.843 1327.84 837.343 1326.34C838.843 1324.84 840.878 1324 843 1324H923C925.122 1324 927.157 1324.84 928.657 1326.34C930.157 1327.84 931 1329.88 931 1332V1468C931 1472.24 932.686 1476.31 935.686 1479.31C938.687 1482.31 942.757 1484 947 1484H1043.06C1051.55 1484 1059.69 1480.63 1065.69 1474.63C1071.69 1468.63 1075.06 1460.49 1075.06 1452V1286.94C1075.06 1285.86 1074.84 1284.79 1074.42 1283.79C1073.99 1282.8 1073.37 1281.9 1072.59 1281.15L888.56 1105.28Z" fill="white"/>
<path id="Vector_8" d="M1117.91 1248.15L1043.11 1176.59V1068C1043.11 1063.76 1041.42 1059.69 1038.42 1056.69C1035.42 1053.69 1031.35 1052 1027.11 1052H979.11C974.867 1052 970.797 1053.69 967.796 1056.69C964.796 1059.69 963.11 1063.76 963.11 1068V1100L905.19 1044.62C899.77 1039.14 891.71 1036 883 1036C874.32 1036 866.28 1039.14 860.86 1044.63L648.16 1248.13C641.94 1254.13 641.16 1264 646.82 1270.5C648.241 1272.14 649.982 1273.48 651.935 1274.42C653.888 1275.37 656.014 1275.91 658.182 1276.01C660.351 1276.11 662.517 1275.76 664.548 1275C666.58 1274.23 668.435 1273.06 670 1271.56L877.5 1073.28C878.989 1071.86 880.97 1071.06 883.03 1071.06C885.09 1071.06 887.071 1071.86 888.56 1073.28L1096.08 1271.56C1099.14 1274.49 1103.23 1276.09 1107.47 1276.01C1111.7 1275.93 1115.73 1274.17 1118.67 1271.12C1124.81 1264.76 1124.3 1254.26 1117.91 1248.15Z" fill="white"/>
</g>
</g>
<g id="discover-outline">
<path id="outer_7" d="M1766 1631H1254V2143H1766V1631Z" fill="#191919"/>
<g id="compass-outline 1">
<path id="Vector_9" d="M1702 1887C1702 1781 1616 1695 1510 1695C1404 1695 1318 1781 1318 1887C1318 1993 1404 2079 1510 2079C1616 2079 1702 1993 1702 1887Z" stroke="white" stroke-width="32" stroke-miterlimit="10"/>
<path id="Vector_10" d="M1604.67 1781.93L1487.47 1828.81C1479.42 1832.03 1472.11 1836.85 1465.98 1842.98C1459.85 1849.11 1455.03 1856.42 1451.81 1864.47L1404.93 1981.67C1404.35 1983.12 1404.21 1984.72 1404.52 1986.25C1404.83 1987.78 1405.59 1989.19 1406.7 1990.3C1407.81 1991.41 1409.22 1992.17 1410.75 1992.48C1412.28 1992.79 1413.88 1992.65 1415.33 1992.07L1532.53 1945.19C1540.58 1941.97 1547.89 1937.15 1554.02 1931.02C1560.15 1924.89 1564.97 1917.58 1568.19 1909.53L1615.07 1792.33C1615.65 1790.88 1615.79 1789.28 1615.48 1787.75C1615.17 1786.22 1614.41 1784.81 1613.3 1783.7C1612.19 1782.59 1610.78 1781.83 1609.25 1781.52C1607.72 1781.21 1606.12 1781.35 1604.67 1781.93ZM1510 1911C1505.25 1911 1500.61 1909.59 1496.67 1906.96C1492.72 1904.32 1489.64 1900.57 1487.83 1896.18C1486.01 1891.8 1485.54 1886.97 1486.46 1882.32C1487.39 1877.66 1489.67 1873.39 1493.03 1870.03C1496.39 1866.67 1500.66 1864.39 1505.32 1863.46C1509.97 1862.54 1514.8 1863.01 1519.18 1864.83C1523.57 1866.64 1527.32 1869.72 1529.96 1873.67C1532.59 1877.61 1534 1882.25 1534 1887C1534 1893.37 1531.47 1899.47 1526.97 1903.97C1522.47 1908.47 1516.37 1911 1510 1911Z" fill="white"/>
</g>
</g>
<g id="discover">
<path id="outer_8" d="M1766 1004H1254V1516H1766V1004Z" fill="#191919"/>
<g id="compass 2">
<path id="Vector_11" d="M1510 1284C1523.25 1284 1534 1273.25 1534 1260C1534 1246.75 1523.25 1236 1510 1236C1496.75 1236 1486 1246.75 1486 1260C1486 1273.25 1496.75 1284 1510 1284Z" fill="white"/>
<path id="Vector_12" d="M1510 1052C1395.31 1052 1302 1145.31 1302 1260C1302 1374.69 1395.31 1468 1510 1468C1624.69 1468 1718 1374.69 1718 1260C1718 1145.31 1624.69 1052 1510 1052ZM1615.07 1165.33L1568.19 1282.53C1564.97 1290.58 1560.15 1297.89 1554.02 1304.02C1547.89 1310.15 1540.58 1314.97 1532.53 1318.19L1415.33 1365.07C1413.88 1365.65 1412.28 1365.79 1410.75 1365.48C1409.22 1365.17 1407.81 1364.41 1406.7 1363.3C1405.59 1362.19 1404.83 1360.78 1404.52 1359.25C1404.21 1357.72 1404.35 1356.12 1404.93 1354.67L1451.81 1237.47C1455.03 1229.42 1459.85 1222.11 1465.98 1215.98C1472.11 1209.85 1479.42 1205.03 1487.47 1201.81L1604.67 1154.93C1606.12 1154.35 1607.72 1154.21 1609.25 1154.52C1610.78 1154.83 1612.19 1155.59 1613.3 1156.7C1614.41 1157.81 1615.17 1159.22 1615.48 1160.75C1615.79 1162.28 1615.65 1163.88 1615.07 1165.33Z" fill="white"/>
</g>
</g>
<g id="library-outline">
<path id="outer_9" d="M2393 1632H1881V2144H2393V1632Z" fill="#191919"/>
<g id="albums-outline 1">
<path id="Vector_13" d="M2300.13 1808H1973.87C1957.93 1808 1945 1820.93 1945 1836.87V2035.13C1945 2051.07 1957.93 2064 1973.87 2064H2300.13C2316.07 2064 2329 2051.07 2329 2035.13V1836.87C2329 1820.93 2316.07 1808 2300.13 1808Z" stroke="white" stroke-width="32" stroke-linejoin="round"/>
<path id="Vector_14" d="M2025 1712H2249" stroke="white" stroke-width="32" stroke-miterlimit="10" stroke-linecap="round"/>
<path id="Vector_15" d="M1993 1760H2281" stroke="white" stroke-width="32" stroke-miterlimit="10" stroke-linecap="round"/>
</g>
</g>
<g id="library">
<path id="outer_10" d="M2393 1005H1881V1517H2393V1005Z" fill="#191919"/>
<g id="albums 2">
<path id="Vector_16" d="M2249 1101H2025C2020.76 1101 2016.69 1099.31 2013.69 1096.31C2010.69 1093.31 2009 1089.24 2009 1085C2009 1080.76 2010.69 1076.69 2013.69 1073.69C2016.69 1070.69 2020.76 1069 2025 1069H2249C2253.24 1069 2257.31 1070.69 2260.31 1073.69C2263.31 1076.69 2265 1080.76 2265 1085C2265 1089.24 2263.31 1093.31 2260.31 1096.31C2257.31 1099.31 2253.24 1101 2249 1101Z" fill="white"/>
<path id="Vector_17" d="M2281 1149H1993C1988.76 1149 1984.69 1147.31 1981.69 1144.31C1978.69 1141.31 1977 1137.24 1977 1133C1977 1128.76 1978.69 1124.69 1981.69 1121.69C1984.69 1118.69 1988.76 1117 1993 1117H2281C2285.24 1117 2289.31 1118.69 2292.31 1121.69C2295.31 1124.69 2297 1128.76 2297 1133C2297 1137.24 2295.31 1141.31 2292.31 1144.31C2289.31 1147.31 2285.24 1149 2281 1149Z" fill="white"/>
<path id="Vector_18" d="M2300.13 1453H1973.87C1961.97 1452.99 1950.57 1448.26 1942.16 1439.84C1933.74 1431.43 1929.01 1420.03 1929 1408.13V1209.87C1929.01 1197.97 1933.74 1186.57 1942.16 1178.16C1950.57 1169.74 1961.97 1165.01 1973.87 1165H2300.13C2312.03 1165.01 2323.43 1169.74 2331.84 1178.16C2340.26 1186.57 2344.99 1197.97 2345 1209.87V1408.13C2344.99 1420.03 2340.26 1431.43 2331.84 1439.84C2323.43 1448.26 2312.03 1452.99 2300.13 1453Z" fill="white"/>
</g>
</g>
<g id="addons-outline">
<path id="outer_11" d="M3020 1632H2508V2144H3020V1632Z" fill="#191919"/>
<g id="extension-puzzle-outline 1">
<path id="Vector_19" d="M2921.66 1878.1H2894C2893.47 1878.1 2892.96 1877.89 2892.59 1877.51C2892.21 1877.14 2892 1876.63 2892 1876.1V1798.86C2892 1788.55 2887.91 1778.67 2880.62 1771.38C2873.33 1764.09 2863.45 1760 2853.14 1760H2775.9C2775.37 1760 2774.86 1759.79 2774.49 1759.41C2774.11 1759.04 2773.9 1758.53 2773.9 1758V1730.34C2773.9 1703.2 2752.4 1680.48 2725.26 1680.01C2718.68 1679.89 2712.15 1681.09 2706.04 1683.53C2699.93 1685.96 2694.37 1689.59 2689.68 1694.2C2684.99 1698.81 2681.26 1704.3 2678.72 1710.37C2676.17 1716.43 2674.86 1722.94 2674.86 1729.52V1758C2674.86 1758.53 2674.65 1759.04 2674.27 1759.41C2673.9 1759.79 2673.39 1760 2672.86 1760H2595.62C2585.12 1760.03 2575.06 1764.22 2567.64 1771.64C2560.22 1779.06 2556.03 1789.12 2556 1799.62V1870C2556 1870.53 2556.21 1871.04 2556.59 1871.41C2556.96 1871.79 2557.47 1872 2558 1872H2584.91C2614.28 1872 2638.59 1897.48 2639 1926.85C2639.42 1956.72 2615.49 1984 2585.71 1984H2558C2557.47 1984 2556.96 1984.21 2556.59 1984.59C2556.21 1984.96 2556 1985.47 2556 1986V2056.38C2556.03 2066.88 2560.22 2076.94 2567.64 2084.36C2575.06 2091.78 2585.12 2095.97 2595.62 2096H2666C2666.53 2096 2667.04 2095.79 2667.41 2095.41C2667.79 2095.04 2668 2094.53 2668 2094V2073.07C2668 2042.79 2692.75 2016.72 2723 2016.01C2753.1 2015.31 2780 2036.32 2780 2066.29V2094C2780 2094.53 2780.21 2095.04 2780.59 2095.41C2780.96 2095.79 2781.47 2096 2782 2096H2853.14C2863.45 2096 2873.33 2091.91 2880.62 2084.62C2887.91 2077.33 2892 2067.45 2892 2057.14V1979.14C2892 1978.61 2892.21 1978.1 2892.59 1977.73C2892.96 1977.35 2893.47 1977.14 2894 1977.14H2922.48C2950.11 1977.14 2972 1954.47 2972 1926.74C2972 1899.01 2948.8 1878.1 2921.66 1878.1Z" stroke="white" stroke-width="32" stroke-linecap="round" stroke-linejoin="round"/>
</g>
</g>
<g id="addons">
<path id="outer_12" d="M3020 1005H2508V1517H3020V1005Z" fill="#191919"/>
<g id="extension-puzzle 1">
<path id="Vector_20" d="M2853.14 1485H2782C2777.23 1485 2772.65 1483.1 2769.27 1479.73C2765.9 1476.35 2764 1471.77 2764 1467V1439.29C2764.01 1435.03 2763.16 1430.82 2761.49 1426.9C2759.82 1422.99 2757.37 1419.46 2754.29 1416.52C2746.51 1408.93 2735.21 1404.72 2723.4 1405.01C2702.04 1405.51 2684 1424.31 2684 1446.07V1467C2684 1471.77 2682.1 1476.35 2678.73 1479.73C2675.35 1483.1 2670.77 1485 2666 1485H2595.62C2588.32 1485 2581.08 1483.56 2574.34 1480.77C2567.59 1477.97 2561.46 1473.87 2556.29 1468.71C2545.86 1458.28 2540 1444.13 2540 1429.38V1359C2540 1354.23 2541.9 1349.65 2545.27 1346.27C2548.65 1342.9 2553.23 1341 2558 1341H2585.71C2594.87 1341 2603.78 1337.08 2610.8 1330C2614.71 1326.06 2617.79 1321.39 2619.89 1316.26C2621.98 1311.12 2623.04 1305.63 2623 1300.08C2622.7 1278.89 2605.26 1261 2584.91 1261H2558C2553.23 1261 2548.65 1259.1 2545.27 1255.73C2541.9 1252.35 2540 1247.77 2540 1243V1172.62C2540 1165.32 2541.44 1158.08 2544.23 1151.34C2547.03 1144.59 2551.13 1138.46 2556.29 1133.29C2566.72 1122.86 2580.87 1117 2595.62 1117H2650.86C2652.98 1117 2655.02 1116.16 2656.52 1114.66C2658.02 1113.16 2658.86 1111.12 2658.86 1109V1102.52C2658.86 1093.82 2660.59 1085.2 2663.96 1077.18C2667.32 1069.15 2672.25 1061.88 2678.46 1055.78C2684.67 1049.68 2692.03 1044.88 2700.11 1041.65C2708.19 1038.43 2716.84 1036.85 2725.54 1037C2761.03 1037.62 2789.9 1067.38 2789.9 1103.33V1109C2789.9 1111.12 2790.74 1113.16 2792.24 1114.66C2793.74 1116.16 2795.78 1117 2797.9 1117H2853.14C2860.34 1117 2867.48 1118.42 2874.13 1121.18C2880.79 1123.93 2886.84 1127.97 2891.93 1133.07C2897.03 1138.16 2901.07 1144.21 2903.82 1150.87C2906.58 1157.52 2908 1164.66 2908 1171.86V1227.1C2908 1229.22 2908.84 1231.26 2910.34 1232.76C2911.84 1234.26 2913.88 1235.1 2916 1235.1H2921.66C2958.24 1235.1 2988 1264.1 2988 1299.74C2988 1336.35 2958.61 1366.14 2922.48 1366.14H2916C2913.88 1366.14 2911.84 1366.98 2910.34 1368.48C2908.84 1369.98 2908 1372.02 2908 1374.14V1430.14C2908 1437.34 2906.58 1444.48 2903.82 1451.13C2901.07 1457.79 2897.03 1463.84 2891.93 1468.93C2886.84 1474.03 2880.79 1478.07 2874.13 1480.82C2867.48 1483.58 2860.34 1485 2853.14 1485Z" fill="white"/>
</g>
</g>
<g id="settings-outline">
<path id="outer_13" d="M3647 1631H3135V2143H3647V1631Z" fill="#191919"/>
<g id="cog-outline 1">
<path id="Vector_21" d="M3591.7 1873.27L3565.62 1869.07C3563.94 1868.79 3562.39 1867.97 3561.2 1866.74C3560.01 1865.52 3559.25 1863.94 3559.02 1862.25C3558.52 1859.05 3558.02 1855.84 3557.32 1852.74C3556.98 1851.08 3557.18 1849.35 3557.88 1847.8C3558.58 1846.25 3559.75 1844.96 3561.22 1844.12L3584.31 1831.3C3586.06 1830.41 3587.42 1828.9 3588.14 1827.08C3588.86 1825.25 3588.88 1823.22 3588.21 1821.38L3584.21 1810.38C3583.54 1808.53 3582.21 1806.99 3580.47 1806.07C3578.74 1805.15 3576.72 1804.9 3574.81 1805.38L3548.92 1810.38C3547.24 1810.71 3545.49 1810.48 3543.95 1809.74C3542.4 1809 3541.13 1807.79 3540.33 1806.27C3538.83 1803.47 3537.23 1800.67 3535.53 1797.86C3534.63 1796.4 3534.22 1794.7 3534.34 1792.99C3534.47 1791.28 3535.13 1789.65 3536.23 1788.34L3553.52 1768.4C3554.86 1766.97 3555.63 1765.1 3555.69 1763.15C3555.74 1761.19 3555.08 1759.28 3553.82 1757.78L3546.33 1748.78C3545.08 1747.27 3543.31 1746.27 3541.37 1745.99C3539.43 1745.71 3537.45 1746.17 3535.83 1747.27L3513.14 1760.9C3511.68 1761.76 3509.99 1762.14 3508.3 1761.98C3506.61 1761.82 3505.02 1761.13 3503.75 1760C3501.35 1757.89 3498.85 1755.79 3496.35 1753.78C3495.02 1752.72 3494.06 1751.27 3493.61 1749.63C3493.16 1748 3493.25 1746.26 3493.85 1744.67L3503.25 1719.92C3504.05 1718.12 3504.16 1716.1 3503.56 1714.23C3502.96 1712.35 3501.69 1710.77 3500 1709.77L3489.8 1703.86C3488.1 1702.89 3486.1 1702.58 3484.19 1702.99C3482.27 1703.4 3480.57 1704.49 3479.41 1706.07L3462.77 1726.91C3461.84 1728.22 3460.5 1729.18 3458.95 1729.64C3457.41 1730.09 3455.76 1730.01 3454.27 1729.41C3454.27 1729.41 3448.67 1727.11 3444.47 1725.7C3442.86 1725.16 3441.46 1724.13 3440.48 1722.74C3439.49 1721.36 3438.98 1719.7 3439 1718L3439.4 1691.55C3439.52 1689.58 3438.91 1687.64 3437.7 1686.09C3436.48 1684.54 3434.74 1683.49 3432.8 1683.13L3421.21 1681.13C3419.27 1680.79 3417.27 1681.18 3415.6 1682.21C3413.92 1683.25 3412.68 1684.86 3412.11 1686.74L3403.51 1711.79C3402.96 1713.4 3401.9 1714.8 3400.5 1715.77C3399.1 1716.75 3397.43 1717.25 3395.72 1717.2H3385.92C3384.22 1717.24 3382.55 1716.73 3381.15 1715.76C3379.75 1714.79 3378.69 1713.4 3378.13 1711.79L3369.53 1686.74C3368.96 1684.86 3367.72 1683.25 3366.04 1682.21C3364.37 1681.18 3362.37 1680.79 3360.43 1681.13L3348.84 1683.13C3346.9 1683.49 3345.16 1684.54 3343.94 1686.09C3342.73 1687.64 3342.12 1689.58 3342.24 1691.55L3342.64 1718C3342.66 1719.7 3342.14 1721.37 3341.16 1722.75C3340.17 1724.14 3338.77 1725.18 3337.15 1725.71C3334.85 1726.61 3329.85 1728.52 3327.45 1729.42C3324.65 1730.42 3321.35 1729.62 3318.65 1726.51L3302.14 1706.17C3300.97 1704.6 3299.27 1703.51 3297.36 1703.11C3295.44 1702.71 3293.45 1703.03 3291.75 1704L3281.55 1709.91C3279.85 1710.89 3278.58 1712.46 3277.97 1714.32C3277.36 1716.19 3277.46 1718.21 3278.25 1720L3287.65 1744.75C3288.24 1746.34 3288.32 1748.07 3287.87 1749.71C3287.43 1751.35 3286.47 1752.8 3285.15 1753.86C3282.65 1755.86 3280.15 1757.97 3277.75 1760.08C3276.48 1761.21 3274.89 1761.9 3273.2 1762.06C3271.51 1762.22 3269.82 1761.84 3268.36 1760.98L3246 1747.14C3244.37 1746.07 3242.4 1745.63 3240.46 1745.9C3238.53 1746.18 3236.76 1747.16 3235.5 1748.65L3228.01 1757.65C3226.75 1759.15 3226.09 1761.06 3226.14 1763.02C3226.2 1764.97 3226.97 1766.84 3228.31 1768.27L3245.6 1788.21C3246.72 1789.51 3247.4 1791.14 3247.53 1792.85C3247.65 1794.57 3247.22 1796.28 3246.3 1797.73C3244.6 1800.4 3243 1803.2 3241.5 1806.14C3240.68 1807.64 3239.41 1808.85 3237.87 1809.59C3236.33 1810.33 3234.59 1810.56 3232.91 1810.25L3207.02 1805.25C3205.11 1804.78 3203.1 1805.04 3201.37 1805.96C3199.63 1806.88 3198.3 1808.41 3197.62 1810.25L3193.62 1821.25C3192.95 1823.09 3192.97 1825.12 3193.69 1826.95C3194.41 1828.77 3195.77 1830.28 3197.52 1831.17L3220.58 1844C3222.07 1844.83 3223.25 1846.11 3223.95 1847.67C3224.66 1849.22 3224.84 1850.95 3224.48 1852.62C3223.88 1855.82 3223.28 1858.93 3222.78 1862.13C3222.54 1863.82 3221.77 1865.39 3220.59 1866.61C3219.4 1867.84 3217.86 1868.65 3216.18 1868.95L3190.1 1873.15C3188.16 1873.39 3186.37 1874.32 3185.07 1875.78C3183.76 1877.24 3183.03 1879.11 3183 1881.07V1892.79C3182.98 1894.76 3183.69 1896.67 3185.01 1898.13C3186.32 1899.6 3188.14 1900.52 3190.1 1900.71L3216.18 1904.91C3217.86 1905.19 3219.41 1906.01 3220.6 1907.24C3221.79 1908.46 3222.55 1910.04 3222.78 1911.73C3223.28 1914.93 3223.78 1918.14 3224.48 1921.24C3224.82 1922.9 3224.62 1924.63 3223.92 1926.18C3223.22 1927.73 3222.05 1929.02 3220.58 1929.86L3197.49 1942.7C3195.74 1943.59 3194.38 1945.1 3193.66 1946.92C3192.94 1948.75 3192.92 1950.78 3193.59 1952.62L3197.59 1963.62C3198.26 1965.47 3199.59 1967.01 3201.33 1967.93C3203.06 1968.85 3205.08 1969.1 3206.99 1968.62L3232.88 1963.62C3234.56 1963.29 3236.31 1963.52 3237.85 1964.26C3239.4 1965 3240.67 1966.21 3241.47 1967.73C3242.97 1970.53 3244.57 1973.33 3246.27 1976.14C3247.17 1977.6 3247.58 1979.3 3247.46 1981.01C3247.33 1982.72 3246.67 1984.35 3245.57 1985.66L3228.28 2005.62C3226.94 2007.05 3226.17 2008.92 3226.11 2010.87C3226.06 2012.83 3226.72 2014.74 3227.98 2016.24L3235.47 2025.24C3236.72 2026.75 3238.49 2027.75 3240.43 2028.03C3242.37 2028.31 3244.35 2027.85 3245.97 2026.75L3268.66 2013.12C3270.12 2012.26 3271.81 2011.88 3273.5 2012.04C3275.19 2012.2 3276.78 2012.89 3278.05 2014.02C3280.45 2016.13 3282.95 2018.23 3285.45 2020.24C3286.78 2021.3 3287.74 2022.75 3288.19 2024.39C3288.64 2026.02 3288.55 2027.76 3287.95 2029.35L3278.55 2054.1C3277.76 2055.9 3277.66 2057.92 3278.27 2059.79C3278.88 2061.65 3280.15 2063.23 3281.85 2064.22L3292.05 2070.13C3293.75 2071.1 3295.75 2071.41 3297.66 2071C3299.58 2070.59 3301.28 2069.5 3302.44 2067.92L3319.23 2047.28C3321.33 2044.68 3324.73 2043.58 3327.43 2044.68C3330.83 2046.08 3333.13 2046.88 3337.33 2048.29C3338.95 2048.82 3340.35 2049.86 3341.34 2051.25C3342.32 2052.63 3342.84 2054.3 3342.82 2056L3342.42 2082.45C3342.3 2084.42 3342.91 2086.36 3344.12 2087.91C3345.34 2089.46 3347.08 2090.51 3349.02 2090.87L3360.61 2092.87C3362.55 2093.21 3364.55 2092.82 3366.22 2091.79C3367.9 2090.75 3369.14 2089.14 3369.71 2087.26L3378.31 2062.26C3378.86 2060.65 3379.92 2059.25 3381.32 2058.28C3382.72 2057.3 3384.39 2056.8 3386.1 2056.85H3395.9C3397.6 2056.81 3399.27 2057.32 3400.67 2058.29C3402.07 2059.26 3403.13 2060.65 3403.69 2062.26L3412.29 2087.26C3412.86 2089.14 3414.1 2090.75 3415.78 2091.79C3417.45 2092.82 3419.45 2093.21 3421.39 2092.87L3432.98 2090.87C3434.92 2090.51 3436.66 2089.46 3437.88 2087.91C3439.09 2086.36 3439.7 2084.42 3439.58 2082.45L3439.18 2056C3439.16 2054.3 3439.68 2052.63 3440.66 2051.25C3441.65 2049.86 3443.05 2048.82 3444.67 2048.29C3448.87 2046.88 3451.67 2045.78 3454.27 2044.78C3456.87 2043.78 3460.07 2043.78 3462.57 2046.88L3479.57 2067.82C3480.74 2069.4 3482.45 2070.5 3484.37 2070.9C3486.29 2071.3 3488.3 2070.98 3490 2070L3500.2 2064.09C3501.91 2063.11 3503.19 2061.54 3503.8 2059.67C3504.41 2057.8 3504.3 2055.77 3503.5 2053.97L3494.1 2029.22C3493.51 2027.63 3493.43 2025.89 3493.88 2024.26C3494.33 2022.62 3495.28 2021.16 3496.6 2020.1C3499.1 2018.1 3501.6 2016 3504 2013.89C3505.27 2012.76 3506.86 2012.07 3508.55 2011.91C3510.24 2011.75 3511.93 2012.13 3513.39 2012.99L3536 2026.66C3537.63 2027.73 3539.6 2028.17 3541.54 2027.9C3543.47 2027.62 3545.24 2026.64 3546.5 2025.15L3553.99 2016.15C3555.25 2014.65 3555.91 2012.74 3555.86 2010.78C3555.8 2008.83 3555.03 2006.96 3553.69 2005.53L3536.4 1985.59C3535.28 1984.29 3534.6 1982.66 3534.47 1980.95C3534.35 1979.23 3534.78 1977.52 3535.7 1976.07C3537.4 1973.37 3539 1970.57 3540.5 1967.66C3541.32 1966.16 3542.59 1964.95 3544.13 1964.21C3545.67 1963.47 3547.41 1963.24 3549.09 1963.55L3574.98 1968.55C3576.89 1969.02 3578.9 1968.76 3580.63 1967.84C3582.37 1966.92 3583.7 1965.39 3584.38 1963.55L3588.38 1952.55C3589.05 1950.71 3589.03 1948.68 3588.31 1946.85C3587.59 1945.03 3586.23 1943.52 3584.48 1942.63L3561.39 1929.81C3559.9 1928.98 3558.72 1927.7 3558.02 1926.14C3557.31 1924.59 3557.13 1922.86 3557.49 1921.19C3558.09 1917.99 3558.69 1914.88 3559.19 1911.68C3559.43 1909.99 3560.2 1908.42 3561.38 1907.2C3562.57 1905.97 3564.11 1905.16 3565.79 1904.86L3591.87 1900.66C3593.81 1900.42 3595.6 1899.49 3596.9 1898.03C3598.21 1896.57 3598.94 1894.7 3598.97 1892.74V1881C3598.86 1879.06 3598.07 1877.22 3596.74 1875.81C3595.41 1874.4 3593.63 1873.5 3591.7 1873.27ZM3391 1743C3422.94 1742.99 3453.98 1753.61 3479.21 1773.18C3504.45 1792.76 3522.45 1820.18 3530.38 1851.12C3530.97 1853.48 3531.01 1855.94 3530.51 1858.32C3530 1860.7 3528.96 1862.93 3527.47 1864.85C3525.97 1866.77 3524.05 1868.32 3521.87 1869.38C3519.68 1870.45 3517.28 1871 3514.85 1871H3409.61C3406.78 1871 3404.01 1870.25 3401.56 1868.83C3399.12 1867.41 3397.1 1865.37 3395.7 1862.91L3343.6 1771.2C3342.39 1769.07 3341.68 1766.69 3341.53 1764.24C3341.39 1761.79 3341.81 1759.34 3342.76 1757.08C3343.71 1754.82 3345.17 1752.81 3347.03 1751.2C3348.88 1749.59 3351.08 1748.43 3353.45 1747.81C3365.71 1744.59 3378.33 1742.98 3391 1743ZM3247 1887C3246.98 1867.72 3250.84 1848.63 3258.33 1830.87C3265.83 1813.1 3276.82 1797.03 3290.65 1783.59C3292.4 1781.86 3294.52 1780.56 3296.85 1779.78C3299.18 1779 3301.66 1778.77 3304.09 1779.11C3306.53 1779.45 3308.85 1780.34 3310.88 1781.72C3312.92 1783.09 3314.61 1784.92 3315.82 1787.06L3368.06 1879C3369.44 1881.42 3370.17 1884.15 3370.17 1886.93C3370.17 1889.72 3369.44 1892.45 3368.06 1894.87L3315.39 1986.57C3314.17 1988.7 3312.47 1990.52 3310.43 1991.89C3308.39 1993.26 3306.06 1994.14 3303.63 1994.47C3301.19 1994.79 3298.72 1994.55 3296.39 1993.76C3294.06 1992.98 3291.95 1991.67 3290.21 1989.93C3276.52 1976.51 3265.64 1960.5 3258.22 1942.82C3250.8 1925.15 3246.99 1906.17 3247 1887ZM3391 2031C3378.11 2031.03 3365.27 2029.37 3352.81 2026.05C3350.44 2025.42 3348.24 2024.25 3346.39 2022.64C3344.54 2021.02 3343.09 2019 3342.15 2016.74C3341.21 2014.47 3340.8 2012.02 3340.95 2009.57C3341.11 2007.12 3341.83 2004.74 3343.05 2002.61L3395.63 1911.06C3397.04 1908.62 3399.06 1906.6 3401.5 1905.2C3403.93 1903.79 3406.7 1903.06 3409.51 1903.06H3514.9C3517.33 1903.06 3519.73 1903.61 3521.92 1904.68C3524.1 1905.75 3526.01 1907.3 3527.51 1909.21C3529.01 1911.13 3530.05 1913.36 3530.55 1915.74C3531.05 1918.12 3531.01 1920.58 3530.42 1922.94C3522.48 1953.87 3504.46 1981.28 3479.22 2000.85C3453.97 2020.41 3422.94 2031.02 3391 2031Z" fill="white"/>
</g>
</g>
<g id="settings">
<path id="outer_14" d="M3647 1004H3135V1516H3647V1004Z" fill="#191919"/>
<g id="cog 1">
<path id="Vector_22" d="M3599 1253.93C3598.87 1251.43 3597.85 1249.07 3596.14 1247.25C3594.42 1245.43 3592.12 1244.27 3589.64 1243.99L3564 1239.84C3562.85 1239.65 3561.79 1239.09 3560.97 1238.25C3560.16 1237.41 3559.65 1236.33 3559.5 1235.17C3559.01 1232.02 3558.5 1228.75 3557.8 1225.65C3557.57 1224.52 3557.71 1223.35 3558.18 1222.3C3558.65 1221.26 3559.44 1220.38 3560.43 1219.8L3583.21 1207.15C3585.47 1206 3587.23 1204.05 3588.15 1201.69C3589.08 1199.32 3589.1 1196.7 3588.21 1194.32L3584.26 1183.42C3583.39 1181.03 3581.68 1179.05 3579.44 1177.85C3577.2 1176.65 3574.6 1176.31 3572.13 1176.91L3546.58 1181.91C3545.44 1182.11 3544.26 1181.95 3543.21 1181.45C3542.17 1180.94 3541.31 1180.12 3540.76 1179.1C3539.27 1176.31 3537.65 1173.47 3535.96 1170.68C3535.35 1169.69 3535.06 1168.52 3535.14 1167.36C3535.22 1166.19 3535.66 1165.08 3536.4 1164.18L3553.4 1144.54C3555.13 1142.69 3556.12 1140.27 3556.19 1137.73C3556.26 1135.2 3555.41 1132.73 3553.79 1130.78L3546.37 1121.87C3544.76 1119.91 3542.47 1118.63 3539.96 1118.26C3537.46 1117.89 3534.9 1118.46 3532.79 1119.87L3510.42 1133.3C3509.43 1133.89 3508.27 1134.15 3507.12 1134.04C3505.97 1133.93 3504.89 1133.45 3504.03 1132.67C3501.56 1130.5 3499.03 1128.41 3496.66 1126.48C3495.75 1125.76 3495.09 1124.77 3494.78 1123.66C3494.47 1122.54 3494.53 1121.35 3494.94 1120.27L3504.2 1095.87C3505.21 1093.54 3505.33 1090.92 3504.53 1088.51C3503.74 1086.11 3502.09 1084.07 3499.89 1082.8L3489.8 1076.91C3487.6 1075.64 3485.02 1075.23 3482.53 1075.75C3480.05 1076.28 3477.85 1077.7 3476.35 1079.74L3460 1100.28C3459.41 1101.17 3458.53 1101.83 3457.51 1102.15C3456.49 1102.46 3455.39 1102.41 3454.4 1102C3453.79 1101.75 3448.63 1099.64 3444.62 1098.3C3443.52 1097.94 3442.56 1097.24 3441.89 1096.3C3441.22 1095.36 3440.86 1094.23 3440.88 1093.07L3441.27 1067C3441.41 1064.45 3440.62 1061.95 3439.04 1059.94C3437.46 1057.94 3435.21 1056.58 3432.7 1056.12L3421.25 1054.12C3418.76 1053.69 3416.19 1054.18 3414.03 1055.5C3411.87 1056.82 3410.26 1058.87 3409.5 1061.29L3401 1086.1C3400.61 1087.2 3399.89 1088.15 3398.92 1088.81C3397.96 1089.46 3396.81 1089.79 3395.64 1089.75H3385.89C3384.73 1089.77 3383.6 1089.43 3382.65 1088.77C3381.69 1088.11 3380.97 1087.17 3380.59 1086.08L3372.13 1061.41C3371.39 1058.98 3369.78 1056.9 3367.61 1055.56C3365.45 1054.23 3362.87 1053.73 3360.36 1054.16L3348.89 1056.16C3346.4 1056.62 3344.16 1057.96 3342.58 1059.95C3341.01 1061.93 3340.21 1064.42 3340.33 1066.95L3340.73 1093.11C3340.74 1094.28 3340.37 1095.43 3339.67 1096.38C3338.98 1097.32 3337.99 1098.02 3336.87 1098.36C3334.58 1099.25 3329.61 1101.15 3327.35 1101.99C3325.35 1102.71 3323.17 1101.92 3321.41 1099.89L3305.15 1079.89C3303.66 1077.83 3301.46 1076.4 3298.97 1075.87C3296.49 1075.33 3293.89 1075.74 3291.69 1077L3281.63 1082.83C3279.41 1084.1 3277.74 1086.15 3276.94 1088.59C3276.15 1091.02 3276.28 1093.66 3277.31 1096L3286.56 1120.34C3286.96 1121.43 3287.02 1122.61 3286.71 1123.73C3286.41 1124.85 3285.76 1125.84 3284.86 1126.57C3282.43 1128.57 3279.94 1130.57 3277.46 1132.79C3276.61 1133.56 3275.53 1134.04 3274.39 1134.15C3273.25 1134.27 3272.1 1134.01 3271.11 1133.43L3249 1119.74C3246.88 1118.36 3244.32 1117.8 3241.82 1118.17C3239.31 1118.54 3237.03 1119.81 3235.39 1121.74L3228 1130.63C3226.36 1132.57 3225.49 1135.04 3225.56 1137.58C3225.63 1140.11 3226.63 1142.54 3228.37 1144.38L3245.45 1164C3246.21 1164.88 3246.66 1165.99 3246.74 1167.15C3246.82 1168.31 3246.53 1169.47 3245.9 1170.45C3244.19 1173.17 3242.56 1176.03 3241.08 1178.89C3240.53 1179.92 3239.66 1180.75 3238.61 1181.25C3237.56 1181.76 3236.37 1181.92 3235.22 1181.71L3209.71 1176.78C3207.24 1176.18 3204.64 1176.52 3202.4 1177.72C3200.16 1178.92 3198.44 1180.9 3197.57 1183.29L3193.57 1194.17C3192.69 1196.55 3192.71 1199.18 3193.63 1201.55C3194.55 1203.91 3196.31 1205.86 3198.57 1207.02L3221.35 1219.67C3222.37 1220.24 3223.19 1221.12 3223.67 1222.19C3224.14 1223.25 3224.26 1224.45 3224 1225.59L3223.76 1226.86C3223.24 1229.65 3222.76 1232.29 3222.3 1235.1C3222.14 1236.24 3221.62 1237.31 3220.82 1238.14C3220.02 1238.98 3218.98 1239.54 3217.84 1239.74L3192.15 1243.89C3189.64 1244.2 3187.32 1245.41 3185.64 1247.3C3183.96 1249.19 3183.02 1251.63 3183 1254.16V1265.74C3182.99 1268.28 3183.91 1270.74 3185.61 1272.63C3187.3 1274.53 3189.63 1275.73 3192.16 1276L3217.84 1280.14C3218.99 1280.33 3220.06 1280.88 3220.87 1281.73C3221.68 1282.57 3222.2 1283.65 3222.34 1284.81C3222.83 1287.97 3223.34 1291.23 3224.04 1294.33C3224.27 1295.46 3224.13 1296.63 3223.66 1297.68C3223.19 1298.72 3222.4 1299.6 3221.41 1300.18L3198.64 1312.85C3196.38 1314 3194.62 1315.95 3193.7 1318.31C3192.78 1320.68 3192.75 1323.3 3193.64 1325.68L3197.64 1336.58C3198.51 1338.97 3200.23 1340.95 3202.46 1342.15C3204.7 1343.35 3207.3 1343.69 3209.77 1343.09L3235.32 1338.14C3236.46 1337.93 3237.64 1338.09 3238.69 1338.6C3239.73 1339.1 3240.59 1339.93 3241.14 1340.95C3242.64 1343.75 3244.25 1346.58 3245.94 1349.37C3246.56 1350.36 3246.85 1351.52 3246.77 1352.69C3246.69 1353.86 3246.24 1354.97 3245.5 1355.87L3228.5 1375.5C3226.75 1377.34 3225.74 1379.75 3225.65 1382.29C3225.55 1384.83 3226.39 1387.31 3228 1389.27L3235.41 1398.18C3237.02 1400.14 3239.31 1401.43 3241.81 1401.8C3244.32 1402.17 3246.88 1401.59 3248.99 1400.18L3271.36 1386.75C3272.35 1386.16 3273.51 1385.9 3274.66 1386.01C3275.81 1386.12 3276.89 1386.6 3277.75 1387.38C3280.23 1389.55 3282.75 1391.64 3285.12 1393.57C3286.03 1394.29 3286.69 1395.28 3287 1396.39C3287.31 1397.51 3287.26 1398.7 3286.85 1399.78L3277.58 1424.18C3276.57 1426.51 3276.45 1429.13 3277.25 1431.54C3278.04 1433.94 3279.69 1435.98 3281.89 1437.25L3292 1443.09C3294.2 1444.36 3296.78 1444.77 3299.26 1444.25C3301.75 1443.73 3303.95 1442.31 3305.45 1440.27L3322 1419.92C3323.4 1418.19 3325.6 1417.42 3327.23 1418.08C3330.71 1419.52 3333.04 1420.33 3337.17 1421.71C3338.27 1422.07 3339.23 1422.77 3339.9 1423.71C3340.58 1424.65 3340.93 1425.78 3340.92 1426.94L3340.52 1452.99C3340.39 1455.53 3341.18 1458.04 3342.76 1460.04C3344.33 1462.05 3346.58 1463.41 3349.09 1463.87L3360.54 1465.87C3363.04 1466.31 3365.6 1465.82 3367.77 1464.5C3369.93 1463.18 3371.54 1461.12 3372.29 1458.7L3380.79 1433.93C3381.17 1432.83 3381.9 1431.88 3382.87 1431.22C3383.83 1430.56 3384.98 1430.23 3386.15 1430.28H3395.9C3397.06 1430.25 3398.19 1430.6 3399.15 1431.26C3400.1 1431.91 3400.82 1432.86 3401.2 1433.95L3409.67 1458.62C3410.33 1460.76 3411.65 1462.64 3413.45 1463.97C3415.25 1465.3 3417.43 1466.03 3419.67 1466.03C3420.27 1466.03 3420.86 1465.98 3421.45 1465.87L3432.92 1463.87C3435.41 1463.41 3437.65 1462.07 3439.23 1460.08C3440.8 1458.1 3441.6 1455.61 3441.48 1453.08L3441.08 1426.92C3441.07 1425.77 3441.43 1424.64 3442.11 1423.71C3442.78 1422.77 3443.73 1422.08 3444.83 1421.72C3448.67 1420.43 3451.37 1419.39 3453.74 1418.47L3454.34 1418.24C3457.44 1417.17 3458.94 1418.47 3459.81 1419.55L3476.56 1440.18C3478.06 1442.22 3480.26 1443.64 3482.74 1444.16C3485.22 1444.68 3487.81 1444.27 3490 1443L3500.07 1437.17C3502.27 1435.9 3503.93 1433.86 3504.72 1431.44C3505.52 1429.03 3505.4 1426.4 3504.38 1424.07L3495.14 1399.73C3494.73 1398.65 3494.68 1397.46 3494.98 1396.34C3495.28 1395.22 3495.93 1394.23 3496.83 1393.5C3499.26 1391.5 3501.75 1389.5 3504.23 1387.28C3505.09 1386.51 3506.17 1386.03 3507.32 1385.92C3508.47 1385.81 3509.62 1386.07 3510.61 1386.66L3533 1400.06C3535.12 1401.44 3537.68 1402 3540.18 1401.63C3542.69 1401.27 3544.98 1400 3546.61 1398.06L3554.01 1389.16C3555.65 1387.22 3556.52 1384.75 3556.45 1382.21C3556.38 1379.68 3555.38 1377.25 3553.64 1375.41L3536.58 1355.74C3535.82 1354.86 3535.37 1353.75 3535.29 1352.59C3535.21 1351.43 3535.5 1350.27 3536.13 1349.29C3537.84 1346.58 3539.47 1343.72 3540.95 1340.85C3541.51 1339.82 3542.37 1339 3543.42 1338.49C3544.48 1337.99 3545.66 1337.82 3546.81 1338.03L3572.29 1343C3574.76 1343.6 3577.36 1343.26 3579.6 1342.06C3581.84 1340.86 3583.56 1338.88 3584.43 1336.49L3588.38 1325.61C3589.26 1323.23 3589.24 1320.61 3588.32 1318.24C3587.4 1315.87 3585.64 1313.93 3583.38 1312.77L3560.58 1300.1C3559.57 1299.53 3558.77 1298.65 3558.3 1297.59C3557.83 1296.53 3557.71 1295.34 3557.97 1294.21L3558.21 1292.94C3558.73 1290.15 3559.21 1287.51 3559.67 1284.7C3559.83 1283.56 3560.35 1282.49 3561.15 1281.66C3561.95 1280.82 3562.99 1280.26 3564.13 1280.06L3589.82 1275.92C3592.34 1275.62 3594.66 1274.4 3596.35 1272.51C3598.04 1270.62 3598.98 1268.18 3599 1265.64V1253.93ZM3316.55 1347.93C3315.3 1350.1 3313.56 1351.94 3311.47 1353.3C3309.37 1354.66 3306.98 1355.51 3304.49 1355.77C3302.01 1356.03 3299.5 1355.69 3297.16 1354.79C3294.83 1353.89 3292.75 1352.45 3291.08 1350.59C3268.55 1325.68 3256.11 1293.27 3256.19 1259.68C3256.27 1226.1 3268.86 1193.75 3291.5 1168.94C3293.18 1167.08 3295.27 1165.64 3297.61 1164.75C3299.95 1163.85 3302.47 1163.53 3304.96 1163.8C3307.45 1164.07 3309.84 1164.93 3311.93 1166.3C3314.03 1167.68 3315.76 1169.53 3317 1171.71L3362.65 1252.06C3364.02 1254.46 3364.74 1257.17 3364.74 1259.93C3364.74 1262.69 3364.02 1265.4 3362.65 1267.8L3316.55 1347.93ZM3391 1395.11C3381.48 1395.11 3371.99 1394.11 3362.69 1392.11C3360.27 1391.57 3358 1390.46 3356.09 1388.88C3354.17 1387.31 3352.65 1385.3 3351.66 1383.02C3350.66 1380.75 3350.21 1378.27 3350.35 1375.79C3350.49 1373.31 3351.21 1370.9 3352.46 1368.75L3398.46 1288.75C3399.84 1286.34 3401.84 1284.34 3404.24 1282.94C3406.65 1281.55 3409.38 1280.82 3412.16 1280.82H3504.3C3506.78 1280.82 3509.23 1281.4 3511.45 1282.52C3513.66 1283.63 3515.58 1285.26 3517.05 1287.26C3518.52 1289.26 3519.5 1291.58 3519.91 1294.02C3520.32 1296.47 3520.14 1298.98 3519.4 1301.35C3501.91 1355.67 3451 1395.11 3391 1395.11ZM3398.51 1231.21L3353 1151.07C3351.77 1148.92 3351.06 1146.51 3350.93 1144.03C3350.8 1141.55 3351.26 1139.08 3352.26 1136.81C3353.26 1134.54 3354.79 1132.54 3356.71 1130.97C3358.63 1129.4 3360.89 1128.3 3363.31 1127.77C3372.42 1125.85 3381.7 1124.89 3391 1124.89C3451 1124.89 3501.91 1164.33 3519.37 1218.68C3520.11 1221.05 3520.29 1223.56 3519.88 1226.01C3519.47 1228.45 3518.49 1230.77 3517.02 1232.77C3515.55 1234.77 3513.63 1236.4 3511.42 1237.51C3509.2 1238.63 3506.75 1239.21 3504.27 1239.21H3412.27C3409.47 1239.22 3406.73 1238.48 3404.31 1237.07C3401.89 1235.67 3399.89 1233.64 3398.51 1231.21Z" fill="white"/>
</g>
</g>
<g id="movie-outline">
<path id="outer_15" d="M4274 1631H3762V2143H4274V1631Z" fill="#191919"/>
<g id="film-outline 1">
<path id="Vector_23" d="M4198 1727H3838C3822.54 1727 3810 1739.54 3810 1755V2019C3810 2034.46 3822.54 2047 3838 2047H4198C4213.46 2047 4226 2034.46 4226 2019V1755C4226 1739.54 4213.46 1727 4198 1727Z" stroke="white" stroke-width="32" stroke-linejoin="round"/>
<path id="Vector_24" d="M4198 1967H4174C4158.54 1967 4146 1979.54 4146 1995V2019C4146 2034.46 4158.54 2047 4174 2047H4198C4213.46 2047 4226 2034.46 4226 2019V1995C4226 1979.54 4213.46 1967 4198 1967Z" stroke="white" stroke-width="32" stroke-linejoin="round"/>
<path id="Vector_25" d="M4198 1887H4174C4158.54 1887 4146 1899.54 4146 1915V1939C4146 1954.46 4158.54 1967 4174 1967H4198C4213.46 1967 4226 1954.46 4226 1939V1915C4226 1899.54 4213.46 1887 4198 1887Z" stroke="white" stroke-width="32" stroke-linejoin="round"/>
<path id="Vector_26" d="M4198 1807H4174C4158.54 1807 4146 1819.54 4146 1835V1859C4146 1874.46 4158.54 1887 4174 1887H4198C4213.46 1887 4226 1874.46 4226 1859V1835C4226 1819.54 4213.46 1807 4198 1807Z" stroke="white" stroke-width="32" stroke-linejoin="round"/>
<path id="Vector_27" d="M4198 1727H4174C4158.54 1727 4146 1739.54 4146 1755V1779C4146 1794.46 4158.54 1807 4174 1807H4198C4213.46 1807 4226 1794.46 4226 1779V1755C4226 1739.54 4213.46 1727 4198 1727Z" stroke="white" stroke-width="32" stroke-linejoin="round"/>
<path id="Vector_28" d="M3862 1967H3838C3822.54 1967 3810 1979.54 3810 1995V2019C3810 2034.46 3822.54 2047 3838 2047H3862C3877.46 2047 3890 2034.46 3890 2019V1995C3890 1979.54 3877.46 1967 3862 1967Z" stroke="white" stroke-width="32" stroke-linejoin="round"/>
<path id="Vector_29" d="M3862 1887H3838C3822.54 1887 3810 1899.54 3810 1915V1939C3810 1954.46 3822.54 1967 3838 1967H3862C3877.46 1967 3890 1954.46 3890 1939V1915C3890 1899.54 3877.46 1887 3862 1887Z" stroke="white" stroke-width="32" stroke-linejoin="round"/>
<path id="Vector_30" d="M3862 1807H3838C3822.54 1807 3810 1819.54 3810 1835V1859C3810 1874.46 3822.54 1887 3838 1887H3862C3877.46 1887 3890 1874.46 3890 1859V1835C3890 1819.54 3877.46 1807 3862 1807Z" stroke="white" stroke-width="32" stroke-linejoin="round"/>
<path id="Vector_31" d="M3862 1727H3838C3822.54 1727 3810 1739.54 3810 1755V1779C3810 1794.46 3822.54 1807 3838 1807H3862C3877.46 1807 3890 1794.46 3890 1779V1755C3890 1739.54 3877.46 1727 3862 1727Z" stroke="white" stroke-width="32" stroke-linejoin="round"/>
<path id="Vector_32" d="M4118 1727H3918C3902.54 1727 3890 1739.54 3890 1755V1859C3890 1874.46 3902.54 1887 3918 1887H4118C4133.46 1887 4146 1874.46 4146 1859V1755C4146 1739.54 4133.46 1727 4118 1727Z" stroke="white" stroke-width="32" stroke-linejoin="round"/>
<path id="Vector_33" d="M4118 1887H3918C3902.54 1887 3890 1899.54 3890 1915V2019C3890 2034.46 3902.54 2047 3918 2047H4118C4133.46 2047 4146 2034.46 4146 2019V1915C4146 1899.54 4133.46 1887 4118 1887Z" stroke="white" stroke-width="32" stroke-linejoin="round"/>
</g>
</g>
<g id="movie">
<path id="outer_16" d="M4274 1004H3762V1516H4274V1004Z" fill="#191919"/>
<g id="film 1">
<path id="Vector_34" d="M4198 1084H3838C3826.33 1084.01 3815.15 1088.65 3806.9 1096.9C3798.65 1105.15 3794.01 1116.33 3794 1128V1392C3794.01 1403.67 3798.65 1414.85 3806.9 1423.1C3815.15 1431.35 3826.33 1435.99 3838 1436H4198C4209.67 1435.99 4220.85 1431.35 4229.1 1423.1C4237.35 1414.85 4241.99 1403.67 4242 1392V1128C4241.99 1116.33 4237.35 1105.15 4229.1 1096.9C4220.85 1088.65 4209.67 1084.01 4198 1084ZM3874 1392C3874 1395.18 3872.74 1398.23 3870.49 1400.49C3868.23 1402.74 3865.18 1404 3862 1404H3838C3834.82 1404 3831.77 1402.74 3829.51 1400.49C3827.26 1398.23 3826 1395.18 3826 1392V1368C3826 1364.82 3827.26 1361.77 3829.51 1359.51C3831.77 1357.26 3834.82 1356 3838 1356H3862C3865.18 1356 3868.23 1357.26 3870.49 1359.51C3872.74 1361.77 3874 1364.82 3874 1368V1392ZM3874 1312C3874 1315.18 3872.74 1318.23 3870.49 1320.49C3868.23 1322.74 3865.18 1324 3862 1324H3838C3834.82 1324 3831.77 1322.74 3829.51 1320.49C3827.26 1318.23 3826 1315.18 3826 1312V1288C3826 1284.82 3827.26 1281.77 3829.51 1279.51C3831.77 1277.26 3834.82 1276 3838 1276H3862C3865.18 1276 3868.23 1277.26 3870.49 1279.51C3872.74 1281.77 3874 1284.82 3874 1288V1312ZM3874 1232C3874 1235.18 3872.74 1238.23 3870.49 1240.49C3868.23 1242.74 3865.18 1244 3862 1244H3838C3834.82 1244 3831.77 1242.74 3829.51 1240.49C3827.26 1238.23 3826 1235.18 3826 1232V1208C3826 1204.82 3827.26 1201.77 3829.51 1199.51C3831.77 1197.26 3834.82 1196 3838 1196H3862C3865.18 1196 3868.23 1197.26 3870.49 1199.51C3872.74 1201.77 3874 1204.82 3874 1208V1232ZM3874 1152C3874 1155.18 3872.74 1158.23 3870.49 1160.49C3868.23 1162.74 3865.18 1164 3862 1164H3838C3834.82 1164 3831.77 1162.74 3829.51 1160.49C3827.26 1158.23 3826 1155.18 3826 1152V1128C3826 1124.82 3827.26 1121.77 3829.51 1119.51C3831.77 1117.26 3834.82 1116 3838 1116H3862C3865.18 1116 3868.23 1117.26 3870.49 1119.51C3872.74 1121.77 3874 1124.82 3874 1128V1152ZM4115.68 1276H3920.32C3916.08 1276 3912.01 1274.31 3909.01 1271.31C3906.01 1268.31 3904.32 1264.24 3904.32 1260C3904.32 1255.76 3906.01 1251.69 3909.01 1248.69C3912.01 1245.69 3916.08 1244 3920.32 1244H4115.68C4119.92 1244 4123.99 1245.69 4126.99 1248.69C4129.99 1251.69 4131.68 1255.76 4131.68 1260C4131.68 1264.24 4129.99 1268.31 4126.99 1271.31C4123.99 1274.31 4119.92 1276 4115.68 1276ZM4210 1392C4210 1395.18 4208.74 1398.23 4206.49 1400.49C4204.23 1402.74 4201.18 1404 4198 1404H4174C4170.82 1404 4167.77 1402.74 4165.51 1400.49C4163.26 1398.23 4162 1395.18 4162 1392V1368C4162 1364.82 4163.26 1361.77 4165.51 1359.51C4167.77 1357.26 4170.82 1356 4174 1356H4198C4201.18 1356 4204.23 1357.26 4206.49 1359.51C4208.74 1361.77 4210 1364.82 4210 1368V1392ZM4210 1312C4210 1315.18 4208.74 1318.23 4206.49 1320.49C4204.23 1322.74 4201.18 1324 4198 1324H4174C4170.82 1324 4167.77 1322.74 4165.51 1320.49C4163.26 1318.23 4162 1315.18 4162 1312V1288C4162 1284.82 4163.26 1281.77 4165.51 1279.51C4167.77 1277.26 4170.82 1276 4174 1276H4198C4201.18 1276 4204.23 1277.26 4206.49 1279.51C4208.74 1281.77 4210 1284.82 4210 1288V1312ZM4210 1232C4210 1235.18 4208.74 1238.23 4206.49 1240.49C4204.23 1242.74 4201.18 1244 4198 1244H4174C4170.82 1244 4167.77 1242.74 4165.51 1240.49C4163.26 1238.23 4162 1235.18 4162 1232V1208C4162 1204.82 4163.26 1201.77 4165.51 1199.51C4167.77 1197.26 4170.82 1196 4174 1196H4198C4201.18 1196 4204.23 1197.26 4206.49 1199.51C4208.74 1201.77 4210 1204.82 4210 1208V1232ZM4210 1152C4210 1155.18 4208.74 1158.23 4206.49 1160.49C4204.23 1162.74 4201.18 1164 4198 1164H4174C4170.82 1164 4167.77 1162.74 4165.51 1160.49C4163.26 1158.23 4162 1155.18 4162 1152V1128C4162 1124.82 4163.26 1121.77 4165.51 1119.51C4167.77 1117.26 4170.82 1116 4174 1116H4198C4201.18 1116 4204.23 1117.26 4206.49 1119.51C4208.74 1121.77 4210 1124.82 4210 1128V1152Z" fill="white"/>
</g>
</g>
<g id="series-outline">
<path id="outer_17" d="M4901 1631H4389V2143H4901V1631Z" fill="#191919"/>
<g id="easel-outline 1">
<path id="Vector_35" d="M4821 1711H4469C4451.33 1711 4437 1725.33 4437 1743V1951C4437 1968.67 4451.33 1983 4469 1983H4821C4838.67 1983 4853 1968.67 4853 1951V1743C4853 1725.33 4838.67 1711 4821 1711Z" stroke="white" stroke-width="32" stroke-linejoin="round"/>
<path id="Vector_36" d="M4645 2047V1983" stroke="white" stroke-width="32" stroke-linecap="round" stroke-linejoin="round"/>
<path id="Vector_37" d="M4645 1711V1679" stroke="white" stroke-width="32" stroke-linecap="round" stroke-linejoin="round"/>
<path id="Vector_38" d="M4789 2095L4757 1983" stroke="white" stroke-width="32" stroke-linecap="round" stroke-linejoin="round"/>
<path id="Vector_39" d="M4501 2095L4533 1983" stroke="white" stroke-width="32" stroke-linecap="round" stroke-linejoin="round"/>
</g>
</g>
<g id="series">
<path id="outer_18" d="M4901 1004H4389V1516H4901V1004Z" fill="#191919"/>
<g id="easel 1">
<path id="Vector_40" d="M4809 1116H4481C4474.37 1116 4469 1121.37 4469 1128V1312C4469 1318.63 4474.37 1324 4481 1324H4809C4815.63 1324 4821 1318.63 4821 1312V1128C4821 1121.37 4815.63 1116 4809 1116Z" fill="white"/>
<path id="Vector_41" d="M4821 1068H4661V1052C4661 1047.76 4659.31 1043.69 4656.31 1040.69C4653.31 1037.69 4649.24 1036 4645 1036C4640.76 1036 4636.69 1037.69 4633.69 1040.69C4630.69 1043.69 4629 1047.76 4629 1052V1068H4469C4456.27 1068.01 4444.07 1073.07 4435.07 1082.07C4426.07 1091.07 4421.01 1103.27 4421 1116V1324C4421.01 1336.73 4426.07 1348.93 4435.07 1357.93C4444.07 1366.93 4456.27 1371.99 4469 1372H4511.79L4485.62 1463.6C4485 1465.63 4484.78 1467.77 4484.99 1469.89C4485.21 1472 4485.84 1474.06 4486.85 1475.93C4487.87 1477.8 4489.24 1479.45 4490.9 1480.78C4492.56 1482.11 4494.47 1483.1 4496.51 1483.68C4498.56 1484.27 4500.7 1484.44 4502.81 1484.18C4504.92 1483.93 4506.97 1483.26 4508.82 1482.21C4510.67 1481.16 4512.29 1479.75 4513.59 1478.07C4514.88 1476.38 4515.83 1474.46 4516.38 1472.4L4545.07 1372H4629V1420C4629 1424.24 4630.69 1428.31 4633.69 1431.31C4636.69 1434.31 4640.76 1436 4645 1436C4649.24 1436 4653.31 1434.31 4656.31 1431.31C4659.31 1428.31 4661 1424.24 4661 1420V1372H4744.93L4773.62 1472.4C4774.17 1474.46 4775.12 1476.38 4776.41 1478.07C4777.71 1479.75 4779.33 1481.16 4781.18 1482.21C4783.03 1483.26 4785.08 1483.93 4787.19 1484.18C4789.3 1484.44 4791.44 1484.27 4793.49 1483.68C4795.53 1483.1 4797.44 1482.11 4799.1 1480.78C4800.76 1479.45 4802.13 1477.8 4803.15 1475.93C4804.16 1474.06 4804.79 1472 4805.01 1469.89C4805.22 1467.77 4805 1465.63 4804.38 1463.6L4778.21 1372H4821C4833.73 1371.99 4845.93 1366.93 4854.93 1357.93C4863.93 1348.93 4868.99 1336.73 4869 1324V1116C4868.99 1103.27 4863.93 1091.07 4854.93 1082.07C4845.93 1073.07 4833.73 1068.01 4821 1068ZM4837 1324C4837 1328.24 4835.31 1332.31 4832.31 1335.31C4829.31 1338.31 4825.24 1340 4821 1340H4469C4464.76 1340 4460.69 1338.31 4457.69 1335.31C4454.69 1332.31 4453 1328.24 4453 1324V1116C4453 1111.76 4454.69 1107.69 4457.69 1104.69C4460.69 1101.69 4464.76 1100 4469 1100H4821C4825.24 1100 4829.31 1101.69 4832.31 1104.69C4835.31 1107.69 4837 1111.76 4837 1116V1324Z" fill="white"/>
</g>
</g>
<g id="channel-outline">
<path id="outer_19" d="M5528 1632H5016V2144H5528V1632Z" fill="#191919"/>
<g id="tv-outline 1">
<path id="Vector_42" d="M5463.86 1728H5080.14C5062.39 1728 5048 1742.39 5048 1760.14V1967.86C5048 1985.61 5062.39 2000 5080.14 2000H5463.86C5481.61 2000 5496 1985.61 5496 1967.86V1760.14C5496 1742.39 5481.61 1728 5463.86 1728Z" stroke="white" stroke-width="32" stroke-linejoin="round"/>
<path id="Vector_43" d="M5144 2048H5400" stroke="white" stroke-width="32" stroke-miterlimit="10" stroke-linecap="round"/>
</g>
</g>
<g id="channel">
<path id="outer_20" d="M5528 1005H5016V1517H5528V1005Z" fill="#191919"/>
<g id="tv 1">
<path id="Vector_44" d="M5463.86 1389H5080.14C5067.38 1388.98 5055.14 1383.91 5046.12 1374.88C5037.09 1365.86 5032.02 1353.62 5032 1340.86V1133.14C5032.02 1120.38 5037.09 1108.14 5046.12 1099.12C5055.14 1090.09 5067.38 1085.02 5080.14 1085H5463.86C5476.62 1085.02 5488.86 1090.09 5497.88 1099.12C5506.91 1108.14 5511.98 1120.38 5512 1133.14V1340.86C5511.98 1353.62 5506.91 1365.86 5497.88 1374.88C5488.86 1383.91 5476.62 1388.98 5463.86 1389Z" fill="white"/>
<path id="Vector_45" d="M5144 1421H5400" stroke="white" stroke-width="32" stroke-miterlimit="10" stroke-linecap="round"/>
</g>
</g>
<g id="tv-outline">
<path id="outer_21" d="M6155 1631H5643V2143H6155V1631Z" fill="#191919"/>
<g id="videocam-outline 1">
<path id="Vector_46" d="M6017.79 1939.78L6100.5 1998C6102.94 1999.08 6105.6 1999.54 6108.26 1999.33C6110.92 1999.12 6113.48 1998.25 6115.72 1996.8C6117.95 1995.34 6119.79 1993.36 6121.06 1991.01C6122.33 1988.67 6123 1986.05 6123 1983.38V1790.62C6123 1787.95 6122.33 1785.33 6121.06 1782.99C6119.79 1780.64 6117.95 1778.66 6115.72 1777.2C6113.48 1775.75 6110.92 1774.88 6108.26 1774.67C6105.6 1774.46 6102.94 1774.92 6100.5 1776L6017.79 1834.22C6015.69 1835.7 6013.98 1837.66 6012.8 1839.93C6011.62 1842.21 6011 1844.74 6011 1847.3V1926.7C6011 1929.26 6011.62 1931.79 6012.8 1934.07C6013.98 1936.34 6015.69 1938.3 6017.79 1939.78Z" stroke="white" stroke-width="32" stroke-linecap="round" stroke-linejoin="round"/>
<path id="Vector_47" d="M5911 2015H5727C5713.22 2014.96 5700.02 2009.47 5690.27 1999.73C5680.53 1989.98 5675.04 1976.78 5675 1963V1811C5675.04 1797.22 5680.53 1784.02 5690.27 1774.27C5700.02 1764.53 5713.22 1759.04 5727 1759H5911.48C5925.13 1759.04 5938.21 1764.48 5947.86 1774.14C5957.52 1783.79 5962.96 1796.87 5963 1810.52V1963C5962.96 1976.78 5957.47 1989.98 5947.73 1999.73C5937.98 2009.47 5924.78 2014.96 5911 2015Z" stroke="white" stroke-width="32" stroke-miterlimit="10"/>
</g>
</g>
<g id="tv">
<path id="outer_22" d="M6155 1004H5643V1516H6155V1004Z" fill="#191919"/>
<g id="videocam 1">
<path id="Vector_48" d="M6107 1388.39C6102.52 1388.39 6098.09 1387.44 6094 1385.62C6093.05 1385.2 6092.14 1384.68 6091.29 1384.08L6008.58 1325.86C6004.39 1322.91 6000.96 1318.99 5998.6 1314.44C5996.24 1309.88 5995 1304.83 5995 1299.7V1220.3C5995 1215.17 5996.24 1210.12 5998.6 1205.56C6000.96 1201.01 6004.39 1197.09 6008.58 1194.14L6091.29 1135.92C6092.14 1135.32 6093.05 1134.8 6094 1134.38C6098.87 1132.21 6104.21 1131.3 6109.52 1131.72C6114.84 1132.14 6119.96 1133.88 6124.44 1136.79C6128.91 1139.69 6132.58 1143.67 6135.12 1148.35C6137.67 1153.04 6139 1158.29 6139 1163.62V1356.38C6139 1364.87 6135.63 1373.01 6129.63 1379.01C6123.63 1385.01 6115.49 1388.38 6107 1388.38V1388.39Z" fill="white"/>
<path id="Vector_49" d="M5911 1404H5727C5708.97 1403.98 5691.69 1396.81 5678.94 1384.06C5666.19 1371.31 5659.02 1354.03 5659 1336V1184C5659.02 1165.97 5666.19 1148.69 5678.94 1135.94C5691.69 1123.19 5708.97 1116.02 5727 1116H5911.48C5929.38 1116.02 5946.54 1123.14 5959.2 1135.8C5971.86 1148.46 5978.98 1165.62 5979 1183.52V1336C5978.98 1354.03 5971.81 1371.31 5959.06 1384.06C5946.31 1396.81 5929.03 1403.98 5911 1404Z" fill="white"/>
</g>
</g>
<g id="back-outline">
<path id="outer_23" d="M6782 1631H6270V2143H6782V1631Z" fill="#191919"/>
<g id="chevron-back-outline 1">
<path id="Vector_50" d="M6598 1743L6454 1887L6598 2031" stroke="white" stroke-width="48" stroke-linecap="round" stroke-linejoin="round"/>
</g>
</g>
<g id="back">
<path id="outer_24" d="M6782 1004H6270V1516H6782V1004Z" fill="#191919"/>
<g id="chevron-back 1">
<path id="Vector_51" d="M6598 1116L6454 1260L6598 1404" stroke="white" stroke-width="48" stroke-linecap="round" stroke-linejoin="round"/>
</g>
</g>
<g id="ellipsis-horizontal-outline">
<path id="outer_25" d="M7409 1633H6897V2145H7409V1633Z" fill="#191919"/>
<g id="ellipsis-horizontal-outline 1">
<path id="Vector_52" d="M7153 1921C7170.67 1921 7185 1906.67 7185 1889C7185 1871.33 7170.67 1857 7153 1857C7135.33 1857 7121 1871.33 7121 1889C7121 1906.67 7135.33 1921 7153 1921Z" stroke="white" stroke-width="32" stroke-miterlimit="10"/>
<path id="Vector_53" d="M7313 1921C7330.67 1921 7345 1906.67 7345 1889C7345 1871.33 7330.67 1857 7313 1857C7295.33 1857 7281 1871.33 7281 1889C7281 1906.67 7295.33 1921 7313 1921Z" stroke="white" stroke-width="32" stroke-miterlimit="10"/>
<path id="Vector_54" d="M6993 1921C7010.67 1921 7025 1906.67 7025 1889C7025 1871.33 7010.67 1857 6993 1857C6975.33 1857 6961 1871.33 6961 1889C6961 1906.67 6975.33 1921 6993 1921Z" stroke="white" stroke-width="32" stroke-miterlimit="10"/>
</g>
</g>
<g id="ellipsis-horizontal">
<path id="outer_26" d="M7409 1006H6897V1518H7409V1006Z" fill="#191919"/>
<g id="ellipsis-horizontal 1">
<path id="Vector_55" d="M7153 1310C7179.51 1310 7201 1288.51 7201 1262C7201 1235.49 7179.51 1214 7153 1214C7126.49 1214 7105 1235.49 7105 1262C7105 1288.51 7126.49 1310 7153 1310Z" fill="white"/>
<path id="Vector_56" d="M7313 1310C7339.51 1310 7361 1288.51 7361 1262C7361 1235.49 7339.51 1214 7313 1214C7286.49 1214 7265 1235.49 7265 1262C7265 1288.51 7286.49 1310 7313 1310Z" fill="white"/>
<path id="Vector_57" d="M6993 1310C7019.51 1310 7041 1288.51 7041 1262C7041 1235.49 7019.51 1214 6993 1214C6966.49 1214 6945 1235.49 6945 1262C6945 1288.51 6966.49 1310 6993 1310Z" fill="white"/>
</g>
</g>
<g id="ellipsis-vertical">
<path id="outer_27" d="M8036 1005H7524V1517H8036V1005Z" fill="#191919"/>
<g id="ellipsis-vertical 1">
<path id="Vector_58" d="M7780 1309C7806.51 1309 7828 1287.51 7828 1261C7828 1234.49 7806.51 1213 7780 1213C7753.49 1213 7732 1234.49 7732 1261C7732 1287.51 7753.49 1309 7780 1309Z" fill="white"/>
<path id="Vector_59" d="M7780 1469C7806.51 1469 7828 1447.51 7828 1421C7828 1394.49 7806.51 1373 7780 1373C7753.49 1373 7732 1394.49 7732 1421C7732 1447.51 7753.49 1469 7780 1469Z" fill="white"/>
<path id="Vector_60" d="M7780 1149C7806.51 1149 7828 1127.51 7828 1101C7828 1074.49 7806.51 1053 7780 1053C7753.49 1053 7732 1074.49 7732 1101C7732 1127.51 7753.49 1149 7780 1149Z" fill="white"/>
</g>
</g>
<g id="star">
<path id="outer_28" d="M8663 1004H8151V1516H8663V1004Z" fill="#191919"/>
<g id="star 1">
<path id="Vector_61" d="M8545 1484C8541.63 1484.01 8538.35 1482.96 8535.61 1481L8407 1387.76L8278.39 1481C8275.64 1482.99 8272.33 1484.06 8268.94 1484.05C8265.54 1484.04 8262.24 1482.94 8259.51 1480.93C8256.77 1478.92 8254.75 1476.09 8253.73 1472.85C8252.71 1469.61 8252.75 1466.14 8253.84 1462.92L8304 1314.35L8174 1225.2C8171.18 1223.27 8169.06 1220.49 8167.93 1217.27C8166.81 1214.05 8166.75 1210.55 8167.75 1207.29C8168.76 1204.03 8170.78 1201.17 8173.52 1199.14C8176.27 1197.11 8179.59 1196.01 8183 1196H8343.38L8391.78 1047.05C8392.82 1043.83 8394.86 1041.03 8397.59 1039.04C8400.33 1037.06 8403.62 1035.98 8407 1035.98C8410.38 1035.98 8413.67 1037.06 8416.41 1039.04C8419.14 1041.03 8421.18 1043.83 8422.22 1047.05L8470.62 1196.05H8631C8634.42 1196.05 8637.75 1197.14 8640.5 1199.17C8643.25 1201.19 8645.28 1204.05 8646.29 1207.31C8647.3 1210.58 8647.24 1214.08 8646.12 1217.31C8645 1220.54 8642.87 1223.32 8640.05 1225.25L8510 1314.35L8560.13 1462.88C8560.94 1465.28 8561.17 1467.85 8560.8 1470.36C8560.42 1472.87 8559.46 1475.25 8557.98 1477.32C8556.5 1479.38 8554.55 1481.06 8552.3 1482.23C8550.04 1483.39 8547.54 1484 8545 1484Z" fill="white"/>
</g>
</g>
<g id="play">
<path id="outer_29" d="M512 2636H0V3148H512V2636Z" fill="#191919"/>
<g id="play 1">
<path id="Vector_62" d="M133 3076C126.86 3075.99 120.829 3074.38 115.5 3071.33C103.5 3064.53 96.04 3051.33 96.04 3037V2747C96.04 2732.63 103.5 2719.47 115.5 2712.67C120.956 2709.53 127.154 2707.92 133.447 2708C139.739 2708.08 145.895 2709.85 151.27 2713.12L399.12 2861.48C404.285 2864.72 408.544 2869.22 411.495 2874.55C414.447 2879.89 415.995 2885.88 415.995 2891.98C415.995 2898.08 414.447 2904.07 411.495 2909.41C408.544 2914.74 404.285 2919.24 399.12 2922.48L151.23 3070.88C145.729 3074.21 139.428 3075.98 133 3076Z" fill="white"/>
</g>
</g>
<g id="pause">
<path id="outer_30" d="M1139 2637H627V3149H1139V2637Z" fill="#191919"/>
<g id="pause 1">
<path id="Vector_63" d="M835 3069H787C782.757 3069 778.687 3067.31 775.686 3064.31C772.686 3061.31 771 3057.24 771 3053V2733C771 2728.76 772.686 2724.69 775.686 2721.69C778.687 2718.69 782.757 2717 787 2717H835C839.243 2717 843.313 2718.69 846.314 2721.69C849.314 2724.69 851 2728.76 851 2733V3053C851 3057.24 849.314 3061.31 846.314 3064.31C843.313 3067.31 839.243 3069 835 3069Z" fill="white"/>
<path id="Vector_64" d="M979 3069H931C926.757 3069 922.687 3067.31 919.686 3064.31C916.686 3061.31 915 3057.24 915 3053V2733C915 2728.76 916.686 2724.69 919.686 2721.69C922.687 2718.69 926.757 2717 931 2717H979C983.243 2717 987.313 2718.69 990.314 2721.69C993.314 2724.69 995 2728.76 995 2733V3053C995 3057.24 993.314 3061.31 990.314 3064.31C987.313 3067.31 983.243 3069 979 3069Z" fill="white"/>
</g>
</g>
<g id="next">
<path id="outer_31" d="M1766 2636H1254V3148H1766V2636Z" fill="#191919"/>
<g id="play-skip-forward 1">
<path id="Vector_65" d="M1654 2700C1649.76 2700 1645.69 2701.69 1642.69 2704.69C1639.69 2707.69 1638 2711.76 1638 2716V2852.43L1405.23 2713.11C1399.85 2709.84 1393.7 2708.07 1387.41 2708C1381.11 2707.92 1374.92 2709.53 1369.46 2712.67C1357.46 2719.47 1350 2732.63 1350 2747V3037C1350 3051.37 1357.46 3064.53 1369.46 3071.33C1374.92 3074.46 1381.11 3076.08 1387.41 3076C1393.7 3075.92 1399.85 3074.15 1405.23 3070.88L1638 2931.57V3068C1638 3072.24 1639.69 3076.31 1642.69 3079.31C1645.69 3082.31 1649.76 3084 1654 3084C1658.24 3084 1662.31 3082.31 1665.31 3079.31C1668.31 3076.31 1670 3072.24 1670 3068V2716C1670 2711.76 1668.31 2707.69 1665.31 2704.69C1662.31 2701.69 1658.24 2700 1654 2700Z" fill="white"/>
</g>
</g>
<g id="volume-off">
<path id="outer_32" d="M2393 2638H1881V3150H2393V2638Z" fill="#191919"/>
<g id="volume-off 1">
<path id="Vector_66" d="M2225 3054C2219.88 3054 2214.9 3052.35 2210.79 3049.31C2210.56 3049.15 2210.35 3048.98 2210.13 3048.8L2118.67 2973.9H2049C2042.63 2973.9 2036.53 2971.37 2032.03 2966.87C2027.53 2962.37 2025 2956.27 2025 2949.9V2838.07C2025 2831.7 2027.53 2825.6 2032.03 2821.1C2036.53 2816.6 2042.63 2814.07 2049 2814.07H2118.65L2210.11 2739.17C2210.33 2738.99 2210.54 2738.82 2210.77 2738.66C2214.35 2736.03 2218.58 2734.44 2223.01 2734.07C2227.43 2733.7 2231.87 2734.57 2235.83 2736.57C2239.8 2738.58 2243.12 2741.64 2245.45 2745.42C2247.77 2749.21 2249 2753.56 2249 2758V3030C2249 3036.37 2246.47 3042.47 2241.97 3046.97C2237.47 3051.47 2231.37 3054 2225 3054Z" fill="white"/>
</g>
</g>
<g id="volume-low">
<path id="outer_33" d="M3020 2637H2508V3149H3020V2637Z" fill="#191919"/>
<g id="volume-low 1">
<path id="Vector_67" d="M2804 3053.19C2798.88 3053.19 2793.9 3051.54 2789.79 3048.5L2789.13 3047.99L2697.67 2972.99H2628C2621.63 2972.99 2615.53 2970.46 2611.03 2965.96C2606.53 2961.46 2604 2955.36 2604 2948.99V2837C2604 2830.63 2606.53 2824.53 2611.03 2820.03C2615.53 2815.53 2621.63 2813 2628 2813H2697.65L2789.11 2738L2789.77 2737.49C2793.35 2734.86 2797.58 2733.27 2802.01 2732.9C2806.43 2732.53 2810.87 2733.4 2814.83 2735.4C2818.8 2737.41 2822.12 2740.47 2824.45 2744.25C2826.77 2748.04 2828 2752.39 2828 2756.83V3029.17C2828 3035.54 2825.47 3041.64 2820.97 3046.14C2816.47 3050.64 2810.37 3053.17 2804 3053.17V3053.19Z" fill="white"/>
<path id="Vector_68" d="M2892 2973C2889.27 2973 2886.59 2972.3 2884.21 2970.97C2881.82 2969.64 2879.82 2967.72 2878.39 2965.4C2876.96 2963.07 2876.14 2960.42 2876.02 2957.7C2875.9 2954.97 2876.49 2952.26 2877.71 2949.82C2887.2 2930.92 2892.01 2911.82 2892.01 2893C2892.01 2873.64 2887.35 2855.08 2877.76 2836.27C2875.92 2832.5 2875.64 2828.16 2876.97 2824.18C2878.3 2820.21 2881.14 2816.91 2884.87 2815.01C2888.61 2813.1 2892.94 2812.74 2896.94 2814C2900.94 2815.25 2904.29 2818.03 2906.26 2821.73C2918.2 2845.16 2924 2868.47 2924 2893C2924 2916.83 2918 2940.78 2906.3 2964.18C2904.97 2966.83 2902.93 2969.06 2900.4 2970.62C2897.88 2972.18 2894.97 2973 2892 2973Z" fill="white"/>
</g>
</g>
<g id="volume-medium">
<path id="outer_34" d="M3647 2637H3135V3149H3647V2637Z" fill="#191919"/>
<g id="volume-medium 1">
<path id="Vector_69" d="M3399 3053.19C3393.88 3053.19 3388.9 3051.54 3384.79 3048.5L3384.13 3047.99L3292.67 2972.99H3223C3216.63 2972.99 3210.53 2970.46 3206.03 2965.96C3201.53 2961.46 3199 2955.36 3199 2948.99V2837C3199 2830.63 3201.53 2824.53 3206.03 2820.03C3210.53 2815.53 3216.63 2813 3223 2813H3292.65L3384.11 2738L3384.77 2737.49C3388.35 2734.86 3392.58 2733.27 3397.01 2732.9C3401.43 2732.53 3405.87 2733.4 3409.83 2735.4C3413.8 2737.41 3417.12 2740.47 3419.45 2744.25C3421.77 2748.04 3423 2752.39 3423 2756.83V3029.17C3423 3035.54 3420.47 3041.64 3415.97 3046.14C3411.47 3050.64 3405.37 3053.17 3399 3053.17V3053.19Z" fill="white"/>
<path id="Vector_70" d="M3487 2973C3484.27 2973 3481.59 2972.3 3479.21 2970.97C3476.82 2969.64 3474.82 2967.72 3473.39 2965.4C3471.96 2963.07 3471.14 2960.42 3471.02 2957.7C3470.9 2954.97 3471.49 2952.26 3472.71 2949.82C3482.2 2930.92 3487.01 2911.82 3487.01 2893C3487.01 2873.64 3482.35 2855.08 3472.76 2836.27C3470.92 2832.5 3470.64 2828.16 3471.97 2824.18C3473.3 2820.21 3476.14 2816.91 3479.87 2815.01C3483.61 2813.1 3487.94 2812.74 3491.94 2814C3495.94 2815.25 3499.29 2818.03 3501.26 2821.73C3513.2 2845.16 3519 2868.47 3519 2893C3519 2916.83 3513 2940.78 3501.3 2964.18C3499.97 2966.83 3497.93 2969.06 3495.4 2970.62C3492.88 2972.18 3489.97 2973 3487 2973Z" fill="white"/>
<path id="Vector_71" d="M3535 3021C3532.19 3021 3529.43 3020.26 3527 3018.86C3524.56 3017.46 3522.54 3015.44 3521.13 3013.01C3519.73 3010.57 3518.99 3007.81 3518.99 3005C3518.99 3002.19 3519.73 2999.43 3521.13 2997C3540 2964.05 3551 2936.45 3551 2893C3551 2848.88 3540.06 2821.48 3521.17 2789.05C3519.22 2785.39 3518.77 2781.12 3519.9 2777.14C3521.04 2773.15 3523.67 2769.76 3527.26 2767.68C3530.84 2765.6 3535.09 2765 3539.12 2765.99C3543.14 2766.98 3546.62 2769.49 3548.83 2773C3569.92 2809.16 3583 2841.88 3583 2893C3583 2943.36 3569.94 2976.24 3548.88 3013C3547.47 3015.44 3545.45 3017.46 3543.01 3018.86C3540.58 3020.27 3537.81 3021 3535 3021Z" fill="white"/>
</g>
</g>
<g id="volume-high">
<path id="outer_35" d="M4274 2636H3762V3148H4274V2636Z" fill="#191919"/>
<g id="volume-high_2">
<path id="Vector_72" d="M3994 3052C3988.89 3052 3983.91 3050.36 3979.8 3047.32C3979.57 3047.16 3979.35 3046.99 3979.14 3046.81L3887.76 2972H3818C3811.63 2972 3805.53 2969.47 3801.03 2964.97C3796.53 2960.47 3794 2954.37 3794 2948V2836C3794 2829.63 3796.53 2823.53 3801.03 2819.03C3805.53 2814.53 3811.63 2812 3818 2812H3887.75L3979.12 2737.19C3979.33 2737.01 3979.55 2736.84 3979.78 2736.68C3983.35 2734.05 3987.59 2732.46 3992.01 2732.1C3996.43 2731.73 4000.87 2732.59 4004.83 2734.59C4008.79 2736.6 4012.11 2739.66 4014.44 2743.44C4016.77 2747.21 4018 2751.56 4018 2756V3028C4018 3034.37 4015.47 3040.47 4010.97 3044.97C4006.47 3049.47 4000.37 3052 3994 3052Z" fill="white"/>
<path id="Vector_73" d="M4082 2972C4079.27 2972 4076.58 2971.3 4074.2 2969.97C4071.82 2968.64 4069.81 2966.72 4068.38 2964.39C4066.95 2962.07 4066.14 2959.42 4066.02 2956.69C4065.9 2953.96 4066.48 2951.25 4067.71 2948.81C4077.2 2929.94 4082.01 2910.81 4082.01 2892C4082.01 2872.62 4077.35 2854.06 4067.76 2835.27C4065.92 2831.5 4065.64 2827.16 4066.97 2823.18C4068.3 2819.21 4071.14 2815.91 4074.87 2814.01C4078.61 2812.1 4082.94 2811.74 4086.94 2813C4090.94 2814.25 4094.29 2817.03 4096.26 2820.73C4108.19 2844.12 4114 2867.44 4114 2892C4114 2915.86 4108 2939.81 4096.3 2963.19C4094.97 2965.84 4092.92 2968.07 4090.4 2969.62C4087.87 2971.18 4084.97 2972 4082 2972Z" fill="white"/>
<path id="Vector_74" d="M4130 3020C4127.19 3020 4124.43 3019.26 4122 3017.86C4119.57 3016.45 4117.55 3014.43 4116.14 3012C4114.74 3009.57 4114 3006.81 4114 3004C4114 3001.19 4114.74 2998.43 4116.14 2996C4135.05 2963.09 4146 2935.51 4146 2892C4146 2847.83 4135.07 2820.44 4116.18 2788.06C4114.11 2784.4 4113.56 2780.07 4114.66 2776.01C4115.76 2771.95 4118.41 2768.48 4122.04 2766.36C4125.68 2764.24 4130 2763.64 4134.08 2764.68C4138.15 2765.73 4141.65 2768.33 4143.82 2771.94C4164.92 2808.11 4178 2840.81 4178 2892C4178 2942.43 4164.94 2975.29 4143.87 3012C4142.46 3014.43 4140.44 3016.46 4138.01 3017.86C4135.57 3019.26 4132.81 3020 4130 3020Z" fill="white"/>
<path id="Vector_75" d="M4178 3068C4175.12 3068 4172.29 3067.22 4169.82 3065.74C4167.34 3064.27 4165.31 3062.15 4163.94 3059.62C4162.57 3057.08 4161.91 3054.22 4162.03 3051.35C4162.14 3048.47 4163.04 3045.67 4164.61 3043.26C4191.85 3001.47 4210 2959.76 4210 2892C4210 2825.5 4191.82 2783.38 4164.51 2740.61C4163.38 2738.84 4162.61 2736.86 4162.24 2734.79C4161.88 2732.72 4161.92 2730.6 4162.38 2728.54C4162.83 2726.49 4163.68 2724.55 4164.89 2722.82C4166.09 2721.1 4167.63 2719.63 4169.4 2718.5C4171.17 2717.37 4173.15 2716.6 4175.22 2716.23C4177.29 2715.87 4179.41 2715.91 4181.47 2716.37C4183.52 2716.82 4185.46 2717.67 4187.19 2718.88C4188.91 2720.08 4190.38 2721.62 4191.51 2723.39C4221.81 2770.89 4242 2817.74 4242 2892C4242 2956.75 4227.34 3005.63 4191.4 3060.74C4189.95 3062.97 4187.96 3064.8 4185.62 3066.07C4183.28 3067.34 4180.66 3068 4178 3068Z" fill="white"/>
</g>
</g>
<g id="volume-mute">
<path id="outer_36" d="M4901 2636H4389V3148H4901V2636Z" fill="#191919"/>
<g id="volume-mute 1">
<path id="Vector_76" d="M4805 3068L4453 2716" stroke="white" stroke-width="32" stroke-miterlimit="10" stroke-linecap="round"/>
<path id="Vector_77" d="M4632.33 2734.86C4628.34 2732.71 4623.81 2731.73 4619.29 2732.06C4614.77 2732.38 4610.43 2733.98 4606.78 2736.68L4606.12 2737.19L4577.6 2760.54C4576.73 2761.25 4576.03 2762.13 4575.52 2763.13C4575.02 2764.13 4574.73 2765.22 4574.68 2766.33C4574.62 2767.45 4574.8 2768.57 4575.2 2769.61C4575.6 2770.65 4576.22 2771.6 4577.01 2772.39L4631.34 2826.72C4632.46 2827.84 4633.88 2828.6 4635.44 2828.91C4636.99 2829.22 4638.6 2829.06 4640.06 2828.46C4641.52 2827.85 4642.77 2826.82 4643.65 2825.51C4644.53 2824.19 4645 2822.64 4645 2821.06V2756.57C4645.04 2752.14 4643.89 2747.79 4641.66 2743.97C4639.43 2740.14 4636.21 2737 4632.33 2734.86Z" fill="white"/>
<path id="Vector_78" d="M4640.33 2971.29L4485.69 2816.69C4482.69 2813.69 4478.62 2812 4474.38 2812H4445C4438.63 2812 4432.53 2814.53 4428.03 2819.03C4423.53 2823.53 4421 2829.63 4421 2836V2948C4421 2954.37 4423.53 2960.47 4428.03 2964.97C4432.53 2969.47 4438.63 2972 4445 2972H4514.76L4606.76 3047.31C4610.45 3050.05 4614.86 3051.67 4619.45 3051.97C4624.03 3052.27 4628.61 3051.24 4632.63 3049C4636.43 3046.84 4639.57 3043.7 4641.75 3039.91C4643.92 3036.12 4645.05 3031.82 4645 3027.45V2982.59C4645 2978.35 4643.32 2974.29 4640.33 2971.29Z" fill="white"/>
<path id="Vector_79" d="M4741 2892C4741 2867.44 4735.19 2844.13 4723.25 2820.73C4722.3 2818.84 4720.99 2817.16 4719.39 2815.79C4717.8 2814.41 4715.94 2813.36 4713.93 2812.7C4711.93 2812.05 4709.81 2811.79 4707.71 2811.96C4705.61 2812.12 4703.55 2812.7 4701.68 2813.66C4699.8 2814.62 4698.12 2815.94 4696.76 2817.55C4695.39 2819.16 4694.36 2821.02 4693.71 2823.03C4693.07 2825.04 4692.83 2827.15 4693.01 2829.26C4693.19 2831.36 4693.78 2833.41 4694.75 2835.28C4704.34 2854.06 4709 2872.62 4709 2892C4709 2894.67 4708.9 2897.38 4708.69 2900.13C4708.6 2901.28 4708.77 2902.43 4709.17 2903.51C4709.57 2904.59 4710.2 2905.57 4711.01 2906.38L4725.37 2920.74C4726.41 2921.78 4727.71 2922.51 4729.14 2922.86C4730.56 2923.21 4732.06 2923.16 4733.46 2922.71C4734.86 2922.27 4736.11 2921.45 4737.07 2920.34C4738.03 2919.23 4738.67 2917.88 4738.92 2916.43C4740.3 2908.36 4740.99 2900.19 4741 2892Z" fill="white"/>
<path id="Vector_80" d="M4805 2892C4805 2840.82 4791.92 2808.11 4770.82 2771.94C4768.65 2768.33 4765.15 2765.73 4761.08 2764.68C4757 2763.64 4752.68 2764.24 4749.05 2766.36C4745.41 2768.48 4742.76 2771.95 4741.66 2776.01C4740.56 2780.07 4741.11 2784.4 4743.18 2788.06C4762.07 2820.44 4773 2847.83 4773 2892C4773 2915.83 4769.71 2934.88 4763.63 2952.65C4763.14 2954.07 4763.06 2955.59 4763.4 2957.05C4763.73 2958.51 4764.47 2959.85 4765.53 2960.91L4778 2973.4C4778.94 2974.34 4780.11 2975.04 4781.39 2975.42C4782.66 2975.8 4784.02 2975.85 4785.32 2975.57C4786.63 2975.29 4787.84 2974.7 4788.86 2973.83C4789.87 2972.96 4790.65 2971.86 4791.13 2970.61C4800 2947.76 4805 2923.26 4805 2892Z" fill="white"/>
<path id="Vector_81" d="M4869 2892C4869 2817.75 4848.81 2770.89 4818.49 2723.39C4816.21 2719.81 4812.59 2717.28 4808.45 2716.37C4804.3 2715.45 4799.96 2716.22 4796.38 2718.5C4792.8 2720.78 4790.27 2724.4 4789.36 2728.54C4788.44 2732.69 4789.21 2737.03 4791.49 2740.61C4818.82 2783.38 4837 2825.5 4837 2892C4837 2938.19 4828.57 2972.27 4814.57 3002.53C4813.88 3004.01 4813.67 3005.67 4813.95 3007.28C4814.24 3008.89 4815.01 3010.37 4816.16 3011.53L4828.08 3023.45C4828.98 3024.37 4830.09 3025.05 4831.31 3025.45C4832.53 3025.85 4833.83 3025.94 4835.1 3025.73C4836.37 3025.52 4837.57 3025 4838.59 3024.23C4839.62 3023.46 4840.45 3022.45 4841 3021.29C4860.6 2980.9 4869 2941 4869 2892Z" fill="white"/>
</g>
</g>
<g id="subtitles">
<path id="outer_37" d="M5528 2636H5016V3148H5528V2636Z" fill="#191919"/>
<g id="chatbox 1">
<path id="Vector_82" d="M5160 3100C5155.76 3100 5151.69 3098.31 5148.69 3095.31C5145.69 3092.31 5144 3088.24 5144 3084V3020H5120C5100.91 3019.98 5082.61 3012.39 5069.11 2998.89C5055.61 2985.39 5048.02 2967.09 5048 2948V2756C5048.02 2736.91 5055.61 2718.61 5069.11 2705.11C5082.61 2691.61 5100.91 2684.02 5120 2684H5424C5443.09 2684.02 5461.39 2691.61 5474.89 2705.11C5488.39 2718.61 5495.98 2736.91 5496 2756V2948C5495.98 2967.09 5488.39 2985.39 5474.89 2998.89C5461.39 3012.39 5443.09 3019.98 5424 3020H5261.74L5170.25 3096.29C5167.37 3098.68 5163.74 3100 5160 3100Z" fill="white"/>
</g>
</g>
<g id="audio-tracks">
<path id="outer_38" d="M6155 2636H5643V3148H6155V2636Z" fill="#191919"/>
<g id="ear 1">
<path id="Vector_83" d="M5899 2652C5802 2652 5723 2731 5723 2828V3034.57C5722.98 3060.19 5733.04 3084.79 5751 3103.06C5759.81 3112.2 5770.37 3119.48 5782.05 3124.45C5793.74 3129.42 5806.3 3131.99 5819 3132C5855.86 3132 5886.18 3116.38 5909.12 3085.58C5913.6 3079.58 5918.67 3070.84 5924.54 3060.73C5939.86 3034.36 5960.83 2998.26 5987.71 2979.99C6013.48 2962.48 6034.94 2940.45 6049.71 2916.27C6066.51 2888.94 6075 2859.24 6075 2828C6075 2731 5996.05 2652 5899 2652ZM5995 2836C5990.76 2836 5986.69 2834.31 5983.69 2831.31C5980.69 2828.31 5979 2824.24 5979 2820C5979 2780.3 5943.11 2748 5899 2748C5854.89 2748 5819 2780.3 5819 2820V2850.42C5846.19 2842.58 5877.4 2843.7 5883.28 2844C5892.06 2844.08 5900.65 2846.57 5908.11 2851.2C5915.58 2855.83 5921.63 2862.41 5925.61 2870.24C5929.59 2878.07 5931.35 2886.83 5930.69 2895.59C5930.03 2904.35 5926.98 2912.76 5921.88 2919.9C5921.58 2920.31 5921.27 2920.71 5920.93 2921.1C5904.38 2940.1 5884.93 2966.58 5882.47 2976.1C5881.32 2980.12 5878.64 2983.54 5875 2985.61C5871.37 2987.68 5867.06 2988.24 5863.02 2987.18C5858.97 2986.11 5855.5 2983.5 5853.35 2979.91C5851.21 2976.32 5850.55 2972.03 5851.53 2967.96C5857.04 2947.02 5888.46 2909.76 5896.19 2900.81C5897.78 2898.4 5898.69 2895.6 5898.82 2892.71C5898.95 2889.82 5898.29 2886.95 5896.92 2884.41C5895.55 2881.87 5893.51 2879.74 5891.03 2878.26C5888.55 2876.78 5885.71 2876 5882.82 2876H5881.94C5865.34 2875.11 5836.05 2876.8 5819 2884.31V2940C5819 2944.24 5817.31 2948.31 5814.31 2951.31C5811.31 2954.31 5807.24 2956 5803 2956C5798.76 2956 5794.69 2954.31 5791.69 2951.31C5788.69 2948.31 5787 2944.24 5787 2940V2820C5787 2762.65 5837.24 2716 5899 2716C5960.76 2716 6011 2762.65 6011 2820C6011 2824.24 6009.31 2828.31 6006.31 2831.31C6003.31 2834.31 5999.24 2836 5995 2836Z" fill="white"/>
</g>
</g>
<g id="speed">
<path id="outer_39" d="M6782 2636H6270V3148H6782V2636Z" fill="#191919"/>
<g id="speedometer 1">
<path id="Vector_84" d="M6695.7 2754.25C6651.54 2710.35 6592.05 2685.34 6529.79 2684.49C6467.54 2683.63 6407.38 2707.01 6362.04 2749.68C6316.69 2792.34 6289.7 2850.96 6286.77 2913.16C6283.84 2975.35 6305.19 3036.25 6346.32 3083L6346.5 3083.2C6346.83 3083.55 6347.14 3083.91 6347.5 3084.25C6348.24 3085.09 6349.08 3086.04 6350.07 3087.03C6353.95 3091.16 6358.65 3094.44 6363.85 3096.67C6369.06 3098.9 6374.68 3100.03 6380.34 3099.99C6386.01 3099.95 6391.6 3098.74 6396.78 3096.44C6401.96 3094.14 6406.61 3090.79 6410.43 3086.61C6425.15 3070.62 6443.02 3057.85 6462.92 3049.12C6482.83 3040.38 6504.33 3035.87 6526.06 3035.87C6547.79 3035.87 6569.29 3040.38 6589.2 3049.12C6609.1 3057.85 6626.97 3070.62 6641.69 3086.61C6645.54 3090.81 6650.23 3094.17 6655.44 3096.47C6660.66 3098.76 6666.3 3099.95 6672 3099.96C6677.7 3099.97 6683.34 3098.79 6688.57 3096.5C6693.79 3094.21 6698.48 3090.86 6702.34 3086.67L6705.55 3083.17L6705.73 3082.97C6746.26 3037.21 6767.79 2977.7 6765.93 2916.61C6764.07 2855.51 6738.96 2797.42 6695.73 2754.21L6695.7 2754.25ZM6510 2764C6510 2759.76 6511.69 2755.69 6514.69 2752.69C6517.69 2749.69 6521.76 2748 6526 2748C6530.24 2748 6534.31 2749.69 6537.31 2752.69C6540.31 2755.69 6542 2759.76 6542 2764V2796C6542 2800.24 6540.31 2804.31 6537.31 2807.31C6534.31 2810.31 6530.24 2812 6526 2812C6521.76 2812 6517.69 2810.31 6514.69 2807.31C6511.69 2804.31 6510 2800.24 6510 2796V2764ZM6398 2940H6366C6361.76 2940 6357.69 2938.31 6354.69 2935.31C6351.69 2932.31 6350 2928.24 6350 2924C6350 2919.76 6351.69 2915.69 6354.69 2912.69C6357.69 2909.69 6361.76 2908 6366 2908H6398C6402.24 2908 6406.31 2909.69 6409.31 2912.69C6412.31 2915.69 6414 2919.76 6414 2924C6414 2928.24 6412.31 2932.31 6409.31 2935.31C6406.31 2938.31 6402.24 2940 6398 2940ZM6446.8 2844.8C6443.8 2847.8 6439.73 2849.48 6435.49 2849.48C6431.25 2849.48 6427.18 2847.8 6424.18 2844.8L6401.55 2822.18C6398.55 2819.18 6396.86 2815.11 6396.86 2810.87C6396.86 2806.62 6398.55 2802.55 6401.55 2799.55C6404.55 2796.55 6408.62 2794.86 6412.87 2794.86C6417.11 2794.86 6421.18 2796.55 6424.18 2799.55L6446.8 2822.18C6449.8 2825.18 6451.48 2829.25 6451.48 2833.49C6451.48 2837.73 6449.8 2841.8 6446.8 2844.8ZM6596.1 2867.9L6548.6 2943.4C6546.66 2946.09 6544.29 2948.46 6541.6 2950.4C6535.1 2954.94 6527.07 2956.72 6519.26 2955.38C6511.45 2954.03 6504.48 2949.66 6499.87 2943.21C6495.26 2936.76 6493.39 2928.75 6494.65 2920.92C6495.91 2913.09 6500.2 2906.08 6506.6 2901.4L6582.1 2853.9C6583.82 2852.7 6585.86 2852.06 6587.95 2852.06C6590.04 2852.06 6592.08 2852.7 6593.8 2853.9C6595.96 2855.46 6597.41 2857.8 6597.84 2860.43C6598.27 2863.05 6597.64 2865.74 6596.1 2867.9ZM6627.82 2844.8C6624.8 2847.67 6620.77 2849.25 6616.6 2849.2C6612.42 2849.15 6608.44 2847.46 6605.49 2844.51C6602.54 2841.56 6600.85 2837.58 6600.8 2833.41C6600.75 2829.23 6602.33 2825.2 6605.2 2822.18L6627.82 2799.55C6630.82 2796.55 6634.89 2794.86 6639.14 2794.86C6643.38 2794.86 6647.45 2796.55 6650.45 2799.55C6653.45 2802.55 6655.14 2806.62 6655.14 2810.87C6655.14 2815.11 6653.45 2819.18 6650.45 2822.18L6627.82 2844.8ZM6686 2940H6654C6649.76 2940 6645.69 2938.31 6642.69 2935.31C6639.69 2932.31 6638 2928.24 6638 2924C6638 2919.76 6639.69 2915.69 6642.69 2912.69C6645.69 2909.69 6649.76 2908 6654 2908H6686C6690.24 2908 6694.31 2909.69 6697.31 2912.69C6700.31 2915.69 6702 2919.76 6702 2924C6702 2928.24 6700.31 2932.31 6697.31 2935.31C6694.31 2938.31 6690.24 2940 6686 2940Z" fill="white"/>
</g>
</g>
</g>
</svg>
