<svg width="10544" height="4670" viewBox="0 0 10544 4670" fill="none" xmlns="http://www.w3.org/2000/svg">
<g id="stremio-icons">
<g id="symbol">
<path id="outer" d="M512 0H0V512H512V0Z" fill="#191919"/>
<g id="symbol_2">
<path id="Subtract" fill-rule="evenodd" clip-rule="evenodd" d="M267.1 52.6863C260.852 46.4379 250.721 46.4379 244.473 52.6863L52.6863 244.473C46.4379 250.721 46.4379 260.852 52.6863 267.1L244.473 458.886C250.721 465.135 260.852 465.135 267.1 458.886L458.886 267.1C465.135 260.852 465.135 250.721 458.886 244.473L267.1 52.6863ZM327.404 265.175C333.67 260.797 333.67 251.52 327.404 247.142L242.86 188.063C235.568 182.967 225.559 188.184 225.559 197.079V315.237C225.559 324.133 235.568 329.349 242.86 324.254L327.404 265.175Z" fill="white"/>
</g>
</g>
<g id="imdb">
<path id="outer_2" d="M1139 0H627V512H1139V0Z" fill="#191919"/>
<g id="Subtract_2">
<path id="Vector" d="M921.456 217.517C920.149 216.81 917.647 216.47 914.008 216.47V294.347C918.813 294.347 921.769 293.483 922.878 291.677C923.987 289.897 924.555 285.08 924.555 277.175V231.155C924.555 225.789 924.356 222.36 923.987 220.841C923.617 219.323 922.793 218.224 921.456 217.517Z" fill="white"/>
<path id="Vector_2" d="M1010.96 255.626V283.749C1010.96 289.049 1010.68 292.414 1010.14 293.793C1009.59 295.173 1006.98 295.903 1005.19 295.903C1003.4 295.903 1000.84 295.148 1000.25 293.793V246.187C1000.77 244.953 1003.45 244.221 1005.19 244.221C1006.93 244.221 1009.41 245.122 1010.04 246.526C1010.66 247.929 1010.96 250.979 1010.96 255.626Z" fill="white"/>
<path id="Vector_3" fill-rule="evenodd" clip-rule="evenodd" d="M672 176.375C672 161.808 683.808 150 698.375 150H1067.62C1082.19 150 1094 161.808 1094 176.375V334.625C1094 349.192 1082.19 361 1067.62 361H698.375C683.808 361 672 349.192 672 334.625V176.375ZM724.75 314.844H757.719V196.156H724.75V314.844ZM820.712 251.6L828.091 196.156H869.812V314.844H841.926L841.844 234.741L830.668 314.844H810.756L798.983 236.469L798.875 314.844H770.906V196.156H812.303C813.523 203.355 814.798 211.784 816.128 221.443L820.712 251.6ZM883 314.844V196.156H934.461C946.098 196.156 955.531 205.519 955.531 217.102V293.898C955.531 305.466 946.113 314.844 934.461 314.844H883ZM1019.82 225.873H1017.71C1010.62 225.873 1004.34 229.192 1000.27 234.272V196.156H968.719V313.319H998.284L1000.18 306.063C1004.06 311.373 1010.47 314.844 1017.71 314.844H1019.82C1031.66 314.844 1041.25 305.58 1041.25 294.153V246.565C1041.25 235.143 1031.65 225.873 1019.82 225.873Z" fill="white"/>
</g>
</g>
<g id="facebook">
<path id="outer_2_2" d="M1766 0H1254V512H1766V0Z" fill="#191919"/>
<g id="fb">
<path id="Vector_4" fill-rule="evenodd" clip-rule="evenodd" d="M1706.52 255.835C1706.52 147.308 1618.53 59.3101 1510 59.3101C1401.47 59.3101 1313.47 147.308 1313.47 255.835C1313.47 353.922 1385.33 435.225 1479.29 449.982V312.661H1429.38V255.835H1479.29V212.538C1479.29 163.293 1508.64 136.069 1553.52 136.069C1575.03 136.069 1597.52 139.912 1597.52 139.912V188.28H1572.73C1548.33 188.28 1540.7 203.423 1540.7 218.987V255.835H1595.2L1586.5 312.661H1540.71V450C1634.67 435.252 1706.52 353.948 1706.52 255.835Z" fill="white"/>
</g>
</g>
<g id="youtube">
<path id="outer_2_3" d="M2393 0H1881V512H2393V0Z" fill="#191919"/>
<g id="logo-youtube 1" clip-path="url(#clip0_5_3500)">
<path id="Vector_5" d="M2357.07 161.61C2357.07 122.411 2328.24 90.8772 2292.61 90.8772C2244.35 88.6211 2195.14 87.75 2144.84 87.75H2129.16C2078.99 87.75 2029.68 88.6211 1981.42 90.8859C1945.88 90.8859 1917.05 122.594 1917.05 161.793C1914.87 192.795 1913.95 223.806 1914 254.817C1913.91 285.828 1914.9 316.868 1916.96 347.937C1916.96 387.136 1945.79 418.931 1981.34 418.931C2032.03 421.283 2084.04 422.328 2136.91 422.241C2189.88 422.415 2241.73 421.312 2292.49 418.931C2328.12 418.931 2356.95 387.136 2356.95 347.937C2359.04 316.839 2360 285.828 2359.91 254.73C2360.11 223.719 2359.16 192.679 2357.07 161.61ZM2094.32 340.271V169.101L2220.63 254.643L2094.32 340.271Z" fill="white"/>
</g>
</g>
<g id="vlc">
<path id="outer_2_4" d="M3020 0H2508V512H3020V0Z" fill="#191919"/>
<g id="Vector_6">
<path d="M2678.54 342.394C2678.54 342.394 2692.18 381.461 2763.61 379.786C2822.52 378.372 2853.63 359.013 2852.64 348.626C2852.44 346.572 2849.78 335.51 2845.64 319.085C2844.13 320.759 2818.75 347.955 2766.99 347.73C2722.92 347.536 2691.94 320.007 2686.37 314.693L2678.54 342.394Z" fill="white"/>
<path d="M2842.92 308.363C2835.52 279.325 2824.96 238.869 2815.04 201.165C2811.96 202.762 2785.15 216.311 2765.59 215.679C2737.67 214.777 2719.1 199.06 2719.1 199.06L2721.79 189.278L2701.12 262.469C2703.95 264.38 2731.98 282.665 2768.56 283.333C2796.27 283.853 2831.51 264.868 2831.51 264.868L2842.92 308.363Z" fill="white"/>
<path d="M2787.7 97.7008C2787.7 97.7008 2794.48 123.188 2803.65 157.927L2799.28 141.819C2799.28 141.819 2786.13 151.645 2766.58 151.334C2745.88 151.011 2737.33 141.546 2735.81 139.643L2747.78 97.2706C2747.78 97.2706 2755.7 90 2766.58 90C2777.46 90 2787.7 97.7008 2787.7 97.7008Z" fill="white"/>
<path d="M2690.27 297.764L2658.65 298.399L2627 403.304L2628.98 422L2901 419.923L2900.01 404.343L2865.39 294.245L2839.36 294.768L2845.71 319.004C2845.71 319.004 2820.39 347.962 2766.99 347.73C2718.21 347.515 2685.47 313.811 2685.47 313.811L2690.27 297.764Z" fill="white"/>
</g>
</g>
<g id="trakt">
<path id="outer_2_5" d="M3647 0H3135V512H3647V0Z" fill="#191919"/>
<g id="Group">
<path id="Vector_7" d="M3258.67 378.281C3291.46 414.171 3338.8 436.447 3391.4 436.447C3418.32 436.447 3443.69 430.569 3466.58 420.049L3341.59 295.362L3258.67 378.281Z" fill="white"/>
<path id="Vector_8" d="M3340.97 219.869L3246.29 314.235L3233.61 301.55L3333.23 201.924L3449.57 85.5913C3431.31 79.4034 3411.82 76 3391.4 76C3291.77 76 3211.02 156.753 3211.02 256.378C3211.02 296.909 3224.33 334.346 3247.22 364.667L3341.59 270.301L3348.08 276.489L3483.29 411.695C3486.08 410.148 3488.55 408.602 3491.03 406.745L3341.59 257.306L3250.93 347.96L3238.25 335.274L3341.59 231.936L3348.08 238.124L3505.88 395.607C3508.35 393.75 3510.52 391.585 3512.68 389.728L3342.52 219.56L3340.97 219.869Z" fill="white"/>
<path id="Vector_9" d="M3525.37 377.043C3554.14 345.175 3571.78 302.788 3571.78 256.378C3571.78 183.979 3529.08 121.791 3467.82 93.0166L3354.27 206.256L3525.37 377.043ZM3397.9 239.052L3385.21 226.367L3474.63 136.951L3487.31 149.636L3397.9 239.052ZM3482.67 116.221L3379.64 219.25L3366.96 206.565L3469.99 103.536L3482.67 116.221Z" fill="white"/>
</g>
</g>
<g id="search-outline">
<path id="outer_3" d="M512 1631H0V2143H512V1631Z" fill="#191919"/>
<g id="search-outline 1">
<path id="Vector_10" d="M221.09 1695C190.02 1695 159.649 1704.21 133.815 1721.47C107.982 1738.74 87.8474 1763.27 75.9576 1791.97C64.0678 1820.68 60.9569 1852.26 67.0183 1882.74C73.0796 1913.21 88.041 1941.2 110.011 1963.17C131.98 1985.14 159.971 2000.1 190.443 2006.16C220.916 2012.22 252.501 2009.11 281.206 1997.22C309.91 1985.33 334.444 1965.2 351.706 1939.36C368.967 1913.53 378.18 1883.16 378.18 1852.09C378.177 1810.43 361.626 1770.47 332.166 1741.01C302.707 1711.55 262.752 1695 221.09 1695Z" stroke="white" stroke-width="32" stroke-miterlimit="10"/>
<path id="Vector_2_2" d="M338.29 1969.29L448 2079" stroke="white" stroke-width="32" stroke-miterlimit="10" stroke-linecap="round"/>
</g>
</g>
<g id="search">
<path id="outer_4" d="M512 1004H0V1516H512V1004Z" fill="#191919"/>
<g id="search 1">
<path id="Vector_3_2" d="M456.69 1441.39L362.6 1347.3C385.253 1317.14 397.481 1280.44 397.44 1242.72C397.44 1146.38 319.06 1068 222.72 1068C126.38 1068 48 1146.38 48 1242.72C48 1339.06 126.38 1417.44 222.72 1417.44C260.437 1417.48 297.143 1405.25 327.3 1382.6L421.39 1476.69C426.153 1480.95 432.365 1483.22 438.751 1483.04C445.137 1482.86 451.212 1480.25 455.729 1475.73C460.246 1471.21 462.863 1465.14 463.042 1458.75C463.22 1452.36 460.948 1446.15 456.69 1441.39ZM97.92 1242.72C97.92 1218.04 105.239 1193.91 118.953 1173.38C132.666 1152.86 152.157 1136.87 174.961 1127.42C197.765 1117.97 222.858 1115.5 247.067 1120.32C271.276 1125.13 293.513 1137.02 310.967 1154.47C328.421 1171.93 340.307 1194.16 345.122 1218.37C349.937 1242.58 347.466 1267.67 338.02 1290.48C328.574 1313.28 312.578 1332.77 292.055 1346.49C271.532 1360.2 247.403 1367.52 222.72 1367.52C189.633 1367.48 157.913 1354.32 134.517 1330.92C111.121 1307.53 97.9597 1275.81 97.92 1242.72Z" fill="white"/>
</g>
</g>
<g id="home-outline">
<path id="outer_5" d="M1139 1631H627V2143H1139V1631Z" fill="#191919"/>
<g id="home-outline 1">
<path id="Vector_4_2" d="M707 1843V2079C707 2083.24 708.686 2087.31 711.686 2090.31C714.687 2093.31 718.757 2095 723 2095H819V1959C819 1952.63 821.529 1946.53 826.029 1942.03C830.53 1937.53 836.635 1935 843 1935H923C929.365 1935 935.47 1937.53 939.971 1942.03C944.471 1946.53 947 1952.63 947 1959V2095H1043C1047.24 2095 1051.31 2093.31 1054.31 2090.31C1057.31 2087.31 1059 2083.24 1059 2079V1843" stroke="white" stroke-width="32" stroke-linecap="round" stroke-linejoin="round"/>
<path id="Vector_5_2" d="M1107 1887L893.89 1683C888.89 1677.72 877.2 1677.66 872.11 1683L659 1887" stroke="white" stroke-width="32" stroke-linecap="round" stroke-linejoin="round"/>
<path id="Vector_6_2" d="M1027 1810V1695H979V1764" stroke="white" stroke-width="32" stroke-linecap="round" stroke-linejoin="round"/>
</g>
</g>
<g id="home">
<path id="outer_6" d="M1139 1004H627V1516H1139V1004Z" fill="#191919"/>
<g id="home 2">
<path id="Vector_7_2" d="M888.56 1105.28C887.071 1103.86 885.09 1103.06 883.03 1103.06C880.97 1103.06 878.989 1103.86 877.5 1105.28L693.4 1281.15C692.618 1281.9 691.996 1282.8 691.572 1283.79C691.147 1284.79 690.929 1285.86 690.93 1286.94L690.9 1452C690.9 1460.49 694.271 1468.63 700.273 1474.63C706.274 1480.63 714.413 1484 722.9 1484H819C823.243 1484 827.313 1482.31 830.314 1479.31C833.314 1476.31 835 1472.24 835 1468V1332C835 1329.88 835.843 1327.84 837.343 1326.34C838.843 1324.84 840.878 1324 843 1324H923C925.122 1324 927.157 1324.84 928.657 1326.34C930.157 1327.84 931 1329.88 931 1332V1468C931 1472.24 932.686 1476.31 935.686 1479.31C938.687 1482.31 942.757 1484 947 1484H1043.06C1051.55 1484 1059.69 1480.63 1065.69 1474.63C1071.69 1468.63 1075.06 1460.49 1075.06 1452V1286.94C1075.06 1285.86 1074.84 1284.79 1074.42 1283.79C1073.99 1282.8 1073.37 1281.9 1072.59 1281.15L888.56 1105.28Z" fill="white"/>
<path id="Vector_8_2" d="M1117.91 1248.15L1043.11 1176.59V1068C1043.11 1063.76 1041.42 1059.69 1038.42 1056.69C1035.42 1053.69 1031.35 1052 1027.11 1052H979.11C974.867 1052 970.797 1053.69 967.796 1056.69C964.796 1059.69 963.11 1063.76 963.11 1068V1100L905.19 1044.62C899.77 1039.14 891.71 1036 883 1036C874.32 1036 866.28 1039.14 860.86 1044.63L648.16 1248.13C641.94 1254.13 641.16 1264 646.82 1270.5C648.241 1272.14 649.982 1273.48 651.935 1274.42C653.888 1275.37 656.014 1275.91 658.182 1276.01C660.351 1276.11 662.517 1275.76 664.548 1275C666.58 1274.23 668.435 1273.06 670 1271.56L877.5 1073.28C878.989 1071.86 880.97 1071.06 883.03 1071.06C885.09 1071.06 887.071 1071.86 888.56 1073.28L1096.08 1271.56C1099.14 1274.49 1103.23 1276.09 1107.47 1276.01C1111.7 1275.93 1115.73 1274.17 1118.67 1271.12C1124.81 1264.76 1124.3 1254.26 1117.91 1248.15Z" fill="white"/>
</g>
</g>
<g id="discover-outline">
<path id="outer_7" d="M1766 1631H1254V2143H1766V1631Z" fill="#191919"/>
<g id="compass-outline 1">
<path id="Vector_9_2" d="M1702 1887C1702 1781 1616 1695 1510 1695C1404 1695 1318 1781 1318 1887C1318 1993 1404 2079 1510 2079C1616 2079 1702 1993 1702 1887Z" stroke="white" stroke-width="32" stroke-miterlimit="10"/>
<path id="Vector_10_2" d="M1604.67 1781.93L1487.47 1828.81C1479.42 1832.03 1472.11 1836.85 1465.98 1842.98C1459.85 1849.11 1455.03 1856.42 1451.81 1864.47L1404.93 1981.67C1404.35 1983.12 1404.21 1984.72 1404.52 1986.25C1404.83 1987.78 1405.59 1989.19 1406.7 1990.3C1407.81 1991.41 1409.22 1992.17 1410.75 1992.48C1412.28 1992.79 1413.88 1992.65 1415.33 1992.07L1532.53 1945.19C1540.58 1941.97 1547.89 1937.15 1554.02 1931.02C1560.15 1924.89 1564.97 1917.58 1568.19 1909.53L1615.07 1792.33C1615.65 1790.88 1615.79 1789.28 1615.48 1787.75C1615.17 1786.22 1614.41 1784.81 1613.3 1783.7C1612.19 1782.59 1610.78 1781.83 1609.25 1781.52C1607.72 1781.21 1606.12 1781.35 1604.67 1781.93ZM1510 1911C1505.25 1911 1500.61 1909.59 1496.67 1906.96C1492.72 1904.32 1489.64 1900.57 1487.83 1896.18C1486.01 1891.8 1485.54 1886.97 1486.46 1882.32C1487.39 1877.66 1489.67 1873.39 1493.03 1870.03C1496.39 1866.67 1500.66 1864.39 1505.32 1863.46C1509.97 1862.54 1514.8 1863.01 1519.18 1864.83C1523.57 1866.64 1527.32 1869.72 1529.96 1873.67C1532.59 1877.61 1534 1882.25 1534 1887C1534 1893.37 1531.47 1899.47 1526.97 1903.97C1522.47 1908.47 1516.37 1911 1510 1911Z" fill="white"/>
</g>
</g>
<g id="discover">
<path id="outer_8" d="M1766 1004H1254V1516H1766V1004Z" fill="#191919"/>
<g id="compass 2">
<path id="Vector_11" d="M1510 1284C1523.25 1284 1534 1273.25 1534 1260C1534 1246.75 1523.25 1236 1510 1236C1496.75 1236 1486 1246.75 1486 1260C1486 1273.25 1496.75 1284 1510 1284Z" fill="white"/>
<path id="Vector_12" d="M1510 1052C1395.31 1052 1302 1145.31 1302 1260C1302 1374.69 1395.31 1468 1510 1468C1624.69 1468 1718 1374.69 1718 1260C1718 1145.31 1624.69 1052 1510 1052ZM1615.07 1165.33L1568.19 1282.53C1564.97 1290.58 1560.15 1297.89 1554.02 1304.02C1547.89 1310.15 1540.58 1314.97 1532.53 1318.19L1415.33 1365.07C1413.88 1365.65 1412.28 1365.79 1410.75 1365.48C1409.22 1365.17 1407.81 1364.41 1406.7 1363.3C1405.59 1362.19 1404.83 1360.78 1404.52 1359.25C1404.21 1357.72 1404.35 1356.12 1404.93 1354.67L1451.81 1237.47C1455.03 1229.42 1459.85 1222.11 1465.98 1215.98C1472.11 1209.85 1479.42 1205.03 1487.47 1201.81L1604.67 1154.93C1606.12 1154.35 1607.72 1154.21 1609.25 1154.52C1610.78 1154.83 1612.19 1155.59 1613.3 1156.7C1614.41 1157.81 1615.17 1159.22 1615.48 1160.75C1615.79 1162.28 1615.65 1163.88 1615.07 1165.33Z" fill="white"/>
</g>
</g>
<g id="library-outline">
<path id="outer_9" d="M2393 1632H1881V2144H2393V1632Z" fill="#191919"/>
<g id="albums-outline 1">
<path id="Vector_13" d="M2300.13 1808H1973.87C1957.93 1808 1945 1820.93 1945 1836.87V2035.13C1945 2051.07 1957.93 2064 1973.87 2064H2300.13C2316.07 2064 2329 2051.07 2329 2035.13V1836.87C2329 1820.93 2316.07 1808 2300.13 1808Z" stroke="white" stroke-width="32" stroke-linejoin="round"/>
<path id="Vector_14" d="M2025 1712H2249" stroke="white" stroke-width="32" stroke-miterlimit="10" stroke-linecap="round"/>
<path id="Vector_15" d="M1993 1760H2281" stroke="white" stroke-width="32" stroke-miterlimit="10" stroke-linecap="round"/>
</g>
</g>
<g id="library">
<path id="outer_10" d="M2393 1005H1881V1517H2393V1005Z" fill="#191919"/>
<g id="albums 2">
<path id="Vector_16" d="M2249 1101H2025C2020.76 1101 2016.69 1099.31 2013.69 1096.31C2010.69 1093.31 2009 1089.24 2009 1085C2009 1080.76 2010.69 1076.69 2013.69 1073.69C2016.69 1070.69 2020.76 1069 2025 1069H2249C2253.24 1069 2257.31 1070.69 2260.31 1073.69C2263.31 1076.69 2265 1080.76 2265 1085C2265 1089.24 2263.31 1093.31 2260.31 1096.31C2257.31 1099.31 2253.24 1101 2249 1101Z" fill="white"/>
<path id="Vector_17" d="M2281 1149H1993C1988.76 1149 1984.69 1147.31 1981.69 1144.31C1978.69 1141.31 1977 1137.24 1977 1133C1977 1128.76 1978.69 1124.69 1981.69 1121.69C1984.69 1118.69 1988.76 1117 1993 1117H2281C2285.24 1117 2289.31 1118.69 2292.31 1121.69C2295.31 1124.69 2297 1128.76 2297 1133C2297 1137.24 2295.31 1141.31 2292.31 1144.31C2289.31 1147.31 2285.24 1149 2281 1149Z" fill="white"/>
<path id="Vector_18" d="M2300.13 1453H1973.87C1961.97 1452.99 1950.57 1448.26 1942.16 1439.84C1933.74 1431.43 1929.01 1420.03 1929 1408.13V1209.87C1929.01 1197.97 1933.74 1186.57 1942.16 1178.16C1950.57 1169.74 1961.97 1165.01 1973.87 1165H2300.13C2312.03 1165.01 2323.43 1169.74 2331.84 1178.16C2340.26 1186.57 2344.99 1197.97 2345 1209.87V1408.13C2344.99 1420.03 2340.26 1431.43 2331.84 1439.84C2323.43 1448.26 2312.03 1452.99 2300.13 1453Z" fill="white"/>
</g>
</g>
<g id="addons-outline">
<path id="outer_11" d="M3020 1632H2508V2144H3020V1632Z" fill="#191919"/>
<g id="extension-puzzle-outline 1">
<path id="Vector_19" d="M2921.66 1878.1H2894C2893.47 1878.1 2892.96 1877.89 2892.59 1877.51C2892.21 1877.14 2892 1876.63 2892 1876.1V1798.86C2892 1788.55 2887.91 1778.67 2880.62 1771.38C2873.33 1764.09 2863.45 1760 2853.14 1760H2775.9C2775.37 1760 2774.86 1759.79 2774.49 1759.41C2774.11 1759.04 2773.9 1758.53 2773.9 1758V1730.34C2773.9 1703.2 2752.4 1680.48 2725.26 1680.01C2718.68 1679.89 2712.15 1681.09 2706.04 1683.53C2699.93 1685.96 2694.37 1689.59 2689.68 1694.2C2684.99 1698.81 2681.26 1704.3 2678.72 1710.37C2676.17 1716.43 2674.86 1722.94 2674.86 1729.52V1758C2674.86 1758.53 2674.65 1759.04 2674.27 1759.41C2673.9 1759.79 2673.39 1760 2672.86 1760H2595.62C2585.12 1760.03 2575.06 1764.22 2567.64 1771.64C2560.22 1779.06 2556.03 1789.12 2556 1799.62V1870C2556 1870.53 2556.21 1871.04 2556.59 1871.41C2556.96 1871.79 2557.47 1872 2558 1872H2584.91C2614.28 1872 2638.59 1897.48 2639 1926.85C2639.42 1956.72 2615.49 1984 2585.71 1984H2558C2557.47 1984 2556.96 1984.21 2556.59 1984.59C2556.21 1984.96 2556 1985.47 2556 1986V2056.38C2556.03 2066.88 2560.22 2076.94 2567.64 2084.36C2575.06 2091.78 2585.12 2095.97 2595.62 2096H2666C2666.53 2096 2667.04 2095.79 2667.41 2095.41C2667.79 2095.04 2668 2094.53 2668 2094V2073.07C2668 2042.79 2692.75 2016.72 2723 2016.01C2753.1 2015.31 2780 2036.32 2780 2066.29V2094C2780 2094.53 2780.21 2095.04 2780.59 2095.41C2780.96 2095.79 2781.47 2096 2782 2096H2853.14C2863.45 2096 2873.33 2091.91 2880.62 2084.62C2887.91 2077.33 2892 2067.45 2892 2057.14V1979.14C2892 1978.61 2892.21 1978.1 2892.59 1977.73C2892.96 1977.35 2893.47 1977.14 2894 1977.14H2922.48C2950.11 1977.14 2972 1954.47 2972 1926.74C2972 1899.01 2948.8 1878.1 2921.66 1878.1Z" stroke="white" stroke-width="32" stroke-linecap="round" stroke-linejoin="round"/>
</g>
</g>
<g id="addons">
<path id="outer_12" d="M3020 1005H2508V1517H3020V1005Z" fill="#191919"/>
<g id="extension-puzzle 1">
<path id="Vector_20" d="M2853.14 1485H2782C2777.23 1485 2772.65 1483.1 2769.27 1479.73C2765.9 1476.35 2764 1471.77 2764 1467V1439.29C2764.01 1435.03 2763.16 1430.82 2761.49 1426.9C2759.82 1422.99 2757.37 1419.46 2754.29 1416.52C2746.51 1408.93 2735.21 1404.72 2723.4 1405.01C2702.04 1405.51 2684 1424.31 2684 1446.07V1467C2684 1471.77 2682.1 1476.35 2678.73 1479.73C2675.35 1483.1 2670.77 1485 2666 1485H2595.62C2588.32 1485 2581.08 1483.56 2574.34 1480.77C2567.59 1477.97 2561.46 1473.87 2556.29 1468.71C2545.86 1458.28 2540 1444.13 2540 1429.38V1359C2540 1354.23 2541.9 1349.65 2545.27 1346.27C2548.65 1342.9 2553.23 1341 2558 1341H2585.71C2594.87 1341 2603.78 1337.08 2610.8 1330C2614.71 1326.06 2617.79 1321.39 2619.89 1316.26C2621.98 1311.12 2623.04 1305.63 2623 1300.08C2622.7 1278.89 2605.26 1261 2584.91 1261H2558C2553.23 1261 2548.65 1259.1 2545.27 1255.73C2541.9 1252.35 2540 1247.77 2540 1243V1172.62C2540 1165.32 2541.44 1158.08 2544.23 1151.34C2547.03 1144.59 2551.13 1138.46 2556.29 1133.29C2566.72 1122.86 2580.87 1117 2595.62 1117H2650.86C2652.98 1117 2655.02 1116.16 2656.52 1114.66C2658.02 1113.16 2658.86 1111.12 2658.86 1109V1102.52C2658.86 1093.82 2660.59 1085.2 2663.96 1077.18C2667.32 1069.15 2672.25 1061.88 2678.46 1055.78C2684.67 1049.68 2692.03 1044.88 2700.11 1041.65C2708.19 1038.43 2716.84 1036.85 2725.54 1037C2761.03 1037.62 2789.9 1067.38 2789.9 1103.33V1109C2789.9 1111.12 2790.74 1113.16 2792.24 1114.66C2793.74 1116.16 2795.78 1117 2797.9 1117H2853.14C2860.34 1117 2867.48 1118.42 2874.13 1121.18C2880.79 1123.93 2886.84 1127.97 2891.93 1133.07C2897.03 1138.16 2901.07 1144.21 2903.82 1150.87C2906.58 1157.52 2908 1164.66 2908 1171.86V1227.1C2908 1229.22 2908.84 1231.26 2910.34 1232.76C2911.84 1234.26 2913.88 1235.1 2916 1235.1H2921.66C2958.24 1235.1 2988 1264.1 2988 1299.74C2988 1336.35 2958.61 1366.14 2922.48 1366.14H2916C2913.88 1366.14 2911.84 1366.98 2910.34 1368.48C2908.84 1369.98 2908 1372.02 2908 1374.14V1430.14C2908 1437.34 2906.58 1444.48 2903.82 1451.13C2901.07 1457.79 2897.03 1463.84 2891.93 1468.93C2886.84 1474.03 2880.79 1478.07 2874.13 1480.82C2867.48 1483.58 2860.34 1485 2853.14 1485Z" fill="white"/>
</g>
</g>
<g id="settings-outline">
<path id="outer_13" d="M3647 1631H3135V2143H3647V1631Z" fill="#191919"/>
<g id="cog-outline 1">
<path id="Vector_21" d="M3591.7 1873.27L3565.62 1869.07C3563.94 1868.79 3562.39 1867.97 3561.2 1866.74C3560.01 1865.52 3559.25 1863.94 3559.02 1862.25C3558.52 1859.05 3558.02 1855.84 3557.32 1852.74C3556.98 1851.08 3557.18 1849.35 3557.88 1847.8C3558.58 1846.25 3559.75 1844.96 3561.22 1844.12L3584.31 1831.3C3586.06 1830.41 3587.42 1828.9 3588.14 1827.08C3588.86 1825.25 3588.88 1823.22 3588.21 1821.38L3584.21 1810.38C3583.54 1808.53 3582.21 1806.99 3580.47 1806.07C3578.74 1805.15 3576.72 1804.9 3574.81 1805.38L3548.92 1810.38C3547.24 1810.71 3545.49 1810.48 3543.95 1809.74C3542.4 1809 3541.13 1807.79 3540.33 1806.27C3538.83 1803.47 3537.23 1800.67 3535.53 1797.86C3534.63 1796.4 3534.22 1794.7 3534.34 1792.99C3534.47 1791.28 3535.13 1789.65 3536.23 1788.34L3553.52 1768.4C3554.86 1766.97 3555.63 1765.1 3555.69 1763.15C3555.74 1761.19 3555.08 1759.28 3553.82 1757.78L3546.33 1748.78C3545.08 1747.27 3543.31 1746.27 3541.37 1745.99C3539.43 1745.71 3537.45 1746.17 3535.83 1747.27L3513.14 1760.9C3511.68 1761.76 3509.99 1762.14 3508.3 1761.98C3506.61 1761.82 3505.02 1761.13 3503.75 1760C3501.35 1757.89 3498.85 1755.79 3496.35 1753.78C3495.02 1752.72 3494.06 1751.27 3493.61 1749.63C3493.16 1748 3493.25 1746.26 3493.85 1744.67L3503.25 1719.92C3504.05 1718.12 3504.16 1716.1 3503.56 1714.23C3502.96 1712.35 3501.69 1710.77 3500 1709.77L3489.8 1703.86C3488.1 1702.89 3486.1 1702.58 3484.19 1702.99C3482.27 1703.4 3480.57 1704.49 3479.41 1706.07L3462.77 1726.91C3461.84 1728.22 3460.5 1729.18 3458.95 1729.64C3457.41 1730.09 3455.76 1730.01 3454.27 1729.41C3454.27 1729.41 3448.67 1727.11 3444.47 1725.7C3442.86 1725.16 3441.46 1724.13 3440.48 1722.74C3439.49 1721.36 3438.98 1719.7 3439 1718L3439.4 1691.55C3439.52 1689.58 3438.91 1687.64 3437.7 1686.09C3436.48 1684.54 3434.74 1683.49 3432.8 1683.13L3421.21 1681.13C3419.27 1680.79 3417.27 1681.18 3415.6 1682.21C3413.92 1683.25 3412.68 1684.86 3412.11 1686.74L3403.51 1711.79C3402.96 1713.4 3401.9 1714.8 3400.5 1715.77C3399.1 1716.75 3397.43 1717.25 3395.72 1717.2H3385.92C3384.22 1717.24 3382.55 1716.73 3381.15 1715.76C3379.75 1714.79 3378.69 1713.4 3378.13 1711.79L3369.53 1686.74C3368.96 1684.86 3367.72 1683.25 3366.04 1682.21C3364.37 1681.18 3362.37 1680.79 3360.43 1681.13L3348.84 1683.13C3346.9 1683.49 3345.16 1684.54 3343.94 1686.09C3342.73 1687.64 3342.12 1689.58 3342.24 1691.55L3342.64 1718C3342.66 1719.7 3342.14 1721.37 3341.16 1722.75C3340.17 1724.14 3338.77 1725.18 3337.15 1725.71C3334.85 1726.61 3329.85 1728.52 3327.45 1729.42C3324.65 1730.42 3321.35 1729.62 3318.65 1726.51L3302.14 1706.17C3300.97 1704.6 3299.27 1703.51 3297.36 1703.11C3295.44 1702.71 3293.45 1703.03 3291.75 1704L3281.55 1709.91C3279.85 1710.89 3278.58 1712.46 3277.97 1714.32C3277.36 1716.19 3277.46 1718.21 3278.25 1720L3287.65 1744.75C3288.24 1746.34 3288.32 1748.07 3287.87 1749.71C3287.43 1751.35 3286.47 1752.8 3285.15 1753.86C3282.65 1755.86 3280.15 1757.97 3277.75 1760.08C3276.48 1761.21 3274.89 1761.9 3273.2 1762.06C3271.51 1762.22 3269.82 1761.84 3268.36 1760.98L3246 1747.14C3244.37 1746.07 3242.4 1745.63 3240.46 1745.9C3238.53 1746.18 3236.76 1747.16 3235.5 1748.65L3228.01 1757.65C3226.75 1759.15 3226.09 1761.06 3226.14 1763.02C3226.2 1764.97 3226.97 1766.84 3228.31 1768.27L3245.6 1788.21C3246.72 1789.51 3247.4 1791.14 3247.53 1792.85C3247.65 1794.57 3247.22 1796.28 3246.3 1797.73C3244.6 1800.4 3243 1803.2 3241.5 1806.14C3240.68 1807.64 3239.41 1808.85 3237.87 1809.59C3236.33 1810.33 3234.59 1810.56 3232.91 1810.25L3207.02 1805.25C3205.11 1804.78 3203.1 1805.04 3201.37 1805.96C3199.63 1806.88 3198.3 1808.41 3197.62 1810.25L3193.62 1821.25C3192.95 1823.09 3192.97 1825.12 3193.69 1826.95C3194.41 1828.77 3195.77 1830.28 3197.52 1831.17L3220.58 1844C3222.07 1844.83 3223.25 1846.11 3223.95 1847.67C3224.66 1849.22 3224.84 1850.95 3224.48 1852.62C3223.88 1855.82 3223.28 1858.93 3222.78 1862.13C3222.54 1863.82 3221.77 1865.39 3220.59 1866.61C3219.4 1867.84 3217.86 1868.65 3216.18 1868.95L3190.1 1873.15C3188.16 1873.39 3186.37 1874.32 3185.07 1875.78C3183.76 1877.24 3183.03 1879.11 3183 1881.07V1892.79C3182.98 1894.76 3183.69 1896.67 3185.01 1898.13C3186.32 1899.6 3188.14 1900.52 3190.1 1900.71L3216.18 1904.91C3217.86 1905.19 3219.41 1906.01 3220.6 1907.24C3221.79 1908.46 3222.55 1910.04 3222.78 1911.73C3223.28 1914.93 3223.78 1918.14 3224.48 1921.24C3224.82 1922.9 3224.62 1924.63 3223.92 1926.18C3223.22 1927.73 3222.05 1929.02 3220.58 1929.86L3197.49 1942.7C3195.74 1943.59 3194.38 1945.1 3193.66 1946.92C3192.94 1948.75 3192.92 1950.78 3193.59 1952.62L3197.59 1963.62C3198.26 1965.47 3199.59 1967.01 3201.33 1967.93C3203.06 1968.85 3205.08 1969.1 3206.99 1968.62L3232.88 1963.62C3234.56 1963.29 3236.31 1963.52 3237.85 1964.26C3239.4 1965 3240.67 1966.21 3241.47 1967.73C3242.97 1970.53 3244.57 1973.33 3246.27 1976.14C3247.17 1977.6 3247.58 1979.3 3247.46 1981.01C3247.33 1982.72 3246.67 1984.35 3245.57 1985.66L3228.28 2005.62C3226.94 2007.05 3226.17 2008.92 3226.11 2010.87C3226.06 2012.83 3226.72 2014.74 3227.98 2016.24L3235.47 2025.24C3236.72 2026.75 3238.49 2027.75 3240.43 2028.03C3242.37 2028.31 3244.35 2027.85 3245.97 2026.75L3268.66 2013.12C3270.12 2012.26 3271.81 2011.88 3273.5 2012.04C3275.19 2012.2 3276.78 2012.89 3278.05 2014.02C3280.45 2016.13 3282.95 2018.23 3285.45 2020.24C3286.78 2021.3 3287.74 2022.75 3288.19 2024.39C3288.64 2026.02 3288.55 2027.76 3287.95 2029.35L3278.55 2054.1C3277.76 2055.9 3277.66 2057.92 3278.27 2059.79C3278.88 2061.65 3280.15 2063.23 3281.85 2064.22L3292.05 2070.13C3293.75 2071.1 3295.75 2071.41 3297.66 2071C3299.58 2070.59 3301.28 2069.5 3302.44 2067.92L3319.23 2047.28C3321.33 2044.68 3324.73 2043.58 3327.43 2044.68C3330.83 2046.08 3333.13 2046.88 3337.33 2048.29C3338.95 2048.82 3340.35 2049.86 3341.34 2051.25C3342.32 2052.63 3342.84 2054.3 3342.82 2056L3342.42 2082.45C3342.3 2084.42 3342.91 2086.36 3344.12 2087.91C3345.34 2089.46 3347.08 2090.51 3349.02 2090.87L3360.61 2092.87C3362.55 2093.21 3364.55 2092.82 3366.22 2091.79C3367.9 2090.75 3369.14 2089.14 3369.71 2087.26L3378.31 2062.26C3378.86 2060.65 3379.92 2059.25 3381.32 2058.28C3382.72 2057.3 3384.39 2056.8 3386.1 2056.85H3395.9C3397.6 2056.81 3399.27 2057.32 3400.67 2058.29C3402.07 2059.26 3403.13 2060.65 3403.69 2062.26L3412.29 2087.26C3412.86 2089.14 3414.1 2090.75 3415.78 2091.79C3417.45 2092.82 3419.45 2093.21 3421.39 2092.87L3432.98 2090.87C3434.92 2090.51 3436.66 2089.46 3437.88 2087.91C3439.09 2086.36 3439.7 2084.42 3439.58 2082.45L3439.18 2056C3439.16 2054.3 3439.68 2052.63 3440.66 2051.25C3441.65 2049.86 3443.05 2048.82 3444.67 2048.29C3448.87 2046.88 3451.67 2045.78 3454.27 2044.78C3456.87 2043.78 3460.07 2043.78 3462.57 2046.88L3479.57 2067.82C3480.74 2069.4 3482.45 2070.5 3484.37 2070.9C3486.29 2071.3 3488.3 2070.98 3490 2070L3500.2 2064.09C3501.91 2063.11 3503.19 2061.54 3503.8 2059.67C3504.41 2057.8 3504.3 2055.77 3503.5 2053.97L3494.1 2029.22C3493.51 2027.63 3493.43 2025.89 3493.88 2024.26C3494.33 2022.62 3495.28 2021.16 3496.6 2020.1C3499.1 2018.1 3501.6 2016 3504 2013.89C3505.27 2012.76 3506.86 2012.07 3508.55 2011.91C3510.24 2011.75 3511.93 2012.13 3513.39 2012.99L3536 2026.66C3537.63 2027.73 3539.6 2028.17 3541.54 2027.9C3543.47 2027.62 3545.24 2026.64 3546.5 2025.15L3553.99 2016.15C3555.25 2014.65 3555.91 2012.74 3555.86 2010.78C3555.8 2008.83 3555.03 2006.96 3553.69 2005.53L3536.4 1985.59C3535.28 1984.29 3534.6 1982.66 3534.47 1980.95C3534.35 1979.23 3534.78 1977.52 3535.7 1976.07C3537.4 1973.37 3539 1970.57 3540.5 1967.66C3541.32 1966.16 3542.59 1964.95 3544.13 1964.21C3545.67 1963.47 3547.41 1963.24 3549.09 1963.55L3574.98 1968.55C3576.89 1969.02 3578.9 1968.76 3580.63 1967.84C3582.37 1966.92 3583.7 1965.39 3584.38 1963.55L3588.38 1952.55C3589.05 1950.71 3589.03 1948.68 3588.31 1946.85C3587.59 1945.03 3586.23 1943.52 3584.48 1942.63L3561.39 1929.81C3559.9 1928.98 3558.72 1927.7 3558.02 1926.14C3557.31 1924.59 3557.13 1922.86 3557.49 1921.19C3558.09 1917.99 3558.69 1914.88 3559.19 1911.68C3559.43 1909.99 3560.2 1908.42 3561.38 1907.2C3562.57 1905.97 3564.11 1905.16 3565.79 1904.86L3591.87 1900.66C3593.81 1900.42 3595.6 1899.49 3596.9 1898.03C3598.21 1896.57 3598.94 1894.7 3598.97 1892.74V1881C3598.86 1879.06 3598.07 1877.22 3596.74 1875.81C3595.41 1874.4 3593.63 1873.5 3591.7 1873.27ZM3391 1743C3422.94 1742.99 3453.98 1753.61 3479.21 1773.18C3504.45 1792.76 3522.45 1820.18 3530.38 1851.12C3530.97 1853.48 3531.01 1855.94 3530.51 1858.32C3530 1860.7 3528.96 1862.93 3527.47 1864.85C3525.97 1866.77 3524.05 1868.32 3521.87 1869.38C3519.68 1870.45 3517.28 1871 3514.85 1871H3409.61C3406.78 1871 3404.01 1870.25 3401.56 1868.83C3399.12 1867.41 3397.1 1865.37 3395.7 1862.91L3343.6 1771.2C3342.39 1769.07 3341.68 1766.69 3341.53 1764.24C3341.39 1761.79 3341.81 1759.34 3342.76 1757.08C3343.71 1754.82 3345.17 1752.81 3347.03 1751.2C3348.88 1749.59 3351.08 1748.43 3353.45 1747.81C3365.71 1744.59 3378.33 1742.98 3391 1743ZM3247 1887C3246.98 1867.72 3250.84 1848.63 3258.33 1830.87C3265.83 1813.1 3276.82 1797.03 3290.65 1783.59C3292.4 1781.86 3294.52 1780.56 3296.85 1779.78C3299.18 1779 3301.66 1778.77 3304.09 1779.11C3306.53 1779.45 3308.85 1780.34 3310.88 1781.72C3312.92 1783.09 3314.61 1784.92 3315.82 1787.06L3368.06 1879C3369.44 1881.42 3370.17 1884.15 3370.17 1886.93C3370.17 1889.72 3369.44 1892.45 3368.06 1894.87L3315.39 1986.57C3314.17 1988.7 3312.47 1990.52 3310.43 1991.89C3308.39 1993.26 3306.06 1994.14 3303.63 1994.47C3301.19 1994.79 3298.72 1994.55 3296.39 1993.76C3294.06 1992.98 3291.95 1991.67 3290.21 1989.93C3276.52 1976.51 3265.64 1960.5 3258.22 1942.82C3250.8 1925.15 3246.99 1906.17 3247 1887ZM3391 2031C3378.11 2031.03 3365.27 2029.37 3352.81 2026.05C3350.44 2025.42 3348.24 2024.25 3346.39 2022.64C3344.54 2021.02 3343.09 2019 3342.15 2016.74C3341.21 2014.47 3340.8 2012.02 3340.95 2009.57C3341.11 2007.12 3341.83 2004.74 3343.05 2002.61L3395.63 1911.06C3397.04 1908.62 3399.06 1906.6 3401.5 1905.2C3403.93 1903.79 3406.7 1903.06 3409.51 1903.06H3514.9C3517.33 1903.06 3519.73 1903.61 3521.92 1904.68C3524.1 1905.75 3526.01 1907.3 3527.51 1909.21C3529.01 1911.13 3530.05 1913.36 3530.55 1915.74C3531.05 1918.12 3531.01 1920.58 3530.42 1922.94C3522.48 1953.87 3504.46 1981.28 3479.22 2000.85C3453.97 2020.41 3422.94 2031.02 3391 2031Z" fill="white"/>
</g>
</g>
<g id="settings">
<path id="outer_14" d="M3647 1004H3135V1516H3647V1004Z" fill="#191919"/>
<g id="cog 1">
<path id="Vector_22" d="M3599 1253.93C3598.87 1251.43 3597.85 1249.07 3596.14 1247.25C3594.42 1245.43 3592.12 1244.27 3589.64 1243.99L3564 1239.84C3562.85 1239.65 3561.79 1239.09 3560.97 1238.25C3560.16 1237.41 3559.65 1236.33 3559.5 1235.17C3559.01 1232.02 3558.5 1228.75 3557.8 1225.65C3557.57 1224.52 3557.71 1223.35 3558.18 1222.3C3558.65 1221.26 3559.44 1220.38 3560.43 1219.8L3583.21 1207.15C3585.47 1206 3587.23 1204.05 3588.15 1201.69C3589.08 1199.32 3589.1 1196.7 3588.21 1194.32L3584.26 1183.42C3583.39 1181.03 3581.68 1179.05 3579.44 1177.85C3577.2 1176.65 3574.6 1176.31 3572.13 1176.91L3546.58 1181.91C3545.44 1182.11 3544.26 1181.95 3543.21 1181.45C3542.17 1180.94 3541.31 1180.12 3540.76 1179.1C3539.27 1176.31 3537.65 1173.47 3535.96 1170.68C3535.35 1169.69 3535.06 1168.52 3535.14 1167.36C3535.22 1166.19 3535.66 1165.08 3536.4 1164.18L3553.4 1144.54C3555.13 1142.69 3556.12 1140.27 3556.19 1137.73C3556.26 1135.2 3555.41 1132.73 3553.79 1130.78L3546.37 1121.87C3544.76 1119.91 3542.47 1118.63 3539.96 1118.26C3537.46 1117.89 3534.9 1118.46 3532.79 1119.87L3510.42 1133.3C3509.43 1133.89 3508.27 1134.15 3507.12 1134.04C3505.97 1133.93 3504.89 1133.45 3504.03 1132.67C3501.56 1130.5 3499.03 1128.41 3496.66 1126.48C3495.75 1125.76 3495.09 1124.77 3494.78 1123.66C3494.47 1122.54 3494.53 1121.35 3494.94 1120.27L3504.2 1095.87C3505.21 1093.54 3505.33 1090.92 3504.53 1088.51C3503.74 1086.11 3502.09 1084.07 3499.89 1082.8L3489.8 1076.91C3487.6 1075.64 3485.02 1075.23 3482.53 1075.75C3480.05 1076.28 3477.85 1077.7 3476.35 1079.74L3460 1100.28C3459.41 1101.17 3458.53 1101.83 3457.51 1102.15C3456.49 1102.46 3455.39 1102.41 3454.4 1102C3453.79 1101.75 3448.63 1099.64 3444.62 1098.3C3443.52 1097.94 3442.56 1097.24 3441.89 1096.3C3441.22 1095.36 3440.86 1094.23 3440.88 1093.07L3441.27 1067C3441.41 1064.45 3440.62 1061.95 3439.04 1059.94C3437.46 1057.94 3435.21 1056.58 3432.7 1056.12L3421.25 1054.12C3418.76 1053.69 3416.19 1054.18 3414.03 1055.5C3411.87 1056.82 3410.26 1058.87 3409.5 1061.29L3401 1086.1C3400.61 1087.2 3399.89 1088.15 3398.92 1088.81C3397.96 1089.46 3396.81 1089.79 3395.64 1089.75H3385.89C3384.73 1089.77 3383.6 1089.43 3382.65 1088.77C3381.69 1088.11 3380.97 1087.17 3380.59 1086.08L3372.13 1061.41C3371.39 1058.98 3369.78 1056.9 3367.61 1055.56C3365.45 1054.23 3362.87 1053.73 3360.36 1054.16L3348.89 1056.16C3346.4 1056.62 3344.16 1057.96 3342.58 1059.95C3341.01 1061.93 3340.21 1064.42 3340.33 1066.95L3340.73 1093.11C3340.74 1094.28 3340.37 1095.43 3339.67 1096.38C3338.98 1097.32 3337.99 1098.02 3336.87 1098.36C3334.58 1099.25 3329.61 1101.15 3327.35 1101.99C3325.35 1102.71 3323.17 1101.92 3321.41 1099.89L3305.15 1079.89C3303.66 1077.83 3301.46 1076.4 3298.97 1075.87C3296.49 1075.33 3293.89 1075.74 3291.69 1077L3281.63 1082.83C3279.41 1084.1 3277.74 1086.15 3276.94 1088.59C3276.15 1091.02 3276.28 1093.66 3277.31 1096L3286.56 1120.34C3286.96 1121.43 3287.02 1122.61 3286.71 1123.73C3286.41 1124.85 3285.76 1125.84 3284.86 1126.57C3282.43 1128.57 3279.94 1130.57 3277.46 1132.79C3276.61 1133.56 3275.53 1134.04 3274.39 1134.15C3273.25 1134.27 3272.1 1134.01 3271.11 1133.43L3249 1119.74C3246.88 1118.36 3244.32 1117.8 3241.82 1118.17C3239.31 1118.54 3237.03 1119.81 3235.39 1121.74L3228 1130.63C3226.36 1132.57 3225.49 1135.04 3225.56 1137.58C3225.63 1140.11 3226.63 1142.54 3228.37 1144.38L3245.45 1164C3246.21 1164.88 3246.66 1165.99 3246.74 1167.15C3246.82 1168.31 3246.53 1169.47 3245.9 1170.45C3244.19 1173.17 3242.56 1176.03 3241.08 1178.89C3240.53 1179.92 3239.66 1180.75 3238.61 1181.25C3237.56 1181.76 3236.37 1181.92 3235.22 1181.71L3209.71 1176.78C3207.24 1176.18 3204.64 1176.52 3202.4 1177.72C3200.16 1178.92 3198.44 1180.9 3197.57 1183.29L3193.57 1194.17C3192.69 1196.55 3192.71 1199.18 3193.63 1201.55C3194.55 1203.91 3196.31 1205.86 3198.57 1207.02L3221.35 1219.67C3222.37 1220.24 3223.19 1221.12 3223.67 1222.19C3224.14 1223.25 3224.26 1224.45 3224 1225.59L3223.76 1226.86C3223.24 1229.65 3222.76 1232.29 3222.3 1235.1C3222.14 1236.24 3221.62 1237.31 3220.82 1238.14C3220.02 1238.98 3218.98 1239.54 3217.84 1239.74L3192.15 1243.89C3189.64 1244.2 3187.32 1245.41 3185.64 1247.3C3183.96 1249.19 3183.02 1251.63 3183 1254.16V1265.74C3182.99 1268.28 3183.91 1270.74 3185.61 1272.63C3187.3 1274.53 3189.63 1275.73 3192.16 1276L3217.84 1280.14C3218.99 1280.33 3220.06 1280.88 3220.87 1281.73C3221.68 1282.57 3222.2 1283.65 3222.34 1284.81C3222.83 1287.97 3223.34 1291.23 3224.04 1294.33C3224.27 1295.46 3224.13 1296.63 3223.66 1297.68C3223.19 1298.72 3222.4 1299.6 3221.41 1300.18L3198.64 1312.85C3196.38 1314 3194.62 1315.95 3193.7 1318.31C3192.78 1320.68 3192.75 1323.3 3193.64 1325.68L3197.64 1336.58C3198.51 1338.97 3200.23 1340.95 3202.46 1342.15C3204.7 1343.35 3207.3 1343.69 3209.77 1343.09L3235.32 1338.14C3236.46 1337.93 3237.64 1338.09 3238.69 1338.6C3239.73 1339.1 3240.59 1339.93 3241.14 1340.95C3242.64 1343.75 3244.25 1346.58 3245.94 1349.37C3246.56 1350.36 3246.85 1351.52 3246.77 1352.69C3246.69 1353.86 3246.24 1354.97 3245.5 1355.87L3228.5 1375.5C3226.75 1377.34 3225.74 1379.75 3225.65 1382.29C3225.55 1384.83 3226.39 1387.31 3228 1389.27L3235.41 1398.18C3237.02 1400.14 3239.31 1401.43 3241.81 1401.8C3244.32 1402.17 3246.88 1401.59 3248.99 1400.18L3271.36 1386.75C3272.35 1386.16 3273.51 1385.9 3274.66 1386.01C3275.81 1386.12 3276.89 1386.6 3277.75 1387.38C3280.23 1389.55 3282.75 1391.64 3285.12 1393.57C3286.03 1394.29 3286.69 1395.28 3287 1396.39C3287.31 1397.51 3287.26 1398.7 3286.85 1399.78L3277.58 1424.18C3276.57 1426.51 3276.45 1429.13 3277.25 1431.54C3278.04 1433.94 3279.69 1435.98 3281.89 1437.25L3292 1443.09C3294.2 1444.36 3296.78 1444.77 3299.26 1444.25C3301.75 1443.73 3303.95 1442.31 3305.45 1440.27L3322 1419.92C3323.4 1418.19 3325.6 1417.42 3327.23 1418.08C3330.71 1419.52 3333.04 1420.33 3337.17 1421.71C3338.27 1422.07 3339.23 1422.77 3339.9 1423.71C3340.58 1424.65 3340.93 1425.78 3340.92 1426.94L3340.52 1452.99C3340.39 1455.53 3341.18 1458.04 3342.76 1460.04C3344.33 1462.05 3346.58 1463.41 3349.09 1463.87L3360.54 1465.87C3363.04 1466.31 3365.6 1465.82 3367.77 1464.5C3369.93 1463.18 3371.54 1461.12 3372.29 1458.7L3380.79 1433.93C3381.17 1432.83 3381.9 1431.88 3382.87 1431.22C3383.83 1430.56 3384.98 1430.23 3386.15 1430.28H3395.9C3397.06 1430.25 3398.19 1430.6 3399.15 1431.26C3400.1 1431.91 3400.82 1432.86 3401.2 1433.95L3409.67 1458.62C3410.33 1460.76 3411.65 1462.64 3413.45 1463.97C3415.25 1465.3 3417.43 1466.03 3419.67 1466.03C3420.27 1466.03 3420.86 1465.98 3421.45 1465.87L3432.92 1463.87C3435.41 1463.41 3437.65 1462.07 3439.23 1460.08C3440.8 1458.1 3441.6 1455.61 3441.48 1453.08L3441.08 1426.92C3441.07 1425.77 3441.43 1424.64 3442.11 1423.71C3442.78 1422.77 3443.73 1422.08 3444.83 1421.72C3448.67 1420.43 3451.37 1419.39 3453.74 1418.47L3454.34 1418.24C3457.44 1417.17 3458.94 1418.47 3459.81 1419.55L3476.56 1440.18C3478.06 1442.22 3480.26 1443.64 3482.74 1444.16C3485.22 1444.68 3487.81 1444.27 3490 1443L3500.07 1437.17C3502.27 1435.9 3503.93 1433.86 3504.72 1431.44C3505.52 1429.03 3505.4 1426.4 3504.38 1424.07L3495.14 1399.73C3494.73 1398.65 3494.68 1397.46 3494.98 1396.34C3495.28 1395.22 3495.93 1394.23 3496.83 1393.5C3499.26 1391.5 3501.75 1389.5 3504.23 1387.28C3505.09 1386.51 3506.17 1386.03 3507.32 1385.92C3508.47 1385.81 3509.62 1386.07 3510.61 1386.66L3533 1400.06C3535.12 1401.44 3537.68 1402 3540.18 1401.63C3542.69 1401.27 3544.98 1400 3546.61 1398.06L3554.01 1389.16C3555.65 1387.22 3556.52 1384.75 3556.45 1382.21C3556.38 1379.68 3555.38 1377.25 3553.64 1375.41L3536.58 1355.74C3535.82 1354.86 3535.37 1353.75 3535.29 1352.59C3535.21 1351.43 3535.5 1350.27 3536.13 1349.29C3537.84 1346.58 3539.47 1343.72 3540.95 1340.85C3541.51 1339.82 3542.37 1339 3543.42 1338.49C3544.48 1337.99 3545.66 1337.82 3546.81 1338.03L3572.29 1343C3574.76 1343.6 3577.36 1343.26 3579.6 1342.06C3581.84 1340.86 3583.56 1338.88 3584.43 1336.49L3588.38 1325.61C3589.26 1323.23 3589.24 1320.61 3588.32 1318.24C3587.4 1315.87 3585.64 1313.93 3583.38 1312.77L3560.58 1300.1C3559.57 1299.53 3558.77 1298.65 3558.3 1297.59C3557.83 1296.53 3557.71 1295.34 3557.97 1294.21L3558.21 1292.94C3558.73 1290.15 3559.21 1287.51 3559.67 1284.7C3559.83 1283.56 3560.35 1282.49 3561.15 1281.66C3561.95 1280.82 3562.99 1280.26 3564.13 1280.06L3589.82 1275.92C3592.34 1275.62 3594.66 1274.4 3596.35 1272.51C3598.04 1270.62 3598.98 1268.18 3599 1265.64V1253.93ZM3316.55 1347.93C3315.3 1350.1 3313.56 1351.94 3311.47 1353.3C3309.37 1354.66 3306.98 1355.51 3304.49 1355.77C3302.01 1356.03 3299.5 1355.69 3297.16 1354.79C3294.83 1353.89 3292.75 1352.45 3291.08 1350.59C3268.55 1325.68 3256.11 1293.27 3256.19 1259.68C3256.27 1226.1 3268.86 1193.75 3291.5 1168.94C3293.18 1167.08 3295.27 1165.64 3297.61 1164.75C3299.95 1163.85 3302.47 1163.53 3304.96 1163.8C3307.45 1164.07 3309.84 1164.93 3311.93 1166.3C3314.03 1167.68 3315.76 1169.53 3317 1171.71L3362.65 1252.06C3364.02 1254.46 3364.74 1257.17 3364.74 1259.93C3364.74 1262.69 3364.02 1265.4 3362.65 1267.8L3316.55 1347.93ZM3391 1395.11C3381.48 1395.11 3371.99 1394.11 3362.69 1392.11C3360.27 1391.57 3358 1390.46 3356.09 1388.88C3354.17 1387.31 3352.65 1385.3 3351.66 1383.02C3350.66 1380.75 3350.21 1378.27 3350.35 1375.79C3350.49 1373.31 3351.21 1370.9 3352.46 1368.75L3398.46 1288.75C3399.84 1286.34 3401.84 1284.34 3404.24 1282.94C3406.65 1281.55 3409.38 1280.82 3412.16 1280.82H3504.3C3506.78 1280.82 3509.23 1281.4 3511.45 1282.52C3513.66 1283.63 3515.58 1285.26 3517.05 1287.26C3518.52 1289.26 3519.5 1291.58 3519.91 1294.02C3520.32 1296.47 3520.14 1298.98 3519.4 1301.35C3501.91 1355.67 3451 1395.11 3391 1395.11ZM3398.51 1231.21L3353 1151.07C3351.77 1148.92 3351.06 1146.51 3350.93 1144.03C3350.8 1141.55 3351.26 1139.08 3352.26 1136.81C3353.26 1134.54 3354.79 1132.54 3356.71 1130.97C3358.63 1129.4 3360.89 1128.3 3363.31 1127.77C3372.42 1125.85 3381.7 1124.89 3391 1124.89C3451 1124.89 3501.91 1164.33 3519.37 1218.68C3520.11 1221.05 3520.29 1223.56 3519.88 1226.01C3519.47 1228.45 3518.49 1230.77 3517.02 1232.77C3515.55 1234.77 3513.63 1236.4 3511.42 1237.51C3509.2 1238.63 3506.75 1239.21 3504.27 1239.21H3412.27C3409.47 1239.22 3406.73 1238.48 3404.31 1237.07C3401.89 1235.67 3399.89 1233.64 3398.51 1231.21Z" fill="white"/>
</g>
</g>
<g id="movie-outline">
<path id="outer_15" d="M512 3166H0V3678H512V3166Z" fill="#191919"/>
<g id="film-outline 1">
<path id="Vector_23" d="M436 3262H76C60.54 3262 48 3274.54 48 3290V3554C48 3569.46 60.54 3582 76 3582H436C451.46 3582 464 3569.46 464 3554V3290C464 3274.54 451.46 3262 436 3262Z" stroke="white" stroke-width="32" stroke-linejoin="round"/>
<path id="Vector_24" d="M436 3502H412C396.54 3502 384 3514.54 384 3530V3554C384 3569.46 396.54 3582 412 3582H436C451.46 3582 464 3569.46 464 3554V3530C464 3514.54 451.46 3502 436 3502Z" stroke="white" stroke-width="32" stroke-linejoin="round"/>
<path id="Vector_25" d="M436 3422H412C396.54 3422 384 3434.54 384 3450V3474C384 3489.46 396.54 3502 412 3502H436C451.46 3502 464 3489.46 464 3474V3450C464 3434.54 451.46 3422 436 3422Z" stroke="white" stroke-width="32" stroke-linejoin="round"/>
<path id="Vector_26" d="M436 3342H412C396.54 3342 384 3354.54 384 3370V3394C384 3409.46 396.54 3422 412 3422H436C451.46 3422 464 3409.46 464 3394V3370C464 3354.54 451.46 3342 436 3342Z" stroke="white" stroke-width="32" stroke-linejoin="round"/>
<path id="Vector_27" d="M436 3262H412C396.54 3262 384 3274.54 384 3290V3314C384 3329.46 396.54 3342 412 3342H436C451.46 3342 464 3329.46 464 3314V3290C464 3274.54 451.46 3262 436 3262Z" stroke="white" stroke-width="32" stroke-linejoin="round"/>
<path id="Vector_28" d="M100 3502H76C60.54 3502 48 3514.54 48 3530V3554C48 3569.46 60.54 3582 76 3582H100C115.46 3582 128 3569.46 128 3554V3530C128 3514.54 115.46 3502 100 3502Z" stroke="white" stroke-width="32" stroke-linejoin="round"/>
<path id="Vector_29" d="M100 3422H76C60.54 3422 48 3434.54 48 3450V3474C48 3489.46 60.54 3502 76 3502H100C115.46 3502 128 3489.46 128 3474V3450C128 3434.54 115.46 3422 100 3422Z" stroke="white" stroke-width="32" stroke-linejoin="round"/>
<path id="Vector_30" d="M100 3342H76C60.54 3342 48 3354.54 48 3370V3394C48 3409.46 60.54 3422 76 3422H100C115.46 3422 128 3409.46 128 3394V3370C128 3354.54 115.46 3342 100 3342Z" stroke="white" stroke-width="32" stroke-linejoin="round"/>
<path id="Vector_31" d="M100 3262H76C60.54 3262 48 3274.54 48 3290V3314C48 3329.46 60.54 3342 76 3342H100C115.46 3342 128 3329.46 128 3314V3290C128 3274.54 115.46 3262 100 3262Z" stroke="white" stroke-width="32" stroke-linejoin="round"/>
<path id="Vector_32" d="M356 3262H156C140.54 3262 128 3274.54 128 3290V3394C128 3409.46 140.54 3422 156 3422H356C371.46 3422 384 3409.46 384 3394V3290C384 3274.54 371.46 3262 356 3262Z" stroke="white" stroke-width="32" stroke-linejoin="round"/>
<path id="Vector_33" d="M356 3422H156C140.54 3422 128 3434.54 128 3450V3554C128 3569.46 140.54 3582 156 3582H356C371.46 3582 384 3569.46 384 3554V3450C384 3434.54 371.46 3422 356 3422Z" stroke="white" stroke-width="32" stroke-linejoin="round"/>
</g>
</g>
<g id="movie">
<path id="outer_16" d="M512 2538H0V3050H512V2538Z" fill="#191919"/>
<g id="film 1">
<path id="Vector_34" d="M436 2618H76C64.33 2618.01 53.1499 2622.65 44.8999 2630.9C36.6499 2639.15 32.01 2650.33 32 2662V2926C32.01 2937.67 36.6499 2948.85 44.8999 2957.1C53.1499 2965.35 64.33 2969.99 76 2970H436C447.67 2969.99 458.85 2965.35 467.1 2957.1C475.35 2948.85 479.99 2937.67 480 2926V2662C479.99 2650.33 475.35 2639.15 467.1 2630.9C458.85 2622.65 447.67 2618.01 436 2618ZM112 2926C112 2929.18 110.74 2932.23 108.49 2934.49C106.23 2936.74 103.18 2938 100 2938H76C72.82 2938 69.77 2936.74 67.51 2934.49C65.26 2932.23 64 2929.18 64 2926V2902C64 2898.82 65.26 2895.77 67.51 2893.51C69.77 2891.26 72.82 2890 76 2890H100C103.18 2890 106.23 2891.26 108.49 2893.51C110.74 2895.77 112 2898.82 112 2902V2926ZM112 2846C112 2849.18 110.74 2852.23 108.49 2854.49C106.23 2856.74 103.18 2858 100 2858H76C72.82 2858 69.77 2856.74 67.51 2854.49C65.26 2852.23 64 2849.18 64 2846V2822C64 2818.82 65.26 2815.77 67.51 2813.51C69.77 2811.26 72.82 2810 76 2810H100C103.18 2810 106.23 2811.26 108.49 2813.51C110.74 2815.77 112 2818.82 112 2822V2846ZM112 2766C112 2769.18 110.74 2772.23 108.49 2774.49C106.23 2776.74 103.18 2778 100 2778H76C72.82 2778 69.77 2776.74 67.51 2774.49C65.26 2772.23 64 2769.18 64 2766V2742C64 2738.82 65.26 2735.77 67.51 2733.51C69.77 2731.26 72.82 2730 76 2730H100C103.18 2730 106.23 2731.26 108.49 2733.51C110.74 2735.77 112 2738.82 112 2742V2766ZM112 2686C112 2689.18 110.74 2692.23 108.49 2694.49C106.23 2696.74 103.18 2698 100 2698H76C72.82 2698 69.77 2696.74 67.51 2694.49C65.26 2692.23 64 2689.18 64 2686V2662C64 2658.82 65.26 2655.77 67.51 2653.51C69.77 2651.26 72.82 2650 76 2650H100C103.18 2650 106.23 2651.26 108.49 2653.51C110.74 2655.77 112 2658.82 112 2662V2686ZM353.68 2810H158.32C154.08 2810 150.01 2808.31 147.01 2805.31C144.01 2802.31 142.32 2798.24 142.32 2794C142.32 2789.76 144.01 2785.69 147.01 2782.69C150.01 2779.69 154.08 2778 158.32 2778H353.68C357.92 2778 361.99 2779.69 364.99 2782.69C367.99 2785.69 369.68 2789.76 369.68 2794C369.68 2798.24 367.99 2802.31 364.99 2805.31C361.99 2808.31 357.92 2810 353.68 2810ZM448 2926C448 2929.18 446.74 2932.23 444.49 2934.49C442.23 2936.74 439.18 2938 436 2938H412C408.82 2938 405.77 2936.74 403.51 2934.49C401.26 2932.23 400 2929.18 400 2926V2902C400 2898.82 401.26 2895.77 403.51 2893.51C405.77 2891.26 408.82 2890 412 2890H436C439.18 2890 442.23 2891.26 444.49 2893.51C446.74 2895.77 448 2898.82 448 2902V2926ZM448 2846C448 2849.18 446.74 2852.23 444.49 2854.49C442.23 2856.74 439.18 2858 436 2858H412C408.82 2858 405.77 2856.74 403.51 2854.49C401.26 2852.23 400 2849.18 400 2846V2822C400 2818.82 401.26 2815.77 403.51 2813.51C405.77 2811.26 408.82 2810 412 2810H436C439.18 2810 442.23 2811.26 444.49 2813.51C446.74 2815.77 448 2818.82 448 2822V2846ZM448 2766C448 2769.18 446.74 2772.23 444.49 2774.49C442.23 2776.74 439.18 2778 436 2778H412C408.82 2778 405.77 2776.74 403.51 2774.49C401.26 2772.23 400 2769.18 400 2766V2742C400 2738.82 401.26 2735.77 403.51 2733.51C405.77 2731.26 408.82 2730 412 2730H436C439.18 2730 442.23 2731.26 444.49 2733.51C446.74 2735.77 448 2738.82 448 2742V2766ZM448 2686C448 2689.18 446.74 2692.23 444.49 2694.49C442.23 2696.74 439.18 2698 436 2698H412C408.82 2698 405.77 2696.74 403.51 2694.49C401.26 2692.23 400 2689.18 400 2686V2662C400 2658.82 401.26 2655.77 403.51 2653.51C405.77 2651.26 408.82 2650 412 2650H436C439.18 2650 442.23 2651.26 444.49 2653.51C446.74 2655.77 448 2658.82 448 2662V2686Z" fill="white"/>
</g>
</g>
<g id="series-outline">
<path id="outer_17" d="M1139 3165H627V3677H1139V3165Z" fill="#191919"/>
<g id="easel-outline 1">
<path id="Vector_35" d="M1059 3245H707C689.33 3245 675 3259.33 675 3277V3485C675 3502.67 689.33 3517 707 3517H1059C1076.67 3517 1091 3502.67 1091 3485V3277C1091 3259.33 1076.67 3245 1059 3245Z" stroke="white" stroke-width="32" stroke-linejoin="round"/>
<path id="Vector_36" d="M883 3581V3517" stroke="white" stroke-width="32" stroke-linecap="round" stroke-linejoin="round"/>
<path id="Vector_37" d="M883 3245V3213" stroke="white" stroke-width="32" stroke-linecap="round" stroke-linejoin="round"/>
<path id="Vector_38" d="M1027 3629L995 3517" stroke="white" stroke-width="32" stroke-linecap="round" stroke-linejoin="round"/>
<path id="Vector_39" d="M739 3629L771 3517" stroke="white" stroke-width="32" stroke-linecap="round" stroke-linejoin="round"/>
</g>
</g>
<g id="series">
<path id="outer_18" d="M1139 2538H627V3050H1139V2538Z" fill="#191919"/>
<g id="easel 1">
<path id="Vector_40" d="M1047 2650H719C712.37 2650 707 2655.37 707 2662V2846C707 2852.63 712.37 2858 719 2858H1047C1053.63 2858 1059 2852.63 1059 2846V2662C1059 2655.37 1053.63 2650 1047 2650Z" fill="white"/>
<path id="Vector_41" d="M1059 2602H899V2586C899 2581.76 897.31 2577.69 894.31 2574.69C891.31 2571.69 887.24 2570 883 2570C878.76 2570 874.69 2571.69 871.69 2574.69C868.69 2577.69 867 2581.76 867 2586V2602H707C694.27 2602.01 682.07 2607.07 673.07 2616.07C664.07 2625.07 659.01 2637.27 659 2650V2858C659.01 2870.73 664.07 2882.93 673.07 2891.93C682.07 2900.93 694.27 2905.99 707 2906H749.79L723.62 2997.6C723 2999.63 722.78 3001.77 722.99 3003.89C723.21 3006 723.84 3008.06 724.85 3009.93C725.87 3011.8 727.24 3013.45 728.9 3014.78C730.56 3016.11 732.47 3017.1 734.51 3017.68C736.56 3018.27 738.7 3018.44 740.81 3018.18C742.92 3017.93 744.97 3017.26 746.82 3016.21C748.67 3015.16 750.29 3013.75 751.59 3012.07C752.88 3010.38 753.83 3008.46 754.38 3006.4L783.07 2906H867V2954C867 2958.24 868.69 2962.31 871.69 2965.31C874.69 2968.31 878.76 2970 883 2970C887.24 2970 891.31 2968.31 894.31 2965.31C897.31 2962.31 899 2958.24 899 2954V2906H982.93L1011.62 3006.4C1012.17 3008.46 1013.12 3010.38 1014.41 3012.07C1015.71 3013.75 1017.33 3015.16 1019.18 3016.21C1021.03 3017.26 1023.08 3017.93 1025.19 3018.18C1027.3 3018.44 1029.44 3018.27 1031.49 3017.68C1033.53 3017.1 1035.44 3016.11 1037.1 3014.78C1038.76 3013.45 1040.13 3011.8 1041.15 3009.93C1042.16 3008.06 1042.79 3006 1043.01 3003.89C1043.22 3001.77 1043 2999.63 1042.38 2997.6L1016.21 2906H1059C1071.73 2905.99 1083.93 2900.93 1092.93 2891.93C1101.93 2882.93 1106.99 2870.73 1107 2858V2650C1106.99 2637.27 1101.93 2625.07 1092.93 2616.07C1083.93 2607.07 1071.73 2602.01 1059 2602ZM1075 2858C1075 2862.24 1073.31 2866.31 1070.31 2869.31C1067.31 2872.31 1063.24 2874 1059 2874H707C702.76 2874 698.69 2872.31 695.69 2869.31C692.69 2866.31 691 2862.24 691 2858V2650C691 2645.76 692.69 2641.69 695.69 2638.69C698.69 2635.69 702.76 2634 707 2634H1059C1063.24 2634 1067.31 2635.69 1070.31 2638.69C1073.31 2641.69 1075 2645.76 1075 2650V2858Z" fill="white"/>
</g>
</g>
<g id="channel-outline">
<path id="outer_19" d="M1766 3166H1254V3678H1766V3166Z" fill="#191919"/>
<g id="tv-outline 1">
<path id="Vector_42" d="M1701.86 3262H1318.14C1300.39 3262 1286 3276.39 1286 3294.14V3501.86C1286 3519.61 1300.39 3534 1318.14 3534H1701.86C1719.61 3534 1734 3519.61 1734 3501.86V3294.14C1734 3276.39 1719.61 3262 1701.86 3262Z" stroke="white" stroke-width="32" stroke-linejoin="round"/>
<path id="Vector_43" d="M1382 3582H1638" stroke="white" stroke-width="32" stroke-miterlimit="10" stroke-linecap="round"/>
</g>
</g>
<g id="channel">
<path id="outer_20" d="M1766 2539H1254V3051H1766V2539Z" fill="#191919"/>
<g id="tv 1">
<path id="Vector_44" d="M1701.86 2923H1318.14C1305.38 2922.98 1293.14 2917.91 1284.12 2908.88C1275.09 2899.86 1270.02 2887.62 1270 2874.86V2667.14C1270.02 2654.38 1275.09 2642.14 1284.12 2633.12C1293.14 2624.09 1305.38 2619.02 1318.14 2619H1701.86C1714.62 2619.02 1726.86 2624.09 1735.88 2633.12C1744.91 2642.14 1749.98 2654.38 1750 2667.14V2874.86C1749.98 2887.62 1744.91 2899.86 1735.88 2908.88C1726.86 2917.91 1714.62 2922.98 1701.86 2923Z" fill="white"/>
<path id="Vector_45" d="M1382 2955H1638" stroke="white" stroke-width="32" stroke-miterlimit="10" stroke-linecap="round"/>
</g>
</g>
<g id="tv-outline">
<path id="outer_21" d="M2393 3165H1881V3677H2393V3165Z" fill="#191919"/>
<g id="videocam-outline 1">
<path id="Vector_46" d="M2255.79 3473.78L2338.5 3532C2340.94 3533.08 2343.6 3533.54 2346.26 3533.33C2348.92 3533.12 2351.48 3532.25 2353.72 3530.8C2355.95 3529.34 2357.79 3527.36 2359.06 3525.01C2360.33 3522.67 2361 3520.05 2361 3517.38V3324.62C2361 3321.95 2360.33 3319.33 2359.06 3316.99C2357.79 3314.64 2355.95 3312.66 2353.72 3311.2C2351.48 3309.75 2348.92 3308.88 2346.26 3308.67C2343.6 3308.46 2340.94 3308.92 2338.5 3310L2255.79 3368.22C2253.69 3369.7 2251.98 3371.66 2250.8 3373.93C2249.62 3376.21 2249 3378.74 2249 3381.3V3460.7C2249 3463.26 2249.62 3465.79 2250.8 3468.07C2251.98 3470.34 2253.69 3472.3 2255.79 3473.78Z" stroke="white" stroke-width="32" stroke-linecap="round" stroke-linejoin="round"/>
<path id="Vector_47" d="M2149 3549H1965C1951.22 3548.96 1938.02 3543.47 1928.27 3533.73C1918.53 3523.98 1913.04 3510.78 1913 3497V3345C1913.04 3331.22 1918.53 3318.02 1928.27 3308.27C1938.02 3298.53 1951.22 3293.04 1965 3293H2149.48C2163.13 3293.04 2176.21 3298.48 2185.86 3308.14C2195.52 3317.79 2200.96 3330.87 2201 3344.52V3497C2200.96 3510.78 2195.47 3523.98 2185.73 3533.73C2175.98 3543.47 2162.78 3548.96 2149 3549Z" stroke="white" stroke-width="32" stroke-miterlimit="10"/>
</g>
</g>
<g id="tv">
<path id="outer_22" d="M2393 2538H1881V3050H2393V2538Z" fill="#191919"/>
<g id="videocam 1">
<path id="Vector_48" d="M2345 2922.39C2340.52 2922.39 2336.09 2921.44 2332 2919.62C2331.05 2919.2 2330.14 2918.68 2329.29 2918.08L2246.58 2859.86C2242.39 2856.91 2238.96 2852.99 2236.6 2848.44C2234.24 2843.88 2233 2838.83 2233 2833.7V2754.3C2233 2749.17 2234.24 2744.12 2236.6 2739.56C2238.96 2735.01 2242.39 2731.09 2246.58 2728.14L2329.29 2669.92C2330.14 2669.32 2331.05 2668.8 2332 2668.38C2336.87 2666.21 2342.21 2665.3 2347.52 2665.72C2352.84 2666.14 2357.96 2667.88 2362.44 2670.79C2366.91 2673.69 2370.58 2677.67 2373.12 2682.35C2375.67 2687.04 2377 2692.29 2377 2697.62V2890.38C2377 2898.87 2373.63 2907.01 2367.63 2913.01C2361.63 2919.01 2353.49 2922.38 2345 2922.38V2922.39Z" fill="white"/>
<path id="Vector_49" d="M2149 2938H1965C1946.97 2937.98 1929.69 2930.81 1916.94 2918.06C1904.19 2905.31 1897.02 2888.03 1897 2870V2718C1897.02 2699.97 1904.19 2682.69 1916.94 2669.94C1929.69 2657.19 1946.97 2650.02 1965 2650H2149.48C2167.38 2650.02 2184.54 2657.14 2197.2 2669.8C2209.86 2682.46 2216.98 2699.62 2217 2717.52V2870C2216.98 2888.03 2209.81 2905.31 2197.06 2918.06C2184.31 2930.81 2167.03 2937.98 2149 2938Z" fill="white"/>
</g>
</g>
<g id="back-outline">
<path id="outer_23" d="M4901 1632H4389V2144H4901V1632Z" fill="#191919"/>
<g id="chevron-back-outline 1">
<path id="Vector_50" d="M4717 1744L4573 1888L4717 2032" stroke="white" stroke-width="48" stroke-linecap="round" stroke-linejoin="round"/>
</g>
</g>
<g id="back">
<path id="outer_24" d="M4901 1005H4389V1517H4901V1005Z" fill="#191919"/>
<g id="chevron-back 1">
<path id="Vector_51" d="M4717 1117L4573 1261L4717 1405" stroke="white" stroke-width="48" stroke-linecap="round" stroke-linejoin="round"/>
</g>
</g>
<g id="ellipsis-horizontal-outline">
<path id="outer_25" d="M5528 1631H5016V2143H5528V1631Z" fill="#191919"/>
<g id="ellipsis-horizontal-outline 1">
<path id="Vector_52" d="M5272 1919C5289.67 1919 5304 1904.67 5304 1887C5304 1869.33 5289.67 1855 5272 1855C5254.33 1855 5240 1869.33 5240 1887C5240 1904.67 5254.33 1919 5272 1919Z" stroke="white" stroke-width="32" stroke-miterlimit="10"/>
<path id="Vector_53" d="M5432 1919C5449.67 1919 5464 1904.67 5464 1887C5464 1869.33 5449.67 1855 5432 1855C5414.33 1855 5400 1869.33 5400 1887C5400 1904.67 5414.33 1919 5432 1919Z" stroke="white" stroke-width="32" stroke-miterlimit="10"/>
<path id="Vector_54" d="M5112 1919C5129.67 1919 5144 1904.67 5144 1887C5144 1869.33 5129.67 1855 5112 1855C5094.33 1855 5080 1869.33 5080 1887C5080 1904.67 5094.33 1919 5112 1919Z" stroke="white" stroke-width="32" stroke-miterlimit="10"/>
</g>
</g>
<g id="ellipsis-horizontal">
<path id="outer_26" d="M5528 1004H5016V1516H5528V1004Z" fill="#191919"/>
<g id="ellipsis-horizontal 1">
<path id="Vector_55" d="M5272 1308C5298.51 1308 5320 1286.51 5320 1260C5320 1233.49 5298.51 1212 5272 1212C5245.49 1212 5224 1233.49 5224 1260C5224 1286.51 5245.49 1308 5272 1308Z" fill="white"/>
<path id="Vector_56" d="M5432 1308C5458.51 1308 5480 1286.51 5480 1260C5480 1233.49 5458.51 1212 5432 1212C5405.49 1212 5384 1233.49 5384 1260C5384 1286.51 5405.49 1308 5432 1308Z" fill="white"/>
<path id="Vector_57" d="M5112 1308C5138.51 1308 5160 1286.51 5160 1260C5160 1233.49 5138.51 1212 5112 1212C5085.49 1212 5064 1233.49 5064 1260C5064 1286.51 5085.49 1308 5112 1308Z" fill="white"/>
</g>
</g>
<g id="ellipsis-vertical">
<path id="outer_27" d="M6155 1003H5643V1515H6155V1003Z" fill="#191919"/>
<g id="ellipsis-vertical 1">
<path id="Vector_58" d="M5899 1307C5925.51 1307 5947 1285.51 5947 1259C5947 1232.49 5925.51 1211 5899 1211C5872.49 1211 5851 1232.49 5851 1259C5851 1285.51 5872.49 1307 5899 1307Z" fill="white"/>
<path id="Vector_59" d="M5899 1467C5925.51 1467 5947 1445.51 5947 1419C5947 1392.49 5925.51 1371 5899 1371C5872.49 1371 5851 1392.49 5851 1419C5851 1445.51 5872.49 1467 5899 1467Z" fill="white"/>
<path id="Vector_60" d="M5899 1147C5925.51 1147 5947 1125.51 5947 1099C5947 1072.49 5925.51 1051 5899 1051C5872.49 1051 5851 1072.49 5851 1099C5851 1125.51 5872.49 1147 5899 1147Z" fill="white"/>
</g>
</g>
<g id="star">
<path id="outer_28" d="M6782 1002H6270V1514H6782V1002Z" fill="#191919"/>
<g id="star 1">
<path id="Vector_61" d="M6664 1482C6660.63 1482.01 6657.35 1480.96 6654.61 1479L6526 1385.76L6397.39 1479C6394.64 1480.99 6391.33 1482.06 6387.94 1482.05C6384.54 1482.04 6381.24 1480.94 6378.51 1478.93C6375.77 1476.92 6373.75 1474.09 6372.73 1470.85C6371.71 1467.61 6371.75 1464.14 6372.84 1460.92L6423 1312.35L6293 1223.2C6290.18 1221.27 6288.06 1218.49 6286.93 1215.27C6285.81 1212.05 6285.75 1208.55 6286.75 1205.29C6287.76 1202.03 6289.78 1199.17 6292.52 1197.14C6295.27 1195.11 6298.59 1194.01 6302 1194H6462.38L6510.78 1045.05C6511.82 1041.83 6513.86 1039.03 6516.59 1037.04C6519.33 1035.06 6522.62 1033.98 6526 1033.98C6529.38 1033.98 6532.67 1035.06 6535.41 1037.04C6538.14 1039.03 6540.18 1041.83 6541.22 1045.05L6589.62 1194.05H6750C6753.42 1194.05 6756.75 1195.14 6759.5 1197.17C6762.25 1199.19 6764.28 1202.05 6765.29 1205.31C6766.3 1208.58 6766.24 1212.08 6765.12 1215.31C6764 1218.54 6761.87 1221.32 6759.05 1223.25L6629 1312.35L6679.13 1460.88C6679.94 1463.28 6680.17 1465.85 6679.8 1468.36C6679.42 1470.87 6678.46 1473.25 6676.98 1475.32C6675.5 1477.38 6673.55 1479.06 6671.3 1480.23C6669.04 1481.39 6666.54 1482 6664 1482Z" fill="white"/>
</g>
</g>
<g id="close">
<path id="outer_28_2" d="M7409 1002H6897V1514H7409V1002Z" fill="#191919"/>
<g id="close 1">
<path id="Vector_62" d="M7186.94 1258L7281.94 1163C7286.45 1158.5 7288.98 1152.39 7288.99 1146.02C7289 1139.65 7286.47 1133.54 7281.97 1129.03C7277.47 1124.52 7271.36 1121.99 7264.99 1121.98C7258.62 1121.97 7252.51 1124.5 7248 1129L7153 1224L7058 1129C7053.49 1124.49 7047.38 1121.96 7041 1121.96C7034.62 1121.96 7028.51 1124.49 7024 1129C7019.49 1133.51 7016.96 1139.62 7016.96 1146C7016.96 1152.38 7019.49 1158.49 7024 1163L7119 1258L7024 1353C7019.49 1357.51 7016.96 1363.62 7016.96 1370C7016.96 1376.38 7019.49 1382.49 7024 1387C7028.51 1391.51 7034.62 1394.04 7041 1394.04C7047.38 1394.04 7053.49 1391.51 7058 1387L7153 1292L7248 1387C7252.51 1391.51 7258.62 1394.04 7265 1394.04C7271.38 1394.04 7277.49 1391.51 7282 1387C7286.51 1382.49 7289.04 1376.38 7289.04 1370C7289.04 1363.62 7286.51 1357.51 7282 1353L7186.94 1258Z" fill="white"/>
</g>
</g>
<g id="add">
<path id="outer_28_3" d="M8036 1002H7524V1514H8036V1002Z" fill="#191919"/>
<g id="add 1">
<path id="Vector_63" d="M7780 1114V1402" stroke="white" stroke-width="32" stroke-linecap="round" stroke-linejoin="round"/>
<path id="Vector_64" d="M7924 1258H7636" stroke="white" stroke-width="32" stroke-linecap="round" stroke-linejoin="round"/>
</g>
</g>
<g id="remove">
<path id="outer_28_4" d="M8663 1002H8151V1514H8663V1002Z" fill="#191919"/>
<g id="remove 1">
<path id="Vector_65" d="M8551 1258H8263" stroke="white" stroke-width="32" stroke-linecap="round" stroke-linejoin="round"/>
</g>
</g>
<g id="checkmark">
<path id="outer_28_5" d="M9290 1002H8778V1514H9290V1002Z" fill="#191919"/>
<g id="checkmark_2">
<path id="Vector_66" d="M9194 1130L8970 1386L8874 1290" stroke="white" stroke-width="32" stroke-linecap="round" stroke-linejoin="round"/>
</g>
</g>
<g id="network">
<path id="outer_28_6" d="M9917 1002H9405V1514H9917V1002Z" fill="#191919"/>
<g id="globe 1">
<path id="Vector_67" d="M9729.86 1329.9C9734.66 1313.08 9737.84 1293.54 9739.05 1274.78C9739.08 1274.29 9739 1273.8 9738.83 1273.34C9738.66 1272.88 9738.4 1272.46 9738.06 1272.1C9737.72 1271.75 9737.31 1271.47 9736.86 1271.28C9736.4 1271.09 9735.92 1270.99 9735.42 1271H9677.69C9677.22 1271 9676.75 1271.08 9676.31 1271.26C9675.87 1271.44 9675.47 1271.7 9675.13 1272.03C9674.8 1272.36 9674.53 1272.76 9674.34 1273.19C9674.16 1273.63 9674.06 1274.09 9674.06 1274.57V1319.5C9674.07 1320.41 9674.42 1321.28 9675.04 1321.94C9675.67 1322.6 9676.51 1323 9677.42 1323.06C9693.69 1324.37 9709.77 1327.48 9725.36 1332.31C9726.27 1332.59 9727.26 1332.49 9728.11 1332.04C9728.95 1331.58 9729.58 1330.81 9729.86 1329.9Z" fill="white"/>
<path id="Vector_68" d="M9715.91 1356.56C9703.54 1352.95 9690.87 1350.48 9678.05 1349.18C9677.55 1349.12 9677.05 1349.17 9676.57 1349.32C9676.1 1349.47 9675.66 1349.72 9675.28 1350.04C9674.91 1350.37 9674.61 1350.77 9674.39 1351.22C9674.18 1351.68 9674.07 1352.17 9674.06 1352.66V1405.67C9674.08 1406.3 9674.26 1406.92 9674.59 1407.46C9674.92 1408 9675.39 1408.44 9675.94 1408.75C9676.5 1409.05 9677.12 1409.2 9677.76 1409.19C9678.39 1409.18 9679.01 1409 9679.55 1408.68C9692.47 1401.15 9703.11 1388.5 9712.73 1371.77C9714.31 1369.04 9716.7 1364.33 9718.15 1361.46C9718.38 1360.99 9718.49 1360.49 9718.5 1359.97C9718.51 1359.46 9718.4 1358.95 9718.18 1358.48C9717.97 1358.01 9717.65 1357.6 9717.26 1357.27C9716.87 1356.94 9716.41 1356.7 9715.91 1356.56Z" fill="white"/>
<path id="Vector_69" d="M9644.17 1349.32C9631.37 1350.54 9618.71 1352.94 9606.34 1356.49C9604.2 1357.11 9603.3 1360.07 9604.27 1362.01C9605.73 1364.9 9607.52 1368.6 9609.06 1371.36C9619.62 1390.05 9630.86 1401.83 9642.56 1408.68C9643.11 1409 9643.73 1409.18 9644.36 1409.19C9644.99 1409.2 9645.62 1409.05 9646.17 1408.75C9646.73 1408.44 9647.19 1408 9647.52 1407.46C9647.85 1406.92 9648.04 1406.3 9648.06 1405.67V1352.64C9648.05 1352.16 9647.95 1351.68 9647.74 1351.24C9647.54 1350.8 9647.24 1350.41 9646.87 1350.1C9646.5 1349.78 9646.07 1349.55 9645.61 1349.42C9645.14 1349.28 9644.65 1349.25 9644.17 1349.32Z" fill="white"/>
<path id="Vector_70" d="M9644.42 1271H9586.69C9586.2 1270.99 9585.71 1271.09 9585.26 1271.28C9584.81 1271.47 9584.4 1271.75 9584.06 1272.1C9583.72 1272.45 9583.46 1272.87 9583.29 1273.33C9583.11 1273.79 9583.04 1274.28 9583.06 1274.77C9584.27 1293.51 9587.43 1313.09 9592.21 1329.89C9592.35 1330.35 9592.58 1330.78 9592.88 1331.15C9593.18 1331.52 9593.55 1331.83 9593.98 1332.06C9594.4 1332.28 9594.86 1332.42 9595.34 1332.47C9595.82 1332.52 9596.3 1332.47 9596.76 1332.33C9612.35 1327.49 9628.42 1324.4 9644.69 1323.1C9645.6 1323.04 9646.45 1322.64 9647.08 1321.98C9647.7 1321.32 9648.05 1320.45 9648.06 1319.54V1274.57C9648.06 1274.1 9647.96 1273.63 9647.78 1273.2C9647.6 1272.76 9647.33 1272.36 9646.99 1272.03C9646.65 1271.7 9646.25 1271.44 9645.81 1271.26C9645.37 1271.08 9644.9 1270.99 9644.42 1271Z" fill="white"/>
<path id="Vector_71" d="M9678.06 1166.82C9690.87 1165.62 9703.53 1163.13 9715.84 1159.4C9716.34 1159.26 9716.8 1159.02 9717.19 1158.69C9717.58 1158.36 9717.89 1157.95 9718.11 1157.48C9718.32 1157.02 9718.43 1156.51 9718.43 1156C9718.42 1155.49 9718.31 1154.98 9718.09 1154.52C9716.63 1151.62 9714.62 1147.47 9713.07 1144.7C9703.09 1126.82 9691.83 1114.35 9679.57 1107.32C9679.02 1107 9678.4 1106.83 9677.77 1106.81C9677.14 1106.8 9676.52 1106.96 9675.96 1107.26C9675.41 1107.56 9674.94 1108.01 9674.61 1108.54C9674.28 1109.08 9674.1 1109.7 9674.07 1110.33V1163.33C9674.08 1163.83 9674.2 1164.32 9674.41 1164.77C9674.62 1165.22 9674.93 1165.62 9675.3 1165.95C9675.68 1166.28 9676.11 1166.53 9676.59 1166.68C9677.07 1166.83 9677.57 1166.88 9678.06 1166.82Z" fill="white"/>
<path id="Vector_72" d="M9677.69 1245H9735.42C9735.91 1245.01 9736.39 1244.92 9736.84 1244.73C9737.29 1244.55 9737.7 1244.27 9738.04 1243.92C9738.38 1243.57 9738.64 1243.16 9738.82 1242.7C9738.99 1242.25 9739.07 1241.76 9739.05 1241.28C9737.85 1222.78 9734.77 1202.44 9729.98 1185.85C9729.84 1185.39 9729.61 1184.97 9729.31 1184.6C9729 1184.23 9728.63 1183.93 9728.21 1183.71C9727.79 1183.49 9727.32 1183.35 9726.85 1183.3C9726.37 1183.26 9725.89 1183.31 9725.44 1183.45C9710 1188.12 9693.92 1191.93 9677.43 1193.2C9676.53 1193.25 9675.68 1193.64 9675.05 1194.3C9674.43 1194.95 9674.07 1195.81 9674.06 1196.71V1241.49C9674.07 1242.44 9674.47 1243.34 9675.15 1244C9675.83 1244.65 9676.74 1245.02 9677.69 1245Z" fill="white"/>
<path id="Vector_73" d="M9642.56 1107.33C9630.04 1114.29 9618.86 1127.18 9608.87 1145.01C9607.32 1147.78 9605.47 1151.59 9603.99 1154.49C9603.78 1154.95 9603.66 1155.45 9603.66 1155.97C9603.66 1156.48 9603.77 1156.98 9603.98 1157.45C9604.19 1157.91 9604.51 1158.32 9604.9 1158.66C9605.29 1158.99 9605.74 1159.23 9606.24 1159.36C9618.54 1163.17 9631.22 1165.67 9644.05 1166.81C9644.55 1166.87 9645.05 1166.82 9645.52 1166.67C9646 1166.52 9646.44 1166.27 9646.81 1165.95C9647.19 1165.62 9647.49 1165.22 9647.7 1164.77C9647.91 1164.31 9648.03 1163.83 9648.04 1163.33V1110.34C9648.01 1109.71 9647.83 1109.1 9647.5 1108.56C9647.17 1108.03 9646.7 1107.59 9646.15 1107.29C9645.6 1106.98 9644.98 1106.83 9644.35 1106.84C9643.72 1106.84 9643.11 1107.01 9642.56 1107.33Z" fill="white"/>
<path id="Vector_74" d="M9644.68 1193.21C9628.19 1191.95 9612.1 1188.14 9596.67 1183.46C9596.22 1183.32 9595.74 1183.27 9595.26 1183.31C9594.79 1183.36 9594.33 1183.49 9593.91 1183.72C9593.48 1183.94 9593.11 1184.24 9592.81 1184.61C9592.5 1184.98 9592.27 1185.4 9592.13 1185.86C9587.35 1202.45 9584.27 1222.79 9583.06 1241.29C9583.04 1241.77 9583.12 1242.26 9583.3 1242.71C9583.47 1243.17 9583.73 1243.58 9584.07 1243.93C9584.41 1244.28 9584.82 1244.55 9585.27 1244.74C9585.72 1244.92 9586.2 1245.02 9586.69 1245.01H9644.42C9644.9 1245.02 9645.36 1244.93 9645.8 1244.76C9646.24 1244.58 9646.64 1244.33 9646.97 1244C9647.31 1243.67 9647.58 1243.28 9647.77 1242.85C9647.95 1242.42 9648.05 1241.95 9648.06 1241.48V1196.72C9648.04 1195.82 9647.69 1194.95 9647.06 1194.3C9646.43 1193.65 9645.59 1193.26 9644.68 1193.21Z" fill="white"/>
<path id="Vector_75" d="M9789.69 1129.31C9772.82 1112.27 9752.75 1098.74 9730.64 1089.48C9708.52 1080.22 9684.79 1075.43 9660.81 1075.37C9636.84 1075.31 9613.09 1079.99 9590.93 1089.14C9568.76 1098.28 9548.63 1111.72 9531.67 1128.67C9514.72 1145.63 9501.28 1165.76 9492.14 1187.93C9482.99 1210.09 9478.31 1233.84 9478.37 1257.81C9478.43 1281.79 9483.22 1305.52 9492.48 1327.64C9501.74 1349.75 9515.27 1369.82 9532.31 1386.69C9549.18 1403.73 9569.25 1417.26 9591.36 1426.52C9613.48 1435.78 9637.21 1440.57 9661.19 1440.63C9685.16 1440.69 9708.91 1436.01 9731.08 1426.87C9753.24 1417.72 9773.37 1404.28 9790.33 1387.33C9807.28 1370.37 9820.72 1350.24 9829.87 1328.08C9839.01 1305.91 9843.69 1282.16 9843.63 1258.19C9843.57 1234.21 9838.78 1210.48 9829.52 1188.36C9820.26 1166.25 9806.73 1146.18 9789.69 1129.31ZM9596.49 1400.07C9592.83 1394.92 9589.44 1389.59 9586.35 1384.09C9584.72 1381.09 9582.42 1376.57 9580.88 1373.42C9580.53 1372.68 9580.02 1372.01 9579.4 1371.47C9578.78 1370.93 9578.05 1370.53 9577.26 1370.29C9576.47 1370.05 9575.64 1369.97 9574.82 1370.07C9574 1370.17 9573.21 1370.44 9572.5 1370.86C9569.01 1372.81 9564.38 1375.5 9561.02 1377.71C9553.99 1372.36 9547.56 1366.24 9541.87 1359.48C9549.74 1353.93 9558 1348.94 9566.58 1344.56C9568.09 1343.75 9568.83 1342.83 9568.35 1341.17C9562.06 1319.41 9558.22 1297.02 9556.9 1274.4C9556.86 1273.5 9556.48 1272.65 9555.83 1272.02C9555.18 1271.39 9554.31 1271.03 9553.41 1271.02H9507.31C9506.92 1271.02 9506.54 1270.88 9506.24 1270.63C9505.94 1270.38 9505.74 1270.02 9505.68 1269.64C9505.17 1265.78 9504.94 1261.89 9505 1258C9504.94 1254.12 9505.18 1250.24 9505.7 1246.39C9505.76 1246 9505.95 1245.65 9506.25 1245.4C9506.55 1245.14 9506.93 1245 9507.32 1245.01H9553.43C9555.29 1245.01 9556.81 1243.94 9556.91 1242.06C9558.21 1219.54 9562.03 1197.24 9568.29 1175.57C9568.52 1174.78 9568.47 1173.93 9568.14 1173.18C9567.82 1172.42 9567.24 1171.8 9566.51 1171.42C9558.11 1167.12 9550.01 1162.26 9542.26 1156.88C9547.92 1150.11 9554.22 1143.91 9561.06 1138.35C9564.38 1140.53 9568.7 1142.99 9572.16 1144.94C9572.92 1145.37 9573.77 1145.65 9574.64 1145.74C9575.51 1145.84 9576.39 1145.75 9577.23 1145.49C9578.07 1145.23 9578.85 1144.8 9579.51 1144.23C9580.18 1143.65 9580.72 1142.95 9581.1 1142.16C9582.63 1139.02 9584.35 1135.52 9586.02 1132.51C9589.13 1126.94 9592.53 1121.54 9596.21 1116.33C9616.47 1106.79 9638.61 1101.89 9661 1102C9684.51 1102 9706.42 1107.69 9726.43 1117C9729.96 1121.96 9733.22 1127.11 9736.18 1132.44C9738.29 1136.22 9740.52 1140.86 9742.4 1144.88C9742.61 1145.31 9742.89 1145.69 9743.25 1146.01C9743.6 1146.32 9744.02 1146.56 9744.47 1146.71C9744.92 1146.85 9745.4 1146.91 9745.87 1146.87C9746.34 1146.82 9746.8 1146.69 9747.21 1146.46C9751.59 1144.1 9756.32 1141.37 9760.49 1138.64C9767.35 1144.25 9773.67 1150.51 9779.34 1157.32C9771.8 1162.55 9763.91 1167.25 9755.73 1171.39C9754.99 1171.76 9754.42 1172.39 9754.09 1173.15C9753.77 1173.91 9753.72 1174.76 9753.96 1175.55C9760.32 1197.07 9764.09 1219.27 9765.21 1241.69C9765.26 1242.58 9765.64 1243.43 9766.29 1244.05C9766.94 1244.68 9767.81 1245.03 9768.71 1245.03L9814.71 1244.98C9815.1 1244.97 9815.48 1245.11 9815.78 1245.36C9816.08 1245.62 9816.28 1245.97 9816.33 1246.36C9817.28 1254.08 9817.28 1261.89 9816.33 1269.61C9816.28 1270 9816.08 1270.36 9815.78 1270.62C9815.49 1270.87 9815.1 1271.01 9814.71 1271.01H9768.66C9767.76 1271.02 9766.89 1271.37 9766.24 1272.01C9765.59 1272.64 9765.21 1273.49 9765.17 1274.4C9763.91 1296.77 9760.13 1318.93 9753.9 1340.45C9753.67 1341.25 9753.71 1342.11 9754.04 1342.88C9754.36 1343.65 9754.94 1344.28 9755.68 1344.67C9759.74 1346.77 9764.27 1349.12 9768.17 1351.51C9772.07 1353.9 9775.93 1356.45 9779.65 1359.1C9774.02 1365.88 9767.76 1372.12 9760.96 1377.73C9758.98 1376.42 9756.62 1374.94 9754.59 1373.72C9753.19 1372.9 9750.62 1371.47 9749.19 1370.66C9746.09 1368.92 9742.79 1370.22 9741.23 1373.42C9739.68 1376.63 9737.31 1381.22 9735.65 1384.19C9732.6 1389.66 9729.25 1394.95 9725.62 1400.06C9705.61 1409.43 9684.51 1414 9661 1414C9637.49 1414 9616.5 1409.43 9596.49 1400.07Z" fill="white"/>
</g>
</g>
<g id="language">
<path id="outer_28_7" d="M10544 1002H10032V1514H10544V1002Z" fill="#191919"/>
<g id="language 1">
<path id="Vector_76" d="M10482.5 1413.4L10403.8 1222.65C10402.3 1219.13 10399.9 1216.12 10396.7 1214C10393.5 1211.88 10389.8 1210.75 10386 1210.75C10382.2 1210.75 10378.5 1211.88 10375.3 1214C10372.1 1216.12 10369.7 1219.13 10368.2 1222.65L10289.5 1413.4C10288.5 1415.74 10288 1418.25 10288 1420.78C10288 1423.32 10288.4 1425.83 10289.4 1428.18C10290.4 1430.52 10291.8 1432.65 10293.6 1434.44C10295.4 1436.24 10297.5 1437.66 10299.9 1438.63C10302.2 1439.59 10304.7 1440.09 10307.3 1440.08C10309.8 1440.08 10312.3 1439.57 10314.6 1438.59C10317 1437.61 10319.1 1436.18 10320.9 1434.38C10322.7 1432.58 10324.1 1430.44 10325 1428.09L10341.1 1389.25H10430.9L10447 1428.09C10448.4 1431.62 10450.9 1434.63 10454 1436.75C10457.2 1438.87 10460.9 1440 10464.8 1440C10467.9 1440 10471 1439.22 10473.8 1437.72C10476.6 1436.23 10479 1434.08 10480.7 1431.45C10482.5 1428.82 10483.6 1425.8 10483.9 1422.65C10484.2 1419.5 10483.7 1416.32 10482.5 1413.4H10482.5ZM10357 1350.75L10386 1280.44L10415 1350.75H10357Z" fill="white"/>
<path id="Vector_77" d="M10298.4 1334.06C10301.4 1329.92 10302.6 1324.78 10301.8 1319.74C10301 1314.7 10298.2 1310.19 10294.1 1307.19C10293.9 1307.06 10281 1297.45 10262.2 1276.8C10296.8 1229.83 10316.5 1176.4 10324.5 1151.25H10352.8C10357.9 1151.25 10362.8 1149.22 10366.4 1145.61C10370 1142 10372 1137.11 10372 1132C10372 1126.89 10370 1122 10366.4 1118.39C10362.8 1114.78 10357.9 1112.75 10352.8 1112.75H10251.2V1095.25C10251.2 1090.14 10249.2 1085.25 10245.6 1081.64C10242 1078.03 10237.1 1076 10232 1076C10226.9 1076 10222 1078.03 10218.4 1081.64C10214.8 1085.25 10212.8 1090.14 10212.8 1095.25V1112.75H10111.2C10106.1 1112.75 10101.2 1114.78 10097.6 1118.39C10094 1122 10092 1126.89 10092 1132C10092 1137.11 10094 1142 10097.6 1145.61C10101.2 1149.22 10106.1 1151.25 10111.2 1151.25H10283.8C10275.5 1174.83 10260.2 1212.06 10236.8 1246.07C10209.3 1209.6 10199.1 1186 10199 1185.8C10197 1181.15 10193.2 1177.48 10188.5 1175.59C10183.8 1173.7 10178.6 1173.74 10173.9 1175.69C10169.2 1177.65 10165.5 1181.37 10163.6 1186.05C10161.6 1190.73 10161.6 1195.98 10163.5 1200.68C10164 1201.89 10176.2 1230.63 10209.7 1274.12C10210.6 1275.16 10211.3 1276.17 10212.1 1277.19C10177.8 1315.99 10144.1 1340.07 10130 1347.84C10125.5 1350.28 10122.2 1354.41 10120.8 1359.3C10119.3 1364.2 10119.9 1369.47 10122.3 1373.95C10124.8 1378.44 10128.9 1381.76 10133.8 1383.21C10138.7 1384.65 10144 1384.08 10148.5 1381.64C10150.4 1380.6 10191 1358.11 10237.4 1306.75C10257.1 1327.82 10270.6 1337.76 10271.5 1338.33C10273.5 1339.82 10275.8 1340.89 10278.3 1341.48C10280.7 1342.07 10283.3 1342.17 10285.8 1341.77C10288.3 1341.37 10290.7 1340.48 10292.8 1339.16C10295 1337.83 10296.9 1336.1 10298.4 1334.05V1334.06Z" fill="white"/>
</g>
</g>
<g id="play">
<path id="outer_29" d="M512 4156H0V4668H512V4156Z" fill="#191919"/>
<g id="play 1">
<path id="Vector_62_2" d="M133 4596C126.86 4595.99 120.829 4594.38 115.5 4591.33C103.5 4584.53 96.04 4571.33 96.04 4557V4267C96.04 4252.63 103.5 4239.47 115.5 4232.67C120.956 4229.53 127.154 4227.92 133.447 4228C139.739 4228.08 145.895 4229.85 151.27 4233.12L399.12 4381.48C404.285 4384.72 408.544 4389.22 411.495 4394.55C414.447 4399.89 415.995 4405.88 415.995 4411.98C415.995 4418.08 414.447 4424.07 411.495 4429.41C408.544 4434.74 404.285 4439.24 399.12 4442.48L151.23 4590.88C145.729 4594.21 139.428 4595.98 133 4596Z" fill="white"/>
</g>
</g>
<g id="pause">
<path id="outer_30" d="M1139 4157H627V4669H1139V4157Z" fill="#191919"/>
<g id="pause 1">
<path id="Vector_63_2" d="M835 4589H787C782.757 4589 778.687 4587.31 775.686 4584.31C772.686 4581.31 771 4577.24 771 4573V4253C771 4248.76 772.686 4244.69 775.686 4241.69C778.687 4238.69 782.757 4237 787 4237H835C839.243 4237 843.313 4238.69 846.314 4241.69C849.314 4244.69 851 4248.76 851 4253V4573C851 4577.24 849.314 4581.31 846.314 4584.31C843.313 4587.31 839.243 4589 835 4589Z" fill="white"/>
<path id="Vector_64_2" d="M979 4589H931C926.757 4589 922.687 4587.31 919.686 4584.31C916.686 4581.31 915 4577.24 915 4573V4253C915 4248.76 916.686 4244.69 919.686 4241.69C922.687 4238.69 926.757 4237 931 4237H979C983.243 4237 987.313 4238.69 990.314 4241.69C993.314 4244.69 995 4248.76 995 4253V4573C995 4577.24 993.314 4581.31 990.314 4584.31C987.313 4587.31 983.243 4589 979 4589Z" fill="white"/>
</g>
</g>
<g id="next">
<path id="outer_31" d="M1766 4156H1254V4668H1766V4156Z" fill="#191919"/>
<g id="play-skip-forward 1">
<path id="Vector_65_2" d="M1654 4220C1649.76 4220 1645.69 4221.69 1642.69 4224.69C1639.69 4227.69 1638 4231.76 1638 4236V4372.43L1405.23 4233.11C1399.85 4229.84 1393.7 4228.07 1387.41 4228C1381.11 4227.92 1374.92 4229.53 1369.46 4232.67C1357.46 4239.47 1350 4252.63 1350 4267V4557C1350 4571.37 1357.46 4584.53 1369.46 4591.33C1374.92 4594.46 1381.11 4596.08 1387.41 4596C1393.7 4595.92 1399.85 4594.15 1405.23 4590.88L1638 4451.57V4588C1638 4592.24 1639.69 4596.31 1642.69 4599.31C1645.69 4602.31 1649.76 4604 1654 4604C1658.24 4604 1662.31 4602.31 1665.31 4599.31C1668.31 4596.31 1670 4592.24 1670 4588V4236C1670 4231.76 1668.31 4227.69 1665.31 4224.69C1662.31 4221.69 1658.24 4220 1654 4220Z" fill="white"/>
</g>
</g>
<g id="skip-back">
<path id="outer_31_2" d="M2393 4156H1881V4668H2393V4156Z" fill="#191919"/>
<g id="play-back 1">
<path id="Vector_78" d="M1911.71 4387.47L2100.58 4274.47C2105.25 4271.63 2110.6 4270.09 2116.07 4270.02C2121.54 4269.95 2126.93 4271.36 2131.67 4274.08C2136.82 4277.08 2141.08 4281.38 2144.02 4286.56C2146.96 4291.73 2148.49 4297.6 2148.43 4303.55V4382.6L2329.15 4274.44C2333.82 4271.6 2339.17 4270.06 2344.64 4269.99C2350.11 4269.92 2355.5 4271.33 2360.24 4274.05C2365.39 4277.05 2369.65 4281.35 2372.59 4286.53C2375.53 4291.7 2377.06 4297.57 2377 4303.52V4524.52C2377.06 4530.48 2375.54 4536.34 2372.59 4541.52C2369.65 4546.7 2365.39 4551 2360.24 4554C2355.5 4556.72 2350.11 4558.13 2344.64 4558.06C2339.17 4557.99 2333.82 4556.45 2329.15 4553.61L2148.43 4445.4V4524.48C2148.5 4530.44 2146.98 4536.32 2144.03 4541.5C2141.09 4546.69 2136.82 4551 2131.67 4554C2126.93 4556.72 2121.54 4558.13 2116.07 4558.06C2110.6 4557.99 2105.25 4556.45 2100.58 4553.61L1911.71 4440.61C1907.22 4437.8 1903.52 4433.89 1900.95 4429.25C1898.39 4424.62 1897.04 4419.41 1897.04 4414.11C1897.04 4408.81 1898.39 4403.6 1900.95 4398.97C1903.52 4394.33 1907.22 4390.42 1911.71 4387.61V4387.47Z" fill="white"/>
</g>
</g>
<g id="skip-forward">
<path id="outer_31_3" d="M3020 4156H2508V4668H3020V4156Z" fill="#191919"/>
<g id="play-forward 1">
<path id="Vector_79" d="M2989.29 4387.47L2800.42 4274.47C2795.75 4271.63 2790.4 4270.09 2784.93 4270.02C2779.46 4269.95 2774.07 4271.36 2769.33 4274.08C2764.18 4277.08 2759.92 4281.38 2756.98 4286.56C2754.04 4291.73 2752.51 4297.6 2752.57 4303.55V4382.6L2571.85 4274.44C2567.18 4271.6 2561.83 4270.06 2556.36 4269.99C2550.89 4269.92 2545.5 4271.33 2540.76 4274.05C2535.61 4277.05 2531.35 4281.35 2528.41 4286.53C2525.47 4291.7 2523.94 4297.57 2524 4303.52V4524.52C2523.94 4530.48 2525.46 4536.34 2528.41 4541.52C2531.35 4546.7 2535.61 4551 2540.76 4554C2545.5 4556.72 2550.89 4558.13 2556.36 4558.06C2561.83 4557.99 2567.18 4556.45 2571.85 4553.61L2752.57 4445.4V4524.48C2752.51 4530.44 2754.02 4536.32 2756.97 4541.5C2759.91 4546.69 2764.18 4551 2769.33 4554C2774.07 4556.72 2779.46 4558.13 2784.93 4558.06C2790.4 4557.99 2795.75 4556.45 2800.42 4553.61L2989.29 4440.61C2993.78 4437.8 2997.48 4433.89 3000.05 4429.25C3002.61 4424.62 3003.96 4419.41 3003.96 4414.11C3003.96 4408.81 3002.61 4403.6 3000.05 4398.97C2997.48 4394.33 2993.78 4390.42 2989.29 4387.61V4387.47Z" fill="white"/>
</g>
</g>
<g id="volume-off">
<path id="outer_32" d="M3647 4158H3135V4670H3647V4158Z" fill="#191919"/>
<g id="volume-off 1">
<path id="Vector_66_2" d="M3479 4574C3473.88 4574 3468.9 4572.35 3464.79 4569.31C3464.56 4569.15 3464.35 4568.98 3464.13 4568.8L3372.67 4493.9H3303C3296.63 4493.9 3290.53 4491.37 3286.03 4486.87C3281.53 4482.37 3279 4476.27 3279 4469.9V4358.07C3279 4351.7 3281.53 4345.6 3286.03 4341.1C3290.53 4336.6 3296.63 4334.07 3303 4334.07H3372.65L3464.11 4259.17C3464.33 4258.99 3464.54 4258.82 3464.77 4258.66C3468.35 4256.03 3472.58 4254.44 3477.01 4254.07C3481.43 4253.7 3485.87 4254.57 3489.83 4256.57C3493.8 4258.58 3497.12 4261.64 3499.45 4265.42C3501.77 4269.21 3503 4273.56 3503 4278V4550C3503 4556.37 3500.47 4562.47 3495.97 4566.97C3491.47 4571.47 3485.37 4574 3479 4574Z" fill="white"/>
</g>
</g>
<g id="volume-low">
<path id="outer_33" d="M4274 4157H3762V4669H4274V4157Z" fill="#191919"/>
<g id="volume-low 1">
<path id="Vector_67_2" d="M4058 4573.19C4052.88 4573.19 4047.9 4571.54 4043.79 4568.5L4043.13 4567.99L3951.67 4492.99H3882C3875.63 4492.99 3869.53 4490.46 3865.03 4485.96C3860.53 4481.46 3858 4475.36 3858 4468.99V4357C3858 4350.63 3860.53 4344.53 3865.03 4340.03C3869.53 4335.53 3875.63 4333 3882 4333H3951.65L4043.11 4258L4043.77 4257.49C4047.35 4254.86 4051.58 4253.27 4056.01 4252.9C4060.43 4252.53 4064.87 4253.4 4068.83 4255.4C4072.8 4257.41 4076.12 4260.47 4078.45 4264.25C4080.77 4268.04 4082 4272.39 4082 4276.83V4549.17C4082 4555.54 4079.47 4561.64 4074.97 4566.14C4070.47 4570.64 4064.37 4573.17 4058 4573.17V4573.19Z" fill="white"/>
<path id="Vector_68_2" d="M4146 4493C4143.27 4493 4140.59 4492.3 4138.21 4490.97C4135.82 4489.64 4133.82 4487.72 4132.39 4485.4C4130.96 4483.07 4130.14 4480.42 4130.02 4477.7C4129.9 4474.97 4130.49 4472.26 4131.71 4469.82C4141.2 4450.92 4146.01 4431.82 4146.01 4413C4146.01 4393.64 4141.35 4375.08 4131.76 4356.27C4129.92 4352.5 4129.64 4348.16 4130.97 4344.18C4132.3 4340.21 4135.14 4336.91 4138.87 4335.01C4142.61 4333.1 4146.94 4332.74 4150.94 4334C4154.94 4335.25 4158.29 4338.03 4160.26 4341.73C4172.2 4365.16 4178 4388.47 4178 4413C4178 4436.83 4172 4460.78 4160.3 4484.18C4158.97 4486.83 4156.93 4489.06 4154.4 4490.62C4151.88 4492.18 4148.97 4493 4146 4493Z" fill="white"/>
</g>
</g>
<g id="volume-medium">
<path id="outer_34" d="M4901 4157H4389V4669H4901V4157Z" fill="#191919"/>
<g id="volume-medium 1">
<path id="Vector_69_2" d="M4653 4573.19C4647.88 4573.19 4642.9 4571.54 4638.79 4568.5L4638.13 4567.99L4546.67 4492.99H4477C4470.63 4492.99 4464.53 4490.46 4460.03 4485.96C4455.53 4481.46 4453 4475.36 4453 4468.99V4357C4453 4350.63 4455.53 4344.53 4460.03 4340.03C4464.53 4335.53 4470.63 4333 4477 4333H4546.65L4638.11 4258L4638.77 4257.49C4642.35 4254.86 4646.58 4253.27 4651.01 4252.9C4655.43 4252.53 4659.87 4253.4 4663.83 4255.4C4667.8 4257.41 4671.12 4260.47 4673.45 4264.25C4675.77 4268.04 4677 4272.39 4677 4276.83V4549.17C4677 4555.54 4674.47 4561.64 4669.97 4566.14C4665.47 4570.64 4659.37 4573.17 4653 4573.17V4573.19Z" fill="white"/>
<path id="Vector_70_2" d="M4741 4493C4738.27 4493 4735.59 4492.3 4733.21 4490.97C4730.82 4489.64 4728.82 4487.72 4727.39 4485.4C4725.96 4483.07 4725.14 4480.42 4725.02 4477.7C4724.9 4474.97 4725.49 4472.26 4726.71 4469.82C4736.2 4450.92 4741.01 4431.82 4741.01 4413C4741.01 4393.64 4736.35 4375.08 4726.76 4356.27C4724.92 4352.5 4724.64 4348.16 4725.97 4344.18C4727.3 4340.21 4730.14 4336.91 4733.87 4335.01C4737.61 4333.1 4741.94 4332.74 4745.94 4334C4749.94 4335.25 4753.29 4338.03 4755.26 4341.73C4767.2 4365.16 4773 4388.47 4773 4413C4773 4436.83 4767 4460.78 4755.3 4484.18C4753.97 4486.83 4751.93 4489.06 4749.4 4490.62C4746.88 4492.18 4743.97 4493 4741 4493Z" fill="white"/>
<path id="Vector_71_2" d="M4789 4541C4786.19 4541 4783.43 4540.26 4781 4538.86C4778.56 4537.46 4776.54 4535.44 4775.13 4533.01C4773.73 4530.57 4772.99 4527.81 4772.99 4525C4772.99 4522.19 4773.73 4519.43 4775.13 4517C4794 4484.05 4805 4456.45 4805 4413C4805 4368.88 4794.06 4341.48 4775.17 4309.05C4773.22 4305.39 4772.77 4301.12 4773.9 4297.14C4775.04 4293.15 4777.67 4289.76 4781.26 4287.68C4784.84 4285.6 4789.09 4285 4793.12 4285.99C4797.14 4286.98 4800.62 4289.49 4802.83 4293C4823.92 4329.16 4837 4361.88 4837 4413C4837 4463.36 4823.94 4496.24 4802.88 4533C4801.47 4535.44 4799.45 4537.46 4797.01 4538.86C4794.58 4540.27 4791.81 4541 4789 4541Z" fill="white"/>
</g>
</g>
<g id="volume-high">
<path id="outer_35" d="M5528 4156H5016V4668H5528V4156Z" fill="#191919"/>
<g id="volume-high_2">
<path id="Vector_72_2" d="M5248 4572C5242.89 4572 5237.91 4570.36 5233.8 4567.32C5233.57 4567.16 5233.35 4566.99 5233.14 4566.81L5141.76 4492H5072C5065.63 4492 5059.53 4489.47 5055.03 4484.97C5050.53 4480.47 5048 4474.37 5048 4468V4356C5048 4349.63 5050.53 4343.53 5055.03 4339.03C5059.53 4334.53 5065.63 4332 5072 4332H5141.75L5233.12 4257.19C5233.33 4257.01 5233.55 4256.84 5233.78 4256.68C5237.35 4254.05 5241.59 4252.46 5246.01 4252.1C5250.43 4251.73 5254.87 4252.59 5258.83 4254.59C5262.79 4256.6 5266.11 4259.66 5268.44 4263.44C5270.77 4267.21 5272 4271.56 5272 4276V4548C5272 4554.37 5269.47 4560.47 5264.97 4564.97C5260.47 4569.47 5254.37 4572 5248 4572Z" fill="white"/>
<path id="Vector_73_2" d="M5336 4492C5333.27 4492 5330.58 4491.3 5328.2 4489.97C5325.82 4488.64 5323.81 4486.72 5322.38 4484.39C5320.95 4482.07 5320.14 4479.42 5320.02 4476.69C5319.9 4473.96 5320.48 4471.25 5321.71 4468.81C5331.2 4449.94 5336.01 4430.81 5336.01 4412C5336.01 4392.62 5331.35 4374.06 5321.76 4355.27C5319.92 4351.5 5319.64 4347.16 5320.97 4343.18C5322.3 4339.21 5325.14 4335.91 5328.87 4334.01C5332.61 4332.1 5336.94 4331.74 5340.94 4333C5344.94 4334.25 5348.29 4337.03 5350.26 4340.73C5362.19 4364.12 5368 4387.44 5368 4412C5368 4435.86 5362 4459.81 5350.3 4483.19C5348.97 4485.84 5346.92 4488.07 5344.4 4489.62C5341.87 4491.18 5338.97 4492 5336 4492Z" fill="white"/>
<path id="Vector_74_2" d="M5384 4540C5381.19 4540 5378.43 4539.26 5376 4537.86C5373.57 4536.45 5371.55 4534.43 5370.14 4532C5368.74 4529.57 5368 4526.81 5368 4524C5368 4521.19 5368.74 4518.43 5370.14 4516C5389.05 4483.09 5400 4455.51 5400 4412C5400 4367.83 5389.07 4340.44 5370.18 4308.06C5368.11 4304.4 5367.56 4300.07 5368.66 4296.01C5369.76 4291.95 5372.41 4288.48 5376.04 4286.36C5379.68 4284.24 5384 4283.64 5388.08 4284.68C5392.15 4285.73 5395.65 4288.33 5397.82 4291.94C5418.92 4328.11 5432 4360.81 5432 4412C5432 4462.43 5418.94 4495.29 5397.87 4532C5396.46 4534.43 5394.44 4536.46 5392.01 4537.86C5389.57 4539.26 5386.81 4540 5384 4540Z" fill="white"/>
<path id="Vector_75_2" d="M5432 4588C5429.12 4588 5426.29 4587.22 5423.82 4585.74C5421.34 4584.27 5419.31 4582.15 5417.94 4579.62C5416.57 4577.08 5415.91 4574.22 5416.03 4571.35C5416.14 4568.47 5417.04 4565.67 5418.61 4563.26C5445.85 4521.47 5464 4479.76 5464 4412C5464 4345.5 5445.82 4303.38 5418.51 4260.61C5417.38 4258.84 5416.61 4256.86 5416.24 4254.79C5415.88 4252.72 5415.92 4250.6 5416.38 4248.54C5416.83 4246.49 5417.68 4244.55 5418.89 4242.82C5420.09 4241.1 5421.63 4239.63 5423.4 4238.5C5425.17 4237.37 5427.15 4236.6 5429.22 4236.23C5431.29 4235.87 5433.41 4235.91 5435.47 4236.37C5437.52 4236.82 5439.46 4237.67 5441.19 4238.88C5442.91 4240.08 5444.38 4241.62 5445.51 4243.39C5475.81 4290.89 5496 4337.74 5496 4412C5496 4476.75 5481.34 4525.63 5445.4 4580.74C5443.95 4582.97 5441.96 4584.8 5439.62 4586.07C5437.28 4587.34 5434.66 4588 5432 4588Z" fill="white"/>
</g>
</g>
<g id="volume-mute">
<path id="outer_36" d="M6155 4156H5643V4668H6155V4156Z" fill="#191919"/>
<g id="volume-mute 1">
<path id="Vector_76_2" d="M6059 4588L5707 4236" stroke="white" stroke-width="32" stroke-miterlimit="10" stroke-linecap="round"/>
<path id="Vector_77_2" d="M5886.33 4254.86C5882.34 4252.71 5877.81 4251.73 5873.29 4252.06C5868.77 4252.38 5864.43 4253.98 5860.78 4256.68L5860.12 4257.19L5831.6 4280.54C5830.73 4281.25 5830.03 4282.13 5829.52 4283.13C5829.02 4284.13 5828.73 4285.22 5828.68 4286.33C5828.62 4287.45 5828.8 4288.57 5829.2 4289.61C5829.6 4290.65 5830.22 4291.6 5831.01 4292.39L5885.34 4346.72C5886.46 4347.84 5887.88 4348.6 5889.44 4348.91C5890.99 4349.22 5892.6 4349.06 5894.06 4348.46C5895.52 4347.85 5896.77 4346.82 5897.65 4345.51C5898.53 4344.19 5899 4342.64 5899 4341.06V4276.57C5899.04 4272.14 5897.89 4267.79 5895.66 4263.97C5893.43 4260.14 5890.21 4257 5886.33 4254.86Z" fill="white"/>
<path id="Vector_78_2" d="M5894.33 4491.29L5739.69 4336.69C5736.69 4333.69 5732.62 4332 5728.38 4332H5699C5692.63 4332 5686.53 4334.53 5682.03 4339.03C5677.53 4343.53 5675 4349.63 5675 4356V4468C5675 4474.37 5677.53 4480.47 5682.03 4484.97C5686.53 4489.47 5692.63 4492 5699 4492H5768.76L5860.76 4567.31C5864.45 4570.05 5868.86 4571.67 5873.45 4571.97C5878.03 4572.27 5882.61 4571.24 5886.63 4569C5890.43 4566.84 5893.57 4563.7 5895.75 4559.91C5897.92 4556.12 5899.05 4551.82 5899 4547.45V4502.59C5899 4498.35 5897.32 4494.29 5894.33 4491.29Z" fill="white"/>
<path id="Vector_79_2" d="M5995 4412C5995 4387.44 5989.19 4364.13 5977.25 4340.73C5976.3 4338.84 5974.99 4337.16 5973.39 4335.79C5971.8 4334.41 5969.94 4333.36 5967.93 4332.7C5965.93 4332.05 5963.81 4331.79 5961.71 4331.96C5959.61 4332.12 5957.55 4332.7 5955.68 4333.66C5953.8 4334.62 5952.12 4335.94 5950.76 4337.55C5949.39 4339.16 5948.36 4341.02 5947.71 4343.03C5947.07 4345.04 5946.83 4347.15 5947.01 4349.26C5947.19 4351.36 5947.78 4353.41 5948.75 4355.28C5958.34 4374.06 5963 4392.62 5963 4412C5963 4414.67 5962.9 4417.38 5962.69 4420.13C5962.6 4421.28 5962.77 4422.43 5963.17 4423.51C5963.57 4424.59 5964.2 4425.57 5965.01 4426.38L5979.37 4440.74C5980.41 4441.78 5981.71 4442.51 5983.14 4442.86C5984.56 4443.21 5986.06 4443.16 5987.46 4442.71C5988.86 4442.27 5990.11 4441.45 5991.07 4440.34C5992.03 4439.23 5992.67 4437.88 5992.92 4436.43C5994.3 4428.36 5994.99 4420.19 5995 4412Z" fill="white"/>
<path id="Vector_80" d="M6059 4412C6059 4360.82 6045.92 4328.11 6024.82 4291.94C6022.65 4288.33 6019.15 4285.73 6015.08 4284.68C6011 4283.64 6006.68 4284.24 6003.05 4286.36C5999.41 4288.48 5996.76 4291.95 5995.66 4296.01C5994.56 4300.07 5995.11 4304.4 5997.18 4308.06C6016.07 4340.44 6027 4367.83 6027 4412C6027 4435.83 6023.71 4454.88 6017.63 4472.65C6017.14 4474.07 6017.06 4475.59 6017.4 4477.05C6017.73 4478.51 6018.47 4479.85 6019.53 4480.91L6032 4493.4C6032.94 4494.34 6034.11 4495.04 6035.39 4495.42C6036.66 4495.8 6038.02 4495.85 6039.32 4495.57C6040.63 4495.29 6041.84 4494.7 6042.86 4493.83C6043.87 4492.96 6044.65 4491.86 6045.13 4490.61C6054 4467.76 6059 4443.26 6059 4412Z" fill="white"/>
<path id="Vector_81" d="M6123 4412C6123 4337.75 6102.81 4290.89 6072.49 4243.39C6070.21 4239.81 6066.59 4237.28 6062.45 4236.37C6058.3 4235.45 6053.96 4236.22 6050.38 4238.5C6046.8 4240.78 6044.27 4244.4 6043.36 4248.54C6042.44 4252.69 6043.21 4257.03 6045.49 4260.61C6072.82 4303.38 6091 4345.5 6091 4412C6091 4458.19 6082.57 4492.27 6068.57 4522.53C6067.88 4524.01 6067.67 4525.67 6067.95 4527.28C6068.24 4528.89 6069.01 4530.37 6070.16 4531.53L6082.08 4543.45C6082.98 4544.37 6084.09 4545.05 6085.31 4545.45C6086.53 4545.85 6087.83 4545.94 6089.1 4545.73C6090.37 4545.52 6091.57 4545 6092.59 4544.23C6093.62 4543.46 6094.45 4542.45 6095 4541.29C6114.6 4500.9 6123 4461 6123 4412Z" fill="white"/>
</g>
</g>
<g id="subtitles">
<path id="outer_37" d="M6782 4156H6270V4668H6782V4156Z" fill="#191919"/>
<g id="chatbox 1">
<path id="Vector_82" d="M6414 4620C6409.76 4620 6405.69 4618.31 6402.69 4615.31C6399.69 4612.31 6398 4608.24 6398 4604V4540H6374C6354.91 4539.98 6336.61 4532.39 6323.11 4518.89C6309.61 4505.39 6302.02 4487.09 6302 4468V4276C6302.02 4256.91 6309.61 4238.61 6323.11 4225.11C6336.61 4211.61 6354.91 4204.02 6374 4204H6678C6697.09 4204.02 6715.39 4211.61 6728.89 4225.11C6742.39 4238.61 6749.98 4256.91 6750 4276V4468C6749.98 4487.09 6742.39 4505.39 6728.89 4518.89C6715.39 4532.39 6697.09 4539.98 6678 4540H6515.74L6424.25 4616.29C6421.37 4618.68 6417.74 4620 6414 4620Z" fill="white"/>
</g>
</g>
<g id="audio-tracks">
<path id="outer_38" d="M7409 4156H6897V4668H7409V4156Z" fill="#191919"/>
<g id="ear 1">
<path id="Vector_83" d="M7153 4172C7056 4172 6977 4251 6977 4348V4554.57C6976.98 4580.19 6987.04 4604.79 7005 4623.06C7013.81 4632.2 7024.37 4639.48 7036.05 4644.45C7047.74 4649.42 7060.3 4651.99 7073 4652C7109.86 4652 7140.18 4636.38 7163.12 4605.58C7167.6 4599.58 7172.67 4590.84 7178.54 4580.73C7193.86 4554.36 7214.83 4518.26 7241.71 4499.99C7267.48 4482.48 7288.94 4460.45 7303.71 4436.27C7320.51 4408.94 7329 4379.24 7329 4348C7329 4251 7250.05 4172 7153 4172ZM7249 4356C7244.76 4356 7240.69 4354.31 7237.69 4351.31C7234.69 4348.31 7233 4344.24 7233 4340C7233 4300.3 7197.11 4268 7153 4268C7108.89 4268 7073 4300.3 7073 4340V4370.42C7100.19 4362.58 7131.4 4363.7 7137.28 4364C7146.06 4364.08 7154.65 4366.57 7162.11 4371.2C7169.58 4375.83 7175.63 4382.41 7179.61 4390.24C7183.59 4398.07 7185.35 4406.83 7184.69 4415.59C7184.03 4424.35 7180.98 4432.76 7175.88 4439.9C7175.58 4440.31 7175.27 4440.71 7174.93 4441.1C7158.38 4460.1 7138.93 4486.58 7136.47 4496.1C7135.32 4500.12 7132.64 4503.54 7129 4505.61C7125.37 4507.68 7121.06 4508.24 7117.02 4507.18C7112.97 4506.11 7109.5 4503.5 7107.35 4499.91C7105.21 4496.32 7104.55 4492.03 7105.53 4487.96C7111.04 4467.02 7142.46 4429.76 7150.19 4420.81C7151.78 4418.4 7152.69 4415.6 7152.82 4412.71C7152.95 4409.82 7152.29 4406.95 7150.92 4404.41C7149.55 4401.87 7147.51 4399.74 7145.03 4398.26C7142.55 4396.78 7139.71 4396 7136.82 4396H7135.94C7119.34 4395.11 7090.05 4396.8 7073 4404.31V4460C7073 4464.24 7071.31 4468.31 7068.31 4471.31C7065.31 4474.31 7061.24 4476 7057 4476C7052.76 4476 7048.69 4474.31 7045.69 4471.31C7042.69 4468.31 7041 4464.24 7041 4460V4340C7041 4282.65 7091.24 4236 7153 4236C7214.76 4236 7265 4282.65 7265 4340C7265 4344.24 7263.31 4348.31 7260.31 4351.31C7257.31 4354.31 7253.24 4356 7249 4356Z" fill="white"/>
</g>
</g>
<g id="speed">
<path id="outer_39" d="M8036 4156H7524V4668H8036V4156Z" fill="#191919"/>
<g id="speedometer 1">
<path id="Vector_84" d="M7949.7 4274.25C7905.54 4230.35 7846.05 4205.34 7783.79 4204.49C7721.54 4203.63 7661.38 4227.01 7616.04 4269.68C7570.69 4312.34 7543.7 4370.96 7540.77 4433.16C7537.84 4495.35 7559.19 4556.25 7600.32 4603L7600.5 4603.2C7600.83 4603.55 7601.14 4603.91 7601.5 4604.25C7602.24 4605.09 7603.08 4606.04 7604.07 4607.03C7607.95 4611.16 7612.65 4614.44 7617.85 4616.67C7623.06 4618.9 7628.68 4620.03 7634.34 4619.99C7640.01 4619.95 7645.6 4618.74 7650.78 4616.44C7655.96 4614.14 7660.61 4610.79 7664.43 4606.61C7679.15 4590.62 7697.02 4577.85 7716.92 4569.12C7736.83 4560.38 7758.33 4555.87 7780.06 4555.87C7801.79 4555.87 7823.29 4560.38 7843.2 4569.12C7863.1 4577.85 7880.97 4590.62 7895.69 4606.61C7899.54 4610.81 7904.23 4614.17 7909.44 4616.47C7914.66 4618.76 7920.3 4619.95 7926 4619.96C7931.7 4619.97 7937.34 4618.79 7942.57 4616.5C7947.79 4614.21 7952.48 4610.86 7956.34 4606.67L7959.55 4603.17L7959.73 4602.97C8000.26 4557.21 8021.79 4497.7 8019.93 4436.61C8018.07 4375.51 7992.96 4317.42 7949.73 4274.21L7949.7 4274.25ZM7764 4284C7764 4279.76 7765.69 4275.69 7768.69 4272.69C7771.69 4269.69 7775.76 4268 7780 4268C7784.24 4268 7788.31 4269.69 7791.31 4272.69C7794.31 4275.69 7796 4279.76 7796 4284V4316C7796 4320.24 7794.31 4324.31 7791.31 4327.31C7788.31 4330.31 7784.24 4332 7780 4332C7775.76 4332 7771.69 4330.31 7768.69 4327.31C7765.69 4324.31 7764 4320.24 7764 4316V4284ZM7652 4460H7620C7615.76 4460 7611.69 4458.31 7608.69 4455.31C7605.69 4452.31 7604 4448.24 7604 4444C7604 4439.76 7605.69 4435.69 7608.69 4432.69C7611.69 4429.69 7615.76 4428 7620 4428H7652C7656.24 4428 7660.31 4429.69 7663.31 4432.69C7666.31 4435.69 7668 4439.76 7668 4444C7668 4448.24 7666.31 4452.31 7663.31 4455.31C7660.31 4458.31 7656.24 4460 7652 4460ZM7700.8 4364.8C7697.8 4367.8 7693.73 4369.48 7689.49 4369.48C7685.25 4369.48 7681.18 4367.8 7678.18 4364.8L7655.55 4342.18C7652.55 4339.18 7650.86 4335.11 7650.86 4330.87C7650.86 4326.62 7652.55 4322.55 7655.55 4319.55C7658.55 4316.55 7662.62 4314.86 7666.87 4314.86C7671.11 4314.86 7675.18 4316.55 7678.18 4319.55L7700.8 4342.18C7703.8 4345.18 7705.48 4349.25 7705.48 4353.49C7705.48 4357.73 7703.8 4361.8 7700.8 4364.8ZM7850.1 4387.9L7802.6 4463.4C7800.66 4466.09 7798.29 4468.46 7795.6 4470.4C7789.1 4474.94 7781.07 4476.72 7773.26 4475.38C7765.45 4474.03 7758.48 4469.66 7753.87 4463.21C7749.26 4456.76 7747.39 4448.75 7748.65 4440.92C7749.91 4433.09 7754.2 4426.08 7760.6 4421.4L7836.1 4373.9C7837.82 4372.7 7839.86 4372.06 7841.95 4372.06C7844.04 4372.06 7846.08 4372.7 7847.8 4373.9C7849.96 4375.46 7851.41 4377.8 7851.84 4380.43C7852.27 4383.05 7851.64 4385.74 7850.1 4387.9ZM7881.82 4364.8C7878.8 4367.67 7874.77 4369.25 7870.6 4369.2C7866.42 4369.15 7862.44 4367.46 7859.49 4364.51C7856.54 4361.56 7854.85 4357.58 7854.8 4353.41C7854.75 4349.23 7856.33 4345.2 7859.2 4342.18L7881.82 4319.55C7884.82 4316.55 7888.89 4314.86 7893.14 4314.86C7897.38 4314.86 7901.45 4316.55 7904.45 4319.55C7907.45 4322.55 7909.14 4326.62 7909.14 4330.87C7909.14 4335.11 7907.45 4339.18 7904.45 4342.18L7881.82 4364.8ZM7940 4460H7908C7903.76 4460 7899.69 4458.31 7896.69 4455.31C7893.69 4452.31 7892 4448.24 7892 4444C7892 4439.76 7893.69 4435.69 7896.69 4432.69C7899.69 4429.69 7903.76 4428 7908 4428H7940C7944.24 4428 7948.31 4429.69 7951.31 4432.69C7954.31 4435.69 7956 4439.76 7956 4444C7956 4448.24 7954.31 4452.31 7951.31 4455.31C7948.31 4458.31 7944.24 4460 7940 4460Z" fill="white"/>
</g>
</g>
<g id="cast">
<path id="outer_28_8" d="M4901 2538H4389V3050H4901V2538Z" fill="#191919"/>
<g id="Vector_85">
<path d="M4480.55 2642C4454.27 2642 4437 2665.96 4437 2690.14V2741.67C4442.27 2741.23 4447.61 2741 4453 2741C4458.39 2741 4463.73 2741.23 4469 2741.67V2690.14C4469 2678.82 4476.4 2674 4480.55 2674H4809.45C4813.6 2674 4821 2678.82 4821 2690.14V2897.86C4821 2909.18 4813.6 2914 4809.45 2914H4641.33C4641.77 2919.27 4642 2924.61 4642 2930C4642 2935.39 4641.77 2940.73 4641.33 2946H4809.45C4835.73 2946 4853 2922.04 4853 2897.86V2690.14C4853 2665.96 4835.73 2642 4809.45 2642H4480.55Z" fill="white"/>
<path d="M4603.16 2946C4603.72 2940.74 4604 2935.4 4604 2930C4604 2846.61 4536.4 2779 4453 2779C4447.6 2779 4442.26 2779.28 4437 2779.84V2812.07C4442.23 2811.36 4447.57 2811 4453 2811C4518.72 2811 4572 2864.28 4572 2930C4572 2935.43 4571.64 2940.77 4570.93 2946H4603.16Z" fill="white"/>
<path d="M4547.67 2946C4548.55 2940.8 4549 2935.45 4549 2930C4549 2876.98 4506.02 2834 4453 2834C4447.55 2834 4442.2 2834.45 4437 2835.33V2868.02C4442.11 2866.7 4447.48 2866 4453 2866C4488.35 2866 4517 2894.65 4517 2930C4517 2935.52 4516.3 2940.89 4514.98 2946H4547.67Z" fill="white"/>
<path d="M4490.76 2946C4492.85 2941.08 4494 2935.68 4494 2930C4494 2907.36 4475.64 2889 4453 2889C4447.32 2889 4441.92 2890.15 4437 2892.24V2900C4437 2925.41 4457.59 2946 4483 2946H4490.76Z" fill="white"/>
</g>
</g>
<g id="cast-connected">
<path id="outer_28_9" d="M5528 2538H5016V3050H5528V2538Z" fill="#191919"/>
<g id="Vector_86">
<path d="M5107.55 2642C5081.27 2642 5064 2665.96 5064 2690.14V2741.67C5069.27 2741.23 5074.61 2741 5080 2741C5085.39 2741 5090.73 2741.23 5096 2741.67V2690.14C5096 2678.82 5103.4 2674 5107.55 2674H5436.45C5440.6 2674 5448 2678.82 5448 2690.14V2897.86C5448 2909.18 5440.6 2914 5436.45 2914H5268.33C5268.77 2919.27 5269 2924.61 5269 2930C5269 2935.39 5268.77 2940.73 5268.33 2946H5436.45C5462.73 2946 5480 2922.04 5480 2897.86V2690.14C5480 2665.96 5462.73 2642 5436.45 2642H5107.55Z" fill="white"/>
<path d="M5230.16 2946C5230.72 2940.74 5231 2935.4 5231 2930C5231 2846.61 5163.4 2779 5080 2779C5074.6 2779 5069.26 2779.28 5064 2779.84V2812.07C5069.23 2811.36 5074.57 2811 5080 2811C5145.72 2811 5199 2864.28 5199 2930C5199 2935.43 5198.64 2940.77 5197.93 2946H5230.16Z" fill="white"/>
<path d="M5174.67 2946C5175.55 2940.8 5176 2935.45 5176 2930C5176 2876.98 5133.02 2834 5080 2834C5074.55 2834 5069.2 2834.45 5064 2835.33V2868.02C5069.11 2866.7 5074.48 2866 5080 2866C5115.35 2866 5144 2894.65 5144 2930C5144 2935.52 5143.3 2940.89 5141.98 2946H5174.67Z" fill="white"/>
<path d="M5117.76 2946C5119.85 2941.08 5121 2935.68 5121 2930C5121 2907.36 5102.64 2889 5080 2889C5074.32 2889 5068.92 2890.15 5064 2892.24V2900C5064 2925.41 5084.59 2946 5110 2946H5117.76Z" fill="white"/>
<path d="M5149 2707C5141.82 2707 5136 2712.82 5136 2720V2750.18C5200.59 2764.95 5251.29 2816.14 5265.34 2881H5394C5401.18 2881 5407 2875.18 5407 2868V2720C5407 2712.82 5401.18 2707 5394 2707H5149Z" fill="white"/>
</g>
</g>
</g>
<defs>
<clipPath id="clip0_5_3500">
<rect width="446" height="446" fill="white" transform="translate(1914 32)"/>
</clipPath>
</defs>
</svg>
