<svg xmlns="http://www.w3.org/2000/svg" viewBox="0 0 512 512"><path d="M251.3 83.91c-42.8 0-84 15.9-115.7 44.62s-51.5 68.21-55.7 110.75c-4.2 42.56 7.6 85.16 33.1 119.49 25.4 34.36 62.8 57.99 104.7 66.33 42 8.34 85.4.77 122.2-21.21 36.7-22 63.8-56.84 76.3-97.76 12.4-40.93 9-85-9.2-123.64-18.3-38.65-50.3-69.13-89.8-85.49-20.9-8.64-43.4-13.09-65.9-13.09Z" style="stroke:currentcolor;stroke-miterlimit:10;stroke-width:32;fill:none" /><path d="M225.2 229.81h29.9v102.06" style="stroke:currentcolor;stroke-linecap:round;stroke-linejoin:round;stroke-width:32;fill:none" /><path d="M218 335.72h77.1" style="stroke:currentcolor;stroke-linecap:round;stroke-miterlimit:10;stroke-width:32;fill:none" /><path d="M251.3 145.59c-4.8 0-9.6 1.42-13.5 4.1-3 1.99-5.5 4.61-7.4 7.7-1.8 3.09-3 6.54-3.4 10.12-.3 3.58.1 7.2 1.4 10.58 1.2 3.41 3.1 6.48 5.7 9 3.4 3.41 7.6 5.75 12.4 6.68 4.8.94 9.7.45 14.1-1.4 4.4-1.87 8.2-4.97 10.8-8.95 2.7-3.99 4.2-8.7 4.2-13.51 0-3.18-.7-6.35-1.9-9.31-1.3-2.92-3-5.59-5.2-7.88-4.6-4.57-10.8-7.13-17.2-7.13" style="fill:currentcolor" /></svg>