<svg xmlns="http://www.w3.org/2000/svg" viewBox="0 0 512 512"><path d="M124.16 327.69c6.87 5.16 11.74 11.66 15.83 21.09 18.83 43.43 50.66 70.55 94.62 80.59 7.64 1.77 15.47 2.68 23.32 2.69 24.09 0 47.92-8.91 70.88-26.5 21.43-16.46 36.82-37.04 45.74-61.23 2.7-7.33 7.55-11.59 12.7-15.66 18.38-14.55 27.28-32.6 27.18-55.21-.04-9.34-3.02-16.55-9.1-22.07-7.73-7.01-7.57-15.18-6.78-20.72l1.25-8.52c1.73-11.54 3.36-22.46 3.89-33.66 1.64-34.48-11.66-64.68-40.66-92.32-20.77-19.79-44.88-32.92-73.72-40.17-12.67-1.8-25.45-2.78-38.26-2.9-11.08 0-20.05.94-26.68 2.76-43.2 11.93-74.96 33.83-97.16 67-12.92 19.31-18.37 42.7-16.62 71.49.49 8.19 1.42 16.62 2.34 24.75.42 3.83.84 7.66 1.22 11.51.42 4.05 1.27 12.51-5.82 19.56-11.86 11.81-13.77 25.81-6.45 46.87a64 64 0 0 0 22.28 30.65m-6.31-56.48c1.72-9.22 6.88-15.63 14.54-18.03 2.3-.71 3.07-.96 2.75-5.89-.99-14.87 2.68-29 6.8-42.05a57.05 57.05 0 0 1 18.62-27.69c1.98-1.62 5.08-3.76 9.05-3.76 2.43 0 8.4.94 11.05 9.58 5.61 18.23 18.47 29.23 44.43 37.93 8.46 2.9 17.33 4.42 26.28 4.46 1.62 0 3.23-.04 4.85-.15 2.57-.12 5.12-.47 7.62-1.08-4.6-6.62-9.53-19.96-9.2-25.51l1.35-21.68 13.24 17.22c12.2 15.84 29.58 19.97 46.55 22.07 3.67.45 7.36.67 11.04.67 10.49 0 20.91-1.6 33.33-3.99 2.12-.47 4.26-.73 6.42-.8 11.65 0 11.79 11.65 11.83 15.49.08 8.44-.14 15.99-.71 23.06-.04.36-.05.73-.02 1.09.33.21.66.4 1.03.55 13.8 6.31 18.79 15.72 16.2 30.5-2.53 14.44-8.53 34.72-31.26 44.02-.62 1.07-1.1 2.21-1.42 3.42l-.65 1.93c-7.41 20.71-17.77 37.17-31.74 50.33-20.85 19.64-44.27 30.3-69.64 31.69-1.7.09-3.4.14-5.07.14-20.17 0-39.96-6.76-58.83-20.13a119.2 119.2 0 0 1-45.83-62.51c-1.25-3.99-2.45-5.46-5.59-6.9-17.53-8.02-30.67-34.24-27.02-53.98" style="fill:currentcolor" /></svg>