<svg xmlns="http://www.w3.org/2000/svg" viewBox="0 0 512 512"><path d="M140.594 72.5h213.003c9.1-.29 16.199-7.3 16-15.8-.3-8.1-7.3-14.6-16-14.89H140.594c-9.1.29-16.201 7.3-16.001 15.8.3 8.1 7.3 14.6 16.001 14.89M116.792 118.6h255.103c8.905 0 16.095-6.89 16.095-15.3 0-8.5-7.19-15.29-16.095-15.29H116.792c-8.901 0-16.101 6.9-16.101 15.29.101 8.41 7.3 15.3 16.101 15.3M391.29 311.6h-40.793v-40.7c0-3.66-1.454-7.16-4.043-9.75a13.74 13.74 0 0 0-9.757-4.04c-3.66 0-7.171 1.44-9.758 4.04a13.78 13.78 0 0 0-4.042 9.75v40.7h-40.701c-3.66 0-7.17 1.45-9.758 4.04a13.83 13.83 0 0 0-4.043 9.76c0 3.66 1.455 7.18 4.043 9.76a13.8 13.8 0 0 0 9.758 4.04h40.701v40.7c0 3.66 1.453 7.18 4.042 9.76a13.8 13.8 0 0 0 9.758 4.04c3.66 0 7.17-1.45 9.757-4.04a13.8 13.8 0 0 0 4.043-9.76v-40.7h40.793c3.66 0 7.18-1.45 9.76-4.04a13.8 13.8 0 0 0 4.05-9.76c0-3.66-1.46-7.16-4.05-9.76a13.78 13.78 0 0 0-9.76-4.04" style="fill:currentcolor" /><path d="M424.09 210.6v-30a47.6 47.6 0 0 0-13.93-33.57c-8.89-8.9-20.97-13.9-33.56-13.93H98.492a47.57 47.57 0 0 0-33.58 13.92 47.55 47.55 0 0 0-13.921 33.58v179a47.57 47.57 0 0 0 13.929 33.58 47.55 47.55 0 0 0 33.572 13.92h119.002a144.2 144.2 0 0 0 45.184 42.53 144.2 144.2 0 0 0 58.864 19.66 144.7 144.7 0 0 0 61.678-6.86 144.5 144.5 0 0 0 53.09-32.12 144.3 144.3 0 0 0 34.74-51.43c7.71-19.45 11.1-40.35 9.95-61.24a144.6 144.6 0 0 0-16.69-59.77 144.4 144.4 0 0 0-40.22-47.27M98.492 376.4a16.93 16.93 0 0 1-11.94-4.96 16.9 16.9 0 0 1-4.961-11.94V180.51a16.9 16.9 0 0 1 4.961-11.94 16.9 16.9 0 0 1 11.94-4.97H376.6c4.48.01 8.76 1.79 11.93 4.97 3.17 3.16 4.96 7.45 4.97 11.94v12a144.2 144.2 0 0 0-82.722-9.46 144.2 144.2 0 0 0-74.173 37.82 144.24 144.24 0 0 0-40.938 72.5 144.27 144.27 0 0 0 5.926 83.03zm238.303 66.01a116.9 116.9 0 0 1-46.637-9.74 116.9 116.9 0 0 1-38.864-27.56l-4.501-5.51a122 122 0 0 1-13.499-20.7l-1.3-2.5h-.5a116.98 116.98 0 0 1 27.188-138.11 116.92 116.92 0 0 1 68.119-29.48 117.15 117.15 0 0 1 72.149 17.44 116.97 116.97 0 0 1 47.12 57.32c9.08 23.73 10.2 49.75 3.18 74.16a117.04 117.04 0 0 1-42.07 61.14 117.03 117.03 0 0 1-70.385 23.54" style="fill:currentcolor" /></svg>