<svg xmlns="http://www.w3.org/2000/svg" viewBox="0 0 512 512"><path d="M413.7 246.11h-27.69c-.54-.01-1.04-.23-1.41-.6s-.59-.88-.6-1.4v-77.2a38.9 38.9 0 0 0-11.4-27.5 38.92 38.92 0 0 0-27.5-11.4h-77.2c-.53-.01-1.03-.24-1.4-.6-.37-.37-.59-.87-.6-1.4v-27.7c0-27.1-21.5-49.9-48.6-50.3-6.57-.1-13.09 1.09-19.2 3.5a49.5 49.5 0 0 0-16.4 10.7 49.9 49.9 0 0 0-11.01 16.2 49.05 49.05 0 0 0-3.89 19.19v28.51c-.01.53-.23 1.03-.6 1.4s-.87.59-1.4.6H87.6c-10.5 0-20.57 4.17-28 11.6a39.55 39.55 0 0 0-11.6 28v70.4c.01.53.23 1.03.6 1.4a2 2 0 0 0 1.4.6h26.89c29.41 0 53.71 25.5 54.1 54.8.4 29.9-23.49 57.2-53.29 57.2H50a2 2 0 0 0-1.4.6c-.37.37-.59.86-.6 1.4v70.4a39.57 39.57 0 0 0 11.6 28c7.43 7.43 17.5 11.6 28 11.6H158c.52-.01 1.03-.23 1.4-.6.37-.38.59-.87.6-1.4v-20.9c0-30.31 24.8-56.4 55-57.1 30.1-.7 57 20.29 57 50.3v27.7c.01.53.23 1.02.6 1.4.37.37.87.59 1.4.6h71.1a38.923 38.923 0 0 0 38.9-38.9v-78c.01-.53.23-1.03.6-1.4s.87-.59 1.41-.6h28.49c27.6 0 49.5-22.7 49.5-50.4 0-27.71-23.19-48.7-50.3-48.7" style="stroke:currentcolor;stroke-linecap:round;stroke-linejoin:round;stroke-width:32;fill:none" /></svg>