<svg xmlns="http://www.w3.org/2000/svg" viewBox="0 0 512 512"><path d="M345.1 480H274c-2.36.01-4.71-.45-6.89-1.36s-4.16-2.25-5.81-3.94A18 18 0 0 1 256 462v-27.7c.03-4.26-.82-8.49-2.5-12.4a32.3 32.3 0 0 0-7.19-10.4c-7.81-7.6-19.11-11.81-30.91-11.5-21.4.49-39.4 19.3-39.4 41.1V462c.01 2.36-.45 4.71-1.36 6.89s-2.25 4.16-3.94 5.81A18.07 18.07 0 0 1 158 480H87.6a55.67 55.67 0 0 1-39.36-16.26 55.64 55.64 0 0 1-16.34-39.35V354a18.1 18.1 0 0 1 5.29-12.7c3.38-3.38 7.94-5.27 12.71-5.3h27.7c9.2 0 18.1-3.9 25.1-11 3.9-3.92 7-8.58 9.1-13.7a40.7 40.7 0 0 0 3.1-16.2c-.3-21.2-17.7-39.1-38.11-39.1H50c-2.36.01-4.71-.45-6.9-1.36-2.17-.91-4.15-2.25-5.81-3.94A18 18 0 0 1 32 238v-70.4a55.8 55.8 0 0 1 4.2-21.3 53.7 53.7 0 0 1 12.1-18A55.7 55.7 0 0 1 87.6 112h55.2c2.13.01 4.18-.81 5.7-2.31.73-.74 1.33-1.63 1.72-2.62.4-.97.6-2.02.58-3.07v-6.5a64.7 64.7 0 0 1 5.1-25.3 66.6 66.6 0 0 1 14.5-21.4c6.21-6.11 13.6-10.9 21.7-14.1 8.08-3.2 16.71-4.8 25.4-4.7 35.5.6 64.4 30.4 64.4 66.3v5.7c-.03 1.59.42 3.16 1.3 4.47a7.77 7.77 0 0 0 3.62 2.96c.98.39 2.04.59 3.08.57h55.2c7.22-.01 14.35 1.42 21 4.2a54.96 54.96 0 0 1 29.7 29.7 54.3 54.3 0 0 1 4.2 21v55.19c-.03 1.6.42 3.17 1.31 4.49a7.73 7.73 0 0 0 3.61 2.95c.98.39 2.04.59 3.08.57h5.7c36.6 0 66.31 29 66.31 64.6 0 36.6-29.41 66.4-65.51 66.4H408c-2.13-.01-4.16.82-5.7 2.3a7.9 7.9 0 0 0-1.71 2.62 7.6 7.6 0 0 0-.59 3.08v56c.01 7.2-1.42 14.35-4.2 21a54.96 54.96 0 0 1-29.7 29.7 53.9 53.9 0 0 1-21 4.2" style="fill:currentcolor" /></svg>