<svg xmlns="http://www.w3.org/2000/svg" viewBox="0 0 512 512"><path d="m317.52 57.85 23.96-34.79c.37-.44.65-.95.82-1.49.16-.56.22-1.14.13-1.71-.08-.57-.27-1.12-.57-1.61s-.7-.91-1.17-1.24c-.7-.49-1.57-.75-2.43-.73-.87.03-1.7.32-2.4.84-.46.35-.83.8-1.11 1.3l-24.9 36.16a148.85 148.85 0 0 0-107.69 0l-24.9-36.16c-.27-.5-.65-.95-1.12-1.3-.45-.35-.98-.6-1.54-.73s-1.14-.15-1.71-.05c-.57.11-1.1.33-1.58.66a4.11 4.11 0 0 0-.78 6.06l23.97 34.8c-38.12 17.72-64.84 51.42-68.25 90.73h259.51c-3.4-39.32-30.14-73.01-68.24-90.74M201.8 112.71c-3.33 0-6.55-1.15-9.12-3.25a14.4 14.4 0 0 1-4.99-8.3c-.66-3.27-.16-6.66 1.41-9.59 1.56-2.94 4.1-5.24 7.17-6.51 3.07-1.28 6.49-1.45 9.67-.49 3.18.98 5.93 3.01 7.78 5.77 1.86 2.76 2.68 6.08 2.36 9.4-.32 3.3-1.79 6.4-4.14 8.75-1.33 1.33-2.91 2.4-4.65 3.11-1.74.73-3.61 1.11-5.49 1.11m108.4 0c-3.57 0-7.04-1.33-9.69-3.73a14.44 14.44 0 0 1-4.7-9.28c-.35-3.56.63-7.14 2.76-10.02s5.26-4.86 8.77-5.57a14.44 14.44 0 0 1 16.64 9.96c1.04 3.44.78 7.12-.76 10.36-1.52 3.24-4.2 5.8-7.51 7.17-1.75.72-3.62 1.11-5.51 1.11M109.58 312.58c0 7.67-3.04 15.03-8.47 20.47a29 29 0 0 1-20.47 8.47c-7.69 0-15.04-3.05-20.47-8.47a28.95 28.95 0 0 1-8.49-20.47V195.49c0-7.68 3.05-15.04 8.49-20.47a28.93 28.93 0 0 1 20.47-8.48 28.934 28.934 0 0 1 28.94 28.95zM126.25 167.43v211.48c0 6.03 2.4 11.8 6.66 16.06a22.74 22.74 0 0 0 16.08 6.67h26.9v65.07c0 7.68 3.05 15.04 8.48 20.47a29 29 0 0 0 20.47 8.48c7.69 0 15.04-3.06 20.47-8.48a28.9 28.9 0 0 0 8.49-20.47v-65.07h44.41v65.07c0 7.68 3.05 15.04 8.48 20.47a29 29 0 0 0 20.47 8.48c7.68 0 15.04-3.06 20.48-8.48a28.98 28.98 0 0 0 8.47-20.47v-65.07h26.9c6.03 0 11.81-2.4 16.09-6.67a22.75 22.75 0 0 0 6.66-16.06V167.43zM402.41 312.58c0 7.67 3.05 15.03 8.48 20.47a28.98 28.98 0 0 0 20.47 8.47c7.67 0 15.04-3.05 20.47-8.47a29 29 0 0 0 8.47-20.47V195.49c0-7.68-3.05-15.04-8.47-20.47a28.944 28.944 0 0 0-40.94 0 28.94 28.94 0 0 0-8.48 20.47z" style="fill:currentcolor" /></svg>