<svg xmlns="http://www.w3.org/2000/svg" viewBox="0 0 512 512"><path d="M95.37 314.58c-5.33 23.74-10.83 47.44-15.93 71.23-1.66 7.72 2.84 14.46 9.67 16.06a13.943 13.943 0 0 0 16.67-10.3c2.16-8.43 3.8-17 5.77-25.5 1.53-6.56 3.21-13.09 5.2-21.16 30.82 56.56 76.04 88.28 139.57 88.23 63.42-.05 108.51-31.92 138.93-87.7.87 2.53 1.47 3.85 1.81 5.24 3.07 13.16 6.07 26.35 9.17 39.51 2.02 8.64 8.53 13.23 16.39 11.73 7.3-1.37 11.48-8.07 10.14-16.5-.51-3.26-1.27-6.48-2-9.7-5.9-26.14-11.82-52.31-17.76-78.52H99.18c-1.26 5.78-2.51 11.59-3.81 17.38m193.59 15.3c9.17 4.07 15.86 2.93 22.67-4.07 4.31-4.42 9.95-5.54 15.77-2.36 4.58 2.51 6.57 6 6.94 10.2.14 2.09-.11 4.18-.77 6.17a16.2 16.2 0 0 1-3.09 5.41c-11.74 13.77-33 20.32-52.05 9.6-4.1-2.31-7.38-5.03-8.13-10.07-1.75-11.54 7.72-19.73 18.66-14.88m-110.23 1.05c.18-.69.44-1.37.75-2.01 4-8.28 14.01-9.79 21.32-2.88 6.74 6.37 13.14 8.33 21.89 4.04 7.53-3.69 15.67-.43 18.5 6.05 3.18 7.3.09 14.5-7.65 18.81-18.4 10.28-38.88 4.24-51.05-9.17a15.9 15.9 0 0 1-3.78-6.94c-.66-2.59-.65-5.31.02-7.9M458.53 136.68c-10.51-13.58-24.07-22.24-40.68-24.69-23.8-3.5-43.82 4.88-59.43 23.24-69.04-42.31-136.78-42-204.25-.25-33.63-36.99-78.82-25.68-99.1-.15-11.99 15.1-16.02 32.61-12.6 51.07 4.38 23.7 19.49 39.42 41.61 48.35-.2 2.76-.23 4.86-.51 6.91-.53 3.75-1.11 7.5-1.69 11.24-.3 1.95-.17 3.93.37 5.83a13.7 13.7 0 0 0 2.76 5.14c1.28 1.49 2.87 2.69 4.66 3.52 1.79.82 3.74 1.25 5.71 1.25h65.76c3.02-9.43 5.83-18.6 8.89-27.69 2.9-8.63 10.16-13.2 17.08-11.02 8.15 2.59 11.61 9.55 9.04 18.76-1.84 6.58-4 13.08-6.09 19.82h49.84c0-8.52-.16-16.32.04-24.11.23-8.95 5.92-15.14 13.42-15.01 7.56.12 12.82 6.21 13.11 15.36.15 4.52-.02 9.05.07 13.57.08 3.48.34 6.95.53 10.38h49.39c-2.38-7.52-4.77-14.28-6.62-21.19-2.16-7.99 1.45-14.66 8.91-17.37 6.47-2.36 13.29 1.15 16.65 8.66.73 1.62 1.1 3.41 1.67 5.11 2.77 8.23 5.56 16.45 8.3 24.59h71.43c1.97 0 3.91-.42 5.7-1.24s3.37-2.01 4.65-3.5c1.29-1.49 2.23-3.23 2.77-5.11.56-1.9.69-3.88.41-5.82-.54-3.56-1.07-7.11-1.55-10.67-.3-2.33-.35-4.7-.5-6.89 49.42-21.54 50.06-72.44 30.24-98.09m-354.89 72.79a35.42 35.42 0 0 1-24.81-10.25 35.44 35.44 0 0 1-10.49-24.71c-.25-19.89 16.25-36.06 36.52-35.78 19.69.27 35.1 16.34 35.14 36.1.04 18.96-17.92 36.57-36.36 34.64m304.29 0c-16.49 1.87-35.69-14.65-35.77-35.32-.06-16.02 14.21-35.82 35.91-35.47 19.84.32 36.28 16.05 35.77 35.61-.63 23.38-20.11 36.73-35.91 35.18" style="fill:currentcolor" /></svg>