<svg xmlns="http://www.w3.org/2000/svg" viewBox="0 0 512 512"><path d="M358.42 135.23c15.61-18.37 35.63-26.75 59.43-23.24 16.61 2.45 30.16 11.11 40.68 24.69 19.82 25.65 19.18 76.55-30.25 98.09.16 2.19.2 4.54.5 6.89 1.49 11 3.48 21.95 4.45 33 1.24 14.14-3.39 19.1-17.53 20.39-1.03.18-2.04.44-3.01.78 6.04 26.7 12.06 53.33 18.07 79.88.73 3.22 1.49 6.44 2 9.7 1.34 8.43-2.84 15.12-10.13 16.51-7.87 1.49-14.37-3.1-16.4-11.75-3.1-13.16-6.09-26.34-9.17-39.51-.34-1.39-.94-2.7-1.81-5.24-30.42 55.79-75.51 87.66-138.93 87.71-63.53.05-108.75-31.67-139.57-88.23-1.99 8.07-3.67 14.6-5.2 21.17-1.97 8.49-3.61 17.05-5.77 25.49-.87 3.56-3.11 6.64-6.22 8.56a13.94 13.94 0 0 1-10.45 1.73c-6.83-1.6-11.33-8.33-9.67-16.05 5.1-23.79 10.6-47.49 15.93-71.23 1.38-6.14 2.7-12.3 4.04-18.43-.59-.35-1.07-.86-1.59-.9-15.83-1.46-20.23-6.24-18.76-22 1-10.75 3.01-21.39 4.51-32.09.29-2.06.31-4.15.51-6.91-22.11-8.93-37.23-24.65-41.61-48.35-3.42-18.47.61-35.97 12.6-51.08 20.28-25.52 65.47-36.83 99.1.16 67.48-41.75 135.21-42.06 204.25.26m-12.05 26.42c-51.83-41.47-131.96-39.77-179.91-.23 3.98 41.02-14.94 65.83-54.53 76.35l-5.35 28.96h57.48c3.02-9.43 5.84-18.6 8.89-27.68 2.91-8.65 10.17-13.2 17.09-11.02 8.15 2.57 11.61 9.55 9.04 18.76-1.84 6.58-4 13.08-6.09 19.82h49.84c0-8.53-.17-16.32.04-24.11.23-8.95 5.92-15.14 13.42-15.02 7.55.12 12.82 6.21 13.11 15.36.15 4.52-.02 9.05.07 13.58.08 3.48.34 6.95.52 10.38h49.4c-2.38-7.52-4.77-14.29-6.62-21.19-2.16-7.99 1.45-14.67 8.91-17.37 6.47-2.36 13.29 1.14 16.65 8.64.73 1.62 1.09 3.43 1.67 5.13 2.77 8.23 5.56 16.45 8.3 24.58h57.46c-1.98-10.31-3.79-19.63-5.67-29.43-17.72-3.78-32.68-11.45-43.13-26.27-10.39-14.77-14.06-31.03-10.59-49.24m34.03 134.14H131.79a125.12 125.12 0 0 0 41.11 78.96 125.15 125.15 0 0 0 83.2 31.66c30.67 0 60.28-11.27 83.19-31.66a125.07 125.07 0 0 0 41.11-78.96m-276.77-86.33c18.44 1.93 36.4-15.68 36.36-34.63-.05-19.77-15.45-35.83-35.14-36.1-20.27-.28-36.77 15.88-36.52 35.77.11 9.3 3.88 18.17 10.48 24.72a35.37 35.37 0 0 0 24.82 10.24m304.29 0c15.8 1.55 35.27-11.81 35.91-35.18.51-19.57-15.93-35.29-35.77-35.61-21.7-.35-35.98 19.45-35.91 35.47.08 20.66 19.28 37.19 35.77 35.32" style="fill:currentcolor" /><path d="M181.16 344.25c-4.06-4.81-3.28-12.06-1.68-15.34 4-8.28 14-9.79 21.32-2.88 6.74 6.37 13.13 8.34 21.89 4.04 7.52-3.69 15.67-.42 18.49 6.06 3.19 7.29.1 14.5-7.64 18.81-18.99 10.6-40.19 3.86-52.38-10.7M331.36 344.25c4.04-4.81 3.27-12.06 1.68-15.34-4.01-8.28-14.01-9.79-21.33-2.88-6.74 6.37-13.13 8.34-21.89 4.04-7.51-3.69-15.67-.42-18.5 6.06-3.18 7.29-.09 14.5 7.64 18.81 19 10.6 40.2 3.86 52.4-10.7" style="fill:currentcolor" /></svg>