<svg xmlns="http://www.w3.org/2000/svg" viewBox="0 0 512 512"><path d="M57.48 223.57v75.86c-.01 2.32.44 4.59 1.31 6.73.88 2.12 2.17 4.06 3.8 5.69 1.63 1.62 3.57 2.9 5.69 3.78 2.13.89 4.41 1.32 6.71 1.32s4.58-.43 6.71-1.32c2.13-.88 4.06-2.16 5.7-3.78a17.6 17.6 0 0 0 3.79-5.69c.87-2.14 1.32-4.41 1.31-6.73v-75.86c.01-2.31-.44-4.59-1.31-6.71-.87-2.14-2.17-4.06-3.79-5.69a17.1 17.1 0 0 0-5.7-3.79c-2.13-.89-4.41-1.34-6.71-1.33-2.3-.01-4.58.44-6.71 1.33-2.12.86-4.06 2.15-5.69 3.79a17.38 17.38 0 0 0-5.11 12.4M454.51 223.57v75.87c.01 2.31-.44 4.58-1.33 6.72-.87 2.12-2.15 4.06-3.79 5.69-1.62 1.63-3.55 2.9-5.69 3.78-2.12.89-4.4 1.33-6.71 1.32-2.3.01-4.57-.43-6.7-1.32-2.14-.88-4.08-2.15-5.69-3.78a17.3 17.3 0 0 1-3.8-5.69c-.88-2.14-1.33-4.41-1.32-6.72v-75.87c-.01-2.31.44-4.59 1.32-6.71a17.1 17.1 0 0 1 3.8-5.69c1.61-1.63 3.55-2.93 5.69-3.79 2.13-.89 4.4-1.33 6.7-1.32 2.31-.01 4.59.43 6.71 1.32 2.14.86 4.07 2.16 5.69 3.79 1.64 1.63 2.92 3.55 3.79 5.69.89 2.12 1.34 4.4 1.33 6.71M177.48 188.03v146.95c-.01 2.29.44 4.57 1.31 6.7.88 2.14 2.17 4.06 3.8 5.69 1.64 1.63 3.56 2.93 5.69 3.8 2.14.87 4.41 1.32 6.71 1.31 2.3.01 4.59-.44 6.71-1.31 2.13-.87 4.07-2.17 5.69-3.8 1.64-1.63 2.92-3.55 3.8-5.69.88-2.13 1.32-4.41 1.31-6.7V188.03a17.4 17.4 0 0 0-1.31-6.71 17.4 17.4 0 0 0-3.8-5.69 17.5 17.5 0 0 0-5.69-3.8c-2.12-.87-4.41-1.31-6.71-1.3-2.3-.01-4.57.43-6.71 1.3a17.8 17.8 0 0 0-5.69 3.8 17.6 17.6 0 0 0-3.8 5.69c-.87 2.14-1.32 4.41-1.31 6.71M333.51 188.03v146.95c.01 2.29-.44 4.57-1.32 6.7-.88 2.14-2.16 4.06-3.8 5.69a17.2 17.2 0 0 1-5.69 3.8c-2.12.87-4.4 1.32-6.71 1.31-2.3.01-4.57-.44-6.7-1.31-2.14-.87-4.07-2.17-5.7-3.8a17.4 17.4 0 0 1-3.79-5.69c-.88-2.13-1.33-4.41-1.32-6.7V188.03c-.01-2.3.44-4.57 1.32-6.71a17.6 17.6 0 0 1 3.79-5.69c1.63-1.63 3.56-2.91 5.7-3.8 2.13-.87 4.4-1.31 6.7-1.3 2.31-.01 4.59.43 6.71 1.3 2.13.89 4.07 2.17 5.69 3.8a17.4 17.4 0 0 1 3.8 5.69c.88 2.14 1.33 4.41 1.32 6.71M152.5 377.26V134.73c.01-2.29-.44-4.57-1.3-6.71a17.5 17.5 0 0 0-3.81-5.68 17.5 17.5 0 0 0-5.69-3.81c-2.13-.86-4.41-1.31-6.71-1.3-2.29-.01-4.58.44-6.71 1.3a17.5 17.5 0 0 0-5.69 3.81 17.5 17.5 0 0 0-3.8 5.68c-.87 2.14-1.32 4.42-1.31 6.71v242.53c-.01 2.29.44 4.57 1.31 6.71.88 2.12 2.18 4.07 3.8 5.69 1.63 1.62 3.56 2.91 5.69 3.8 2.13.86 4.42 1.31 6.71 1.3 2.3.01 4.58-.44 6.71-1.3 2.13-.89 4.06-2.18 5.69-3.8a17.7 17.7 0 0 0 3.81-5.69c.86-2.14 1.31-4.42 1.3-6.71M358.48 377.26V134.73c-.01-2.29.44-4.57 1.32-6.71.88-2.13 2.16-4.05 3.8-5.68 1.61-1.63 3.55-2.93 5.69-3.81 2.12-.86 4.4-1.31 6.71-1.3 2.3-.01 4.57.44 6.7 1.3 2.14.88 4.06 2.18 5.69 3.81 1.64 1.63 2.93 3.55 3.79 5.68.89 2.14 1.34 4.42 1.33 6.71v242.53c.01 2.29-.44 4.58-1.33 6.71-.86 2.12-2.15 4.07-3.79 5.69a17.7 17.7 0 0 1-5.69 3.8c-2.13.86-4.4 1.31-6.7 1.3-2.31.01-4.59-.44-6.71-1.3a17.5 17.5 0 0 1-5.69-3.8c-1.64-1.62-2.92-3.57-3.8-5.69-.88-2.13-1.33-4.42-1.32-6.71M273.5 430.56V81.44c.01-2.3-.44-4.59-1.3-6.71-.89-2.14-2.18-4.07-3.81-5.69a17.2 17.2 0 0 0-5.69-3.8c-2.12-.87-4.41-1.33-6.71-1.32-2.3-.01-4.57.45-6.71 1.32-2.13.87-4.05 2.17-5.69 3.8a17.4 17.4 0 0 0-3.8 5.69c-.86 2.12-1.32 4.41-1.31 6.71v349.12c-.01 2.29.45 4.57 1.31 6.7.88 2.14 2.18 4.07 3.8 5.69 1.64 1.63 3.56 2.93 5.69 3.81 2.14.86 4.41 1.31 6.71 1.3 2.3.01 4.59-.44 6.71-1.3 2.13-.88 4.07-2.18 5.69-3.81 1.63-1.62 2.92-3.55 3.81-5.69a17.7 17.7 0 0 0 1.3-6.7" style="fill:currentcolor" /></svg>