<svg xmlns="http://www.w3.org/2000/svg" viewBox="0 0 512 512"><path d="M153.5 190.19H80.9c-1.2 0-2.3.21-3.2.63-1 .43-1.9 1.03-2.7 1.79-.8.78-1.4 1.69-1.8 2.7s-.6 2.1-.6 3.18V315.3c0 1.08.2 2.16.6 3.17s1 1.93 1.8 2.71c.8.76 1.7 1.36 2.7 1.79.9.42 2 .63 3.2.63h72.6c3.9-.02 7.6 1.31 10.6 3.8l95.4 78.09c1.7 1.31 4 1.83 6.2 1.51 2.2-.34 4.2-1.53 5.5-3.31 1.1-1.44 1.6-3.2 1.6-4.99V114.8c0-1.1-.2-2.18-.6-3.19s-1-1.93-1.8-2.69-1.7-1.37-2.7-1.79c-1.3-.56-2.8-.75-4.2-.58-1.4.18-2.8.7-3.9 1.55l-95.4 78.09c-3 2.57-6.8 3.99-10.7 4M356.1 323.69c10.7-20.63 16.4-43.46 16.7-66.69-.1-23.27-5.8-46.16-16.7-66.7M406.1 373.69c22.2-34.88 33.8-75.45 33.4-116.8.7-41.39-10.9-82.05-33.4-116.79" style="stroke:currentcolor;stroke-linecap:round;stroke-linejoin:round;stroke-width:31.897;fill:none" /></svg>