<svg xmlns="http://www.w3.org/2000/svg" viewBox="0 0 512 512"><path d="m436.59 124.41-30.05 323.93c-.96 9.14-4.9 17.58-11.04 23.7s-14.06 9.49-22.28 9.49H130.91c-8.23 0-16.17-3.37-22.31-9.49s-10.07-14.56-11.02-23.7L67.53 124.41M440.49 30H70.51c-24.03 0-43.52 21.04-43.52 46.98v.04c0 25.94 19.49 46.98 43.52 46.98h369.98c24.03 0 43.51-21.04 43.51-46.98v-.04C484 51.04 464.52 30 440.49 30M305.8 258 197 379.3M305.8 378.8 197 257.5" style="stroke:currentcolor;stroke-linecap:round;stroke-linejoin:round;stroke-width:32;fill:none" /></svg>