<svg xmlns="http://www.w3.org/2000/svg" viewBox="0 0 512 512"><path d="M101.3 81h320.01c12.72 0 24.93 5.06 33.94 14.06 9 8.99 14.05 21.21 14.05 33.94v288c0 12.73-5.05 24.94-14.05 33.93A48 48 0 0 1 421.31 465H101.3c-12.73 0-24.94-5.06-33.94-14.07-9-8.99-14.06-21.2-14.06-33.93V129c0-12.73 5.06-24.95 14.06-33.94 9-9 21.21-14.06 33.94-14.06Z" style="stroke:currentcolor;stroke-linejoin:round;stroke-width:32;fill:none" /><path d="M301.3 257c5.95.01 11.69-2.2 16.11-6.19 4.41-4 7.19-9.49 7.78-15.4.59-5.93-1.03-11.87-4.58-16.64a23.96 23.96 0 0 0-31.57-6.33 23.983 23.983 0 0 0-9.4 30.8c2.54 5.37 6.99 9.62 12.48 11.92 2.91 1.2 6.03 1.83 9.18 1.84M381.3 257c5.95.01 11.69-2.2 16.11-6.19 4.41-4 7.19-9.49 7.78-15.4a23.95 23.95 0 0 0-4.58-16.64c-3.53-4.8-8.73-8.09-14.57-9.26a23.92 23.92 0 0 0-17 2.93c-5.1 3.05-8.9 7.9-10.64 13.59a23.98 23.98 0 0 0 1.24 17.21c2.54 5.37 7 9.62 12.48 11.92 2.91 1.2 6.03 1.83 9.18 1.84M301.3 337c5.95.01 11.69-2.2 16.11-6.2 4.41-3.99 7.19-9.48 7.78-15.4s-1.03-11.86-4.58-16.63c-3.54-4.8-8.73-8.09-14.56-9.26a24 24 0 0 0-17.01 2.93c-5.11 3.05-8.9 7.9-10.64 13.59a24 24 0 0 0 1.24 17.21c2.54 5.37 6.99 9.62 12.48 11.92 2.91 1.21 6.03 1.83 9.18 1.84M381.3 337c5.95.01 11.69-2.2 16.11-6.2 4.41-3.99 7.19-9.48 7.78-15.4s-1.04-11.86-4.58-16.63c-3.53-4.8-8.73-8.09-14.57-9.26a23.97 23.97 0 0 0-17 2.93c-5.1 3.05-8.9 7.9-10.64 13.59a24 24 0 0 0 1.24 17.21c2.54 5.37 7 9.62 12.48 11.92 2.91 1.21 6.03 1.83 9.18 1.84M141.3 337c5.95.01 11.69-2.2 16.11-6.2 4.41-3.99 7.19-9.48 7.78-15.4s-1.05-11.86-4.59-16.63a23.9 23.9 0 0 0-14.56-9.26 23.97 23.97 0 0 0-17 2.93c-5.11 3.05-8.9 7.9-10.65 13.59a24.04 24.04 0 0 0 1.25 17.21c2.54 5.37 6.99 9.62 12.48 11.92 2.91 1.21 6.03 1.83 9.18 1.84M221.29 337c5.95.01 11.7-2.2 16.12-6.2 4.41-3.99 7.19-9.48 7.78-15.4s-1.04-11.86-4.58-16.63c-3.54-4.8-8.73-8.09-14.57-9.26a23.97 23.97 0 0 0-17 2.93c-5.11 3.05-8.91 7.9-10.64 13.59a23.94 23.94 0 0 0 1.24 17.21c2.54 5.37 6.99 9.62 12.48 11.92 2.91 1.21 6.02 1.83 9.17 1.84M141.3 417c5.95.01 11.69-2.2 16.11-6.19 4.41-4 7.19-9.49 7.78-15.4a23.97 23.97 0 0 0-4.59-16.64 23.9 23.9 0 0 0-14.56-9.26 23.97 23.97 0 0 0-17 2.93c-5.11 3.05-8.9 7.9-10.65 13.59a24.04 24.04 0 0 0 1.25 17.21c2.54 5.37 6.99 9.62 12.48 11.92 2.91 1.21 6.03 1.83 9.18 1.84M221.29 417c5.95.01 11.7-2.2 16.12-6.19 4.41-4 7.19-9.49 7.78-15.4.59-5.93-1.04-11.86-4.58-16.64-3.54-4.8-8.73-8.09-14.57-9.26a23.97 23.97 0 0 0-17 2.93c-5.11 3.05-8.91 7.9-10.64 13.59a23.94 23.94 0 0 0 1.24 17.21c2.54 5.37 6.99 9.62 12.48 11.92 2.91 1.21 6.02 1.83 9.17 1.84M301.3 417c5.95.01 11.69-2.2 16.11-6.19 4.41-4 7.19-9.49 7.78-15.4.59-5.93-1.03-11.86-4.58-16.64-3.54-4.8-8.73-8.09-14.56-9.26a24 24 0 0 0-17.01 2.93c-5.11 3.05-8.9 7.9-10.64 13.59a24 24 0 0 0 1.24 17.21c2.54 5.37 6.99 9.62 12.48 11.92 2.91 1.21 6.03 1.83 9.18 1.84" style="fill:currentcolor" /><path d="M133.29 49v32M389.3 49v32" style="stroke:currentcolor;stroke-linecap:round;stroke-linejoin:round;stroke-width:32;fill:none" /><path d="M469.3 161h-416" style="stroke:currentcolor;stroke-linejoin:round;stroke-width:32;fill:none" /></svg>