<svg xmlns="http://www.w3.org/2000/svg" viewBox="0 0 512 512"><path d="M480 128a64.07 64.07 0 0 0-18.75-45.25A64.1 64.1 0 0 0 416 64h-15.99V48.4c0-8.6-6.61-16-15.2-16.4A16.14 16.14 0 0 0 368 47.2V64H144V48.4c0-8.6-6.6-16-15.2-16.4-4.24-.18-8.37 1.31-11.52 4.16a16.14 16.14 0 0 0-5.29 11.04V64H96a64.05 64.05 0 0 0-45.24 18.75A64.08 64.08 0 0 0 32 128v12c0 1.06.43 2.08 1.17 2.83.75.74 1.77 1.17 2.82 1.17h440.02c1.05 0 2.07-.43 2.82-1.17.74-.75 1.17-1.77 1.17-2.83zM32 416a64.03 64.03 0 0 0 18.76 45.24A64.06 64.06 0 0 0 96 480h320c16.97-.01 33.24-6.77 45.25-18.76 12-12 18.74-28.27 18.75-45.24V178.99c.01-.4-.06-.78-.21-1.15s-.36-.71-.64-.98c-.28-.29-.61-.51-.99-.65-.37-.15-.76-.22-1.16-.21H35c-.4-.01-.79.06-1.16.21-.38.14-.71.36-.99.65a2.97 2.97 0 0 0-.85 2.13zm344.01-208c5.95.01 11.68 2.24 16.07 6.23 4.4 4.01 7.15 9.51 7.73 15.44a23.98 23.98 0 0 1-4.64 16.61 24 24 0 0 1-14.59 9.2 23.87 23.87 0 0 1-16.98-2.99c-5.11-3.06-8.87-7.92-10.6-13.6a24.02 24.02 0 0 1 1.3-17.22 23.97 23.97 0 0 1 12.52-11.86c2.91-1.2 6.04-1.82 9.19-1.81m0 80c5.95.01 11.68 2.24 16.07 6.23 4.4 4.01 7.15 9.51 7.73 15.44a23.98 23.98 0 0 1-4.64 16.61 24 24 0 0 1-14.59 9.2 23.87 23.87 0 0 1-16.98-2.99c-5.11-3.06-8.87-7.92-10.6-13.61a24 24 0 0 1 1.3-17.21 23.97 23.97 0 0 1 12.52-11.86c2.91-1.2 6.04-1.82 9.19-1.81M296 208c5.95.01 11.68 2.24 16.09 6.23 4.39 4.01 7.14 9.51 7.71 15.44.58 5.92-1.08 11.84-4.62 16.61a24.05 24.05 0 0 1-14.6 9.2c-5.84 1.15-11.89.09-16.99-2.99a23.96 23.96 0 0 1-10.59-13.6 23.97 23.97 0 0 1 1.3-17.22A23.99 23.99 0 0 1 296 208m0 80c5.95.01 11.68 2.24 16.09 6.23 4.39 4.01 7.14 9.51 7.71 15.44.58 5.92-1.08 11.84-4.62 16.61a24.05 24.05 0 0 1-14.6 9.2c-5.84 1.15-11.89.09-16.99-2.99-5.1-3.06-8.87-7.92-10.59-13.61a23.95 23.95 0 0 1 1.3-17.21A23.99 23.99 0 0 1 296 288m0 80c5.95.01 11.68 2.24 16.09 6.24 4.39 4 7.14 9.5 7.71 15.43.58 5.92-1.08 11.83-4.62 16.61a24 24 0 0 1-14.6 9.19 23.85 23.85 0 0 1-16.99-2.98c-5.1-3.06-8.87-7.92-10.59-13.61a23.95 23.95 0 0 1 1.3-17.21A23.99 23.99 0 0 1 296 368m-80-80a24 24 0 0 1 16.08 6.23c4.4 4.01 7.15 9.51 7.72 15.44.58 5.92-1.08 11.84-4.63 16.61a24 24 0 0 1-14.59 9.2c-5.84 1.15-11.89.09-16.99-2.99-5.1-3.06-8.87-7.92-10.59-13.61a23.95 23.95 0 0 1 13.81-29.07c2.91-1.2 6.04-1.82 9.19-1.81m0 80a23.97 23.97 0 0 1 16.08 6.24c4.4 4 7.15 9.5 7.72 15.43a23.936 23.936 0 0 1-19.22 25.8 23.85 23.85 0 0 1-16.99-2.98c-5.1-3.06-8.87-7.92-10.59-13.61a23.95 23.95 0 0 1 13.81-29.07c2.91-1.2 6.04-1.82 9.19-1.81m-80-80a24 24 0 0 1 16.08 6.23c4.4 4.01 7.15 9.51 7.72 15.44.57 5.92-1.08 11.84-4.63 16.61a24.03 24.03 0 0 1-14.59 9.2c-5.84 1.15-11.89.09-16.99-2.99-5.1-3.06-8.87-7.92-10.59-13.61a23.9 23.9 0 0 1 1.3-17.21c2.55-5.36 7-9.59 12.51-11.86 2.91-1.2 6.04-1.82 9.19-1.81m0 80a23.97 23.97 0 0 1 16.08 6.24c4.4 4 7.15 9.5 7.72 15.43.57 5.92-1.08 11.83-4.63 16.61a23.97 23.97 0 0 1-14.59 9.19 23.85 23.85 0 0 1-16.99-2.98c-5.1-3.06-8.87-7.92-10.59-13.61a23.9 23.9 0 0 1 1.3-17.21c2.55-5.36 7-9.59 12.51-11.86 2.91-1.2 6.04-1.82 9.19-1.81" style="fill:currentcolor" /></svg>