<svg xmlns="http://www.w3.org/2000/svg" viewBox="0 0 512 512"><path d="M114.44 100.3h283.11c11.26.01 22.06 4.48 30.03 12.45a42.55 42.55 0 0 1 12.44 30.02v254.78a42.56 42.56 0 0 1-12.45 30.02 42.46 42.46 0 0 1-30.02 12.44H114.44c-11.25 0-22.06-4.48-30.02-12.44a42.46 42.46 0 0 1-12.44-30.02V142.77c0-11.26 4.47-22.06 12.44-30.03a42.48 42.48 0 0 1 30.02-12.44Z" style="stroke:currentcolor;stroke-linejoin:round;stroke-width:16;fill:none" /><path d="M291.39 256c4.92.02 9.72-1.68 13.53-4.8 3.83-3.12 6.44-7.47 7.42-12.3.98-4.84.24-9.86-2.08-14.22a21.3 21.3 0 0 0-10.63-9.66 21.27 21.27 0 0 0-25.88 7.82c-2.76 4.1-3.98 9.02-3.5 13.93a21.3 21.3 0 0 0 6.14 12.99c3.97 3.98 9.37 6.23 15 6.24M362.15 256c4.94.01 9.71-1.68 13.53-4.8s6.44-7.46 7.41-12.29.23-9.85-2.08-14.2a21.34 21.34 0 0 0-10.61-9.66 21.4 21.4 0 0 0-14.35-.72 21.34 21.34 0 0 0-11.53 8.54 21.4 21.4 0 0 0-3.5 13.91c.48 4.91 2.66 9.49 6.13 12.98 3.99 3.98 9.37 6.23 15 6.24M291.39 326.76c5.25 0 10.32-1.94 14.22-5.48 3.9-3.52 6.35-8.38 6.87-13.61.51-5.24-.94-10.48-4.07-14.7a21.13 21.13 0 0 0-12.88-8.16c-5.16-1.03-10.5-.1-15.02 2.6a21.2 21.2 0 0 0-9.39 12 21.3 21.3 0 0 0 1.11 15.22c2.24 4.75 6.18 8.49 11.03 10.51 2.58 1.08 5.34 1.62 8.13 1.62M362.15 326.76a21.156 21.156 0 0 0 21.09-19.09c.51-5.24-.92-10.48-4.05-14.7a21.19 21.19 0 0 0-27.9-5.56c-4.53 2.69-7.86 6.98-9.4 12-1.52 5.04-1.14 10.46 1.12 15.22 2.24 4.75 6.17 8.49 11.03 10.51 2.56 1.08 5.32 1.62 8.11 1.62M149.83 326.76c4.94.03 9.72-1.67 13.55-4.78 3.83-3.13 6.45-7.47 7.41-12.31.98-4.83.25-9.87-2.07-14.21a21.27 21.27 0 0 0-10.61-9.67c-4.57-1.9-9.63-2.15-14.36-.73a21.32 21.32 0 0 0-15.05 22.48c.48 4.91 2.65 9.49 6.14 12.99 3.98 3.96 9.37 6.21 14.99 6.23M220.59 326.77c4.93.02 9.71-1.68 13.54-4.79 3.81-3.13 6.43-7.46 7.4-12.29.98-4.83.24-9.85-2.07-14.2a21.2 21.2 0 0 0-10.62-9.66 21.28 21.28 0 0 0-25.87 7.81c-2.73 4.09-3.98 9-3.5 13.91s2.65 9.48 6.13 12.98c3.99 3.97 9.37 6.2 14.99 6.24M149.83 397.54c4.93.01 9.7-1.69 13.52-4.81a21.295 21.295 0 0 0 5.3-26.47 21.25 21.25 0 0 0-10.61-9.64 21.33 21.33 0 0 0-14.33-.73c-4.7 1.43-8.78 4.45-11.52 8.55a21.27 21.27 0 0 0 17.64 33.1M220.59 397.54c5.25 0 10.32-1.95 14.19-5.48a21.08 21.08 0 0 0 6.84-13.58c.53-5.23-.93-10.45-4.05-14.68-3.11-4.2-7.69-7.11-12.84-8.13-5.15-1.03-10.5-.11-14.99 2.59a21.05 21.05 0 0 0-9.37 11.98 21.1 21.1 0 0 0 1.1 15.18c2.24 4.74 6.16 8.49 11.01 10.5 2.57 1.07 5.33 1.62 8.11 1.62M291.39 397.54c5.25 0 10.32-1.96 14.22-5.48 3.9-3.54 6.35-8.39 6.87-13.62.51-5.23-.94-10.47-4.07-14.7a21.18 21.18 0 0 0-12.88-8.16c-5.16-1.03-10.5-.1-15.02 2.6a21.23 21.23 0 0 0-9.39 12.01 21.27 21.27 0 0 0 1.11 15.21c2.24 4.75 6.18 8.5 11.03 10.52 2.58 1.07 5.34 1.62 8.13 1.62" style="fill:currentcolor" /><path d="M142.76 71.98v28.32M369.24 71.98v28.32" style="stroke:currentcolor;stroke-linecap:round;stroke-linejoin:round;stroke-width:16;fill:none" /><path d="M440.01 171.07H71.98" style="stroke:currentcolor;stroke-linejoin:round;stroke-width:16;fill:none" /></svg>