<svg xmlns="http://www.w3.org/2000/svg" viewBox="0 0 512 512"><path d="m91.8 314.9 145.3-169.6c2.1-2.535 4.7-4.591 7.7-6.031 2.9-1.487 6.1-2.381 9.3-2.632s6.6.146 9.7 1.17c3.1 1.036 6 2.662 8.5 4.793 1 .797 1.9 1.703 2.7 2.7l145.3 169.6c3.1 3.647 5 8.083 5.7 12.8.7 4.719 0 9.538-2 13.869a25.1 25.1 0 0 1-9.2 10.599c-4.1 2.575-8.8 3.939-13.5 3.931H110.6c-3.4.011-6.7-.626-9.6-1.874a24.2 24.2 0 0 1-11.2-9.175c-2.7-4.108-4.2-8.923-4.2-13.852.1-5.989 2.3-11.754 6.2-16.298" style="fill:currentcolor" /></svg>