<svg xmlns="http://www.w3.org/2000/svg" viewBox="0 0 512 512"><path d="m91.7 213.799 145.4 169.6c2.1 2.536 4.7 4.592 7.6 6.031 2.9 1.487 6.1 2.381 9.5 2.633 3.2.251 6.5-.148 9.6-1.171 3.1-1.035 6-2.663 8.5-4.793.9-.797 1.8-1.703 2.6-2.7l145.4-169.6c3.1-3.647 4.9-8.083 5.6-12.8.7-4.719 0-9.539-1.9-13.869-2-4.344-5.2-8.023-9.2-10.599s-8.7-3.942-13.6-3.932H110.6c-3.3-.01-6.6.626-9.6 1.873-4.7 1.86-8.6 5.058-11.2 9.175-2.7 4.109-4.2 8.924-4.2 13.852.1 5.99 2.3 11.756 6.1 16.3" style="fill:currentcolor" /></svg>