<svg xmlns="http://www.w3.org/2000/svg" viewBox="0 0 512 512"><path d="M91.54 104c-26.29 0-43.49 24-43.49 48.1v51.5c5.3-.4 10.59-.7 15.99-.7 5.41 0 10.71.2 16 .7v-51.5c0-11.3 7.41-16.1 11.5-16.1H420.5c4.2 0 11.5 4.8 11.5 16.1v207.69c0 11.31-7.4 16.11-11.5 16.11H252.3c.4 5.3.7 10.6.7 16 0 5.39-.2 10.7-.7 16h168.2c26.2 0 43.4-24.01 43.4-48.11V152.1c0-24.2-17.3-48.1-43.4-48.1z" style="fill:currentcolor" /><path d="M214.2 407.99c.6-5.3.8-10.65.8-16 0-19.83-4-39.47-11.5-57.78-7.7-18.33-18.7-34.98-32.78-48.99a151.1 151.1 0 0 0-48.98-32.74A151.2 151.2 0 0 0 63.95 241c-5.41 0-10.7.3-16 .8V274c5.3-.72 10.64-1.09 16-1.1 31.56 0 61.82 12.54 84.14 34.85a119.02 119.02 0 0 1 34.81 84.15c0 5.35-.4 10.7-1 16z" style="fill:currentcolor" /><path d="M158.64 407.99c.9-5.28 1.33-10.63 1.31-16a96.07 96.07 0 0 0-28.13-67.86c-18-18-42.41-28.12-67.87-28.13a93 93 0 0 0-16 1.3V330c5.23-1.33 10.59-2 16-2 8.41-.01 16.73 1.63 24.49 4.85a63.8 63.8 0 0 1 20.79 13.87 64.1 64.1 0 0 1 13.87 20.77c3.21 7.78 4.85 16.1 4.84 24.5 0 5.41-.66 10.78-1.99 16z" style="fill:currentcolor" /><path d="M101.75 408a40.7 40.7 0 0 0 3.2-16 41.07 41.07 0 0 0-12.02-28.98A41.05 41.05 0 0 0 63.95 351a40.4 40.4 0 0 0-16 3.2v7.8a46.03 46.03 0 0 0 13.47 32.52A46.1 46.1 0 0 0 93.95 408z" style="fill:currentcolor" /></svg>