<svg xmlns="http://www.w3.org/2000/svg" viewBox="0 0 512 512"><path d="M91.54 103.99c-26.29 0-43.49 24.01-43.49 48.11v51.49c5.3-.4 10.59-.69 15.99-.69 5.41 0 10.71.2 16 .69V152.1c0-11.3 7.41-16.11 11.5-16.11H420.5c4.2 0 11.5 4.81 11.5 16.11v207.69c0 11.3-7.4 16.11-11.5 16.11H252.3c.4 5.29.7 10.59.7 16 0 5.4-.2 10.7-.7 16h168.2c26.2 0 43.4-24.01 43.4-48.11V152.1c0-24.21-17.3-48.11-43.4-48.11z" style="fill:currentcolor" /><path d="M214.2 407.99c.6-5.31.8-10.65.8-16 0-19.83-4-39.47-11.5-57.79-7.7-18.31-18.7-34.97-32.78-48.99a151 151 0 0 0-48.98-32.73A151 151 0 0 0 63.95 241c-5.41 0-10.7.29-16 .8V274c5.3-.73 10.64-1.1 16-1.11 31.56 0 61.82 12.54 84.14 34.86a119 119 0 0 1 34.81 84.15c0 5.34-.4 10.7-1 16z" style="fill:currentcolor" /><path d="M158.64 407.99c.9-5.29 1.33-10.63 1.31-16a96.1 96.1 0 0 0-28.13-67.87c-18-18-42.41-28.12-67.87-28.13-5.37-.03-10.71.41-16 1.31v32.69c5.23-1.32 10.59-2 16-2 8.41-.01 16.73 1.64 24.49 4.85a63.8 63.8 0 0 1 20.79 13.88 63.9 63.9 0 0 1 13.87 20.77c3.21 7.78 4.85 16.1 4.84 24.5 0 5.4-.66 10.78-1.99 16z" style="fill:currentcolor" /><path d="M101.75 407.99a40.7 40.7 0 0 0 3.2-16 41.1 41.1 0 0 0-12.02-28.98c-7.7-7.69-18.11-12-28.98-12.01a40.25 40.25 0 0 0-16 3.2v7.79c.01 12.2 4.84 23.89 13.47 32.53a46.12 46.12 0 0 0 32.53 13.47zM132.95 168.99c-1.72 0-3.4.34-4.99.99-1.57.64-3.01 1.61-4.21 2.82a12.8 12.8 0 0 0-2.82 4.22c-.65 1.58-.98 3.27-.98 4.97v30.21c31.73 7.31 60.65 23.48 83.65 46.65 22.8 23.15 38.8 52.33 45.7 84.14h128.6c1.7 0 3.4-.32 5-.97 1.6-.66 3-1.61 4.2-2.82 1.3-1.2 2.3-2.64 2.9-4.22.7-1.58 1-3.27 1-4.99v-148c0-1.7-.3-3.39-1-4.97-.6-1.58-1.6-3.01-2.9-4.22-1.2-1.21-2.6-2.18-4.2-2.82-1.6-.65-3.3-.99-5-.99z" style="fill:currentcolor" /></svg>