<svg xmlns="http://www.w3.org/2000/svg" viewBox="0 0 512 512"><path d="M196.2 301.2V174.3c-.01-2.72.78-5.38 2.28-7.65s3.65-4.04 6.15-5.09c1.67-.69 3.45-1.05 5.26-1.06 2.34.02 4.65.6 6.7 1.7l114.2 63.4c2.98 1.62 5.25 4.29 6.37 7.49 1.13 3.19 1.01 6.69-.3 9.82a13.8 13.8 0 0 1-6.07 6.79l-114.2 63.5a13.67 13.67 0 0 1-18.62-5.16 13.6 13.6 0 0 1-1.77-6.84M411.3 438.81H109.39c-3.79-.16-7.38-1.78-10.01-4.52a14.68 14.68 0 0 1-4.11-10.19c0-3.8 1.47-7.45 4.11-10.18 2.63-2.75 6.22-4.37 10.01-4.52H411.3c3.8.15 7.38 1.77 10.02 4.52 2.63 2.73 4.09 6.38 4.09 10.18s-1.46 7.45-4.09 10.19a14.77 14.77 0 0 1-10.02 4.52" style="fill:currentcolor" /><path d="M456.4 387H66.49c-5.11 0-10.17-1.01-14.89-2.96a38.8 38.8 0 0 1-12.62-8.43c-3.61-3.61-6.48-7.9-8.43-12.62a38.8 38.8 0 0 1-2.96-14.89V127.4c0-5.11 1-10.17 2.96-14.89 1.95-4.72 4.82-9.01 8.43-12.62s7.9-6.48 12.62-8.43c4.72-1.96 9.78-2.96 14.89-2.96H456.4c5.1 0 10.17 1 14.89 2.96 4.72 1.95 9.01 4.82 12.62 8.43s6.48 7.9 8.43 12.62 2.95 9.78 2.95 14.89v220.7a38.96 38.96 0 0 1-11.4 27.49A39 39 0 0 1 456.4 387M66.39 113.7a13.826 13.826 0 0 0-13.8 13.8v220.6a13.826 13.826 0 0 0 13.8 13.8H456.3c3.66-.01 7.16-1.46 9.75-4.05s4.04-6.09 4.04-9.75V127.4c0-3.66-1.45-7.16-4.04-9.75a13.83 13.83 0 0 0-9.75-4.05H66.39z" style="fill:currentcolor" /></svg>