<svg xmlns="http://www.w3.org/2000/svg" viewBox="0 0 512 512"><path d="M456.4 387H66.49c-5.11 0-10.17-1-14.89-2.96a38.8 38.8 0 0 1-12.62-8.43c-3.61-3.61-6.48-7.9-8.43-12.62a38.8 38.8 0 0 1-2.96-14.89V127.4c0-5.11 1-10.17 2.96-14.89 1.95-4.72 4.82-9.01 8.43-12.62s7.9-6.48 12.62-8.43 9.78-2.96 14.89-2.96H456.4c5.1 0 10.17 1.01 14.89 2.96s9.01 4.82 12.62 8.43 6.48 7.9 8.43 12.62 2.95 9.78 2.95 14.89v220.7a38.98 38.98 0 0 1-11.4 27.49A38.96 38.96 0 0 1 456.4 387M209.89 160.5c-1.8.01-3.59.37-5.26 1.07-1.67.69-3.18 1.71-4.45 2.99a13.7 13.7 0 0 0-2.96 4.47c-.68 1.67-1.03 3.46-1.02 5.27v126.9c-.03 3.62 1.38 7.11 3.92 9.69 2.55 2.58 6 4.05 9.62 4.08h.12c2.36 0 4.69-.61 6.73-1.77l114.2-63.5c1.77-.96 3.29-2.3 4.49-3.92 1.18-1.62 2-3.47 2.39-5.43a13.77 13.77 0 0 0-2.76-11.3 13.6 13.6 0 0 0-4.12-3.45l-114.2-63.4c-2.05-1.1-4.36-1.68-6.7-1.7M411.3 438.81H109.39c-3.79-.16-7.38-1.78-10.01-4.52a14.68 14.68 0 0 1-4.11-10.19c0-3.8 1.47-7.45 4.11-10.19a14.7 14.7 0 0 1 10.01-4.51H411.3c3.8.15 7.38 1.77 10.02 4.51 2.63 2.74 4.09 6.39 4.09 10.19s-1.46 7.45-4.09 10.19a14.77 14.77 0 0 1-10.02 4.52" style="fill:currentcolor" /></svg>