<svg xmlns="http://www.w3.org/2000/svg" viewBox="0 0 512 512"><path d="M255.99 178.24c14.96-59.06 71.48-89.22 194.52-89.76 1.97-.01 3.92.37 5.72 1.11 1.83.76 3.49 1.85 4.88 3.24 1.38 1.39 2.49 3.05 3.24 4.87.75 1.81 1.13 3.77 1.12 5.74v269.31c0 1.96-.39 3.92-1.14 5.74-.75 1.81-1.86 3.46-3.24 4.85a15.1 15.1 0 0 1-4.86 3.24 15.2 15.2 0 0 1-5.72 1.13c-119.7 0-165.94 24.15-194.52 59.86-28.39-35.54-74.8-59.86-194.5-59.86-9.24 0-14.97-7.53-14.97-16.75V103.44c0-1.97.38-3.92 1.13-5.74 1.14-2.73 3.05-5.08 5.52-6.72 2.46-1.64 5.36-2.51 8.32-2.5 123.04.54 179.54 30.7 194.5 89.76M256.29 165.9v282" style="stroke:currentcolor;stroke-linecap:round;stroke-linejoin:round;stroke-width:34;fill:none" /></svg>