<svg xmlns="http://www.w3.org/2000/svg" viewBox="0 0 512 512"><path d="m289.9 256 95-95c4.5-4.52 7-10.63 7.1-17 0-6.37-2.5-12.5-7-17.02-4.5-4.51-10.6-7.07-17-7.08-3.2-.01-6.3.61-9.2 1.81s-5.6 2.97-7.8 5.2l-95 95-95-95c-3.4-3.34-7.6-5.61-12.3-6.52-4.6-.91-9.4-.42-13.8 1.4-4.4 1.79-8.1 4.86-10.8 8.82-2.6 3.93-4 8.57-4 13.33-.1 3.14.5 6.28 1.7 9.18 1.2 2.92 3 5.58 5.2 7.78l95 95.01-95 95c-2.8 2.8-4.8 6.24-6 10.01-1.1 3.79-1.3 7.79-.5 11.65.8 3.87 2.5 7.48 5 10.52 2.5 3.05 5.8 5.42 9.4 6.93a24.2 24.2 0 0 0 13.8 1.39c4.7-.92 8.9-3.18 12.3-6.5l95-95.01 95 95.01c3.4 3.33 7.6 5.59 12.3 6.51 4.6.91 9.4.42 13.8-1.4 4.4-1.8 8.1-4.86 10.8-8.82 2.6-3.94 4-8.58 4-13.33.1-3.15-.5-6.28-1.7-9.2-1.2-2.9-3-5.55-5.2-7.76z" style="fill:currentcolor" /></svg>