<svg xmlns="http://www.w3.org/2000/svg" viewBox="0 0 512 512"><path d="m415.51 404.55.37-.04h.04l.87-.13a90.47 90.47 0 0 0 57.91-30.97 90.45 90.45 0 0 0 21.74-61.95 90.46 90.46 0 0 0-25.86-60.36 90.44 90.44 0 0 0-59.86-26.99l-6.41-.37-.13-6.42c-1.62-73.55-63.07-133.4-136.96-133.4-66.36 0-123.06 47.13-134.82 112.05l-1.1 6.02-6.11-.32c-1.86-.1-3.72-.15-5.62-.16-56.34 0-102.21 45.68-102.21 101.8-.08 25.45 9.42 50 26.59 68.77 17.19 18.77 40.8 30.4 66.14 32.58l.08.01c3.17.29 6.34.43 9.4.43 3.12 0 6.3-.14 9.5-.44l.32-.03h.32l265.2-.1h.37l.36.03c3.3.36 6.6.54 9.91.54 3.33 0 6.66-.19 9.97-.55m-20.6-16.34-265.21.12c-.71 0-1.42.03-2.11.09-2.7.24-5.4.37-8.02.37-2.57 0-5.24-.12-7.91-.37a85.2 85.2 0 0 1-55.61-27.34 85.24 85.24 0 0 1-22.37-57.77c0-47.14 38.53-85.49 85.89-85.49 1.6 0 3.18.05 4.76.13.42.02.83.03 1.25.03a23.2 23.2 0 0 0 14.9-5.4c4.18-3.5 7-8.35 7.98-13.71 10.33-57.15 60.29-98.63 118.75-98.63 65.1 0 119.22 52.68 120.65 117.44.15 5.84 2.49 11.42 6.55 15.62 4.06 4.21 9.55 6.74 15.39 7.09 18.56.96 36.08 8.85 49.11 22.11a74.2 74.2 0 0 1 21.22 49.5 74.2 74.2 0 0 1-17.82 50.82 74.23 74.23 0 0 1-47.51 25.38l-.61.08c-2.87.33-5.76.5-8.65.51-2.72 0-5.44-.15-8.15-.45-.83-.09-1.66-.13-2.49-.13" style="fill:currentcolor" /><path d="M321.4 209.83a11.41 11.41 0 0 0-13.69-8.54c-2.95.68-5.49 2.5-7.09 5.07s-2.13 5.66-1.44 8.62l25 108.08c.72 2.9 2.56 5.41 5.1 6.97 2.55 1.56 5.61 2.06 8.53 1.4 2.92-.69 5.45-2.48 7.06-5.01a11.44 11.44 0 0 0 1.52-8.5zM277.04 198.14c-3.02.01-5.93 1.21-8.06 3.35a11.42 11.42 0 0 0-3.35 8.07V320.5c.1 2.95 1.34 5.77 3.46 7.83 2.12 2.07 4.97 3.22 7.95 3.22a11.39 11.39 0 0 0 11.39-11.05V209.56c0-1.51-.29-2.99-.86-4.38-.87-2.08-2.33-3.87-4.21-5.12a11.47 11.47 0 0 0-6.34-1.92M200.43 198.14c-1.5 0-2.98.29-4.37.87-1.38.57-2.64 1.42-3.71 2.47a11.5 11.5 0 0 0-2.46 3.7c-.58 1.39-.87 2.87-.87 4.38V320.5a11.47 11.47 0 0 0 3.45 7.83c2.14 2.07 4.99 3.22 7.96 3.22 2.96 0 5.81-1.15 7.94-3.22a11.47 11.47 0 0 0 3.45-7.83V209.56c0-1.51-.29-2.99-.87-4.38-.58-1.38-1.41-2.64-2.47-3.7a11.4 11.4 0 0 0-3.7-2.46c-1.38-.58-2.86-.88-4.36-.88M238.73 220.51c-3.02.01-5.91 1.21-8.05 3.35a11.4 11.4 0 0 0-3.35 8.05v88.6c.09 2.95 1.32 5.77 3.45 7.83 2.13 2.08 4.98 3.22 7.94 3.22 2.97 0 5.82-1.14 7.94-3.22 2.13-2.06 3.36-4.88 3.45-7.83v-88.6c-.01-3.02-1.2-5.91-3.35-8.05a11.4 11.4 0 0 0-8.04-3.35" style="fill:currentcolor" /></svg>