<svg xmlns="http://www.w3.org/2000/svg" viewBox="0 0 512 512"><path d="M472.7 189.51c-13.3-8.4-29.8-14.6-48.1-17.9-3-.6-5.9-2.07-8.1-4.2-2.2-2.19-3.8-4.97-4.5-8.01-7.9-34.49-24.6-64.09-49.1-86.59-28.8-26.21-66.7-40.7-106.9-40.7-35.5 0-68.1 11.1-94.4 32-17.8 14.2-32.2 32.25-41.9 52.8-1.1 2.3-2.8 4.32-4.8 5.89-2 1.55-4.4 2.63-6.9 3.11-27.1 4.89-50.5 14.7-68.5 28.7C13.7 174.91 0 203.7 0 237.71c0 67.4 55.9 114.4 136 114.4h72v-83c0-12.74 5.1-24.94 14-33.95 9.1-8.99 21.3-14.05 34-14.05s24.8 5.06 33.9 14.05c9 9.01 14.1 21.21 14.1 33.95v83h92c72.6 0 116-34.2 116-91.6 0-30.21-13.6-54.71-39.3-71" style="fill:currentcolor" /><path d="M256 253.01c-4.3.01-8.3 1.7-11.3 4.7s-4.7 7.06-4.7 11.3v156.4l-36.7-36.6c-1.5-1.44-3.3-2.6-5.2-3.39-1.9-.77-4-1.15-6.1-1.11-4.3.03-8.2 1.7-11.2 4.68-1.5 1.46-2.6 3.22-3.4 5.14-.8 1.94-1.2 3.99-1.2 6.07 0 4.2 1.6 8.25 4.5 11.3l64 63.91c1.5 1.49 3.1 2.69 5.1 3.48 1.9.81 4.1 1.22 6.2 1.22s4.2-.41 6.1-1.22c2-.79 3.7-1.99 5.2-3.48l64-63.91c1.5-1.48 2.6-3.25 3.4-5.19.7-1.96 1.1-4.02 1.1-6.11 0-3.12-.9-6.17-2.7-8.78-1.7-2.61-4.1-4.66-7-5.89-1.9-.81-4-1.23-6.1-1.22-4.2-.03-8.4 1.59-11.3 4.5l-36.7 36.6v-156.4c0-2.11-.4-4.18-1.2-6.14-.8-1.94-2-3.7-3.5-5.18-1.5-1.49-3.3-2.66-5.2-3.47-1.9-.8-4-1.21-6.1-1.21" style="fill:currentcolor" /></svg>