<svg xmlns="http://www.w3.org/2000/svg" viewBox="0 0 512 512"><path d="M413.91 80H98.3a53.42 53.42 0 0 0-37.66 15.65A53.4 53.4 0 0 0 45 133.31V379.5a53.41 53.41 0 0 0 53.3 53.31h315.61c14.12-.04 27.67-5.65 37.65-15.65a53.37 53.37 0 0 0 15.64-37.66V133.31a53.4 53.4 0 0 0-15.66-37.64A53.43 53.43 0 0 0 413.91 80m19.79 299.5a19.8 19.8 0 0 1-5.81 13.99c-3.71 3.72-8.73 5.8-13.98 5.81H98.3a19.8 19.8 0 0 1-13.99-5.81c-3.71-3.71-5.8-8.74-5.81-13.99V133.31c.01-5.25 2.1-10.28 5.81-13.99 3.71-3.72 8.74-5.81 13.99-5.81h315.61c5.25 0 10.27 2.09 13.98 5.81 3.72 3.71 5.8 8.74 5.81 13.99z" style="fill:currentcolor" /><path d="M128.7 184.6h204.6c4.18-.28 8.1-2.15 10.96-5.21 2.86-3.07 4.44-7.1 4.44-11.29 0-4.18-1.58-8.21-4.44-11.28a16.6 16.6 0 0 0-10.96-5.22H128.7a16.55 16.55 0 0 0-15.4 16.5c0 4.19 1.59 8.22 4.45 11.29 2.85 3.06 6.77 4.93 10.95 5.21M218.4 299.2h-89.7c-4.19.29-8.11 2.16-10.98 5.24a16.56 16.56 0 0 0-4.46 11.32c0 4.19 1.59 8.24 4.46 11.31 2.87 3.08 6.79 4.94 10.98 5.23h87.8c4.19-.29 8.11-2.15 10.98-5.23 2.86-3.07 4.46-7.12 4.46-11.31 0-4.21-1.6-8.25-4.46-11.32a16.56 16.56 0 0 0-10.98-5.24M335.41 223.41H128.7c-4.19.29-8.11 2.15-10.98 5.22a16.63 16.63 0 0 0-4.46 11.32c0 4.21 1.59 8.26 4.46 11.32a16.6 16.6 0 0 0 10.98 5.24h205.1a16.6 16.6 0 0 0 10.98-5.24 16.54 16.54 0 0 0 4.46-11.32c0-4.19-1.59-8.23-4.46-11.32a16.6 16.6 0 0 0-10.98-5.22" style="fill:currentcolor" /></svg>