<svg xmlns="http://www.w3.org/2000/svg" viewBox="0 0 512 512"><path d="M255.99 279.99c5.57.02 10.97-1.9 15.28-5.41 4.33-3.54 7.29-8.44 8.37-13.91 1.1-5.46.27-11.13-2.34-16.03a23.94 23.94 0 0 0-12-10.91 24 24 0 0 0-16.2-.82 24.064 24.064 0 0 0-16.99 25.37c.54 5.55 2.99 10.72 6.94 14.67 4.49 4.5 10.58 7.02 16.94 7.04" style="fill:currentcolor" /><path d="M255.99 48c-114.7 0-208.01 93.3-208.01 208 0 114.69 93.31 207.99 208.01 207.99S464 370.69 464 256c0-114.7-93.31-208-208.01-208m105.1 113.4-46.9 117.2A63.2 63.2 0 0 1 300 300.1a66.1 66.1 0 0 1-21.5 14.2l-117.21 46.89c-1.46.59-3.06.73-4.6.4a8.56 8.56 0 0 1-4.1-2.2 7.8 7.8 0 0 1-2.2-4.1c-.32-1.53-.18-3.13.4-4.59l46.9-117.2c3.2-8.07 8.05-15.39 14.21-21.5a66 66 0 0 1 21.49-14.2l117.2-46.9c1.46-.59 3.06-.73 4.6-.4a8.65 8.65 0 0 1 4.1 2.2c1.14 1.1 1.9 2.53 2.2 4.09.32 1.55.18 3.15-.4 4.61" style="fill:currentcolor" /></svg>