<svg xmlns="http://www.w3.org/2000/svg" viewBox="0 0 512 512"><path d="M448 256c0-106-86.01-192-192.01-192s-192 86-192 192 86 192 192 192S448 362 448 256Z" style="fill:none;stroke:currentcolor;stroke-miterlimit:10;stroke-width:32" /><path d="m350.7 150.9-117.21 46.9A63.1 63.1 0 0 0 212 211.99a66.2 66.2 0 0 0-14.21 21.51L150.9 350.7c-.6 1.45-.73 3.05-.41 4.6a8.8 8.8 0 0 0 2.2 4.1 7.85 7.85 0 0 0 4.11 2.2 8 8 0 0 0 4.59-.4l117.21-46.9c8.06-3.2 15.39-8.04 21.5-14.21a66.2 66.2 0 0 0 14.2-21.49l46.89-117.2c.59-1.46.73-3.07.4-4.6a8.65 8.65 0 0 0-2.2-4.1 8.06 8.06 0 0 0-4.08-2.2 8.07 8.07 0 0 0-4.61.4M255.99 280c-4.72.01-9.36-1.38-13.3-4.01a23.4 23.4 0 0 1-8.8-10.79 24.43 24.43 0 0 1-1.39-13.91c.9-4.67 3.21-8.95 6.6-12.29 2.22-2.23 4.86-4 7.77-5.22 2.91-1.21 6.03-1.83 9.18-1.84 3.16 0 6.28.62 9.19 1.82 2.92 1.2 5.57 2.95 7.8 5.18 2.24 2.23 4 4.87 5.23 7.79 1.2 2.91 1.82 6.03 1.83 9.18 0 3.16-.62 6.28-1.81 9.19a23.9 23.9 0 0 1-5.2 7.8 24.36 24.36 0 0 1-17.1 7.1" style="fill:currentcolor" /></svg>