<svg xmlns="http://www.w3.org/2000/svg" viewBox="0 0 512 512"><path d="M310.18 148.093c9.43-9.353 24.67-9.318 34.05.074l98.32 98.426.02.012.03.038.03.024a24.1 24.1 0 0 1 5.22 7.825 24 24 0 0 1 1.79 8.754v.665c-.04 3.14-.68 6.135-1.82 8.874a24.5 24.5 0 0 1-2.17 4.066c-.87 1.3-1.88 2.535-3.02 3.683l-.01.011c-.02.021-.05.042-.07.064l-98.32 98.425c-9.38 9.393-24.62 9.427-34.05.075-9.42-9.352-9.45-24.548-.07-33.941l57.5-57.568H179.59c-13.29 0-24.08-10.744-24.08-24 0-13.254 10.79-24 24.08-24h188.02l-57.5-57.566c-9.38-9.394-9.35-24.589.07-33.941M82.27 290.101c14.41 0 26.08-11.864 26.08-26.501 0-14.635-11.67-26.499-26.08-26.499S56.18 248.965 56.18 263.6c0 14.637 11.68 26.501 26.09 26.501" style="fill:currentcolor;fill-rule:evenodd;clip-rule:evenodd" /></svg>