<svg xmlns="http://www.w3.org/2000/svg" viewBox="0 0 512 512"><path d="M336 173.01h40c5.3 0 10.5 1.03 15.3 3.04 4.9 2 9.2 4.96 13 8.66 3.7 3.73 6.7 8.14 8.7 12.98 2 4.85 3 10.07 3 15.32v208c0 5.25-1 10.46-3 15.31s-5 9.25-8.7 12.98c-3.8 3.71-8.1 6.66-13 8.67-4.8 2.01-10 3.04-15.3 3.04H136c-5.4 0-10.5-1.03-15.3-3.04-4.9-2.01-9.3-4.96-13-8.67-3.7-3.73-6.8-8.13-8.8-12.98S96 426.26 96 421.01v-208c0-5.25.9-10.47 2.9-15.32 2-4.84 5.1-9.25 8.8-12.98 3.7-3.7 8.1-6.66 13-8.66 4.8-2.01 9.9-3.04 15.3-3.04h40" style="stroke:currentcolor;stroke-linecap:round;stroke-linejoin:round;stroke-width:32;fill:none" /><path d="m176 269.01 80 80 80-80M256 45.01v288" style="stroke:currentcolor;stroke-linecap:round;stroke-linejoin:round;stroke-width:32;fill:none" /></svg>