<svg xmlns="http://www.w3.org/2000/svg" viewBox="0 0 512 512"><path d="M170 138.39c28.72 0 51.99-23.28 51.99-51.99 0-28.72-23.27-52-51.99-52s-52 23.28-52 52c0 28.71 23.28 51.99 52 51.99M170 311.4c28.72 0 51.99-23.28 51.99-52s-23.27-52-51.99-52-52 23.28-52 52 23.28 52 52 52M170 490.4c28.72 0 51.99-23.74 51.99-53 0-29.28-23.27-53.01-51.99-53.01s-52 23.73-52 53.01c0 29.26 23.28 53 52 53M343 138.39c28.72 0 52-23.28 52-51.99 0-28.72-23.28-52-52-52s-52 23.28-52 52c0 28.71 23.28 51.99 52 51.99M343 311.4c28.72 0 52-23.28 52-52s-23.28-52-52-52-52 23.28-52 52 23.28 52 52 52M343 490.4c28.72 0 52-23.74 52-53 0-29.28-23.28-53.01-52-53.01s-52 23.73-52 53.01c0 29.26 23.28 53 52 53" style="fill:currentcolor" /></svg>