<svg viewBox="0 0 512 512" fill="none" xmlns="http://www.w3.org/2000/svg">
<path d="M469.39 134.54L377.1 42.47C375.48 40.76 373.52 39.39 371.36 38.46C369.19 37.52 366.86 37.02 364.5 37C362.17 37.01 359.86 37.4699 357.71 38.3799C355.57 39.2799 353.62 40.6 351.99 42.26L345.83 48.4099L340.24 53.9399L334.52 59.78L328.28 65.9299L283.18 110.94L282.76 111.29L276.73 117.14L271.01 122.82L265.15 128.67L259.29 134.69L83.8901 309.72C81.4601 312.1 79.1502 314.61 76.9702 317.23C67.7602 328.46 61.1098 341.57 57.5098 355.64C55.3998 363.77 53.3801 371.93 51.3301 380.09L49.0498 389.24C46.3498 399.97 43.6602 410.69 40.9902 421.42C40.1802 424.59 39.4001 427.78 38.6401 430.98L37 437.21V445.55L37.4399 447.45C38.1799 451.21 39.5199 454.84 41.3999 458.18C43.7699 462.35 47.0302 465.96 50.9302 468.76C54.8402 471.57 59.3 473.49 64.02 474.42L66.1299 475H74.5698L76.3901 474.59C79.1701 473.98 81.9299 473.27 84.6499 472.6L107.63 466.75L133.59 460.29L150.5 456.05H150.97C155.61 454.98 160.19 453.67 164.69 452.13C178.76 447.15 191.53 439.09 202.08 428.55L391.76 239.23L392.11 239.61L404.3 227.44C414.5 217.26 425.72 205.88 436.92 194.5C448.11 183.13 459.19 171.9 469.36 161.78C472.97 158.17 475 153.27 475 148.17C475 143.07 472.97 138.18 469.36 134.57M142.88 423.43H142.42L125.36 427.7L99.5098 434.17L76.4199 440.02L70.8198 441.39H70.6699L71.2598 438.91C72.0198 435.81 72.7498 432.68 73.5498 429.58C76.2198 418.85 78.9101 408.13 81.6001 397.4L83.9199 388.19C85.9399 380.12 87.93 372.07 90.04 364C90.81 361.01 91.79 358.08 92.98 355.23L154.7 419.87C154.23 420.04 153.79 420.28 153.29 420.45C150.15 421.59 146.58 422.44 142.83 423.38M182.6 400.39L113.4 327.88L282.94 158.67L289.04 152.5L294.9 146.65L295.31 146.24L366.26 217.17L182.6 400.39ZM412.89 170.9L392.37 191.61C374.38 173.39 340.73 139.49 320.98 120.53L352.08 89.6499L358.41 83.27L363.97 77.6599L364.38 77.25L435.57 148.15C428.27 155.49 420.68 163.21 413.09 170.9" fill="white"/>
</svg>
