<svg xmlns="http://www.w3.org/2000/svg" viewBox="0 0 512 512"><path d="M498.9 158.06V89c.2-6.28-1.4-12.49-4.6-17.78-2.8-4.73-6.7-8.6-11.4-11.21-4.6-2.61-9.9-3.87-15.3-3.64h-.1c-36 .09-72.1.09-108.2 0H247.6c-26.5 0-53 0-79.6-.12-2 .1-4 .36-6 .77-4.7.87-9.1 2.97-12.9 6.1-3.8 3.14-6.7 7.2-8.6 11.84-.7 1.69-1.3 3.45-1.7 5.24-.7 2.66-1.1 5.4-1.2 8.15v33.23h-31.2c-2 .05-4.1.27-6 .65-4.8.87-9.2 2.98-13 6.1-3.7 3.14-6.7 7.2-8.6 11.84-.7 1.69-1.2 3.46-1.7 5.26-.7 2.66-1.1 5.39-1.2 8.15v32.71H42.8c-2 .01-4 .18-6 .5-4.8.87-9.2 2.97-13 6.1-3.7 3.13-6.7 7.19-8.7 11.82-.7 1.71-1.2 3.47-1.7 5.27-.6 2.66-1 5.4-1.1 8.16v194.91c-.2 6.29 1.4 12.5 4.8 17.8 2.7 4.69 6.6 8.54 11.2 11.15 4.7 2.61 9.9 3.88 15.1 3.7h.1c36.4-.12 72.7-.12 109 0h144.6c15.3 0 30.7 0 46 .15 2-.05 4-.26 6-.65 4.8-.9 9.2-2.99 13-6.12s6.7-7.19 8.6-11.82c.7-1.7 1.3-3.46 1.7-5.27l.1-.39c.6-2.55 1-5.18 1-7.82v-32.75c11.1 0 22.1.03 33.1.09 2.1-.04 4.2-.26 6.2-.65 4.7-.87 9.1-2.98 12.9-6.11 3.7-3.12 6.7-7.19 8.6-11.82.7-1.7 1.2-3.47 1.7-5.26l.1-.39c.6-2.57.9-5.19 1-7.83v-33.39c10.4 0 20.8 0 31.2.1 2-.05 4.1-.27 6.1-.66 4.7-.88 9.2-2.97 12.9-6.11 3.8-3.12 6.7-7.18 8.6-11.81.7-1.71 1.3-3.47 1.7-5.27l.1-.41c.6-2.56 1-5.19 1-7.83V158.06zM335.4 289.75v111.06c.2 3.76.3 8.43-5 9.14H57.6c-1 .15-2 .09-3-.19s-1.9-.77-2.7-1.44c-.6-.81-1.1-1.76-1.3-2.78-.3-1.02-.4-2.09-.2-3.14l.2-18.91v-53.34l.1-3.74v-95.1c-.2-4.22-.4-8.92 5-9.61.7-.07 1.3-.1 1.9-.09h270.8q1.5-.24 3 .18c1 .28 1.9.77 2.7 1.45.6.82 1 1.76 1.3 2.78.3 1.03.3 2.08.1 3.12l-.2 18.91v14.77zm63.6-64.68v43.3l.1 67.44v.3c.1 3.77.3 8.45-5.1 9.15-.5 0-1.3 0-2 .1h-18.4v-126.6c.1-4.32-.7-8.61-2.2-12.61s-3.8-7.63-6.7-10.68a30.5 30.5 0 0 0-10.2-7.04c-3.8-1.61-8-2.38-12.1-2.28h-.1c-36.1.11-72.1 0-108.2 0H114.3v-7.63c0-3.95 0-7.91-.1-11.86-.2-4.21-.4-8.91 5-9.59.5 0 1.2 0 1.9-.11H392c1-.15 2-.09 3 .19.9.29 1.8.78 2.6 1.45.7.82 1.1 1.76 1.4 2.77.3 1.02.3 2.09.2 3.13l-.3 18.91v14.77zm61.7-65.05v43.29l.1 67.44v.32c.1 3.77.3 8.45-5.1 9.14-.5 0-1.3 0-2 .11h-16.5V154.05c.1-4.31-.7-8.59-2.2-12.6-1.6-4-3.9-7.63-6.8-10.68-2.9-3.04-6.3-5.44-10.1-7.04-3.8-1.61-7.9-2.38-12.1-2.29h-.1c-36.1.11-72.1.11-108.2 0h-37.4l-74.4.14h-10v-8.15c0-3.97 0-7.93-.1-11.86-.1-4.24-.3-8.91 5.1-9.62.5 0 1.2 0 1.9-.09h271c.9-.16 2-.09 2.9.18 1 .28 1.9.78 2.7 1.45.6.82 1.1 1.77 1.3 2.79.3 1.01.3 2.07.1 3.11l-.2 18.93v14.78z" style="fill:currentcolor" /><path d="m253.8 311.24-81.7 49.65c-.8.51-1.7.78-2.7.78-.9.01-2-.25-2.8-.74-.8-.5-1.5-1.21-2-2.08-.5-.86-.8-1.84-.8-2.85v-99.38c0-1.01.3-1.99.8-2.86.5-.86 1.2-1.57 2-2.07.8-.49 1.9-.76 2.8-.74 1 0 1.9.27 2.7.77l81.7 49.56c.8.51 1.5 1.23 2 2.1.5.88.7 1.87.7 2.88s-.2 2.01-.7 2.88-1.2 1.6-2 2.1" style="fill:currentcolor;fill-rule:evenodd;clip-rule:evenodd" /></svg>