<svg viewBox="0 0 512 512" fill="none" xmlns="http://www.w3.org/2000/svg">
<path d="M326.21 166.46V121.53C326.21 109.72 321.52 98.39 313.17 90.04C304.82 81.69 293.49 77 281.68 77H66.5298C54.7198 77 43.39 81.69 35.04 90.04C26.69 98.39 22 109.72 22 121.53V389.94C22 401.75 26.69 413.07 35.04 421.42C43.39 429.77 54.7198 434.47 66.5298 434.47H281.28C293.09 434.47 304.42 429.77 312.77 421.42C321.12 413.07 325.81 401.75 325.81 389.94V345.41" stroke="white" stroke-width="32" stroke-linecap="round" stroke-linejoin="round"/>
<path d="M397.81 166.46L487.27 255.91L397.81 345.41" stroke="white" stroke-width="32" stroke-linecap="round" stroke-linejoin="round"/>
<path d="M177.8 255.109H489.49" stroke="white" stroke-width="32" stroke-linecap="round" stroke-linejoin="round"/>
</svg>
