<svg xmlns="http://www.w3.org/2000/svg" viewBox="0 0 512 512"><path d="M433.8 255.8c.1 25.79 0 51.6.1 77.5z" style="fill:currentcolor" /><path d="M469.3 137.3c0-11.6-4.49-20.1-14.2-26.61-4.7-3.19-10.3-4.7-17-4.7h-364a30.06 30.06 0 0 0-17 4.7c-9.7 6.51-14.21 15.01-14.21 26.61v.09c.1 38.21.13 76.41.1 114.61v74.7c0 16.3 0 32.5-.1 48.8-.04 2.02.16 4.03.6 6 .85 4.75 2.84 9.21 5.82 13a29.2 29.2 0 0 0 11.29 8.7c1.66.68 3.36 1.25 5.1 1.7 2.57.72 5.22 1.09 7.89 1.1h46.71l14.8-34.8-33.4-.2c-3.91 0-7.9-.11-11.9.09-4.21.2-10.51.4-11.3-6.7-.09-.8-.12-1.6-.1-2.4V149.9c0-2.4 0-5.01 2.1-7.1 2.09-2.1 4.79-2.1 7.1-2l34.69.2H390.4l34.71-.2c2.29 0 4.99 0 7.09 2 2.11 2.09 2.11 4.8 2.11 7.1v212.2c.02.8-.01 1.6-.1 2.4-.91 7.19-7.11 6.9-11.31 6.7-3.89-.2-7.9-.11-11.9-.11l-26.7.2 16 34.81H439c2.67-.07 5.32-.44 7.9-1.1 1.76-.38 3.47-.95 5.1-1.71a28.86 28.86 0 0 0 11.3-8.69c2.98-3.77 4.98-8.25 5.8-13 .48-1.97.68-3.99.6-6.01-.1-16-.1-32-.1-48V252.1c0-38.2-.1-76.41.1-114.6-.4-.11-.4-.2-.4-.2" style="fill:currentcolor" /><path d="M339 336.8c-4.8-15.31-4.9-15.31-20.8-14.4h-.5c-2.9 0-4.41 1-3.6 4.29 1.1 4.61-1 8.1-4.4 11.11-4.8 4.2-10.5 6.59-16.5 8.39-17.9 5.4-36.1 5.7-54.3 2.91-10.1-1.6-20.1-4-28.4-10.81-3-2.49-5.2-5.3-5.3-9.3-.1-6.59-.1-6.59-7.11-6.59-1.66.09-3.33.09-4.99 0-5.6-.4-8.6 2.09-10.21 7.39-5.9 19.6-12.2 39.1-18.2 58.7a42 42 0 0 0-1.99 9.81c-.3 4.1 1.4 6.7 6 6.9 4.5.09 9 .69 13.6.69 26 .11 52.09 0 78.1 0 27.5 0 55.1.11 82.6 0 14.6-.09 16.6-2.89 12.3-16.8-5.3-17.4-10.8-34.8-16.3-52.29M226.1 258.09c-2.9 10.01-5.9 20.01-8.9 29.91-2.3 7.4-1.3 10.1 5.7 13.7 3 1.46 6.11 2.7 9.3 3.7a76.7 76.7 0 0 0 27.4 3.09c3.7.18 7.4.14 11.1-.09 10.2-1 20.4-2.4 29.2-8.3 2.6-1.71 5.1-3.91 4.11-7.4-3.41-11.91-7.11-23.8-10.71-35.7-.5-1.6-1-2.7-3.2-1.6-14.1 6.8-29 6.2-43.9 4.7-5.2-.5-10.5-1.21-14.9-4.1-3.3-2-4.2-1.1-5.2 2.09M276.69 216.39c3.1-.8 3.91-2.69 2.91-5.69-1.7-5.3-3.1-10.6-4.8-15.9-3.1-9.5-4.6-10.5-14.4-10.5-10.6 0-12.7 1.49-15.7 11.6-1.51 5-2.9 10-4.51 14.9-.89 2.8-.09 4.59 2.71 5.39 11.07 2.93 22.7 3 33.79.2" style="fill:currentcolor" /></svg>