<svg xmlns="http://www.w3.org/2000/svg" viewBox="0 0 512 512"><path d="M432.1 448c-2.1.01-4.2-.4-6.1-1.2-2.1-.79-3.8-1.98-5.3-3.5L68.8 91.29c-2.9-3.03-4.4-7.03-4.4-11.19 0-2.07.4-4.12 1.2-6.04.8-1.9 2-3.63 3.5-5.07 3-2.9 6.9-4.58 11-4.69 2.1-.05 4.1.32 6 1.06 2 .77 3.7 1.9 5.2 3.34l352 352c2.2 2.23 3.8 5.07 4.4 8.16.6 3.11.3 6.31-.9 9.24-1.2 2.91-3.3 5.42-5.8 7.19-2.6 1.8-5.7 2.75-8.9 2.71M248.1 315.89l-51.8-51.79c-.3-.3-.7-.51-1.1-.6s-.8-.01-1.2.2c-.4.19-.7.5-.9.9-.2.36-.3.79-.2 1.2 2.1 13.44 8.3 25.88 17.9 35.49 9.7 9.63 22.1 15.93 35.6 18 .4.09.8.01 1.2-.2.4-.19.7-.5.9-.89.2-.38.2-.79.2-1.2-.1-.41-.3-.79-.6-1.11M264 196.19l52 51.91c.3.29.7.5 1.1.6.4.08.8.01 1.2-.2.4-.19.7-.51.9-.9.2-.37.3-.8.2-1.21-2.1-13.44-8.4-25.88-18.1-35.49-9.6-9.63-22-15.94-35.5-18-.4-.08-.8-.01-1.2.2-.4.19-.7.51-.9.9-.2.35-.3.78-.2 1.19 0 .19.1.38.1.56.1.16.3.31.4.44" style="fill:currentcolor" /><path d="M491.1 273.4c3.3-5.19 5.1-11.24 5-17.4 0-6.17-1.8-12.21-5.1-17.4-26.5-40.9-60.8-75.7-99.4-100.51C349.1 110.6 302 96 255.7 96c-24.5.01-48.8 3.98-71.8 11.8-.6.23-1.2.61-1.8 1.09-.5.49-.8 1.13-.9 1.81-.2.65-.2 1.34 0 2 .1.65.5 1.25 1 1.69l47.3 47.21c.4.52 1 .87 1.7.99.7.2 1.3.2 2 0 16.1-3.91 32.8-3.64 48.7.8 15.8 4.44 30.4 12.91 41.9 24.57 11.8 11.65 20.3 26.12 24.7 42 4.3 15.86 4.6 32.63.8 48.64-.2.64-.2 1.35 0 2 .2.66.5 1.29 1 1.8l67.8 68c.7.69 1.7 1.12 2.7 1.2 1 .06 2-.27 2.8-.91 26.3-22.17 49.1-48.23 67.5-77.29M256.1 352c-14.6.03-28.9-3.25-42-9.59-13.1-6.33-24.5-15.54-33.6-26.96-9-11.41-15.2-24.72-18.3-38.92-3.1-14.19-2.9-28.92.5-43.04.2-.65.2-1.34 0-1.99-.2-.69-.5-1.31-1-1.8l-66.8-66.91c-.7-.68-1.7-1.11-2.7-1.2-1.1-.06-2.1.27-2.9.91-24.3 20.8-46.9 46.02-67.7 75.7-3.6 5.19-5.5 11.36-5.6 17.69s1.6 12.55 5 17.91c26.5 41.29 60.4 76.09 98.3 100.7 42.8 27.59 88.5 41.59 136.4 41.59 24.7-.08 49.1-4 72.5-11.59.7-.21 1.2-.6 1.7-1.11.5-.5.8-1.12 1-1.79.2-.66.2-1.35 0-2-.2-.69-.5-1.31-1-1.8l-47.4-47.51c-.5-.48-1.1-.84-1.8-1-.7-.2-1.3-.2-2 0-7.5 1.8-15.1 2.71-22.6 2.71" style="fill:currentcolor" /></svg>