<svg xmlns="http://www.w3.org/2000/svg" viewBox="0 0 512 512"><path d="M256.1 320c14.7 0 29.2-5.13 40.6-14.52 11.4-9.4 19.3-22.47 22.2-36.99 2.9-14.53.7-29.61-6.3-42.67-7.1-13.06-18.3-23.3-32-28.97s-28.9-6.42-43.2-2.12c-14 4.29-26.4 13.37-34.5 25.69-8.2 12.31-11.9 27.1-10.5 41.84 1.5 14.74 8 28.51 18.4 38.99 5.9 5.95 13 10.66 20.8 13.88 7.7 3.22 16 4.87 24.5 4.87" style="fill:currentcolor" /><path d="M490.8 238.6c-26.4-40.9-60.8-75.7-99.3-100.5C349 110.6 301.9 96 255.7 96c-42.6 0-84.3 12.09-124.3 36.1-40.8 24.39-77.6 60.1-109.7 106.1a32.06 32.06 0 0 0-5.7 17.71c-.1 6.34 1.7 12.56 5.1 17.89 26.4 41.3 60.4 76.09 98.2 100.7 42.8 27.6 88.5 41.6 136.4 41.6 46.6 0 93.8-14.4 136.1-41.71 38.5-24.79 72.8-59.69 99.1-100.89 3.4-5.24 5.1-11.3 5.1-17.46 0-6.19-1.8-12.23-5.2-17.44M256.1 352c-14.3.02-28.2-3.13-41.2-9.19a98.2 98.2 0 0 1-33.2-25.87c-8.9-10.98-15.4-23.81-18.8-37.59-3.6-13.77-3.9-28.15-1.1-42.08 2.8-13.94 8.6-27.08 17-38.49 8.4-11.4 19.4-20.79 31.9-27.5 12.6-6.69 26.4-10.52 40.6-11.2 14.2-.69 28.3 1.77 41.5 7.22 17.4 7.34 32.5 19.64 43 35.4 9.7 14.46 15.3 31.25 16.1 48.6.8 17.36-3 34.6-11.3 49.93-8.2 15.32-20.3 28.13-35.3 37.08-14.8 8.93-31.9 13.67-49.2 13.69" style="fill:currentcolor" /></svg>