<svg xmlns="http://www.w3.org/2000/svg" viewBox="0 0 512 512"><path d="m46.49 107.29 160.3 186.7c2.37 2.77 3.71 6.26 3.8 9.91v113.4c-.03 1.59.45 3.14 1.37 4.44a7.6 7.6 0 0 0 3.73 2.76l76.2 25.3c1.9.61 3.96.47 5.75-.41 1.8-.89 3.17-2.41 3.85-4.3.29-.8.42-1.65.4-2.49V303.8c.01-3.65 1.36-7.19 3.8-9.9L465.9 107.2c2.28-2.68 3.43-6.18 3.17-9.69-.26-3.52-1.91-6.8-4.58-9.11a13.13 13.13 0 0 0-8.6-3.21H56.78c-1.74 0-3.48.34-5.09 1-1.62.66-3.09 1.63-4.34 2.87a13.5 13.5 0 0 0-2.88 4.34c-.65 1.62-.99 3.34-.98 5.1a12.1 12.1 0 0 0 .62 4.7c.51 1.51 1.32 2.89 2.38 4.09" style="stroke:currentcolor;stroke-linecap:round;stroke-linejoin:round;stroke-width:32;fill:none" /></svg>