<svg xmlns="http://www.w3.org/2000/svg" viewBox="0 0 512 512"><path d="m46.49 107.4 160.3 186.7c2.37 2.75 3.71 6.26 3.8 9.9v113.4c-.03 1.59.45 3.13 1.37 4.44a7.4 7.4 0 0 0 3.73 2.75l76.2 25.3a7.694 7.694 0 0 0 9.6-4.69c.29-.8.42-1.65.4-2.5V304c.01-3.65 1.36-7.19 3.8-9.9L465.9 107.4c2.28-2.69 3.43-6.18 3.17-9.69-.27-3.52-1.91-6.79-4.58-9.11a13.08 13.08 0 0 0-8.6-3.21H56.78c-1.74-.01-3.48.34-5.09.99-1.62.67-3.09 1.64-4.34 2.88a13.6 13.6 0 0 0-2.88 4.34c-.65 1.62-.99 3.34-.98 5.1-.17 3.18.89 6.3 3 8.7" style="fill:currentcolor" /></svg>