<svg xmlns="http://www.w3.org/2000/svg" viewBox="0 0 512 512"><path d="M288.1 250.85s16.6-16.57 82.8-16.57c66.3 0 82.7 16.57 82.7 16.57v1.25c-.1 98.43-16.7 131.28-82.7 131.28-66.2 0-82.8-33.1-82.8-132.53M56 252.1v-1.25s16.7-16.57 82.9-16.57 82.9 16.57 82.9 16.57c0 99.43-16.7 132.53-82.9 132.53-65.9 0-82.8-32.85-82.9-131.28m165.8 2.32c0-1.95 14.7-3.57 33.1-3.57 18.3 0 33.2 1.62 33.2 3.57zm191.9-83.39c6.4 5.1 58.1 74.77 58.1 74.77zm-315.2 0L40.4 245.8s51.6-69.67 58.1-74.77" style="stroke:currentcolor;stroke-linecap:round;stroke-linejoin:round;stroke-width:32;fill:none" /></svg>