<svg width="512" height="512" viewBox="0 0 512 512" fill="none" xmlns="http://www.w3.org/2000/svg">
<path d="M288.1 250.85C288.1 250.85 304.7 234.28 370.9 234.28C437.2 234.28 453.6 250.85 453.6 250.85V252.1C453.5 350.53 436.9 383.38 370.9 383.38C304.7 383.38 288.1 350.28 288.1 250.85ZM55.9999 252.1V250.85C55.9999 250.85 72.6999 234.28 138.9 234.28C205.1 234.28 221.8 250.85 221.8 250.85C221.8 350.28 205.1 383.38 138.9 383.38C72.9999 383.38 56.0999 350.53 55.9999 252.1ZM221.8 254.42C221.8 252.47 236.5 250.85 254.9 250.85C273.2 250.85 288.1 252.47 288.1 254.42H221.8ZM413.7 171.03C420.1 176.13 471.8 245.8 471.8 245.8L413.7 171.03ZM98.4999 171.03L40.3999 245.8C40.3999 245.8 91.9999 176.13 98.4999 171.03Z" stroke="white" stroke-width="32" stroke-linecap="round" stroke-linejoin="round"/>
</svg>
