<svg xmlns="http://www.w3.org/2000/svg" viewBox="0 0 512 512"><path d="M125.59 106.99h74.51c2.44 0 4.85.49 7.11 1.41 2.27.94 4.32 2.31 6.05 4.03a18.64 18.64 0 0 1 5.44 13.16v74.51a18.63 18.63 0 0 1-5.44 13.16 18.6 18.6 0 0 1-6.05 4.03c-2.26.93-4.67 1.41-7.11 1.41h-74.51c-2.44 0-4.85-.48-7.11-1.41a18.4 18.4 0 0 1-6.04-4.03 18.7 18.7 0 0 1-4.04-6.05c-.93-2.25-1.41-4.67-1.41-7.11v-74.51c0-2.44.46-4.86 1.4-7.12a18.4 18.4 0 0 1 4.03-6.05 18.5 18.5 0 0 1 6.05-4.04c2.26-.92 4.67-1.4 7.12-1.39M311.8 106.99h74.5c2.44 0 4.86.49 7.12 1.41 2.26.94 4.31 2.31 6.04 4.03a18.64 18.64 0 0 1 5.44 13.16v74.51a18.63 18.63 0 0 1-5.44 13.16 18.7 18.7 0 0 1-6.04 4.03c-2.26.92-4.68 1.41-7.12 1.41h-74.5c-2.44 0-4.86-.49-7.13-1.41-2.25-.94-4.3-2.3-6.04-4.03-1.72-1.74-3.1-3.79-4.02-6.05-.93-2.25-1.41-4.67-1.41-7.11v-74.51c.01-4.92 1.97-9.65 5.45-13.14a18.7 18.7 0 0 1 13.15-5.46M125.59 293.29h74.51c2.44 0 4.85.49 7.11 1.42 2.27.93 4.32 2.3 6.05 4.03s3.1 3.78 4.03 6.04 1.41 4.68 1.41 7.12v74.5c0 2.44-.48 4.86-1.41 7.12-.93 2.25-2.3 4.3-4.03 6.04a18.6 18.6 0 0 1-6.05 4.03c-2.26.92-4.67 1.41-7.11 1.41h-74.51c-2.44 0-4.85-.49-7.11-1.41a18.4 18.4 0 0 1-6.04-4.03c-1.74-1.74-3.1-3.79-4.04-6.04-.93-2.26-1.41-4.68-1.41-7.12v-74.5c0-2.45.46-4.87 1.4-7.13a18.4 18.4 0 0 1 4.03-6.05c1.72-1.73 3.78-3.1 6.05-4.03 2.26-.93 4.67-1.4 7.12-1.4M311.8 293.29h74.5c2.44 0 4.86.49 7.12 1.41 2.26.95 4.31 2.31 6.04 4.04s3.1 3.78 4.03 6.04 1.41 4.68 1.41 7.12v74.5c0 2.44-.48 4.86-1.41 7.12-.93 2.25-2.3 4.3-4.03 6.04a18.7 18.7 0 0 1-6.04 4.03c-2.26.92-4.68 1.41-7.12 1.41h-74.5c-2.44 0-4.86-.49-7.13-1.41-2.25-.94-4.3-2.3-6.04-4.03-1.72-1.74-3.1-3.79-4.02-6.04-.93-2.26-1.41-4.68-1.41-7.12v-74.5c.01-4.93 1.97-9.66 5.45-13.15 3.5-3.47 8.22-5.45 13.15-5.46" style="stroke:currentcolor;stroke-linecap:round;stroke-linejoin:round;stroke-width:37.252;fill:none" /></svg>