<svg xmlns="http://www.w3.org/2000/svg" viewBox="0 0 512 512"><path d="M48 116L84 116L84 396L48 396ZM132 116L168 116L168 396L132 396ZM84 240L132 240L132 276L84 276ZM196 116L256 116C296 116 336 156 336 206L336 306C336 356 296 396 256 396L196 396ZM232 152L248 152C272 152 300 180 300 206L300 306C300 332 272 360 248 360L232 360ZM364 116L400 116L400 396L364 396ZM400 116L440 116C472 116 498 136 498 172L498 216C498 252 472 272 440 272L400 272ZM400 152L432 152C452 152 462 160 462 172L462 216C462 228 452 236 432 236L400 236ZM432 272L472 272L504 396L464 396Z" fill="white" fill-rule="evenodd"/></svg>
