<svg xmlns="http://www.w3.org/2000/svg" viewBox="0 0 512 512"><path d="M28 116L64 116L64 396L28 396ZM112 116L148 116L148 396L112 396ZM64 240L112 240L112 276L64 276ZM176 116L236 116C276 116 316 156 316 206L316 306C316 356 276 396 236 396L176 396ZM212 152L228 152C252 152 280 180 280 206L280 306C280 332 252 360 228 360L212 360ZM344 116L380 116L380 396L344 396ZM380 116L420 116C452 116 478 136 478 172L478 216C478 252 452 272 420 272L380 272ZM380 152L412 152C432 152 442 160 442 172L442 216C442 228 432 236 412 236L380 236ZM380 272L420 272L452 396L412 396Z" fill="white" fill-rule="evenodd"/></svg>
