<svg xmlns="http://www.w3.org/2000/svg" viewBox="0 0 512 512"><path d="M356.96 56c-67.62 0-100.95 72.75-100.95 72.75S222.67 56 155.04 56c-26.44.47-51.66 12.27-70.19 32.86-18.54 20.6-28.89 48.32-28.85 77.17-1.14 124.37 90.35 212.61 190.62 286.83 2.77 2.05 6.03 3.15 9.37 3.15 3.35 0 6.61-1.1 9.38-3.15 100.27-74.22 191.75-162.65 190.61-286.83.05-28.85-10.31-56.56-28.85-77.16C408.61 68.28 383.4 56.48 356.96 56" style="stroke:currentcolor;stroke-linecap:round;stroke-linejoin:round;stroke-width:40;fill:none" /></svg>