<svg xmlns="http://www.w3.org/2000/svg" viewBox="0 0 512 512"><path d="M357.31 34.95c31.48.58 61.33 14.44 83.38 38.34l1.04 1.14h.01l1.03 1.17c21.42 24.39 33.28 56.72 33.29 90.23l.01 1.58c.44 135.21-99.51 228.9-199.13 302.63-6.12 4.53-13.43 6.99-20.94 6.99-7.56 0-14.85-2.47-20.96-7-100-74.01-200.35-167.96-199.1-304.2 0-34.05 12.24-66.88 34.32-91.41 22.15-24.62 52.47-38.89 84.44-39.47h.35c41.21 0 71.32 22.27 90.25 42.79 4.01 4.33 7.57 8.64 10.71 12.77 3.14-4.13 6.7-8.44 10.69-12.77 18.94-20.52 49.04-42.79 90.26-42.79z" style="fill:currentcolor" /></svg>