<svg xmlns="http://www.w3.org/2000/svg" viewBox="0 0 512 512"><path d="M153.06 434.533c98.6 56.9 224.6 23.1 281.5-75.4 56.9-98.6 23.1-224.6-75.4-281.5-98.6-56.9-224.61-23.1-281.5 75.401-56.9 98.599-23.21 224.599 75.4 281.499" style="stroke:currentcolor;stroke-linecap:round;stroke-linejoin:round;stroke-width:34.354;fill:none" /><path d="M221.75 315.632a68.683 68.683 0 0 0 102.59-67.312 68.68 68.68 0 0 0-22.94-43.79 68.72 68.72 0 0 0-46.42-17.039 68.7 68.7 0 0 0-45.82 18.539 68.68 68.68 0 0 0-21.5 44.513 68.69 68.69 0 0 0 34.09 65.089M317.76 59.334l-47.11 125.8M310.36 208.034l85.4-103.701M116.56 407.832l85.4-103.699M241.66 327.035l-47.11 125.8M452.86 317.733l-125.8-47.1M304.16 310.235l103.8 85.3M104.36 116.536l103.7 85.4M185.15 241.534l-125.79-47.2" style="stroke:currentcolor;stroke-linecap:round;stroke-linejoin:round;stroke-width:34.354;fill:none" /></svg>