<svg xmlns="http://www.w3.org/2000/svg" viewBox="0 0 512 512"><path d="M86.888 228.79v208.6c.012 2 .419 3.97 1.196 5.8a15.2 15.2 0 0 0 3.331 4.9 15.3 15.3 0 0 0 4.956 3.23c1.849.74 3.826 1.11 5.817 1.07h91.801V324.9a22.75 22.75 0 0 1 6.805-15.98 22.74 22.74 0 0 1 16.096-6.52h76.501c2.982-.03 5.939.52 8.705 1.65a22.8 22.8 0 0 1 7.408 4.85 22.6 22.6 0 0 1 4.986 7.33 22.7 22.7 0 0 1 1.802 8.67v127.49h91.798c2 .03 3.97-.33 5.82-1.08a15.4 15.4 0 0 0 4.96-3.23c1.41-1.4 2.55-3.06 3.33-4.89.77-1.83 1.18-3.8 1.19-5.8v-208.6" style="stroke:currentcolor;stroke-linecap:round;stroke-linejoin:round;stroke-width:32;fill:none" /><path d="M476.3 270.4 265.894 63.5a16.25 16.25 0 0 0-10.751-4.05c-3.956 0-7.776 1.43-10.749 4.05L34.19 270.4" style="stroke:currentcolor;stroke-linecap:round;stroke-linejoin:round;stroke-width:32;fill:none" /></svg>