<svg xmlns="http://www.w3.org/2000/svg" viewBox="0 0 512 512"><path d="M214.6 235.33c-31.8-58.12-54.8-118.17-16.4-184.8-4-2.98-7.6-6.29-11-9.92-.7-1.21-1.5-2.41-2.1-3.69-2.5-4.67-.6-11.02 4.4-12.54 10-3.03 23.7-1.25 33.4.17 73 11.86 143.2 36.67 207.5 73.23 7.2 4.34 13.8 9.56 19.7 15.56 7 7.19 4.8 12.76-5.3 14.59-5.9.83-11.8 1.32-17.9 1.57-10.7 76.04-65.9 109.27-125.6 134.84 6.8 16.09 13.9 31.45 20.1 47.09 16.7 36.59 19 78.14 6.3 116.32-.2.97-6.8 19.53 3.2 26.68 10.5 11.66 1.2 28.64-7.8 27.45-.4-.02-.8-.01-1.2.01-16.4-.25-32.9-1.67-49.2-4.22-63.8-12.39-125.5-34.54-182.8-65.67-8.5-5.22-16.8-11.03-24.6-17.39-2.9-2.16-4.9-5.27-5.7-8.77-.6-3.52-.1-7.15 1.7-10.27.7-3.21 2.6-6.01 5.3-7.88 2.7-1.86 5.9-2.7 9.2-2.36 10.9 1.21 13.3-3.78 15.7-13.63 9.7-35.18 32.7-65.22 64.1-83.81 18.8-12.15 39.1-21.65 59-32.56m84.5 195.46c11.7-21.88 15.4-47.18 10.4-71.49-5.9-31.82-18.6-61.98-37.2-88.51-7.8-12.47-4.8-20.19 8.6-26.07 21.5-8.88 42.5-19.12 62.8-30.62 27-15.3 46.9-40.64 55.3-70.53 4.5-16.24 3.1-17.04-12.7-21.31-29.9-8.16-59.9-16.18-89.2-26.14-23.1-7.97-45.5-18.53-67.9-28.37-7.2-3.11-11.1-2.45-15.2 5.26-11.1 22.85-14.2 48.8-8.6 73.59 6.6 30.91 19.4 60.22 37.2 86.33 1.7 1.92 2.9 4.29 3.4 6.81.5 2.54.3 5.16-.5 7.61-.9 2.44-2.4 4.59-4.4 6.26-2 1.65-4.4 2.74-6.9 3.17-7.9 2.9-16 5.82-23.7 9.2a175.1 175.1 0 0 0-83.8 65.26 67 67 0 0 0-12.6 37.64 89.3 89.3 0 0 0 22.9.79c20-4.64 58.4.13 84.9-13.49 7.7-2.33 15.8-2.29 23.5.12 7.6 2.4 14.4 7.06 19.3 13.37 13.1 14.45 13.8 25.99 24.2 42.57 6.3 9.36 0 14.61 10.2 18.55" style="fill:currentcolor" /><path d="M335.1 167.04c-1.5.21-3 .35-4.3.54-.2.02-.3.08-.6.11-28.4 6.25-58.2 3.92-85.2-6.72-.4-.12-.9-.29-1.2-.43-1.9-.4-3.6-.44-5.4-.12-1.8.29-3.5.96-5 1.95s-2.6 2.4-3.3 4.05c-1.6 3.62-1.9 7.66-1 11.5.1.45.2.88.4 1.3 7.1 17.78 14.9 35.15 23.2 52 .5 1.06 1.3 2 2.2 2.75 1.2 1.03 2.6 1.78 4.1 2.17 1.6.4 3.2.45 4.7.12.4-.05.8-.24 1.2-.34 27.5-10.09 52.7-25.56 74.2-45.49.3-.32.6-.54.9-.89 3.2-3.81 5.2-8.54 5.6-13.5 0-1.7-.5-3.35-1.5-4.73-1-1.45-2.3-2.61-3.9-3.35a9.7 9.7 0 0 0-5.1-.92M266.2 325.75c-.2 4.24-2 8.23-5.1 11.12-3.1 2.88-7.2 4.46-11.4 4.34-.1-.03-.3.03-.4-.01-3.2-.17-6.2-1.27-8.8-3.16-2.6-1.9-4.5-4.51-5.6-7.5s-1.3-6.26-.5-9.36 2.4-5.91 4.8-8.05c2.3-2.17 5.3-3.59 8.4-4.07 3.2-.52 6.4-.08 9.3 1.26 2.9 1.32 5.3 3.49 7 6.2 1.7 2.72 2.5 5.85 2.4 9.04 0 .02-.1.04-.1.08zM261.8 278.65c-.9 6.17-4 9.65-10.2 9.39-1.2.06-2.3-.11-3.4-.49-1.1-.34-2.1-.93-2.9-1.72a8 8 0 0 1-2.1-2.74c-.6-1.05-.8-2.16-.9-3.3 0-.62 0-1.24.1-1.86-.1-1.17.2-2.36.6-3.45.3-1.14.9-2.17 1.7-3.01s1.8-1.56 2.8-2.08c1.1-.51 2.2-.78 3.4-.83.6-.04 1.1-.03 1.7.05 6.1.21 8.9 4.12 9.2 10.04" style="fill:currentcolor" /></svg>