<svg xmlns="http://www.w3.org/2000/svg" viewBox="0 0 512 512"><path d="M294.505 217.499c-1.3-.7-3.801-.999-7.401-.999v77.899c4.8 0 7.8-.9 8.901-2.7 1.099-1.8 1.699-6.6 1.699-14.5v-46c0-5.399-.199-8.8-.6-10.3a5.3 5.3 0 0 0-.947-1.969 5.4 5.4 0 0 0-1.652-1.431M384 255.598v28.101c0 5.299-.3 8.699-.79 9.999-.5 1.4-3.2 2.1-5.01 2.1-1.79 0-4.29-.799-4.89-2.1v-47.6c.5-1.199 3.2-2 4.89-2 1.71 0 4.21.901 4.81 2.301.69 1.499.99 4.599.99 9.199" style="fill:currentcolor" /><path d="M44.989 176.399a26.38 26.38 0 0 1 16.294-24.397A26.4 26.4 0 0 1 71.39 150H440.6a26.37 26.37 0 0 1 18.67 7.722 26.5 26.5 0 0 1 5.73 8.569c1.31 3.205 2 6.641 2 10.108v158.2c0 3.468-.69 6.903-2 10.108a26.5 26.5 0 0 1-5.73 8.569 26.5 26.5 0 0 1-8.57 5.723A26.4 26.4 0 0 1 440.6 361H71.39a26.4 26.4 0 0 1-10.107-2.003 26.4 26.4 0 0 1-14.291-14.291 26.4 26.4 0 0 1-2.003-10.107zm52.801 138.4h33.001V196.2H97.79zm95.902-63.2 7.399-55.399h41.701v118.699h-27.9l-.1-80.099-11.2 80.099h-19.9L171.991 236.5l-.1 78.399h-28V196.2h41.4c1.2 7.199 2.5 15.599 3.801 25.299zm62.301 63.2V196.2h51.5a21.063 21.063 0 0 1 21.101 20.9v76.799a20.9 20.9 0 0 1-1.62 8.039 20.92 20.92 0 0 1-19.481 12.861zm136.797-88.9h-2.1a22.06 22.06 0 0 0-17.4 8.4V196.2h-31.596v117.199h29.596l1.9-7.299a21.7 21.7 0 0 0 7.7 6.485 21.7 21.7 0 0 0 9.8 2.314h2.1c11.8 0 21.4-9.3 21.4-20.7V246.6c0-11.5-9.5-20.701-21.4-20.701" style="fill:currentcolor;fill-rule:evenodd;clip-rule:evenodd" /></svg>