<svg xmlns="http://www.w3.org/2000/svg" viewBox="0 0 512 512"><path d="M450.92 122H61.173a39.02 39.02 0 0 0-27.747 11.425A39.03 39.03 0 0 0 22 161.173V350.7a39.27 39.27 0 0 0 11.501 27.67 39.3 39.3 0 0 0 27.672 11.5H450.92a39.3 39.3 0 0 0 27.67-11.5 39.25 39.25 0 0 0 11.5-27.67V161.173a39.25 39.25 0 0 0-11.5-27.672A39.27 39.27 0 0 0 450.92 122m18.98 228.7c0 2.49-.48 4.96-1.43 7.27-.95 2.3-2.35 4.4-4.12 6.16a18.7 18.7 0 0 1-6.16 4.12c-2.3.95-4.78 1.44-7.27 1.44H61.173a19.25 19.25 0 0 1-13.351-5.64 19.28 19.28 0 0 1-5.641-13.35V161.173a19.255 19.255 0 0 1 18.992-18.993H450.92a18.98 18.98 0 0 1 13.43 5.562 19.2 19.2 0 0 1 4.12 6.162 19.1 19.1 0 0 1 1.43 7.269z" style="fill:currentcolor" /><path d="M83.724 189.666h24.534v124.239H83.724zM181.458 273.547l-23.74-83.881h-30.866v124.239h21.37v-86.65l22.949 72.799h20.575l22.95-74.386v88.234h21.366V189.666H205.2zM297.79 189.663h-41.151v124.24h41.151a49.74 49.74 0 0 0 36.006-11.87 41.1 41.1 0 0 0 10.244-14.944 41.1 41.1 0 0 0 2.816-17.897v-35.214a42.97 42.97 0 0 0-13.057-32.841 51.23 51.23 0 0 0-36.009-11.474m24.927 80.321a19.8 19.8 0 0 1-6.33 15.828 27.6 27.6 0 0 1-18.202 5.541h-18.2v-79.138h18.2a27.6 27.6 0 0 1 18.201 5.54 19.81 19.81 0 0 1 6.33 15.827zM407 223.691c-4.7.05-9.27 1.571-13.07 4.352a23.8 23.8 0 0 0-7.51 9.1v-47.876h-23.74v124.637h23.74v-11.871a20.66 20.66 0 0 0 8.18 9.86 20.76 20.76 0 0 0 12.4 3.198 25.91 25.91 0 0 0 21.76-9.892 43.4 43.4 0 0 0 7.91-28.489v-14.244a42.8 42.8 0 0 0-7.91-28.488 26.2 26.2 0 0 0-9.63-7.786 26.26 26.26 0 0 0-12.13-2.501m6.33 53.019a18.75 18.75 0 0 1-3.56 12.266 11.5 11.5 0 0 1-4.57 3.528 11.46 11.46 0 0 1-5.73.825c-2.37.4-4.74-.4-7.11-1.584a7.7 7.7 0 0 1-2.62-1.729 7.7 7.7 0 0 1-1.74-2.623 17.24 17.24 0 0 1-1.58-7.517v-20.179c-.05-2.594.5-5.165 1.58-7.518a8.6 8.6 0 0 1 4.36-4.748c2.19-1.2 4.62-1.879 7.11-1.98a12.79 12.79 0 0 1 10.3 4.75 19.9 19.9 0 0 1 3.56 12.661z" style="fill:currentcolor" /></svg>