<svg xmlns="http://www.w3.org/2000/svg" viewBox="0 0 512 512"><path d="m457.86 191.224-38-38.001a17.2 17.2 0 0 0-11.38-4.912 17.14 17.14 0 0 0-11.71 4.013 26.47 26.47 0 0 1-18.2 6.353 26.43 26.43 0 0 1-17.67-7.694 26.4 26.4 0 0 1-7.74-17.648 26.4 26.4 0 0 1 6.3-18.211 17.17 17.17 0 0 0 4.01-11.724 17.23 17.23 0 0 0-4.91-11.376l-37.8-38A17.08 17.08 0 0 0 308.65 49c-2.24 0-4.46.444-6.54 1.306a17.2 17.2 0 0 0-5.56 3.718l-60.5 60.499a34.2 34.2 0 0 0-8.19 13.201 6.8 6.8 0 0 1-1.61 2.588 6.8 6.8 0 0 1-2.6 1.611 33.2 33.2 0 0 0-13.19 8.3L55.26 295.424a17.1 17.1 0 0 0-3.73 5.549 17.1 17.1 0 0 0-1.3 6.55c0 2.25.44 4.475 1.3 6.552a17.1 17.1 0 0 0 3.73 5.549l37.6 37.999a17.19 17.19 0 0 0 23.1.901 26.45 26.45 0 0 1 18.7-7.851 26.49 26.49 0 0 1 24.52 16.278 26.5 26.5 0 0 1 2.03 10.135c0 3.48-.69 6.926-2.01 10.141a26.5 26.5 0 0 1-5.74 8.597 17.17 17.17 0 0 0-4.01 11.724 17.22 17.22 0 0 0 4.9 11.375l37.91 37.9a17 17 0 0 0 5.55 3.718c2.07.862 4.3 1.306 6.55 1.306s4.46-.444 6.55-1.306a17.2 17.2 0 0 0 5.55-3.718l155.2-155.2a34.3 34.3 0 0 0 8.3-13.2c.33-.975.88-1.861 1.62-2.586a6.7 6.7 0 0 1 2.58-1.613c4.97-1.684 9.5-4.49 13.2-8.2l60.5-60.5a17.4 17.4 0 0 0 4.95-12.15c0-4.542-1.78-8.902-4.95-12.15m-196.6-25.5a13.76 13.76 0 0 1-19.5 0l-9.9-9.9a13.8 13.8 0 0 1-4.47-9.528 13.7 13.7 0 0 1 3.54-9.911 13.78 13.78 0 0 1 9.5-4.536c3.64-.199 7.21 1.05 9.93 3.474.36.309.68.643.99 1.001l9.91 9.9c1.28 1.28 2.3 2.799 3 4.469a13.8 13.8 0 0 1 0 10.56c-.7 1.671-1.72 3.19-3 4.471m37.9 37.8a13.8 13.8 0 0 1-4.47 2.997 13.8 13.8 0 0 1-5.28 1.053 13.74 13.74 0 0 1-9.75-4.05l-9.4-9.4a13.8 13.8 0 0 1-3.55-9.602 13.803 13.803 0 0 1 13.45-13.446 13.82 13.82 0 0 1 9.6 3.548l9.4 9.4a13.94 13.94 0 0 1 3.98 9.75c0 3.646-1.43 7.145-3.98 9.75m38.1 37.9a13.76 13.76 0 0 1-19.5 0l-9.4-9.401a13.74 13.74 0 0 1-4.47-9.526 13.76 13.76 0 0 1 3.54-9.913 13.8 13.8 0 0 1 9.5-4.536 13.8 13.8 0 0 1 9.93 3.476c.36.307.69.642 1 .999l9.4 9.501a13.85 13.85 0 0 1 3.97 9.7c0 3.629-1.43 7.113-3.97 9.7m38.2 38.3a13.8 13.8 0 0 1-4.47 2.998 13.8 13.8 0 0 1-5.28 1.053c-1.81 0-3.61-.359-5.28-1.053a13.8 13.8 0 0 1-4.47-2.998l-9.9-9.9a13.7 13.7 0 0 1-3.1-4.397 13.6 13.6 0 0 1-1.19-5.249c-.04-1.812.27-3.614.92-5.304a13.75 13.75 0 0 1 7.27-7.653 13.77 13.77 0 0 1 10.55-.272 13.8 13.8 0 0 1 4.55 2.874l.5.501 9.9 9.9a13.9 13.9 0 0 1 3 4.47c1.4 3.381 1.4 7.178 0 10.559a13.9 13.9 0 0 1-3 4.471" style="fill:currentcolor" /></svg>