<svg xmlns="http://www.w3.org/2000/svg" viewBox="0 0 512 512"><path d="m478.3 433.6-90-217.99c-1.2-3.01-3.1-5.7-5.5-7.89s-5.3-3.81-8.4-4.77c-3.1-.94-6.4-1.18-9.6-.7-3.2.47-6.3 1.66-9 3.47-3.7 2.38-6.5 5.83-8.1 9.89l-90 217.99c-2.2 5.41-2.3 11.47-.1 16.9 1.1 2.69 2.7 5.13 4.7 7.16 3.2 3.08 7.1 5.19 11.4 6.04 4.3.84 8.7.39 12.7-1.31 2.7-1.09 5.1-2.71 7.2-4.77 2-2.07 3.6-4.52 4.7-7.23l18.4-44.38h102.6l18.4 44.38c1.6 4.06 4.4 7.51 8.1 9.9 3.6 2.43 7.9 3.72 12.2 3.71 3.6 0 7.2-.88 10.4-2.59 4.8-2.57 8.5-6.84 10.3-11.99 1.9-5.14 1.7-10.79-.4-15.82m-143.5-71.59 33.2-80.35 33.2 80.35zM267.8 342.93c1.7-2.32 3-4.97 3.6-7.78.7-2.82.8-5.73.3-8.58-.4-2.84-1.4-5.59-2.9-8.04-1.5-2.46-3.5-4.61-5.8-6.3-.3-.16-15-11.13-36.5-34.74 39.6-53.68 62.1-114.74 71.2-143.48H330c5.8-.02 11.4-2.34 15.6-6.44 4.1-4.14 6.4-9.73 6.4-15.57 0-5.82-2.3-11.41-6.4-15.56-4.2-4.1-9.8-6.41-15.6-6.43H214v-20c0-5.83-2.3-11.42-6.4-15.56-4.1-4.12-9.8-6.45-15.6-6.45s-11.5 2.33-15.6 6.45c-4.2 4.14-6.4 9.73-6.4 15.56v20H54c-5.8.02-11.4 2.33-15.6 6.43-4.1 4.15-6.4 9.74-6.4 15.56 0 5.84 2.3 11.43 6.4 15.57 4.2 4.1 9.8 6.42 15.6 6.44h197.2c-9.5 26.95-27 69.5-53.7 108.36-31.4-41.68-43.1-68.65-43.2-68.87-2.3-5.32-6.6-9.52-12-11.69-5.3-2.18-11.4-2.13-16.7.11-5.4 2.24-9.6 6.49-11.8 11.83-2.4 5.37-2.4 11.37-.1 16.75.6 1.38 14.6 34.23 52.9 83.92.9 1.2 1.8 2.36 2.7 3.52-39.2 44.35-77.7 71.85-93.8 80.73-2.5 1.39-4.8 3.25-6.6 5.49-1.8 2.26-3.2 4.84-4 7.62-.8 2.77-1.1 5.68-.8 8.54.3 2.88 1.2 5.66 2.6 8.21 1.4 2.52 3.2 4.76 5.5 6.57 2.2 1.82 4.8 3.18 7.5 3.99 2.8.82 5.7 1.07 8.6.78 2.9-.32 5.7-1.18 8.2-2.56 2.2-1.19 48.6-26.9 101.7-85.6 22.5 24.08 38 35.44 38.9 36.11 2.3 1.7 5 2.93 7.8 3.58 2.8.69 5.7.79 8.6.35 5.7-.96 10.9-4.12 14.3-8.83z" style="fill:currentcolor" /></svg>