<svg xmlns="http://www.w3.org/2000/svg" viewBox="0 0 512 512"><path d="M419.17 176.21H92.87a28.92 28.92 0 0 0-28.9 28.9v198.3a28.9 28.9 0 0 0 8.47 20.43 28.87 28.87 0 0 0 20.43 8.48h326.3c7.66 0 15.01-3.05 20.43-8.48a28.9 28.9 0 0 0 8.47-20.43v-198.3c.01-3.8-.73-7.56-2.19-11.07a28.8 28.8 0 0 0-6.26-9.38 29.1 29.1 0 0 0-9.38-6.26c-3.51-1.44-7.26-2.2-11.07-2.19Z" style="stroke:currentcolor;stroke-linejoin:round;stroke-width:32;fill:none" /><path d="M144.06 80.21h224.02M112.07 128.21h288" style="stroke:currentcolor;stroke-linecap:round;stroke-miterlimit:10;stroke-width:32;fill:none" /></svg>