<svg xmlns="http://www.w3.org/2000/svg" viewBox="0 0 512 512"><path d="M368.08 90.1h-224a15.993 15.993 0 0 1-16-16 15.993 15.993 0 0 1 16-16h224c4.23 0 8.31 1.69 11.31 4.69s4.69 7.07 4.69 11.31-1.69 8.31-4.69 11.31-7.08 4.69-11.31 4.69M400.07 138.1h-288c-4.24 0-8.3-1.68-11.3-4.69-3-3-4.7-7.07-4.7-11.31s1.7-8.31 4.7-11.31 7.06-4.69 11.3-4.69h288c4.25 0 8.32 1.69 11.32 4.69s4.69 7.07 4.69 11.31-1.69 8.31-4.69 11.31c-3 3.01-7.07 4.69-11.32 4.69M419.18 442.1H92.87a45.06 45.06 0 0 1-31.7-13.2 45.1 45.1 0 0 1-13.2-31.7V198.9c.04-11.88 4.8-23.29 13.2-31.69a45.02 45.02 0 0 1 31.7-13.2h326.31c5.89-.02 11.73 1.14 17.17 3.41a44.4 44.4 0 0 1 14.53 9.79 45.3 45.3 0 0 1 13.2 31.69v198.3a45.04 45.04 0 0 1-13.2 31.7 45.08 45.08 0 0 1-31.7 13.2" style="fill:currentcolor" /></svg>