<svg xmlns="http://www.w3.org/2000/svg" viewBox="0 0 512 512"><path d="M473.07 100.423c-15.82-39.171-54.21-64.1-96.55-63.307a95.68 95.68 0 0 0-66.07 22.157c-13.06 10.683-24.54 22.949-36.8 34.423-13.06 12.662-25.71 25.324-38.77 37.985a20.2 20.2 0 0 0-5.79 10.347c-.86 3.952-.48 8.066 1.03 11.811a17.905 17.905 0 0 0 16.22 12.266c7.53.4 14.64-3.165 19.8-9.1l62.91-61.725c25.32-25.718 66.47-26.114 92.58-1.583a63.053 63.053 0 0 1 .39 89.027 8.4 8.4 0 0 1-1.97 1.583c-29.27 29.278-58.56 57.767-87.83 86.651a116.4 116.4 0 0 1-15.44 11.871 65.5 65.5 0 0 1-44.53 6.415 65.53 65.53 0 0 1-38.17-23.824 21.44 21.44 0 0 0-26.5-9.1c-13.46 5.539-15.84 19.784-5.15 33.631 36.41 45.901 103.28 53.417 149.16 17.014 2.39-1.977 4.76-4.351 7.13-6.726 30.47-29.279 60.94-58.956 91.01-89.027a102.07 102.07 0 0 0 28.59-52.038 102 102 0 0 0-5.25-59.144M247.94 353.654a4725 4725 0 0 0-63.71 62.516A66.33 66.33 0 0 1 138.34 436c-17.3.37-34.06-6.04-46.7-17.85a62.6 62.6 0 0 1-13.9-20.28 62.5 62.5 0 0 1-5.05-24.072 62.7 62.7 0 0 1 4.61-24.155 62.8 62.8 0 0 1 13.55-20.521l2.38-2.375c28.87-28.487 58.15-56.976 87.05-85.465a69.3 69.3 0 0 1 16.22-12.266 66.35 66.35 0 0 1 44.1-6.351 66.33 66.33 0 0 1 38.19 22.97 19.5 19.5 0 0 0 5.44 5.45 19.3 19.3 0 0 0 7.12 2.899c2.55.481 5.17.443 7.71-.106a19.3 19.3 0 0 0 7.03-3.099 20 20 0 0 0 5.47-5.552 20.1 20.1 0 0 0 2.89-7.226 19.8 19.8 0 0 0-3.21-14.923c-.39-.791-1.19-1.582-1.59-2.373a106.513 106.513 0 0 0-149.56-14.64 41 41 0 0 0-4.35 3.561c-32.05 30.466-63.31 61.328-94.57 92.587a100.2 100.2 0 0 0-27.41 51.981 100.34 100.34 0 0 0 6.44 58.416 101.83 101.83 0 0 0 38.43 46.09 101.9 101.9 0 0 0 57.72 16.43 97.22 97.22 0 0 0 68.46-24.14c24.93-22.96 48.67-47.48 72.8-71.22a18.86 18.86 0 0 0 5.89-10.355c.79-3.997.25-8.144-1.54-11.809a20.37 20.37 0 0 0-11.52-10.239 20.4 20.4 0 0 0-15.39.739 17.65 17.65 0 0 0-7.51 5.541z" style="fill:currentcolor" /></svg>