<svg xmlns="http://www.w3.org/2000/svg" viewBox="0 0 512 512"><path d="M108.6 346.18c1.3 2.6 1.9 5.44 1.9 8.31 0 2.88-.6 5.72-1.8 8.32-4.4 10.27-13.4 13.43-23.7 14.01-3.7.21-7.6-.22-11.5-.09-5.1.18-6.9 2.05-7 7.15.1 2.92.8 5.79 2.3 8.37 2 4.14 3.8 8.4 5.3 12.76.9 2.46 1.2 5.08 1 7.69s-.9 5.15-2.1 7.46c-1.8 3.23-3.4 6.57-4.9 9.93-3 6.99-1.6 10.06 5.9 12.42 9.8 3.16 20 4.79 30.3 6.8 16 3.19 31.9 7.42 47.3 12.68 8.9 2.97 17.8 5.13 26.9 4.26 16.2-1.5 24.4-10.51 21.3-29.03-1.7-10.22-6.5-19.23-12-27.81-9-14.3-18.3-28.4-27.9-42.38-6.7-9.68-14-18.84-22.9-26.48-5.9-4.99-12.4-7.55-20.1-3.36-3.8 2.09-5.3-.6-5.9-3.83-2-10.2-.2-20.79 5.2-29.66 7.3-12.34 12.7-25.45 17.3-38.96 6.5-19.25 15.4-37.16 29.2-52.57 9-10.08 15.7-21.86 23.1-33.1 4.9-7.3 3.9-15.17 3.1-23.07-2-20-2.1-40.05-3-60.1-.6-11.47.2-22.96 2.4-34.22 2.7-12.7 9.9-22.53 19.5-30.81 16.5-13.88 35.4-15.82 55.9-12.41 8 1.36 15.8 3.13 23.6 6.52 14.6 6.57 24.8 17.7 32.3 31.26a93.4 93.4 0 0 1 11.5 50.45c-1 24.35 5.1 47.42 15.3 69.46 5.6 12.11 13.8 22.63 22.9 32.2 11.5 11.9 19.7 25.58 26.9 40.11 8.3 16.69 14.3 34.37 17.9 52.6 2.5 11.57 2.7 23.53.6 35.17-1.1 5.3-3.1 9.71-8.8 11.88-4.1 1.51-5.8 5.9-8.3 9.15-6.9 8.96-14.9 15.49-27.2 15.92-12 .41-19.9-4.06-24.8-15.28-1.3-3.13-2.7-6.2-5.3-8.61-4.2-4-8.3-3.16-10.5 2.05-4.4 9.88-4 19.91-1.1 30.09 4.7 16.49 3.4 33.09 1.1 49.67-.9 5.46-1 11.01-.3 16.5 1.7 13.91 14.8 21.99 29.2 18.28 6.3-1.62 12.2-4.72 17-9.05 13-11.61 28.5-20.24 45-25.32 8-2.4 16.1-4.89 23-9.83 6.4-4.75 6.6-9.43.2-14.33a33.2 33.2 0 0 0-11.5-5.97c-3.3-.79-6.3-2.25-9-4.3-2.6-2.04-4.8-4.62-6.4-7.56-5.2-9.37-6.1-19.46-3.1-29.78.4-1.45 1.1-3.22 2.9-2.82 1.7.34 1.5 2.15 1.5 3.48.5 17.63 8.9 30.18 25 37.85 1 .45 2 .97 2.9 1.54 11.4 7.28 12.4 16.34 2.7 25.58-5.6 5.38-12.5 8.98-19.6 11.96-21.2 8.99-40 21.72-56.7 37.32-4.9 4.47-11.2 5.45-17.1 6.21-7.8.99-15.8-.3-23.4-2.61-6.3-1.93-10.6-6.26-13.7-11.77-3.6-6.53-9.2-9.12-16.4-9.46-19.8-1.07-39.8-.98-59.8.26-5.6.39-11.3-.3-16.9.88-9.2 1.88-17.7 4.96-24.7 10.99-13.9 11.8-29 11.46-44.8 4.92-22.5-9.36-46.1-15.01-70.2-19.03-6.5-.99-12.9-2.78-19.2-5.34-7.3-3.2-10.5-8.96-8.9-16.7.6-2.69 1-5.62 2.4-7.87 6.7-10.68 4.8-21.7 1.8-32.89-.7-2.81-1.3-5.65-1.8-8.53-1.3-9.1 3.3-13.18 13.2-14.47 4-.51 8-.39 11.9-.74 4.2-.38 7.6-2.02 11.2-3.98 2.9-1.44 5.3-3.53 7.2-6.11 1.8-2.57 3-5.55 3.4-8.67.2-.89.5-1.78.8-2.64 0-.12.2-.2 1-.92m248.5-22.27c-.8-.05-1.5-.04-2.3.03-9.7 1.62-14.2-3.41-14.5-13.19-.3-15.16-.8-30.26-4.6-45.12-3-11.81-6.1-23.6-14.3-33.02-2.7-2.9-4.6-6.45-5.5-10.31-3.5-14.78-8.7-28.86-18.4-40.9-2.4-3.05-4.2-6.58-5.3-10.37-1-3.79-1.3-7.75-.8-11.65.5-3.61 1.9-7.09 2.7-10.65 1.5-6.53-.1-10.46-6.5-11.98-7.5-1.78-14.2-5.6-21.2-8.28-6-2.3-7.7-6.28-7.7-12.06.1-3.06.7-6.08 1.8-8.93 2.2-6.09 5.7-9.21 11.2-9.21 5.9 0 10.5 2.64 13.2 7.99 2.7 5.51 2.7 11.23.8 16.99-1.2 3.95-.2 5.33 4.1 5.24 2.8-.07 4.7-1.19 5.1-4.18.9-9.07.5-17.96-3-26.56-3.6-8.48-12.5-14.19-20.5-13-11.6 1.74-19.4 9.15-19.9 19.37-.3 4.43 0 8.89.2 13.32.2 4.75 0 5.03-4.5 3.38-2.9-1.14-6-1.57-9.1-1.26-8.5.84-9 .3-9.1-8.44 0-7.05-1.5-13.74-5.8-19.53-4-5.18-10.3-6.11-15.3-2.42-8.7 6.56-10.2 31.59-2.4 39.3 1.4 1.4 2.6 1.34 3.9.06 1.6-1.48.5-2.14-.7-3.14-3.1-2.59-5.1-6.16-5.8-10.1-.8-3.95-.1-8.03 1.7-11.55 2.6-4.55 9.4-6.41 13.8-3.74 7.5 4.62 8.6 19.85 2.1 25.56-5.1 4.68-10.6 8.94-16.3 12.76-5.1 3.3-4.9 8.14-.2 11.88 2.5 1.98 4.9 4.23 7 6.71 3.7 4.6 8.6 6.06 14.4 6.3 13.1.59 25.7-2.78 38-6.82 6.5-2.15 13.4-3.77 17.9-9.89 1.4-2.03 3.8-2.05 5.7-.3 2 1.89 1.9 4.11.1 6.12-1.4 1.3-3 2.2-4.8 2.61-8.9 2.7-17.1 6.59-25.4 10.14-9.9 4.17-19.9 7.64-30.9 6.42-2.7-.29-5.4-.07-8.7-.09 5.7 7.2 12.7 9.24 20.8 8.14 8.2-1.24 16.3-4.01 23.5-8.16 5.5-3.11 10.8-6.93 17-8.97 2.8-.89 5.6-.95 6.8 2.22 1.1 3-1.1 4.34-3.4 5.6-8.4 4.48-16.9 8.42-24.3 14.13-5.5 4.18-11.2 8.33-17.4 11.5-9.1 4.76-16.3 3.33-23.1-4.55-3-3.3-5.7-6.87-8.1-10.66-1.5-2.7-3-5.9-6.4-7.3-.4 2.49-.5 4.63-.9 6.71-1.5 7.85-5.8 14.44-9.4 21.36-5.2 9.74-10.3 19.46-4.8 30.83.3.54.4 1.19.3 1.81-.1.61-.5 1.16-1 1.56-8.4 7.11-12.7 16.86-16.8 26.5-6.2 14.33-11.9 28.9-10.7 45.11.4 5.92.6 11.97-.9 17.85-1.5 6.47-4.9 7.47-9.6 2.76-7.2-7.19-9.2-16.44-9.8-26.05-.3-3.96.5-7.97.9-12.13-.5.18-.9.51-1.2.93-.3.43-.5.94-.5 1.45-2.4 10.34-.9 20.43 2.8 30.2 1.3 3.52 2.3 7.36 5.3 10.08 4.9 4.46 9.8 8.97 14.9 13.35 13.9 12.31 28.9 23.54 43.4 35.21 9.8 7.84 9.4 22.61-.7 28.08-6.6 3.61-6.6 3.61-2.3 9.99.6.89 1.3 1.76 2 2.6 4.9 6.24 8.1 13.83 8.9 21.84.2 2.72.1 5.64 1.6 8.58 1.3-1.05 2.3-2.45 2.8-4.04.6-1.59.7-3.3.3-4.94-.9-6-3-11.57-7-16.29-1.6-1.81-4-3.72-1.1-6.18 2.5-2.17 5.6-3.19 8.3-.64 8.9 7.93 19.4 9.65 30.6 9.87 10.8.11 21.3-1.56 31.4-4.96 11.5-3.67 21.6-9.15 27.5-20.25.6-1.05 1.4-1.99 2.3-2.8 1.7-1.46 3.2-3.25 5.7-2.47s2.8 3.04 3.3 5.16c2 8.29-.1 16.06-2.6 23.87-1.7 5.51-4 10.96-4 16.9 0 1.8.4 3.63 2.4 3.87 2.3.27 2.1-1.91 2.4-3.27 1.3-5.99 2.4-12 3.7-17.97 2.7-12.28 3.3-24.94 1.7-37.43-1-8.5-3.5-16.89-2.8-25.53.7-8.49 1.4-18.02 9.7-22.03 6.2-2.95 10.7-6.23 14.2-12.02 3-5.05 9-5.41 14-6.96 7.1-.79 14 .92 21.5 2.79-1.5-1.95-3.6-3.39-5.9-4.16-3.8-1.45-4.7-3.61-3.8-7.51 1.9-7.11 4.1-14.33 3-21.75-2.5-17.29-4.4-34.79-14.5-49.96-3.3-5.16-7.1-10.08-10.7-15.1 3 6.12 5.9 12.17 9 18.12 3.1 6.17 5.4 12.69 7.8 19.17 3.7 10.32 6.2 21.07 5.5 31.96-.6 10-.4 21.02-11.8 26.49" style="fill:currentcolor" /></svg>