<svg xmlns="http://www.w3.org/2000/svg" viewBox="0 0 512 512"><path d="M100.7 106.99h74.5c2.43 0 4.85.49 7.12 1.41 2.26.94 4.3 2.31 6.04 4.03 1.72 1.74 3.1 3.79 4.02 6.05.94 2.25 1.42 4.67 1.42 7.11v74.51c0 2.44-.48 4.86-1.42 7.11-.92 2.26-2.3 4.31-4.02 6.05a18.8 18.8 0 0 1-6.04 4.03c-2.27.92-4.69 1.41-7.12 1.41h-74.5c-2.45 0-4.87-.49-7.12-1.41-2.26-.94-4.32-2.3-6.04-4.03a18.8 18.8 0 0 1-4.04-6.05 18.8 18.8 0 0 1-1.4-7.11v-74.51c.01-4.92 1.96-9.65 5.46-13.14 3.49-3.48 8.2-5.45 13.14-5.46M100.7 293.29h74.5c2.43 0 4.85.49 7.12 1.41 2.26.94 4.3 2.31 6.04 4.04 1.72 1.73 3.1 3.78 4.02 6.04.94 2.26 1.42 4.68 1.42 7.12v74.5c0 2.44-.48 4.86-1.42 7.12-.92 2.25-2.3 4.3-4.02 6.04a18.9 18.9 0 0 1-6.04 4.03c-2.27.92-4.69 1.41-7.12 1.41h-74.5c-2.45 0-4.87-.49-7.12-1.41-2.26-.94-4.32-2.31-6.04-4.03-1.73-1.74-3.1-3.79-4.04-6.04-.92-2.26-1.4-4.68-1.4-7.12v-74.5c0-2.44.48-4.86 1.4-7.12a18.68 18.68 0 0 1 10.08-10.08c2.25-.92 4.67-1.41 7.12-1.41" style="stroke:currentcolor;stroke-linecap:round;stroke-linejoin:round;stroke-width:37.252;fill:none" /><path d="M286.9 144.29h149c4.93 0 9.66 1.97 13.15 5.45 3.49 3.5 5.45 8.23 5.45 13.15 0 4.94-1.96 9.67-5.45 13.15a18.6 18.6 0 0 1-13.15 5.46h-149c-4.93 0-9.66-1.97-13.15-5.46a18.57 18.57 0 0 1-5.46-13.15c0-4.92 1.97-9.65 5.46-13.15a18.64 18.64 0 0 1 13.15-5.45ZM286.9 330.5h149c4.93 0 9.66 1.96 13.15 5.45 3.49 3.48 5.45 8.21 5.45 13.15 0 4.92-1.96 9.65-5.45 13.15a18.6 18.6 0 0 1-13.15 5.45h-149c-4.93 0-9.66-1.96-13.15-5.45-3.49-3.5-5.46-8.23-5.46-13.15 0-4.94 1.97-9.67 5.46-13.15 3.49-3.49 8.22-5.45 13.15-5.45Z" style="stroke:currentcolor;stroke-width:37.252;fill:none" /></svg>