<svg xmlns="http://www.w3.org/2000/svg" viewBox="0 0 512 512"><path d="M83.6 202.5v-64.6c0-9.494 3.78-18.597 10.49-25.309a35.82 35.82 0 0 1 25.32-10.491h68.19c7.07.032 14 2.116 19.91 6l24.99 16.7a35.26 35.26 0 0 0 19.91 6h139.9a35.78 35.78 0 0 1 25.3 10.491 35.82 35.82 0 0 1 10.5 25.309v35.8" style="stroke:currentcolor;stroke-linecap:round;stroke-linejoin:round;stroke-width:32;fill:none" /><path d="m456.91 233.398-14.61 148.4a35.84 35.84 0 0 1-10.48 25.309 35.83 35.83 0 0 1-25.32 10.491h-301a35.83 35.83 0 0 1-25.31-10.491 35.8 35.8 0 0 1-10.49-25.309l-14.6-148.4a28.755 28.755 0 0 1 26.3-30.9c.8 0 1.5-.2 2.3-.2h344.61c7.6.03 14.9 3.079 20.25 8.48a28.7 28.7 0 0 1 8.35 20.319z" style="stroke:currentcolor;stroke-linecap:round;stroke-linejoin:round;stroke-width:32;fill:none" /></svg>