<svg xmlns="http://www.w3.org/2000/svg" viewBox="0 0 512 512"><path d="M156.8 464.21c-12.5-8.49-22.5-19.61-31-31.84-21.6-30.65-37.9-63.77-47.9-99.84-9-32.09-11.4-64.6-6.5-97.49 4.4-29.01 15.4-55.14 35.8-76.67 21.4-22.32 47.5-31.41 78.2-28.22 15.4 1.6 30.1 6.12 44.9 10.48 6.1 1.8 12.3 3.16 18.5 4.73 8.6 2.23 17.3 1.23 25.8-1.17 11.9-3.44 23.9-7.37 35.9-10.85 19-5.52 38.2-6.77 57.7-2.24 22.5 5.21 40.1 17.8 55.2 34.78 2.2 2.45 4.3 4.95 6.3 7.28-7.5 7.32-15 14.05-21.9 21.39-17.2 18.46-26.2 40.39-26.4 65.75-.3 23.09 7.2 45.61 21.1 63.96 9.4 12.4 20.3 22.81 34.9 28.83 1.7.7 3.5 1.33 5.7 2.15-2 5.23-3.8 10.43-5.9 15.44-11.9 28.74-27.5 55.29-48.6 78.3-4 4.27-8.5 8.23-13.1 11.85-15.4 12.45-32.9 17.13-52.4 11.38-9.9-2.87-19.5-6.14-29.3-9.18-10.1-3.15-20.2-5.68-30.7-6-13.1-.4-25.3 3.44-37.5 7.82-9.1 3.31-18.3 6.77-27.9 8.97-3.3.75-6.6 1.14-9.9 1.15-11.1 0-21.5-4.25-31-10.76m183-437.14c.4 3.42 1.1 6.81 1 10.18-.2 24.37-8.6 45.87-23.8 64.82-8.2 10.41-17.9 19.3-29.8 25.78-8.3 4.62-17.6 5.94-26.9 7.05-3.1.35-6.2.58-9.3.87.5-56.6 30-97.61 88.8-108.7" style="fill:currentcolor" /></svg>