<svg xmlns="http://www.w3.org/2000/svg" viewBox="0 0 512 512"><path d="M410.69 285.3a134.1 134.1 0 0 0 38.34-94.526 134.07 134.07 0 0 0-39.28-94.14 134.05 134.05 0 0 0-94.14-39.269A134.06 134.06 0 0 0 221.09 95.7" style="stroke:currentcolor;stroke-miterlimit:10;stroke-width:31.764;fill:none" /><path d="M347.49 222.098a44.74 44.74 0 0 0 13.09-31.599c0-11.853-4.72-23.22-13.09-31.601a44.72 44.72 0 0 0-31.61-13.089 44.67 44.67 0 0 0-31.59 13.089" style="stroke:currentcolor;stroke-miterlimit:10;stroke-width:31.764;fill:none" /><path d="M189.59 443.799v-46M101.99 404.498l31.59-31.601M67.08 305.898h46" style="stroke:currentcolor;stroke-linecap:round;stroke-miterlimit:10;stroke-width:31.764;fill:none" /><path d="m284.39 158.901-105.31 105.3a29.8 29.8 0 0 1-21.05 8.699c-7.88 0-15.46-3.128-21.05-8.699l-21.2-21a29.82 29.82 0 0 1-8.7-21.05c0-7.892 3.13-15.461 8.7-21.05l105.41-105.3M410.69 285.3l-105.3 105.399a29.84 29.84 0 0 1-21.05 8.701c-7.9 0-15.46-3.13-21.05-8.701l-21-21.1a29.786 29.786 0 0 1 0-42.099l105.3-105.4M147.99 170l63.2 63.2M274.39 296.398l63.19 63.2" style="stroke:currentcolor;stroke-linejoin:round;stroke-width:31.764;fill:none" /></svg>