<svg xmlns="http://www.w3.org/2000/svg" viewBox="0 0 512 512"><path d="M374.17 66.3s-74.52 92.73-144.69 92.73H91.61c-3.68 0-7.19 1.47-9.81 4.06-2.6 2.61-4.05 6.14-4.05 9.82v82.8c.04 3.64 1.52 7.13 4.11 9.67 2.61 2.57 6.1 4 9.75 3.99h137.87c70.17 0 144.69 93.36 144.69 93.36 5.38 6.83 20.69 2.06 20.69-8.49V74.79c0-10.76-14.48-16.35-20.69-8.49" style="stroke:currentcolor;stroke-linecap:round;stroke-linejoin:round;stroke-width:16;fill:none" /><path d="M77.76 241.84s-13.68-5.17-13.68-27.53 13.68-27.53 13.68-27.53M408.74 233.35c5.01-1.71 9.15-5.3 11.55-10.02a20.34 20.34 0 0 0 1.28-15.23 20.8 20.8 0 0 0-4.94-7.89 20.7 20.7 0 0 0-7.89-4.94M243.55 160.49v104.74M116.46 160.49v104.74M146.89 269.37v144.9a6.77 6.77 0 0 0 1.13 3.8 6.7 6.7 0 0 0 5.7 3.02h45.54c1.82 0 3.63-.35 5.31-1.04 1.68-.7 3.22-1.72 4.5-3.02 1.29-1.28 2.31-2.82 3.01-4.49.69-1.68 1.04-3.49 1.04-5.31 0-1.34-.21-2.66-.62-3.94-7.24-23.18-24.22-49.26-24.22-92.52h13.67c3.65.01 7.15-1.42 9.75-3.98 2.59-2.56 4.07-6.04 4.11-9.68v-13.87c.01-3.65-1.41-7.15-3.97-9.75a13.86 13.86 0 0 0-9.68-4.12h-13.88" style="stroke:currentcolor;stroke-linecap:round;stroke-linejoin:round;stroke-width:16;fill:none" /></svg>