<svg xmlns="http://www.w3.org/2000/svg" viewBox="0 0 512 512"><path d="m436.9 143.1-59.89-59.9a38.7 38.7 0 0 0-12.66-8.48 38.9 38.9 0 0 0-14.95-2.92H136.2c-13.8.01-27.01 5.49-36.76 15.24a52.04 52.04 0 0 0-15.24 36.77V383.9a52.04 52.04 0 0 0 15.24 36.76 51.93 51.93 0 0 0 36.76 15.24h260.1c13.8 0 27.01-5.48 36.76-15.24a52.04 52.04 0 0 0 15.24-36.76V170.7c.02-5.13-.97-10.21-2.93-14.94a38.5 38.5 0 0 0-8.47-12.66m-281.21-6.3H298.7c.85 0 1.7.17 2.5.49.78.33 1.5.81 2.1 1.41s1.09 1.33 1.41 2.12c.32.78.49 1.64.49 2.48v39c0 .86-.17 1.7-.49 2.49a6.48 6.48 0 0 1-3.51 3.52c-.8.33-1.65.5-2.5.5H155.69a6.55 6.55 0 0 1-6.01-4.02c-.31-.79-.48-1.63-.48-2.49v-39c0-.84.17-1.7.48-2.48a6.6 6.6 0 0 1 2.4-2.93c1.07-.7 2.33-1.09 3.61-1.09M269.3 396.9c-12.85.6-25.58-2.62-36.6-9.25a65.03 65.03 0 0 1-30.75-65.37 65.03 65.03 0 0 1 16.22-34.1 64.99 64.99 0 0 1 70.12-17.4 65 65 0 0 1 30.27 22.55 64.95 64.95 0 0 1 12.64 35.57c.11 2 .11 4.11 0 6.1a65.05 65.05 0 0 1-18.99 42.91 65.12 65.12 0 0 1-42.91 18.99" style="fill:currentcolor" /></svg>