<svg xmlns="http://www.w3.org/2000/svg" viewBox="0 0 512 512"><path d="M293.6 256c0-7.435-2.2-14.701-6.3-20.881-4.2-6.181-10.2-10.998-16.9-13.844-6.9-2.846-14.4-3.593-21.7-2.147s-14 5.021-19.3 10.272c-5.2 5.293-8.8 11.977-10.3 19.252-1.5 7.3-.7 14.861 2.2 21.725a36.93 36.93 0 0 0 13.8 16.876 36.7 36.7 0 0 0 14 5.711c5 .935 10.1.842 15.1-.273s9.7-3.23 13.7-6.214c4.2-2.985 7.7-6.777 10.3-11.147 3.6-5.818 5.4-12.512 5.4-19.333zM418.9 256.001c0-7.435-2.2-14.701-6.4-20.881-4.1-6.18-10-10.997-16.9-13.843a37.24 37.24 0 0 0-21.6-2.147c-7.4 1.446-14 5.02-19.3 10.271-5.2 5.292-8.8 11.977-10.3 19.252-1.4 7.299-.7 14.86 2.2 21.725a36.93 36.93 0 0 0 13.8 16.876c5 3.435 11.1 5.549 17.2 6.156 6.2.607 12.4-.312 18-2.675 4.7-1.877 8.8-4.647 12.3-8.148 3.5-3.461 6.3-7.616 8.1-12.201a37.4 37.4 0 0 0 2.9-14.385M168.3 256.001c0-7.435-2.2-14.701-6.4-20.881-4.1-6.18-10-10.997-16.8-13.843a37.9 37.9 0 0 0-21.8-2.147c-7.2 1.446-13.9 5.02-19.2 10.271-5.2 5.292-8.9 11.977-10.4 19.252-1.4 7.299-.7 14.86 2.2 21.725 2.9 6.884 7.7 12.765 13.9 16.876 4.2 2.833 9 4.776 13.9 5.711 5.1.934 10.2.842 15.2-.274 5-1.115 9.7-3.229 13.7-6.214 4.1-2.984 7.7-6.777 10.3-11.146 3.6-5.818 5.4-12.513 5.4-19.333z" style="fill:currentcolor" /></svg>