<svg xmlns="http://www.w3.org/2000/svg" viewBox="0 0 512 512"><path d="M256 293.594c7.4-.016 14.7-2.219 20.9-6.338 6.2-4.11 11-9.989 13.8-16.872 2.9-6.863 3.6-14.421 2.2-21.719-1.5-7.273-5.1-13.958-10.3-19.247a38.2 38.2 0 0 0-15.7-9.399 37.5 37.5 0 0 0-18.2-.9c-9.2 1.827-17.3 6.987-22.9 14.481-5.5 7.495-8.1 16.789-7.2 26.077.6 6.165 2.7 12.087 6 17.234 3.6 5.148 8.2 9.356 13.7 12.247 5.4 2.921 11.5 4.447 17.7 4.436M256 418.902c7.4-.016 14.7-2.219 20.9-6.339 6.2-4.109 11-9.989 13.8-16.872 2.9-6.862 3.6-14.421 2.2-21.718-1.5-7.274-5.1-13.957-10.3-19.247a38.2 38.2 0 0 0-15.7-9.4 37.44 37.44 0 0 0-18.2-.899c-6.1 1.21-11.7 3.893-16.5 7.814-4.8 3.919-8.5 8.955-10.9 14.662s-3.3 11.919-2.7 18.074c.6 6.164 2.7 12.087 6 17.234 3.6 5.147 8.2 9.356 13.7 12.246 5.4 2.925 11.5 4.454 17.7 4.445M256 168.285c7.4-.016 14.7-2.221 20.9-6.339 6.2-4.109 11-9.99 13.8-16.872 2.9-6.862 3.6-14.421 2.2-21.721-1.5-7.272-5.1-13.954-10.3-19.244a38.2 38.2 0 0 0-15.7-9.4 37.5 37.5 0 0 0-18.2-.901c-6.1 1.212-11.7 3.897-16.5 7.817-4.8 3.922-8.5 8.959-10.9 14.666s-3.3 11.921-2.7 18.076c.6 6.163 2.7 12.087 6 17.234 3.6 5.146 8.2 9.356 13.7 12.246 5.4 2.922 11.5 4.446 17.7 4.438" style="fill:currentcolor" /></svg>