<svg xmlns="http://www.w3.org/2000/svg" viewBox="0 0 512 512"><path d="M435.81 80.2H75.8a44.045 44.045 0 0 0-44 44v264a44.045 44.045 0 0 0 44 44h360.01a44.045 44.045 0 0 0 44-44v-264a44.03 44.03 0 0 0-12.9-31.1 44.03 44.03 0 0 0-31.1-12.9m-324.01 308c0 3.18-1.25 6.23-3.52 8.49-2.25 2.25-5.3 3.51-8.48 3.51h-24c-1.57 0-3.14-.31-4.59-.91-1.46-.61-2.79-1.49-3.9-2.6-1.12-1.11-2-2.45-2.59-3.9a11.8 11.8 0 0 1-.92-4.59v-24c0-1.58.31-3.14.92-4.6.59-1.45 1.47-2.78 2.59-3.89 1.11-1.11 2.44-2 3.9-2.6 1.45-.6 3.02-.91 4.59-.91h24c3.18 0 6.23 1.26 8.48 3.51 2.27 2.26 3.52 5.31 3.52 8.49zm0-80c0 3.18-1.25 6.23-3.52 8.48-2.25 2.26-5.3 3.52-8.48 3.52h-24c-1.57 0-3.14-.31-4.59-.91-1.46-.6-2.79-1.49-3.9-2.61-1.12-1.1-2-2.44-2.59-3.89a11.8 11.8 0 0 1-.92-4.59v-24c0-1.58.31-3.14.92-4.59.59-1.46 1.47-2.79 2.59-3.9 1.11-1.11 2.44-2 3.9-2.6 1.45-.6 3.02-.91 4.59-.91h24c3.18 0 6.23 1.26 8.48 3.51 2.27 2.26 3.52 5.31 3.52 8.49zm0-80c0 3.18-1.25 6.23-3.52 8.48-2.25 2.26-5.3 3.52-8.48 3.52h-24c-1.57 0-3.14-.31-4.59-.91-1.46-.6-2.79-1.49-3.9-2.61-1.12-1.1-2-2.43-2.59-3.89a11.8 11.8 0 0 1-.92-4.59v-24c0-1.58.31-3.14.92-4.59.59-1.46 1.47-2.79 2.59-3.9 1.11-1.11 2.44-2 3.9-2.6 1.45-.6 3.02-.91 4.59-.91h24c3.18 0 6.23 1.26 8.48 3.51 2.27 2.26 3.52 5.31 3.52 8.49zm0-80c0 3.18-1.25 6.23-3.52 8.49-2.25 2.25-5.3 3.51-8.48 3.51h-24c-1.57 0-3.14-.31-4.59-.91-1.46-.6-2.79-1.49-3.9-2.6-1.12-1.11-2-2.44-2.59-3.9a11.8 11.8 0 0 1-.92-4.59v-24c0-1.58.31-3.14.92-4.59.59-1.46 1.47-2.79 2.59-3.9 1.11-1.11 2.44-2 3.9-2.6 1.45-.6 3.02-.91 4.59-.91h24c3.18 0 6.23 1.26 8.48 3.51 2.27 2.26 3.52 5.31 3.52 8.49zm241.69 124H158.12c-4.24 0-8.3-1.7-11.3-4.69-3-3-4.7-7.07-4.7-11.31s1.7-8.31 4.7-11.31 7.06-4.69 11.3-4.69h195.37a15.993 15.993 0 0 1 15.99 16c0 4.24-1.68 8.31-4.68 11.31-3 2.99-7.08 4.69-11.31 4.69m94.32 116a11.997 11.997 0 0 1-12 12H411.8c-1.57 0-3.14-.31-4.59-.91-1.46-.61-2.78-1.49-3.89-2.6-1.12-1.11-2-2.45-2.6-3.9a11.8 11.8 0 0 1-.92-4.59v-24c0-1.58.31-3.14.92-4.6.6-1.45 1.48-2.78 2.6-3.89 1.11-1.11 2.43-2 3.89-2.6 1.45-.6 3.02-.91 4.59-.91h24.01a11.997 11.997 0 0 1 12 12zm0-80c0 3.18-1.26 6.23-3.52 8.48a12 12 0 0 1-8.48 3.52H411.8c-1.57 0-3.14-.31-4.59-.91-1.46-.6-2.78-1.49-3.89-2.61-1.12-1.1-2-2.44-2.6-3.89a11.8 11.8 0 0 1-.92-4.59v-24c0-1.58.31-3.14.92-4.59.6-1.46 1.48-2.79 2.6-3.9 1.11-1.11 2.43-2 3.89-2.6 1.45-.6 3.02-.91 4.59-.91h24.01a11.997 11.997 0 0 1 12 12zm0-80c0 3.18-1.26 6.23-3.52 8.48a12 12 0 0 1-8.48 3.52H411.8c-1.57 0-3.14-.31-4.59-.91-1.46-.6-2.78-1.49-3.89-2.61-1.12-1.1-2-2.43-2.6-3.89a11.8 11.8 0 0 1-.92-4.59v-24c0-1.58.31-3.14.92-4.59.6-1.46 1.48-2.79 2.6-3.9 1.11-1.11 2.43-2 3.89-2.6 1.45-.6 3.02-.91 4.59-.91h24.01a11.997 11.997 0 0 1 12 12zm0-80a11.997 11.997 0 0 1-12 12H411.8c-1.57 0-3.14-.31-4.59-.91-1.46-.6-2.78-1.49-3.89-2.6-1.12-1.11-2-2.44-2.6-3.9a11.8 11.8 0 0 1-.92-4.59v-24c0-1.58.31-3.14.92-4.59.6-1.46 1.48-2.79 2.6-3.9 1.11-1.11 2.43-2 3.89-2.6 1.45-.6 3.02-.91 4.59-.91h24.01a11.997 11.997 0 0 1 12 12z" style="fill:currentcolor" /></svg>