<svg xmlns="http://www.w3.org/2000/svg" viewBox="0 0 512 512"><path d="M436.01 96H76c-3.68-.01-7.32.71-10.71 2.12-3.4 1.4-6.49 3.47-9.09 6.07-2.61 2.6-4.67 5.69-6.07 9.09A27.6 27.6 0 0 0 48 124v264.01c-.01 3.67.72 7.31 2.13 10.72 1.4 3.39 3.46 6.49 6.07 9.08 2.6 2.6 5.69 4.66 9.09 6.07A28.1 28.1 0 0 0 76 416h360.01c3.68 0 7.32-.72 10.72-2.12 3.4-1.41 6.49-3.47 9.09-6.07 2.6-2.59 4.65-5.69 6.07-9.08 1.4-3.41 2.13-7.05 2.12-10.72V124a28.04 28.04 0 0 0-8.21-19.79A28.04 28.04 0 0 0 436.01 96Z" style="stroke:currentcolor;stroke-linejoin:round;stroke-width:32;fill:none" /><path d="M436 336h-24c-3.67-.01-7.31.71-10.71 2.12-3.4 1.4-6.49 3.47-9.09 6.07s-4.67 5.69-6.07 9.09a27.6 27.6 0 0 0-2.12 10.72v24c-.01 3.68.71 7.32 2.12 10.73 1.4 3.39 3.47 6.49 6.07 9.08 2.6 2.6 5.69 4.66 9.09 6.07 3.4 1.4 7.04 2.12 10.71 2.12h24c3.69 0 7.33-.72 10.73-2.12 3.4-1.41 6.49-3.47 9.09-6.07 2.6-2.59 4.65-5.69 6.07-9.08 1.4-3.41 2.13-7.05 2.12-10.73v-24a28.04 28.04 0 0 0-8.21-19.79A28.05 28.05 0 0 0 436 336Z" style="stroke:currentcolor;stroke-linejoin:round;stroke-width:32;fill:none" /><path d="M436 256h-24c-3.67-.01-7.31.71-10.71 2.12-3.4 1.4-6.49 3.47-9.09 6.07s-4.67 5.69-6.07 9.09a27.6 27.6 0 0 0-2.12 10.72v24c-.01 3.68.71 7.32 2.12 10.72 1.4 3.4 3.47 6.49 6.07 9.09s5.69 4.66 9.09 6.07c3.4 1.4 7.04 2.12 10.71 2.12h24c3.69 0 7.33-.72 10.73-2.12 3.4-1.41 6.49-3.47 9.09-6.07s4.65-5.69 6.07-9.09c1.4-3.4 2.13-7.04 2.12-10.72v-24a28.04 28.04 0 0 0-8.21-19.79A28.05 28.05 0 0 0 436 256Z" style="stroke:currentcolor;stroke-linejoin:round;stroke-width:32;fill:none" /><path d="M436 176h-24c-3.67-.01-7.31.71-10.71 2.12-3.4 1.4-6.49 3.47-9.09 6.07s-4.67 5.69-6.07 9.09a27.6 27.6 0 0 0-2.12 10.72v24.01c-.01 3.67.71 7.31 2.12 10.72 1.4 3.39 3.47 6.49 6.07 9.08 2.6 2.6 5.69 4.66 9.09 6.07 3.4 1.4 7.04 2.12 10.71 2.12h24c3.69 0 7.33-.72 10.73-2.12 3.4-1.41 6.49-3.47 9.09-6.07 2.6-2.59 4.65-5.69 6.07-9.08 1.4-3.41 2.13-7.05 2.12-10.72V204a28.04 28.04 0 0 0-8.21-19.79A28.05 28.05 0 0 0 436 176Z" style="stroke:currentcolor;stroke-linejoin:round;stroke-width:32;fill:none" /><path d="M436 96h-24c-3.67-.01-7.31.71-10.71 2.12-3.4 1.4-6.49 3.47-9.09 6.07s-4.67 5.69-6.07 9.09a27.6 27.6 0 0 0-2.12 10.72v24.01c-.01 3.67.71 7.31 2.12 10.71 1.4 3.4 3.47 6.49 6.07 9.09s5.69 4.66 9.09 6.07c3.4 1.4 7.04 2.12 10.71 2.12h24c3.69 0 7.33-.72 10.73-2.12 3.4-1.41 6.49-3.47 9.09-6.07s4.65-5.69 6.07-9.09c1.4-3.4 2.13-7.04 2.12-10.71V124a28.04 28.04 0 0 0-8.21-19.79A28.05 28.05 0 0 0 436 96ZM100 336H76c-3.68-.01-7.32.71-10.71 2.12-3.4 1.4-6.49 3.47-9.09 6.07-2.61 2.6-4.67 5.69-6.07 9.09A27.6 27.6 0 0 0 48 364v24c-.01 3.68.72 7.32 2.13 10.73 1.4 3.39 3.46 6.49 6.07 9.08 2.6 2.6 5.69 4.66 9.09 6.07A28.1 28.1 0 0 0 76 416h24c3.68 0 7.33-.72 10.73-2.12 3.39-1.41 6.48-3.47 9.09-6.07 2.6-2.59 4.65-5.69 6.07-9.08 1.39-3.41 2.12-7.05 2.11-10.73v-24a28.03 28.03 0 0 0-8.2-19.79A28.07 28.07 0 0 0 100 336Z" style="stroke:currentcolor;stroke-linejoin:round;stroke-width:32;fill:none" /><path d="M100 256H76c-3.68-.01-7.32.71-10.71 2.12-3.4 1.4-6.49 3.47-9.09 6.07-2.61 2.6-4.67 5.69-6.07 9.09A27.6 27.6 0 0 0 48 284v24c-.01 3.68.72 7.32 2.13 10.72 1.4 3.4 3.46 6.49 6.07 9.09 2.6 2.6 5.69 4.66 9.09 6.07A28.1 28.1 0 0 0 76 336h24c3.68 0 7.33-.72 10.73-2.12 3.39-1.41 6.48-3.47 9.09-6.07 2.6-2.6 4.65-5.69 6.07-9.09 1.39-3.4 2.12-7.04 2.11-10.72v-24a28.03 28.03 0 0 0-8.2-19.79A28.07 28.07 0 0 0 100 256Z" style="stroke:currentcolor;stroke-linejoin:round;stroke-width:32;fill:none" /><path d="M100 176H76c-3.68-.01-7.32.71-10.71 2.12-3.4 1.4-6.49 3.47-9.09 6.07-2.61 2.6-4.67 5.69-6.07 9.09A27.6 27.6 0 0 0 48 204v24.01c-.01 3.67.72 7.31 2.13 10.72 1.4 3.39 3.46 6.49 6.07 9.08 2.6 2.6 5.69 4.66 9.09 6.07A28.1 28.1 0 0 0 76 256h24c3.68 0 7.33-.72 10.73-2.12 3.39-1.41 6.48-3.47 9.09-6.07 2.6-2.59 4.65-5.69 6.07-9.08 1.39-3.41 2.12-7.05 2.11-10.72V204a28.03 28.03 0 0 0-8.2-19.79A28.07 28.07 0 0 0 100 176Z" style="stroke:currentcolor;stroke-linejoin:round;stroke-width:32;fill:none" /><path d="M100 96H76c-3.68-.01-7.32.71-10.71 2.12-3.4 1.4-6.49 3.47-9.09 6.07-2.61 2.6-4.67 5.69-6.07 9.09A27.6 27.6 0 0 0 48 124v24.01c-.01 3.67.72 7.31 2.13 10.71 1.4 3.4 3.46 6.49 6.07 9.09 2.6 2.6 5.69 4.66 9.09 6.07A28.1 28.1 0 0 0 76 176h24c3.68 0 7.33-.72 10.73-2.12 3.39-1.41 6.48-3.47 9.09-6.07 2.6-2.6 4.65-5.69 6.07-9.09 1.39-3.4 2.12-7.04 2.11-10.71V124a28.03 28.03 0 0 0-8.2-19.79A28.07 28.07 0 0 0 100 96Z" style="stroke:currentcolor;stroke-linejoin:round;stroke-width:32;fill:none" /><path d="M356.01 96h-200c-3.69-.01-7.33.71-10.73 2.12-3.4 1.4-6.49 3.47-9.09 6.07s-4.65 5.69-6.07 9.09c-1.4 3.4-2.13 7.04-2.12 10.72v104.01c-.01 3.67.73 7.31 2.12 10.71 1.42 3.4 3.47 6.5 6.07 9.09 2.6 2.6 5.69 4.66 9.09 6.07 3.4 1.4 7.04 2.12 10.73 2.12h200c3.68 0 7.31-.72 10.71-2.12 3.4-1.41 6.49-3.47 9.09-6.07 2.6-2.59 4.67-5.69 6.07-9.09a27.8 27.8 0 0 0 2.13-10.71V124a28 28 0 0 0-8.22-19.79A28.02 28.02 0 0 0 356.01 96Z" style="stroke:currentcolor;stroke-linejoin:round;stroke-width:32;fill:none" /><path d="M356.01 256h-200c-3.69-.01-7.33.71-10.73 2.12-3.4 1.4-6.49 3.47-9.09 6.07s-4.65 5.69-6.07 9.09c-1.4 3.4-2.13 7.04-2.12 10.72v104c-.01 3.68.73 7.32 2.12 10.72 1.42 3.4 3.47 6.49 6.07 9.09s5.69 4.66 9.09 6.07c3.4 1.4 7.04 2.12 10.73 2.12h200c3.68 0 7.31-.72 10.71-2.12 3.4-1.41 6.49-3.47 9.09-6.07s4.67-5.69 6.07-9.09c1.41-3.4 2.14-7.04 2.13-10.72V284a28 28 0 0 0-8.22-19.79 28.02 28.02 0 0 0-19.78-8.21Z" style="stroke:currentcolor;stroke-linejoin:round;stroke-width:32;fill:none" /></svg>