<svg xmlns="http://www.w3.org/2000/svg" viewBox="0 0 512 512"><path d="M256 74.9c-103.9 0-188.3 84.23-188.3 188.2C67.7 367 152 451.31 256 451.31c49.8 0 97.8-19.83 133.1-55.13a188.16 188.16 0 0 0 55.1-133.08c0-49.9-19.8-97.77-55.1-133.08C353.8 94.74 305.8 74.9 256 74.9m0 28.31c1.6 0 3.1.17 4.6.24-28.5 20.89-51.9 47.99-68.5 79.23a29.2 29.2 0 0 0-14.5.23c-4.7 1.31-9.1 3.78-12.6 7.21-3.7 3.43-6.3 7.69-7.8 12.39-1.4 4.71-1.7 9.72-.7 14.55-21.6 10.55-41.8 23.88-60.1 39.63 1.7-41.22 19.3-80.18 49-108.78a159.75 159.75 0 0 1 110.6-44.7m54 87.85c-6.5.94-12.7 3.54-18 7.55s-9.6 9.28-12.3 15.34c-21.4-4.07-43.3-5.92-65.3-5.49-.6-6.79-3.4-13.15-8.2-17.99-.4-.35-.7-.52-1.1-.86 18.2-34.23 45.1-63.13 77.9-83.88 1.4.25 2.8.34 4.3.59 11.7 26.9 19.3 55.41 22.6 84.57zm-4.7-79.92c37.2 12.17 68.7 37.53 88.6 71.29-13.6 10.73-29.4 18.47-46.2 22.72-.8-.92-1.5-2.02-2.4-2.94-5.6-5.56-12.6-9.38-20.3-10.99 0-.53-.1-1.08-.2-1.61-3.2-26.85-9.8-53.21-19.5-78.47M289.5 261c-22 26.88-49.7 48.44-81.2 63.1-.6-.84-1.3-1.62-2-2.37-2.8-2.85-6.3-5.08-10-6.56-3.9-1.47-7.9-2.13-11.9-1.97-5.9-23.84-5.8-48.8.4-72.57 5.8.15 11.5-1.43 16.4-4.53 4.9-3.09 8.7-7.57 11-12.87 21.5-.57 42.9 1.1 64 4.98-.4 5.75.4 11.52 2.4 16.94 2 5.41 5.1 10.33 9.3 14.41.5.52 1 1.01 1.6 1.44M163 230.24c.5.66 1 1.28 1.7 1.86 1.8 1.77 3.8 3.28 6 4.48-7.3 26.45-7.4 54.33-.3 80.84-2.1 1.22-4 2.67-5.7 4.31-5.2 5.13-8.2 12-8.6 19.26-14.5-.35-29.1-2.7-42.9-7.02-9.2-18.16-14.8-37.93-16.4-58.19 19.9-18.3 42.1-33.64 66.2-45.54m-4.1 125.53h.3c2.9 6.11 8 10.98 14.2 13.76a28.43 28.43 0 0 0 19.6 1.36c12 19.5 27.1 36.73 45.1 50.93-23.2-2.62-45.4-10.22-65.1-22.29-20-12.06-36.8-28.29-49.9-47.57 11.9 2.54 23.9 3.81 35.8 3.81m47 7.86c.1-.09.2-.17.3-.26 3.3-3.33 5.8-7.4 7.1-11.87 1.5-4.48 1.8-9.26 1-13.9 34.2-15.78 64.2-39.32 87.8-68.75 2.6.99 5.4 1.69 8.2 2.11-6 52.11-21.9 102.61-46.7 148.83-24.1-13.01-44.1-32.46-57.7-56.16m73.6 57.27c24.5-46.87 40-97.85 45.8-150.37 7.7-1.6 14.6-5.42 20.1-10.97 1.1-1.05 2-2.19 2.8-3.39 13.2 3.2 25.4 9.11 36.2 17.38 10.7 8.28 19.5 18.69 26 30.6-8.2 30.08-24.8 57.14-48 77.88-23.3 20.73-52.1 34.25-82.9 38.87M355.2 243c2.5-8.05 2.4-16.65-.2-24.67 16.4-4.67 32-12.31 45.7-22.55 12.8 27 17.6 57.06 13.9 86.67-15.4-18.94-36-32.71-59.4-39.45" style="fill:currentcolor" /></svg>