<svg xmlns="http://www.w3.org/2000/svg" viewBox="0 0 512 512"><path d="M413.8 343.79c-23.6-28.89-40.3-43.6-40.3-123.2 0-72.99-37.2-98.89-67.9-111.59-2.13-.88-4.03-2.2-5.6-3.87a16.05 16.05 0 0 1-3.5-5.84c-1.57-9.6-6.5-18.35-13.93-24.66A40.98 40.98 0 0 0 256 64.86c-9.75 0-19.17 3.46-26.58 9.77a41.1 41.1 0 0 0-13.93 24.66c-.75 2.17-1.95 4.14-3.51 5.82-1.57 1.67-3.47 3-5.58 3.89-30.7 12.59-67.9 38.49-67.9 111.59 0 79.71-16.71 94.4-40.3 123.2a18.62 18.62 0 0 0-3.83 13.65c.58 4.87 3.07 9.32 6.93 12.36 3.62 2.8 8.12 4.18 12.7 3.89h284c3.55.2 7.09-.62 10.19-2.38a18.56 18.56 0 0 0 7.29-7.51c1.66-3.13 2.39-6.7 2.09-10.24a18.67 18.67 0 0 0-3.77-9.77" style="fill:currentcolor" /><path d="M213.8 429.39a58.5 58.5 0 0 0 19.25 13.17 58.6 58.6 0 0 0 45.7 0A58.5 58.5 0 0 0 298 429.39z" style="fill:none;stroke:currentcolor;stroke-linecap:round;stroke-linejoin:round;stroke-width:37" /></svg>