<svg xmlns="http://www.w3.org/2000/svg" viewBox="0 0 512 512"><path d="M413.8 343.7c-23.6-28.9-40.3-43.61-40.3-123.21 0-72.99-37.2-98.89-67.9-111.6-2.13-.87-4.03-2.18-5.6-3.86a16.05 16.05 0 0 1-3.5-5.84c-1.57-9.6-6.5-18.34-13.93-24.65a40.99 40.99 0 0 0-53.15 0 41.07 41.07 0 0 0-13.93 24.65c-.75 2.17-1.95 4.15-3.51 5.82-1.57 1.66-3.47 3-5.58 3.88-30.7 12.61-67.9 38.5-67.9 111.6 0 79.71-16.71 94.41-40.3 123.21-3.03 3.86-4.4 8.77-3.83 13.64.58 4.87 3.07 9.32 6.93 12.36a18.73 18.73 0 0 0 12.7 3.89h284c4.91.3 9.72-1.38 13.4-4.65a18.56 18.56 0 0 0 6.2-12.75c.26-4.49-1.09-8.92-3.8-12.49" style="stroke:currentcolor;stroke-linecap:round;stroke-linejoin:round;stroke-width:37;fill:none" /><path d="M314.8 373.7v14.6c0 15.59-6.19 30.55-17.23 41.57A58.76 58.76 0 0 1 256 447.09c-15.6 0-30.55-6.19-41.58-17.22a58.77 58.77 0 0 1-17.23-41.57v-14.6" style="stroke:currentcolor;stroke-linecap:round;stroke-linejoin:round;stroke-width:37;fill:none" /></svg>