<svg xmlns="http://www.w3.org/2000/svg" viewBox="0 0 512 512"><path d="M372.1 225.6v150.7c0 4.75-.92 9.45-2.75 13.86a35.9 35.9 0 0 1-7.85 11.74 36.1 36.1 0 0 1-11.73 7.85 36.3 36.3 0 0 1-13.87 2.75H118.8c-4.75 0-9.46-.93-13.86-2.75a36.23 36.23 0 0 1-19.59-19.6c-1.82-4.4-2.75-9.1-2.75-13.85V159.2c0-4.76.93-9.46 2.75-13.86 1.82-4.39 4.48-8.38 7.85-11.74 3.36-3.37 7.35-6.03 11.74-7.85 4.4-1.82 9.11-2.75 13.86-2.75h151.5M328.71 65.2H429.9v101.19M221.6 263.7 420.11 84.99" style="stroke:currentcolor;stroke-linecap:round;stroke-linejoin:round;stroke-width:39.699;fill:none" /></svg>