<svg xmlns="http://www.w3.org/2000/svg" viewBox="0 0 512 512"><path d="M321 87.5C304.5 69.79 281.5 60 256.2 60c-25.51 0-48.6 9.7-65.01 27.3-16.59 17.8-24.59 41.99-22.79 68.2 3.8 51.59 43.1 93.49 87.7 93.49 44.59 0 83.9-41.9 87.7-93.49 2-25.9-6.1-50.11-22.8-68M404.3 437H108.2c-3.88.06-7.71-.76-11.2-2.4a25.7 25.7 0 0 1-9.1-7.01 29.45 29.45 0 0 1-5.78-11.61 29.8 29.8 0 0 1-.23-12.98c7.1-39.5 29.31-72.7 64.1-96 30.9-20.71 70.1-32.11 110.41-32.11 40.3 0 79.4 11.4 110.4 32.11 34.8 23.3 57 56.5 64.1 96a30.3 30.3 0 0 1-.31 12.96c-1.04 4.24-2.98 8.2-5.69 11.63-2.47 3-5.58 5.39-9.1 7.01a27.6 27.6 0 0 1-11.5 2.4" style="fill:currentcolor" /></svg>