<svg viewBox="0 0 512 512" fill="none" xmlns="http://www.w3.org/2000/svg">
<path d="M196.5 392.996C192.5 391.996 179.44 391.996 172 391.996C162 391.996 106.16 391.996 47.8602 391.996C46.6702 391.986 45.4801 391.816 44.3201 391.496C42.5301 391.026 40.8497 390.206 39.3797 389.106C37.9197 388.006 36.6901 386.636 35.7801 385.076C34.8701 383.526 34.2997 381.816 34.0897 380.046C33.8797 378.276 34.0394 376.486 34.5594 374.786C48.3794 301.676 123.22 262.996 196.91 262.996C209.7 262.996 222.519 264.166 235.059 266.466C243.729 268.066 258.72 272.316 267 274.996C276.97 278.216 280.5 281.996 280.5 281.996" stroke="white" stroke-width="32" stroke-linejoin="round"/>
<path fill-rule="evenodd" clip-rule="evenodd" d="M204.47 210.997C167.06 210.997 132.99 176.167 129.76 133.297C128.12 114.467 134.38 95.7867 147.18 81.3567C159.97 66.9067 178.27 57.8866 198.03 56.2666C217.8 54.6366 237.44 60.5265 252.65 72.6665C267.86 84.8065 277.4 102.177 279.19 121.007C279.61 125.087 279.61 129.217 279.19 133.297C275.85 176.067 241.77 210.997 204.47 210.997Z" stroke="white" stroke-width="32" stroke-linecap="round" stroke-linejoin="round"/>
<path d="M406.35 173.996L406.69 174.006C409.64 174.116 412.43 175.376 414.46 177.516L473.88 236.806L473.86 236.826C478.7 241.656 478.7 249.496 473.86 254.336L471.52 256.666C467.6 260.596 463.49 264.736 459.3 268.986L446.62 281.856C441.57 286.976 436.61 291.986 431.97 296.616L424.12 304.446L423.9 304.206L301.78 426.106C294.99 432.896 286.77 438.086 277.71 441.286C274.81 442.286 271.86 443.126 268.88 443.816H268.58L257.69 446.546L240.97 450.706L226.18 454.476L223.53 455.126C222.65 455.346 221.76 455.556 220.86 455.756L219.69 456.016H214.26L212.9 455.636C206.75 454.436 201.43 450.616 198.33 445.186C197.12 443.036 196.26 440.696 195.78 438.276L195.5 437.046V431.686L196.56 427.676C196.88 426.296 197.22 424.926 197.55 423.566L198.07 421.516C199.79 414.606 201.52 407.706 203.26 400.796L204.73 394.906L206.7 387.026C207.36 384.396 208.03 381.776 208.71 379.156C211.02 370.106 215.3 361.666 221.24 354.436C222.4 353.026 223.63 351.666 224.91 350.366L338.61 236.896L342.39 233.016L346.16 229.256L349.84 225.596L353.73 221.836L353.99 221.606L383.03 192.616L387.05 188.666L390.73 184.896L394.33 181.346L398.29 177.386C400.41 175.226 403.32 174.006 406.35 173.996ZM398.22 207.926L244.69 361.286L289.24 407.976L443.96 253.726L398.22 207.926Z" fill="white"/>
</svg>
