<svg xmlns="http://www.w3.org/2000/svg" viewBox="0 0 512 512"><path d="M327.6 151.7c-3.2 43.09-35.91 78.3-71.7 78.3-35.9 0-68.6-35.1-71.7-78.3a71.93 71.93 0 0 1 16.71-52.36 71.96 71.96 0 0 1 48.8-25.29 72 72 0 0 1 52.43 16.54 71.95 71.95 0 0 1 25.46 48.71c.4 4.12.4 8.28 0 12.4M256 282.2c-70.9 0-142.91 39.1-156.2 113a13.67 13.67 0 0 0 1.17 10.4c.88 1.58 2.06 2.97 3.46 4.08 1.42 1.11 3.03 1.94 4.76 2.41 1.11.33 2.26.5 3.4.51H399.6c2.71-.07 5.34-.95 7.55-2.53 2.21-1.56 3.91-3.75 4.87-6.3 1.03-2.77 1.16-5.81.38-8.67C399 321.3 326.9 282.2 256 282.2" style="stroke:currentcolor;stroke-linecap:round;stroke-linejoin:round;stroke-width:37;fill:none" /></svg>