<svg xmlns="http://www.w3.org/2000/svg" viewBox="0 0 512 512"><path d="M396.097 246.1 164.194 85.5a13.5 13.5 0 0 0-4.787-2.08c-1.717-.37-3.492-.4-5.219-.07-1.728.3-3.377.97-4.852 1.91a13.4 13.4 0 0 0-3.743 3.64 13.7 13.7 0 0 0-2.4 7.61v321.4a13.3 13.3 0 0 0 1.029 5.1 13.2 13.2 0 0 0 2.909 4.32 13.4 13.4 0 0 0 4.347 2.89c1.624.65 3.363 1 5.116.98 2.723.03 5.382-.82 7.6-2.39l231.903-160.6c1.448-1 2.684-2.28 3.64-3.75a13.4 13.4 0 0 0 1.925-4.85c.316-1.72.287-3.51-.084-5.22a13.2 13.2 0 0 0-2.08-4.78 13.8 13.8 0 0 0-3.401-3.41z" style="fill:currentcolor" /></svg>