<svg xmlns="http://www.w3.org/2000/svg" viewBox="0 0 512 512"><path d="M309.61 125.026c4.57 19.375 21.98 33.808 42.77 33.808 24.26 0 43.92-19.663 43.92-43.918C396.3 90.663 376.64 71 352.38 71c-21.22 0-38.92 15.03-43.04 35.022-35.52 3.809-63.27 33.931-63.27 70.436v.225c-38.63 1.628-73.91 12.623-101.92 29.979a61.28 61.28 0 0 0-37.63-12.848c-34 0-61.56 27.549-61.56 61.542 0 24.666 14.5 45.913 35.44 55.734C82.43 382.534 160.31 440 256.1 440s173.77-57.527 175.7-129.034c20.79-9.882 35.16-31.068 35.16-55.59 0-33.992-27.56-61.542-61.56-61.542-14.11 0-27.1 4.757-37.48 12.746-28.26-17.48-63.92-28.475-102.96-29.938v-.163c0-26.149 19.44-47.85 44.65-51.412zM141.68 294.414c1.03-22.319 15.85-39.449 33.09-39.449s30.42 18.098 29.39 40.416c-1.03 22.319-13.9 30.43-31.16 30.43s-32.35-9.079-31.32-31.397m195.78-39.449c17.25 0 32.08 17.13 33.1 39.449s-14.09 31.397-31.33 31.397c-17.23 0-30.13-8.09-31.16-30.43-1.02-22.318 12.13-40.416 29.39-40.416m-20.52 91.086c3.24.33 5.31 3.686 4.04 6.692-10.61 25.345-35.65 43.155-64.88 43.155-29.22 0-54.24-17.81-64.87-43.155-1.26-3.006.8-6.362 4.04-6.692 18.94-1.915 39.44-2.965 60.83-2.965 21.4 0 41.87 1.05 60.84 2.965" style="fill:currentcolor" /></svg>