<svg xmlns="http://www.w3.org/2000/svg" viewBox="0 0 512 512"><path d="M301.97 120.028a28.5 28.5 0 0 0-20.7-8.899c-4.04-.096-8.06.646-11.79 2.176a29.3 29.3 0 0 0-9.91 6.723l-20.71 20.7-177.5 177.4a29.1 29.1 0 0 0-7.84 8.26 29.2 29.2 0 0 0-4.1 10.638c-.65 3.78-.55 7.652.3 11.393a29.1 29.1 0 0 0 4.64 10.409c.89 1.288 1.9 2.493 3 3.601q45.9 47.249 91.8 91.599a27.466 27.466 0 0 0 38.8.6l1.51-1.5c5.9-4.9 10.79-10.8 16.79-15.8l182.31-182.4c15.8-15.8 16.8-31.499 2-45.399-28.5-30.401-58.1-60-88.6-89.501m-179.3 243.3c-2.6.239-5.23-.037-7.73-.812a19.7 19.7 0 0 1-6.8-3.707 19.8 19.8 0 0 1-4.89-6.037 20.2 20.2 0 0 1-2.19-7.444c-.08-.865-.11-1.732-.1-2.6a20.1 20.1 0 0 1 1.08-7.912c.86-2.54 2.24-4.883 4.02-6.892a20.4 20.4 0 0 1 6.37-4.809 20.4 20.4 0 0 1 7.74-1.987h1.49c2.54-.307 5.11-.11 7.58.579 2.45.689 4.74 1.856 6.75 3.435 2.02 1.58 3.68 3.54 4.94 5.768a19.6 19.6 0 0 1 2.33 7.219c.13 1.227.17 2.465.1 3.699.32 2.536.11 5.108-.57 7.567-.69 2.46-1.85 4.76-3.44 6.767a19.3 19.3 0 0 1-5.77 4.93 19.4 19.4 0 0 1-7.21 2.336c-1.31 0-2.51 0-3.7-.1m47.29 48.3c-3.93.175-7.81-.821-11.17-2.862a19.9 19.9 0 0 1-7.71-8.599 20.3 20.3 0 0 1-1.82-7.539c-.02-.868.01-1.737.1-2.6a19.26 19.26 0 0 1 4.48-13.96 19.25 19.25 0 0 1 13.02-6.74c1.07-.1 2.14-.1 3.2 0a20.6 20.6 0 0 1 7.86 1.458c2.49.998 4.75 2.475 6.68 4.351a20.5 20.5 0 0 1 4.52 6.582 20.4 20.4 0 0 1 1.64 7.809v1.5a19.58 19.58 0 0 1-4.97 14.174 19.64 19.64 0 0 1-13.53 6.526c-.75-.08-1.53-.113-2.3-.1m0-95.6c-3.93.175-7.81-.821-11.17-2.862a19.9 19.9 0 0 1-7.71-8.599 20.3 20.3 0 0 1-1.82-7.539c-.02-.868.01-1.737.1-2.599a22.1 22.1 0 0 1 6.05-15.802 22.15 22.15 0 0 1 15.45-6.899h.11a21.13 21.13 0 0 1 14.5 7.17 21.13 21.13 0 0 1 5.19 15.33v.201c.17 2.678-.18 5.366-1.04 7.908a20.4 20.4 0 0 1-4.01 6.904 20.3 20.3 0 0 1-6.34 4.843 20.3 20.3 0 0 1-7.7 2.044 8.3 8.3 0 0 1-1.61-.1m47.31 47.3a19.67 19.67 0 0 1-14.18-4.976 19.7 19.7 0 0 1-6.53-13.523v-2.101a21.13 21.13 0 0 1 6.42-14.775 21.08 21.08 0 0 1 14.98-5.924h.3a21.72 21.72 0 0 1 14.99 6.009 21.75 21.75 0 0 1 6.71 14.69c-.08 2.806-.71 5.57-1.84 8.133a21.4 21.4 0 0 1-4.85 6.795 21.27 21.27 0 0 1-15.31 5.772 1.9 1.9 0 0 0-.69-.1m55.99-63a61.63 61.63 0 0 1-34.13-10.653 61.57 61.57 0 0 1-22.45-27.811 61.5 61.5 0 0 1-3.23-35.604 61.5 61.5 0 0 1 17.07-31.405 61.66 61.66 0 0 1 31.66-16.625 61.6 61.6 0 0 1 35.55 3.752 61.7 61.7 0 0 1 27.49 22.867 61.6 61.6 0 0 1 10.15 34.279 60.9 60.9 0 0 1-4.61 23.353 61 61 0 0 1-13.18 19.815 61.05 61.05 0 0 1-43.11 17.932h-1.21zm168.51-198.999a121 121 0 0 0-34.04-34.108 121 121 0 0 0-44.66-18.093c-15.8-1-22.7 3.9-23.61 12.8 0 10.8 6.91 14.8 15.8 15.8a66.8 66.8 0 0 1 27.61 9.8 101.1 101.1 0 0 1 33.46 29.193 101.3 101.3 0 0 1 17.74 40.708 15.6 15.6 0 0 0 4.39 11.055 15.6 15.6 0 0 0 10.91 4.744h.4c8.9 0 13.8-6.9 13.8-17.7a97.07 97.07 0 0 0-21.8-54.199m-93.5-4c-8 0-14.81 2.999-15.8 11.8-.91 3.42-.43 7.061 1.32 10.13a13.5 13.5 0 0 0 8.08 6.27c.8.237 1.65.372 2.5.399a50.3 50.3 0 0 1 28.2 14.189 50.3 50.3 0 0 1 14.2 28.211 14.597 14.597 0 0 0 16.1 12.9c.19 0 .49-.1.69-.1 3.4-.271 6.55-1.877 8.75-4.462a12.83 12.83 0 0 0 3.05-9.337 76.75 76.75 0 0 0-21.11-46.926 76.77 76.77 0 0 0-45.98-23.075m-73.9 108.4c-4.21-.202-8.41.426-12.37 1.851a32.1 32.1 0 0 0-10.72 6.45 31.9 31.9 0 0 0-7.41 10.061 31.7 31.7 0 0 0-3 12.137v3a31.26 31.26 0 0 0 7.59 22.692 31.37 31.37 0 0 0 21.4 10.708c1.21.1 2.31.1 3.5.1a32 32 0 0 0 12.37-1.814 32.1 32.1 0 0 0 10.75-6.417 31.8 31.8 0 0 0 7.44-10.04 32.3 32.3 0 0 0 3.05-12.129c.1-1.031.1-2.069 0-3.1a31.93 31.93 0 0 0-8.14-22.96 31.94 31.94 0 0 0-21.96-10.539z" style="fill:currentcolor" /></svg>