<svg xmlns="http://www.w3.org/2000/svg" viewBox="0 0 512 512"><path d="M391.2 311.6H282.1c-3.66 0-7.17 1.45-9.76 4.04-2.59 2.6-4.03 6.1-4.03 9.76s1.44 7.17 4.03 9.76 6.1 4.04 9.76 4.04h109.1c3.66 0 7.18-1.45 9.76-4.04 2.59-2.59 4.05-6.1 4.05-9.76s-1.46-7.16-4.05-9.76a13.78 13.78 0 0 0-9.76-4.04" style="fill:currentcolor" /><path d="M424.1 210.6v-30a47.54 47.54 0 0 0-13.92-33.58c-8.9-8.91-20.97-13.9-33.58-13.92H98.49a47.63 47.63 0 0 0-33.56 13.93A47.57 47.57 0 0 0 51 180.6v179a47.6 47.6 0 0 0 13.93 33.58c8.9 8.9 20.98 13.9 33.56 13.92H217.5a144.2 144.2 0 0 0 45.18 42.53 144.2 144.2 0 0 0 58.87 19.66c20.81 2.2 41.85-.14 61.68-6.86a144.5 144.5 0 0 0 53.09-32.12 144.4 144.4 0 0 0 34.74-51.43c7.71-19.45 11.1-40.35 9.95-61.24a144.4 144.4 0 0 0-16.69-59.77 144.4 144.4 0 0 0-40.22-47.27M98.49 376.4c-4.47-.01-8.76-1.79-11.93-4.96a16.85 16.85 0 0 1-4.96-11.94V180.51c.01-4.49 1.78-8.78 4.96-11.94 3.17-3.18 7.46-4.96 11.93-4.97H376.6c4.48.01 8.77 1.79 11.94 4.97 3.17 3.16 4.95 7.45 4.96 11.94v12a144.14 144.14 0 0 0-82.71-9.46 144.2 144.2 0 0 0-74.18 37.82 144.3 144.3 0 0 0-40.94 72.5 144.33 144.33 0 0 0 5.94 83.03zm238.21 66.01a117 117 0 0 1-46.64-9.74 117 117 0 0 1-38.86-27.56l-4.5-5.51c-5.19-6.42-9.71-13.36-13.5-20.7l-1.29-2.5h-.51a116.87 116.87 0 0 1 18-128.61 116.9 116.9 0 0 1 57.91-35.37c22.38-5.81 45.98-4.84 67.8 2.77 21.83 7.6 40.91 21.51 54.84 39.96a117 117 0 0 1 23.4 63.71 116.97 116.97 0 0 1-15.95 65.95 116.7 116.7 0 0 1-49.9 45.99 115.46 115.46 0 0 1-50.8 11.61M140.6 72.5h213c9.1-.29 16.2-7.3 16-15.8-.3-8.1-7.29-14.6-16-14.89h-213c-9.1.29-16.2 7.3-16 15.8.3 8.1 7.3 14.6 16 14.89M116.79 118.6H372c8.9 0 16.1-6.89 16.1-15.3 0-8.5-7.2-15.29-16.1-15.29H116.89c-8.89 0-16.09 6.9-16.09 15.29 0 8.41 7.2 15.3 15.99 15.3" style="fill:currentcolor" /></svg>