<svg xmlns="http://www.w3.org/2000/svg" viewBox="0 0 512 512"><path d="m114.39 169.44 18.88-21.96a171.1 171.1 0 0 1 56.64-39.35 171.2 171.2 0 0 1 67.55-13.81c94.78 0 171.69 76.91 171.69 171.7 0 94.78-76.91 171.69-171.69 171.69-35.52 0-70.14-11.02-99.15-31.51a171.75 171.75 0 0 1-62.76-82.94" style="stroke:currentcolor;stroke-linecap:round;stroke-miterlimit:10;stroke-width:34;fill:none" /><path d="M57.16 124.22v98.88c0 1.87.36 3.73 1.08 5.47.73 1.74 1.78 3.31 3.1 4.64 1.34 1.32 2.91 2.39 4.66 3.09 1.72.73 3.58 1.1 5.47 1.1h98.87c2.83 0 5.6-.84 7.96-2.4a14.43 14.43 0 0 0 5.28-6.43c1.08-2.62 1.35-5.49.81-8.27-.55-2.78-1.93-5.32-3.92-7.33L81.58 114.1c-2.01-2-4.55-3.38-7.33-3.93-2.78-.54-5.65-.27-8.27.81a14.3 14.3 0 0 0-6.42 5.27 14.24 14.24 0 0 0-2.4 7.97" style="fill:currentcolor" /></svg>