<svg xmlns="http://www.w3.org/2000/svg" viewBox="0 0 512 512"><path d="M346.58 103.2c-23.33-12.88-49.1-20.1-75.31-21.43l23.74-23.72c5.27-5.27 5.27-13.81 0-19.09-5.28-5.27-13.82-5.27-19.09 0l-45.97 45.97a13.44 13.44 0 0 0-3.92 10.56c-.29 3.78 1.03 7.67 3.92 10.56l45.97 45.96c5.27 5.27 13.81 5.27 19.09 0 5.27-5.26 5.27-13.81 0-19.08l-20.97-20.97c20.23 1.62 40.04 7.5 58.08 17.45a144.13 144.13 0 0 1 66.1 77.7 144.05 144.05 0 0 1-1.94 102.01c-11.2 27.97-30.85 51.59-56 67.72-6.96 4.46-9.99 13.4-6.27 20.79 3.71 7.38 12.76 10.41 19.8 6.09a174.13 174.13 0 0 0 70.27-83.47 173.98 173.98 0 0 0-77.5-217.05M164.96 409.38a174.3 174.3 0 0 0 75.31 21.4l-23.73 23.74c-5.27 5.27-5.27 13.81 0 19.08 5.28 5.27 13.83 5.27 19.1 0l45.96-45.96c2.9-2.89 4.2-6.78 3.92-10.56.28-3.79-1.02-7.68-3.92-10.56l-45.96-45.96c-5.27-5.28-13.82-5.28-19.1 0-5.27 5.27-5.27 13.81 0 19.08l20.96 20.95c-20.21-1.62-40.02-7.5-58.07-17.45a144.02 144.02 0 0 1-66.1-77.7 144 144 0 0 1 1.94-101.99 144 144 0 0 1 55.99-67.73c6.97-4.46 10-13.4 6.28-20.78-3.72-7.4-12.76-10.43-19.79-6.08a173.76 173.76 0 0 0-70.28 83.45 173.93 173.93 0 0 0-2.34 123.2 174.07 174.07 0 0 0 79.83 93.87" style="fill:currentcolor;fill-rule:evenodd;clip-rule:evenodd" /></svg>