<svg xmlns="http://www.w3.org/2000/svg" viewBox="0 0 512 512"><path d="m456.698 437.4-94.102-94.1a173.26 173.26 0 0 0 34.801-104.61C397.397 142.4 318.996 64 222.695 64c-96.302 0-174.703 78.4-174.703 174.8 0 96.29 78.401 174.7 174.703 174.7 37.71 0 74.407-12.22 104.602-34.8l94.101 94.09a24.97 24.97 0 0 0 12.645 6.1c4.712.77 9.547.18 13.933-1.7a24.95 24.95 0 0 0 10.824-8.93 25 25 0 0 0 4.298-13.36 25.92 25.92 0 0 0-6.4-17.5M97.893 238.8a124.7 124.7 0 0 1 32.268-83.75 124.67 124.67 0 0 1 80.149-40.38 124.66 124.66 0 0 1 86.507 23.9 124.7 124.7 0 0 1 48.05 75.79c6.054 30.36.6 61.89-15.3 88.44a124.8 124.8 0 0 1-70.723 55.26 124.7 124.7 0 0 1-89.509-6.57 124.67 124.67 0 0 1-61.922-64.95 124.7 124.7 0 0 1-9.52-47.74" style="fill:currentcolor" /></svg>