<svg xmlns="http://www.w3.org/2000/svg" viewBox="0 0 512 512"><path d="M221.095 64A156.94 156.94 0 0 0 115.7 104.71a156.97 156.97 0 0 0-50.755 100.94 157 157 0 0 0 30.177 108.88 157.02 157.02 0 0 0 95.476 60.41c38.22 7.58 77.897.69 111.315-19.36a156.943 156.943 0 0 0 61.152-201.75 157 157 0 0 0-81.841-77.89A156.9 156.9 0 0 0 221.095 64Z" style="stroke:currentcolor;stroke-miterlimit:10;stroke-width:32;fill:none" /><path d="m338.297 338.3 109.7 109.7" style="stroke:currentcolor;stroke-linecap:round;stroke-miterlimit:10;stroke-width:32;fill:none" /></svg>