<svg xmlns="http://www.w3.org/2000/svg" viewBox="0 0 512 512"><path d="M462.69 132.61c-7.79-5.51-16.69-6.3-25.69-6.3H286.19c-3.4 0-6.99.89-11.3-1.8 12.71-13.41 24.91-26.21 37.01-39.1 8.39-8.9 16.79-17.71 25-26.71 4.49-5 6.6-10.7 1.09-16.19-5.5-5.5-10.99-3.11-15.99 1.4-1.51 1.4-2.9 2.89-4.3 4.29-18.2 19.1-36.51 38.2-54.4 57.6-4.71 5-8.1 6.5-13.01.5-4.69-5.6-10-10.5-15-15.8-14.9-15.5-29.59-31.1-44.59-46.59-4.41-4.71-9.51-7.3-15.31-2.31-5.79 5-4.7 10.81-.4 16.2 1.9 2.2 3.81 4.4 5.9 6.4 17 17.9 34.11 35.7 51 53.81 1.81 1.89 5.8 3.59 4.21 6.79-1.41 2.8-5.3 1.51-8.1 1.51H75.49c-27.5.09-39.9 12.69-39.9 40.1V400c0 27.6 12.3 40.01 39.7 40.01H436.1c5.22-.03 10.45-.5 15.6-1.4a30.24 30.24 0 0 0 17.24-10.29c4.4-5.29 6.86-11.93 6.96-18.82.1-84 .1-167.96 0-251.9.4-11-4.61-18.9-13.21-24.99M361.6 375.7a28 28 0 0 1-8.22 19.79 28.02 28.02 0 0 1-19.78 8.21H103a28.05 28.05 0 0 1-19.8-8.21 28.04 28.04 0 0 1-8.21-19.79V188.4a28.06 28.06 0 0 1 8.21-19.79c5.25-5.24 12.37-8.2 19.8-8.21h230.6c7.41.01 14.54 2.97 19.78 8.21a28.03 28.03 0 0 1 8.22 19.79zM419.89 272c-5.7-.12-11.12-2.4-15.22-6.36a22.6 22.6 0 0 1-6.77-15.04 21.3 21.3 0 0 1 6.1-15.1c3.95-4.05 9.35-6.34 15-6.4h.4c12.89-.09 21.39 8.1 21.49 20.8.11 5.71-2.02 11.22-5.96 15.36a21.67 21.67 0 0 1-15.04 6.74m-.49-67.49c-4.26 0-8.42-1.27-11.96-3.63a21.5 21.5 0 0 1-7.92-9.65 21.6 21.6 0 0 1-1.23-12.43 21.5 21.5 0 0 1 5.89-11.02c3.01-3.01 6.83-5.05 11.02-5.88a21.5 21.5 0 0 1 12.43 1.22 21.515 21.515 0 0 1 13.26 19.89c.09 5.56-2.01 10.96-5.88 14.99a21.27 21.27 0 0 1-14.72 6.51z" style="fill:currentcolor" /></svg>