<svg width="512" height="512" viewBox="0 0 512 512" fill="none" xmlns="http://www.w3.org/2000/svg">
<path d="M464 250C464 247.333 463 245 461 243L455 240L429 236L426 234L424 231L423 222V218L425 216L448 203L453 198V190L449 179C448.333 177 446.667 175.333 444 174C442 172.667 439.667 172.333 437 173L412 178L408 177L406 175L401 167C400.404 165.878 400.18 164.595 400.359 163.337C400.539 162.079 401.114 160.91 402 160L419 141L421 134C421.667 131.333 421 129 419 127L412 118C410.409 115.878 408.04 114.475 405.414 114.1C402.789 113.725 400.122 114.409 398 116L376 129C375.065 129.916 373.809 130.429 372.5 130.429C371.191 130.429 369.935 129.916 369 129L362 122L360 120V116L369 91.9998C370.096 89.7279 370.292 87.1258 369.551 84.7151C368.809 82.3043 367.183 80.2628 365 78.9998L355 72.9998C353 70.9998 350.667 70.6665 348 71.9998C345.333 72.6665 343 73.9998 341 75.9998L325 95.9998L323 97.9998H319L310 93.9998L307 91.9998L306 88.9998V62.9998C306.667 60.3332 306 57.9998 304 55.9998C302.667 53.3332 300.667 51.9998 298 51.9998L286 49.9998C284 49.3332 281.667 49.6665 279 50.9998L275 56.9998L266 81.9998L264 84.9998H251C249.667 85.6665 248.667 85.3332 248 83.9998L246 81.9998L237 56.9998C237 54.9998 235.667 52.9998 233 50.9998L226 49.9998L214 51.9998C211.333 51.9998 209.333 53.3332 208 55.9998C206 57.9998 205.333 60.3332 206 62.9998V88.9998L205 91.9998L202 93.9998L193 97.9998C190.333 98.6665 188.333 97.9998 187 95.9998L170 75.9998C169.333 73.9998 167.333 72.6665 164 71.9998C162 71.3332 159.667 71.6665 157 72.9998L147 78.9998L142 83.9998V91.9998L152 116V119C152 121 151.333 122 150 122L143 128C142.606 128.525 142.113 128.968 141.548 129.302C140.983 129.637 140.357 129.857 139.707 129.95C139.057 130.042 138.395 130.006 137.759 129.843C137.123 129.68 136.525 129.394 136 129L114 115L107 114L100 117L93.0001 126C91.1679 127.869 90.1416 130.382 90.1416 133C90.1416 135.617 91.1679 138.131 93.0001 140L111 160L112 163L111 166L106 175L104 177H100L75.0001 173C72.612 172.335 70.0619 172.58 67.8446 173.689C65.6273 174.797 63.9008 176.69 63.0001 179L59.0001 190V197C60.3335 200.333 62.0001 202.333 64.0001 203L87.0001 216L89.0001 218V223L87.0001 231L86.0001 234L83.0001 236L57.0001 240C54.5249 240.249 52.2312 241.411 50.5671 243.26C48.9029 245.109 47.9877 247.512 48.0001 250V262C47.9877 264.488 48.9029 266.89 50.5671 268.74C52.2312 270.589 54.5249 271.751 57.0001 272L83.0001 276L86.0001 278L87.0001 281L89.0001 290V294L87.0001 296L64.0001 309L59.0001 314V322L63.0001 333C63.6668 335 65.3335 336.667 68.0001 338C70.0001 339.333 72.3335 339.667 75.0001 339L100 334L104 335L106 337L111 345C111.733 346.02 112.127 347.244 112.127 348.5C112.127 349.756 111.733 350.98 111 352L94.0001 372C92.306 373.689 91.2736 375.929 91.0901 378.314C90.9066 380.7 91.5843 383.072 93.0001 385L100 394C101.591 396.122 103.96 397.524 106.586 397.899C109.211 398.274 111.878 397.591 114 396L136 383C137.061 382.204 138.394 381.863 139.707 382.05C141.02 382.238 142.204 382.939 143 384L150 390C151.333 390.667 152 391.667 152 393V396L143 420C141.904 422.272 141.708 424.874 142.45 427.285C143.191 429.695 144.817 431.737 147 433L157 439C158.111 439.739 159.359 440.248 160.67 440.497C161.98 440.746 163.328 440.73 164.632 440.451C165.937 440.171 167.173 439.633 168.266 438.869C169.36 438.105 170.289 437.129 171 436L187 416L192 414L202 418L205 420L206 423V449C205.333 451.667 206 454 208 456C209.333 458.667 211.333 460 214 460L226 462C228.34 462.158 230.67 461.565 232.649 460.305C234.628 459.046 236.153 457.187 237 455L246 430L248 428C249.333 426.667 250.333 426.333 251 427H261L264 428L266 430L275 455C275.667 457 277 458.667 279 460C280.333 462 282.333 462.667 285 462H287L298 460C301.333 459.333 303.333 458 304 456C306 454 307 451.667 307 449L306 423L307 420L310 418L319 415C322.333 414.333 324.333 414.667 325 416L342 436C343.418 438.012 345.528 439.431 347.927 439.985C350.325 440.538 352.844 440.188 355 439L365 433L370 428V420L360 396V393L362 390L369 384L373 382L376 383L398 396C400.667 398 403 398.667 405 398C407.667 398 410 396.667 412 394L419 385C421 383.667 422 381.667 422 379C422 376.333 421 374 419 372L402 352L400 349L401 345L406 337L409 335L412 334L437 339C438.246 339.477 439.575 339.699 440.909 339.655C442.242 339.61 443.553 339.299 444.765 338.74C445.976 338.181 447.064 337.385 447.963 336.399C448.862 335.413 449.555 334.258 450 333L453 322V314L449 309L426 296L423 294V289L425 281L426 278L429 276L455 272C457.475 271.751 459.769 270.589 461.433 268.74C463.097 266.89 464.013 264.488 464 262V250ZM182 344C180.667 346 178.667 347.667 176 349C173.976 350.384 171.661 351.284 169.233 351.631C166.806 351.977 164.331 351.762 162 351L156 347C133.303 322.128 120.72 289.672 120.72 256C120.72 222.328 133.303 189.872 156 165L163 161L170 160C172.487 160.301 174.868 161.182 176.953 162.571C179.037 163.961 180.766 165.82 182 168L228 248C229.404 250.432 230.144 253.191 230.144 256C230.144 258.808 229.404 261.568 228 264L182 344ZM256 391C246 391 236.667 390 228 388C224.295 387.293 220.958 385.3 218.58 382.373C216.201 379.445 214.933 375.771 215 372L217 365L263 285L269 279L277 277H369C371.484 276.922 373.952 277.423 376.209 278.465C378.465 279.506 380.448 281.059 382 283L385 290L384 297C367 352 316 391 256 391ZM263 227L218 147L216 140C215.885 136.366 217.011 132.802 219.192 129.894C221.373 126.986 224.48 124.907 228 124C260.651 117.223 294.654 122.77 323.458 139.573C352.262 156.375 373.828 183.243 384 215L385 222C384.293 225.705 382.3 229.042 379.373 231.42C376.445 233.799 372.772 235.067 369 235H277C274.333 235.666 271.667 235 269 233L263 227Z" fill="white"/>
</svg>
