<svg xmlns="http://www.w3.org/2000/svg" viewBox="0 0 512 512"><path d="m456.69 242.3-26.1-4.2a8.2 8.2 0 0 1-4.4-2.3 8.36 8.36 0 0 1-2.2-4.5c-.5-3.2-1-6.4-1.7-9.5-.31-1.66-.1-3.37.6-4.9a8.57 8.57 0 0 1 3.3-3.7l23.1-12.8a7.77 7.77 0 0 0 3.8-4.21c.68-1.82.72-3.84.1-5.69l-4-11a8.16 8.16 0 0 0-3.69-4.3 8.04 8.04 0 0 0-5.71-.7l-25.9 5c-1.69.29-3.43.09-5-.6a7.34 7.34 0 0 1-3.6-3.5q-2.25-4.2-4.8-8.4a8.18 8.18 0 0 1-1.2-4.91c.13-1.74.79-3.37 1.9-4.69l17.3-19.91a8.4 8.4 0 0 0 2.2-5.19c.09-1.98-.59-3.92-1.9-5.4l-7.5-9a7.87 7.87 0 0 0-5-2.8c-1.93-.29-3.9.19-5.5 1.3l-22.7 13.59a8.1 8.1 0 0 1-4.8 1.11 7.4 7.4 0 0 1-4.6-2c-2.4-2.1-4.9-4.2-7.4-6.21a8.25 8.25 0 0 1-2.7-4.2c-.45-1.65-.38-3.39.2-4.99l9.4-24.81c.8-1.8.9-3.85.29-5.72a8.13 8.13 0 0 0-3.59-4.47l-10.2-5.9a7.83 7.83 0 0 0-5.6-.9 8.1 8.1 0 0 0-4.8 3.1l-16.6 20.8a6.93 6.93 0 0 1-3.8 2.7 7.63 7.63 0 0 1-4.7-.2s-5.6-2.3-9.8-3.7a8.17 8.17 0 0 1-3.98-2.97 8.1 8.1 0 0 1-1.52-4.73l.4-26.4c.1-1.99-.5-3.93-1.7-5.5a8.64 8.64 0 0 0-4.9-3l-11.6-2.01c-1.94-.28-3.92.11-5.6 1.11a8.13 8.13 0 0 0-3.5 4.5l-8.6 25.1c-.58 1.6-1.63 3-3 4a7.56 7.56 0 0 1-4.81 1.4h-9.79c-1.7 0-3.37-.49-4.8-1.4a7.88 7.88 0 0 1-3-4l-8.6-25.1a7.9 7.9 0 0 0-3.5-4.5c-1.68-1-3.67-1.39-5.6-1.11L213.69 52a8.15 8.15 0 0 0-4.91 3 8.4 8.4 0 0 0-1.69 5.5l.4 26.4a8.2 8.2 0 0 1-1.51 4.8 8.45 8.45 0 0 1-3.99 3c-2.31.9-7.3 2.8-9.7 3.69-2.8 1-6.1.2-8.8-2.89l-16.51-20.3a8.1 8.1 0 0 0-4.79-3.1 7.82 7.82 0 0 0-5.6.9l-10.2 5.9c-1.71.96-3 2.53-3.61 4.4-.6 1.87-.5 3.9.31 5.7l9.4 24.79c.62 1.6.69 3.37.2 5.01-.45 1.64-1.4 3.1-2.7 4.2-2.5 2-5.01 4.1-7.41 6.19a8.6 8.6 0 0 1-4.59 2c-1.69.2-3.38-.19-4.81-1.09l-22.39-13.8a7.6 7.6 0 0 0-5.5-1.2c-1.95.31-3.71 1.3-5.01 2.8l-7.49 9a8.14 8.14 0 0 0-1.91 5.4c.07 1.93.86 3.8 2.21 5.19l17.3 19.91c1.1 1.29 1.77 2.9 1.89 4.59.11 1.73-.31 3.43-1.19 4.91-1.71 2.7-3.3 5.5-4.81 8.4a7.96 7.96 0 0 1-3.6 3.4c-1.55.73-3.3.98-4.99.69l-25.9-4.99c-1.9-.48-3.89-.23-5.61.7a8.37 8.37 0 0 0-3.79 4.29l-4 11.01a7.4 7.4 0 0 0 .1 5.7 8.08 8.08 0 0 0 3.8 4.2l23.1 12.8c1.52.81 2.71 2.12 3.4 3.7.71 1.53.89 3.26.5 4.9-.6 3.2-1.21 6.29-1.71 9.5-.21 1.7-.98 3.28-2.19 4.49a8.16 8.16 0 0 1-4.4 2.31l-26.11 4.19c-1.91.25-3.7 1.18-4.99 2.6a8.65 8.65 0 0 0-2.11 5.3v11.71c-.01 1.96.71 3.85 2.03 5.32a7.92 7.92 0 0 0 5.07 2.58l26.11 4.2c1.67.28 3.2 1.09 4.4 2.29a8.3 8.3 0 0 1 2.19 4.51c.5 3.19 1.01 6.4 1.71 9.49.31 1.67.1 3.38-.6 4.91a9.1 9.1 0 0 1-3.3 3.7l-23.1 12.8a7.68 7.68 0 0 0-3.8 4.2 8.45 8.45 0 0 0-.1 5.7l4 10.99c.67 1.83 2 3.36 3.69 4.31 1.76.93 3.78 1.17 5.71.7l25.9-5.01c1.68-.29 3.43-.08 4.99.6a7.66 7.66 0 0 1 3.6 3.51c1.51 2.79 3.1 5.6 4.81 8.4.9 1.46 1.32 3.19 1.19 4.9a8.24 8.24 0 0 1-1.89 4.69l-17.3 20.01a8.36 8.36 0 0 0-2.21 5.2c-.09 1.98.6 3.91 1.91 5.4l7.49 9a7.9 7.9 0 0 0 5.01 2.8 7.7 7.7 0 0 0 5.5-1.31l22.69-13.59a8.35 8.35 0 0 1 4.81-1.1c1.71.16 3.32.86 4.6 2 2.39 2.1 4.9 4.19 7.4 6.19a8 8 0 0 1 2.7 4.21 8.6 8.6 0 0 1-.2 5l-9.4 24.8c-.81 1.8-.91 3.83-.3 5.69.6 1.88 1.88 3.44 3.6 4.41l10.2 5.9c1.69.99 3.68 1.31 5.6.9a8.14 8.14 0 0 0 4.8-3.11l16.8-20.59c2.1-2.6 5.5-3.71 8.2-2.6 3.4 1.4 5.7 2.2 9.9 3.6 1.62.54 3.03 1.58 3.99 2.99 1 1.4 1.52 3.09 1.51 4.81l-.4 26.39c-.1 1.99.5 3.94 1.69 5.51 1.23 1.55 2.96 2.63 4.91 2.99l11.6 2c1.93.3 3.92-.09 5.6-1.09a8.17 8.17 0 0 0 3.5-4.5l8.6-25a8.5 8.5 0 0 1 3-4.01 7.6 7.6 0 0 1 4.8-1.39h9.8c1.7 0 3.37.49 4.8 1.39 1.41.98 2.46 2.39 3 4.01l8.6 25a7.9 7.9 0 0 0 3.5 4.5c1.68 1 3.66 1.39 5.6 1.09l11.6-2a8.25 8.25 0 0 0 4.9-3 8.17 8.17 0 0 0 1.7-5.5l-.4-26.39c-.01-1.72.51-3.41 1.5-4.81a8.5 8.5 0 0 1 4-2.99c4.2-1.4 7-2.5 9.6-3.51 1.42-.64 3.01-.79 4.52-.4 1.51.38 2.84 1.27 3.78 2.51l17 20.9a8.14 8.14 0 0 0 4.8 3.1c1.91.41 3.91.09 5.6-.9l10.2-5.9a8.2 8.2 0 0 0 3.6-4.4c.6-1.87.5-3.9-.3-5.7l-9.4-24.8a7.73 7.73 0 0 1-.2-5 8.96 8.96 0 0 1 2.7-4.2c2.5-2 5-4.1 7.4-6.2 1.3-1.1 2.9-1.81 4.6-2.01 1.68-.2 3.38.19 4.8 1.11l22.6 13.69a7.54 7.54 0 0 0 5.5 1.2c1.94-.31 3.71-1.3 5-2.79l7.5-9a8.14 8.14 0 0 0 1.9-5.41c-.05-1.94-.83-3.8-2.2-5.19l-17.3-19.91a7.85 7.85 0 0 1-1.9-4.59c-.11-1.72.31-3.43 1.2-4.9 1.7-2.7 3.3-5.51 4.8-8.4a8.64 8.64 0 0 1 3.61-3.5c1.55-.73 3.29-.98 4.99-.71l25.9 5.01c1.89.47 3.89.23 5.61-.7 1.74-.92 3.1-2.46 3.79-4.31l4-10.99c.72-1.84.68-3.89-.1-5.7a8.12 8.12 0 0 0-3.8-4.2l-23.1-12.8a7.7 7.7 0 0 1-3.4-3.7 7.82 7.82 0 0 1-.5-5c.6-3.2 1.2-6.3 1.7-9.5.22-1.7.98-3.29 2.2-4.5a8.2 8.2 0 0 1 4.4-2.3l26.1-4.2a8.1 8.1 0 0 0 5-2.6 8.67 8.67 0 0 0 2.1-5.3V250c-.1-1.95-.89-3.78-2.2-5.21a8 8 0 0 0-5-2.49M255.99 112c31.92 0 62.96 10.63 88.2 30.2a144 144 0 0 1 51.2 77.89c.58 2.37.62 4.83.1 7.21-.52 2.36-1.55 4.56-3 6.5-1.48 1.91-3.4 3.47-5.6 4.5a15.6 15.6 0 0 1-7 1.6h-105.2c-2.84-.01-5.62-.77-8.09-2.19a16.5 16.5 0 0 1-5.92-5.91l-52.09-91.7a16.75 16.75 0 0 1-2.1-7c-.1-2.46.31-4.91 1.2-7.2.91-2.29 2.4-4.32 4.29-5.9a15.9 15.9 0 0 1 6.4-3.4 159 159 0 0 1 37.61-4.6M111.98 256c-.02-19.29 3.83-38.36 11.32-56.12a143.8 143.8 0 0 1 32.29-47.28 17.2 17.2 0 0 1 6.2-3.8c2.32-.79 4.77-1.02 7.2-.7 2.44.3 4.77 1.2 6.79 2.6 2.02 1.37 3.69 3.18 4.91 5.3l52.19 91.9c1.39 2.39 2.11 5.13 2.11 7.9.02 2.77-.71 5.5-2.11 7.9l-52.69 91.69a14.9 14.9 0 0 1-5.01 5.31c-2.07 1.3-4.38 2.17-6.79 2.59-2.42.33-4.9.09-7.2-.69-2.31-.81-4.43-2.11-6.2-3.8a143.2 143.2 0 0 1-32-47.1c-7.25-17.69-11-36.6-11.01-55.7m144.01 144c-12.89.02-25.74-1.62-38.21-4.91-2.38-.59-4.56-1.76-6.39-3.39a15.65 15.65 0 0 1-4.2-5.9c-.96-2.29-1.37-4.74-1.21-7.21.16-2.46.88-4.85 2.11-7l52.59-91.49a16.07 16.07 0 0 1 5.87-5.88c2.45-1.41 5.22-2.14 8.04-2.12h105.4c2.43-.02 4.82.53 7 1.6 3.28 1.61 5.91 4.29 7.45 7.6 1.55 3.31 1.92 7.04 1.05 10.6a144 144 0 0 1-51.24 77.93c-25.26 19.56-56.32 30.19-88.26 30.17" style="fill:currentcolor" /></svg>