<svg xmlns="http://www.w3.org/2000/svg" viewBox="0 0 512 512"><path d="M463.99 249.99a10 10 0 0 0-2.9-6.7 10.8 10.8 0 0 0-6.49-3.3l-25.61-4.2a5.87 5.87 0 0 1-3-1.6 5.66 5.66 0 0 1-1.5-3.1c-.5-3.2-1-6.4-1.7-9.5-.22-1.1-.08-2.27.4-3.29a6.74 6.74 0 0 1 2.2-2.51l22.8-12.69c2.26-1.17 4.01-3.13 4.9-5.5.93-2.37.97-5 .1-7.41l-3.9-10.9c-.87-2.38-2.58-4.36-4.8-5.59a10.28 10.28 0 0 0-7.3-.91l-25.5 5.01c-1.16.18-2.34.01-3.4-.51a5.27 5.27 0 0 1-2.39-2.3c-1.51-2.8-3.11-5.6-4.81-8.4-.6-.98-.88-2.14-.8-3.3.07-1.18.53-2.29 1.3-3.2l17-19.59c1.69-1.88 2.69-4.29 2.8-6.81.08-2.51-.78-4.97-2.4-6.9l-7.4-8.9a10.3 10.3 0 0 0-13.6-2l-22.4 13.4c-1 .58-2.15.83-3.3.71a5.3 5.3 0 0 1-3.1-1.4c-2.5-2.21-5-4.3-7.4-6.21-.92-.7-1.58-1.69-1.9-2.8-.28-1.12-.21-2.31.2-3.39l9.3-24.41c.99-2.32 1.1-4.94.31-7.35s-2.43-4.45-4.61-5.75l-10.1-5.9c-2.2-1.29-4.8-1.7-7.3-1.2s-4.72 1.93-6.2 4l-16.4 20.5a5.26 5.26 0 0 1-2.5 1.91c-1.02.32-2.13.25-3.1-.2-.6-.2-5.8-2.41-9.8-3.71a5.5 5.5 0 0 1-2.7-1.99 5.36 5.36 0 0 1-1.01-3.2l.41-26.11c.15-2.55-.63-5.07-2.2-7.09-1.55-2.02-3.8-3.37-6.3-3.81l-11.4-2c-2.49-.4-5.04.1-7.2 1.4-2.15 1.34-3.76 3.4-4.5 5.81l-8.5 24.79a5.14 5.14 0 0 1-2.1 2.71c-.98.64-2.13.95-3.3.89h-9.8c-1.15.04-2.28-.31-3.2-1-.97-.65-1.7-1.6-2.1-2.69l-8.5-24.7c-.71-2.43-2.32-4.51-4.5-5.81a10.8 10.8 0 0 0-7.2-1.4l-11.5 2c-2.48.48-4.72 1.83-6.3 3.81a9.9 9.9 0 0 0-2.2 6.99l.39 26.21c-.01 1.19-.4 2.33-1.09 3.29-.73.92-1.7 1.61-2.8 2-2.31.9-7.3 2.81-9.5 3.61-2.01.69-4.2-.11-5.9-2.11l-16.3-19.99a9.9 9.9 0 0 0-6.2-4c-2.49-.51-5.07-.12-7.3 1.09l-10.1 5.8a10.48 10.48 0 0 0-4.71 5.81c-.81 2.43-.67 5.08.4 7.39l9.2 24.3c.44 1.1.48 2.29.11 3.4a5.36 5.36 0 0 1-1.8 2.81c-2.4 2-4.91 3.99-7.41 6.19-.85.78-1.93 1.28-3.09 1.4-1.14.13-2.3-.11-3.31-.69l-22.09-13.71c-2.14-1.37-4.7-1.93-7.2-1.6-2.51.36-4.79 1.64-6.4 3.6l-7.4 8.9c-1.62 1.94-2.49 4.39-2.41 6.9.1 2.54 1.1 4.94 2.8 6.81l17.11 19.59a5.43 5.43 0 0 1 1.29 3.2c.09 1.16-.19 2.32-.79 3.3-1.71 2.71-3.3 5.6-4.81 8.4a5.85 5.85 0 0 1-2.49 2.41c-1.06.5-2.24.68-3.4.49l-25.5-4.9a10.2 10.2 0 0 0-7.31.92c-2.24 1.2-3.95 3.18-4.79 5.58l-4 10.9c-.93 2.4-.89 5.04.1 7.41.91 2.35 2.66 4.31 4.89 5.5l22.81 12.69c1 .57 1.81 1.46 2.3 2.51s.6 2.26.3 3.4l-.2 1.29c-.5 2.81-1.01 5.41-1.51 8.2-.19 1.13-.7 2.17-1.49 3-.82.84-1.87 1.4-3 1.6l-25.71 4.2c-2.51.3-4.81 1.51-6.5 3.41a10.23 10.23 0 0 0-2.6 6.9v11.59c-.01 2.55.92 5 2.59 6.89 1.68 1.9 3.99 3.11 6.51 3.41l25.71 4.1c1.14.18 2.2.75 3 1.6.81.85 1.32 1.95 1.49 3.1.5 3.2 1.01 6.4 1.71 9.5.21 1.15.08 2.34-.4 3.4a6.7 6.7 0 0 1-2.2 2.5l-22.81 12.7a10.22 10.22 0 0 0-4.89 5.5c-.89 2.38-.93 5-.1 7.4l4 10.91c.87 2.37 2.58 4.36 4.8 5.59 2.23 1.19 4.83 1.53 7.3.91l25.6-4.9c1.16-.24 2.35-.06 3.4.49 1.02.5 1.85 1.3 2.39 2.3 1.51 2.8 3.1 5.6 4.81 8.4.59 1 .87 2.14.79 3.3a5.35 5.35 0 0 1-1.29 3.2L93.58 371.6c-1.76 1.83-2.81 4.26-2.9 6.79-.09 2.55.77 5.05 2.41 7l7.4 8.9c1.62 1.95 3.91 3.24 6.42 3.61 2.5.36 5.05-.2 7.18-1.6l22.39-13.4c1.01-.58 2.16-.84 3.31-.71 1.16.12 2.24.6 3.1 1.4 2.49 2.2 4.99 4.3 7.4 6.21.91.7 1.58 1.68 1.9 2.79.32 1.12.28 2.31-.1 3.4l-9.3 24.41c-1 2.32-1.1 4.94-.32 7.35.8 2.41 2.43 4.45 4.62 5.74l10.09 5.8c2.21 1.29 4.81 1.71 7.31 1.2 2.5-.48 4.71-1.91 6.2-4l16.6-20.3c1.4-1.69 3.59-2.49 5.2-1.8 3.5 1.4 5.8 2.2 9.9 3.6 1.09.38 2.03 1.07 2.7 2.01.66.92 1.01 2.04.99 3.2l-.4 26.09c-.09 2.55.7 5.05 2.21 7.1a10.15 10.15 0 0 0 6.3 3.8l11.4 2c2.49.41 5.04-.08 7.2-1.4a9.98 9.98 0 0 0 4.5-5.79l8.5-24.81c.37-1.1 1.11-2.07 2.1-2.69.95-.7 2.13-1.01 3.29-.91h9.81c1.15-.04 2.28.32 3.2 1 .97.67 1.7 1.6 2.1 2.71l8.5 24.7c.68 2.12 2.02 3.97 3.8 5.31 1.8 1.32 3.97 2.05 6.19 2.08.61-.02 1.22-.07 1.81-.2l11.5-2c2.49-.47 4.71-1.82 6.3-3.8a10 10 0 0 0 2.2-7l-.4-26.19c-.04-1.16.31-2.29 1-3.2.69-.92 1.63-1.61 2.7-2.01 3.8-1.3 6.5-2.29 8.9-3.2l.6-.2c3.1-1.09 4.6.2 5.5 1.31l16.8 20.59c1.5 2.06 3.72 3.48 6.21 4 2.5.53 5.09.09 7.29-1.2l10.1-5.8a9.95 9.95 0 0 0 4.6-5.7c.8-2.42.7-5.05-.29-7.39l-9.21-24.3c-.41-1.1-.48-2.27-.2-3.41a4.88 4.88 0 0 1 1.9-2.8c2.4-2 4.9-4 7.4-6.2.87-.75 1.95-1.25 3.11-1.39a5.4 5.4 0 0 1 3.29.69l22.4 13.4c2.13 1.37 4.7 1.95 7.2 1.6 2.51-.36 4.79-1.64 6.4-3.6l7.4-8.9c1.64-1.94 2.5-4.45 2.4-6.99s-1.09-4.95-2.8-6.81l-17.1-19.7c-.76-.88-1.21-2-1.3-3.17-.09-1.16.19-2.32.8-3.33 1.71-2.69 3.3-5.6 4.81-8.4a6.3 6.3 0 0 1 2.49-2.39 5.64 5.64 0 0 1 3.41-.51l25.49 5.01c2.46.62 5.08.29 7.31-.91 2.24-1.2 3.95-3.19 4.79-5.59l3.9-10.91c.93-2.39.89-5.04-.1-7.4-.92-2.35-2.66-4.31-4.89-5.5l-22.81-12.7a5.5 5.5 0 0 1-2.3-2.5c-.5-1.05-.6-2.27-.3-3.4l.2-1.3c.5-2.8 1.01-5.4 1.5-8.2.19-1.12.71-2.16 1.5-2.99.82-.85 1.86-1.4 3-1.6l25.7-4.11c2.52-.3 4.82-1.51 6.5-3.39 1.69-1.91 2.62-4.37 2.6-6.9v-11.81zm-282.41 94a15.5 15.5 0 0 1-5.09 5.4 15.95 15.95 0 0 1-7.01 2.5c-2.47.28-4.98-.07-7.29-.99a16 16 0 0 1-6.1-4.2 135 135 0 0 1-34.91-90.89 135.05 135.05 0 0 1 35.31-90.72c1.67-1.86 3.75-3.29 6.1-4.2 2.32-.89 4.83-1.2 7.29-.9 2.5.27 4.91 1.13 7.01 2.5a16.5 16.5 0 0 1 5.09 5.4l45.61 80.4a15.91 15.91 0 0 1 0 15.8zm74.41 47.21c-9.51 0-19-1-28.3-3-2.43-.53-4.69-1.63-6.62-3.22-1.9-1.58-3.41-3.6-4.38-5.88-.97-2.27-1.41-4.74-1.3-7.21.13-2.47.85-4.87 2.1-6.99l45.99-80c1.41-2.4 3.41-4.41 5.81-5.81 2.4-1.39 5.13-2.11 7.9-2.09h92.1c2.47.01 4.9.59 7.1 1.69 2.21 1.12 4.12 2.72 5.6 4.7 1.47 2.02 2.46 4.35 2.9 6.81.39 2.44.22 4.93-.5 7.29-17.5 54.2-68.4 93.71-128.4 93.71m7.49-163.91-45.5-80.2c-1.18-2.15-1.9-4.53-2.09-6.99-.22-3.73.91-7.41 3.16-10.38a15.64 15.64 0 0 1 9.14-5.82c9.11-1.92 18.39-2.9 27.7-2.91 60 0 110.9 39.4 128.4 93.8.71 2.37.88 4.86.51 7.31-.42 2.45-1.41 4.76-2.89 6.76-1.47 2-3.4 3.63-5.62 4.73a16.1 16.1 0 0 1-7.1 1.71h-92c-2.8 0-5.56-.73-8-2.11-2.33-1.5-4.28-3.52-5.71-5.9" style="fill:currentcolor" /></svg>