<svg xmlns="http://www.w3.org/2000/svg" viewBox="0 0 512 512"><path d="M396 459.9c-18 .11-35.6-6.92-48.4-19.61-13.1-12.68-20.4-29.97-20.7-48.09v-1.51L188.5 345.1c-7.4 9.27-16.7 16.74-27.5 21.83a77.86 77.86 0 0 1-34.25 7.56c-20.26.8-39.99-6.47-54.89-20.22-14.9-13.73-23.73-32.83-24.57-53.09a76.47 76.47 0 0 1 20.11-54.91 76.46 76.46 0 0 1 53.05-24.68c2.1-.09 4.19-.09 6.3 0 17.45.18 34.35 5.85 48.55 16.2l101.6-66.2c-6.3-12.84-9.7-26.88-10.2-41.19-.9-19.1 3.8-38.03 13.8-54.37 10.1-16.31 24.6-29.28 42.1-37.22 17.3-7.94 36.8-10.48 55.6-7.3a95.4 95.4 0 0 1 50.1 25.13c13.9 13.2 23.4 30.24 27.4 48.91 4.1 18.69 2.5 38.17-4.6 55.91-7 17.77-19.4 32.98-35.2 43.7-15.9 10.71-34.5 16.43-53.7 16.43-12.1.2-24.4-2.03-35.7-6.58-11.3-4.56-21.8-11.32-30.4-19.92l-100 64.71c5.7 10.86 8.7 22.93 8.8 35.2-.3 6.44-1.3 12.85-2.9 19.1l132.2 42.59c7.6-13.23 19.4-23.66 33.3-29.65 14.1-6.01 29.6-7.27 44.5-3.6 14.7 3.65 28 12.06 37.6 23.9 9.5 11.86 15 26.52 15.5 41.75-.1 18.45-7.4 36.14-20.2 49.34-13 13.2-30.4 20.9-48.9 21.47m0-104.41c-6.8.31-13.5 2.62-19.1 6.68-5.7 4.05-9.9 9.68-12.4 16.15-2.4 6.47-2.9 13.51-1.4 20.25 1.6 6.73 5.1 12.88 10 17.65 5.1 4.79 11.4 8 18.1 9.23 6.8 1.23 14 .44 20.3-2.28 6.4-2.72 11.7-7.25 15.5-13.03 3.8-5.76 5.8-12.54 5.8-19.45a35.87 35.87 0 0 0-11.1-25.18c-6.8-6.61-16.1-10.19-25.7-10.02m-270.55-102.9c-5.99-.13-11.95.9-17.53 3.05a46 46 0 0 0-15.04 9.53 45.8 45.8 0 0 0-10.25 14.55 45.8 45.8 0 0 0-3.89 17.38c-.13 5.99.89 11.95 3.06 17.53 2.16 5.58 5.4 10.69 9.52 15.04 4.14 4.32 9.08 7.8 14.56 10.23a45.7 45.7 0 0 0 17.37 3.9h2.2c5.99.13 11.95-.9 17.45-3.05 5.7-2.16 10.7-5.4 15.1-9.54 4.3-4.12 7.8-9.07 10.2-14.54 2.5-5.48 3.9-11.39 4-17.37.2-6-.9-11.95-3-17.54-2.3-5.58-5.4-10.7-9.7-15.03-4.1-4.33-9.1-7.82-14.4-10.25a46.6 46.6 0 0 0-17.46-3.89zM362.2 71.7c-7.9-.26-15.9 1.05-23.6 3.88-7.5 2.83-14.3 7.12-20.2 12.63-5.9 5.49-10.7 12.08-14 19.41-3.3 7.34-5.1 15.24-5.3 23.27V132c.2 16.24 6.9 31.71 18.6 43.01 11.7 11.32 27.4 17.53 43.5 17.29h1.1c8.2.38 16.4-.89 24.1-3.75 7.5-2.86 14.5-7.25 20.5-12.89 6-5.65 10.7-12.42 13.8-19.94 3.2-7.51 4.8-15.6 4.8-23.77 0-8.18-1.6-16.27-4.9-23.77-3.1-7.51-7.8-14.29-13.7-19.92-6-5.63-13.1-10.02-20.6-12.86-7.7-2.85-15.9-4.1-24.1-3.7" style="fill:currentcolor" /></svg>