<svg xmlns="http://www.w3.org/2000/svg" viewBox="0 0 512 512"><path d="m256.6 78.1 27.01-26.7c1.25-1.23 2.26-2.69 2.94-4.31a13.5 13.5 0 0 0 1.02-5.14c0-1.75-.35-3.51-1.02-5.13-.68-1.62-1.69-3.08-2.94-4.31-2.58-2.51-6.01-3.9-9.6-3.9-3.6 0-7.04 1.39-9.6 3.9l-51.5 50.8a13.1 13.1 0 0 0-2.95 4.31 13.4 13.4 0 0 0-1.03 5.13c0 1.76.35 3.51 1.03 5.14.69 1.62 1.68 3.09 2.95 4.31l51.5 50.81c2.56 2.49 6 3.89 9.6 3.89 3.59 0 7.02-1.4 9.6-3.89 1.25-1.23 2.26-2.7 2.94-4.32a13.4 13.4 0 0 0 0-10.26c-.68-1.62-1.69-3.09-2.94-4.32L256.7 107.5c86 .4 155.91 70.5 155.91 156.6 0 86.4-70.31 156.7-156.7 156.7-86.41 0-156.71-70.3-156.71-156.7 0-3.93-1.56-7.69-4.33-10.46a14.78 14.78 0 0 0-10.47-4.34c-3.93 0-7.68 1.56-10.46 4.34a14.76 14.76 0 0 0-4.34 10.46c0 102.71 83.5 186.21 186.21 186.21 102.7 0 186.19-83.5 186.19-186.21.2-102.3-82.99-185.6-185.4-186" style="fill:currentcolor" /><path d="M187.5 236.3c1.61-1.29 4.61-4.1 8.8-8.3l-.4 12.5-.19 11.4v69.4H221V201.4h-20.8l-38.59 30.7 12.2 15.2zM280.31 302.3c-5.52-.03-10.99-.77-16.31-2.2a66.2 66.2 0 0 1-15.1-5.59v21.9c8.2 4.29 19.01 6.49 32.3 6.49 15.4 0 27.2-3.6 35.41-10.8 8.29-7.2 12.4-17.5 12.4-30.9 0-11.3-3.4-20.2-10.31-26.7-6.9-6.5-16.1-9.79-27.7-9.79-4.16-.06-8.3.31-12.4 1.09l-2.9.6 2.2-23.5h42.8v-21.5h-64.99l-4.51 61.1 10.11 5.4a53 53 0 0 1 8.49-1.8c3.17-.57 6.38-.87 9.61-.9 16 0 23.99 6 23.99 18.1.1 12.7-7.59 19-23.09 19" style="fill:currentcolor" /></svg>