<svg xmlns="http://www.w3.org/2000/svg" viewBox="0 0 512 512"><path d="M428.8 249.61c-3.96.01-7.74 1.58-10.54 4.36a14.96 14.96 0 0 0-4.36 10.53c0 87.11-70.81 157.9-157.91 157.9-87.09 0-157.9-70.79-157.9-157.9 0-86.79 70.41-157.4 157.1-157.89l-27.1 26.79a13.3 13.3 0 0 0-2.94 4.36c-.68 1.63-1.03 3.37-1.03 5.14 0 1.78.35 3.52 1.03 5.15a13.3 13.3 0 0 0 2.94 4.36 14.053 14.053 0 0 0 19.41 0l51.9-51.21c1.25-1.23 2.25-2.71 2.94-4.34a13.5 13.5 0 0 0 0-10.3c-.69-1.63-1.69-3.12-2.94-4.36L247.5 31a14.024 14.024 0 0 0-19.41 0 13.36 13.36 0 0 0-3.97 9.5c0 1.77.35 3.53 1.03 5.16s1.68 3.1 2.94 4.34l27.2 26.9c-103.1.4-186.9 84.41-186.9 187.6 0 103.51 84.2 187.61 187.6 187.61 103.41 0 187.7-84.21 187.7-187.7-.01-3.95-1.58-7.71-4.37-10.5-2.8-2.77-6.58-4.31-10.52-4.3" style="fill:currentcolor" /><path d="M195.19 252.01v69.89h25.51V201.1h-21.01l-38.9 31 12.3 15.4L187 236.3c3.07-2.61 6.01-5.37 8.8-8.3l-.41 12.6zM321.39 222.81v-21.6h-65.5l-4.5 61.59 10.2 5.5c2.82-.82 5.7-1.45 8.6-1.89 3.2-.59 6.45-.89 9.7-.91 16.11 0 24.2 6.11 24.2 18.31 0 12.79-7.79 19.2-23.39 19.2a73.3 73.3 0 0 1-31.61-7.9v22.1c8.3 4.39 19.1 6.5 32.6 6.5 15.5 0 27.41-3.61 35.71-10.91 8.29-7.3 12.5-17.69 12.5-31.19 0-11.4-3.5-20.41-10.41-26.91-6.9-6.6-16.2-9.79-27.9-9.79-4.19-.09-8.39.31-12.5 1.2l-2.9.6 2.21-23.7h42.99z" style="fill:currentcolor" /></svg>