<svg xmlns="http://www.w3.org/2000/svg" viewBox="0 0 512 512"><path d="m158.58 319.225 86.18 100.577a14.9 14.9 0 0 0 5.05 3.812c1.95.892 4.05 1.353 6.19 1.353s4.24-.461 6.18-1.353a14.8 14.8 0 0 0 5.06-3.812l86.18-100.577a14.7 14.7 0 0 0 3.42-7.582c.39-2.802-.03-5.658-1.2-8.229a14.84 14.84 0 0 0-13.46-8.617H169.79c-2.83 0-5.6.812-7.99 2.34a14.87 14.87 0 0 0-5.46 6.279 14.9 14.9 0 0 0-1.19 8.232 14.7 14.7 0 0 0 3.43 7.577M158.58 192.781l86.18-100.58c1.4-1.62 3.12-2.921 5.06-3.812a14.8 14.8 0 0 1 12.36 0c1.95.891 3.66 2.192 5.06 3.812l86.18 100.58a14.7 14.7 0 0 1 3.42 7.582c.39 2.803-.03 5.659-1.2 8.23a14.84 14.84 0 0 1-13.46 8.618h-172.4a14.8 14.8 0 0 1-13.44-8.621 14.9 14.9 0 0 1-1.19-8.231 14.7 14.7 0 0 1 3.43-7.578" style="fill:currentcolor" /></svg>