<svg xmlns="http://www.w3.org/2000/svg" viewBox="0 0 512 512"><path d="m313 231.21-38.8 61.7c-1.7 2.2-3.7 4.13-5.9 5.74-2.6 1.91-5.5 3.25-8.7 3.96s-6.4.82-9.6.28c-6.4-1.07-12.3-4.67-16.1-9.98-1.8-2.63-3.1-5.62-3.8-8.78s-.8-6.41-.3-9.61c.5-3.19 1.7-6.25 3.4-8.98 1.6-2.75 3.9-5.12 6.5-7.01l61.7-38.81c1.4-.95 3.2-1.48 4.9-1.48s3.4.53 4.8 1.48c1.8 1.29 2.9 3.2 3.3 5.35.2 1.07.2 2.17-.1 3.23-.2 1.04-.7 2.04-1.3 2.91" style="fill:currentcolor" /><path d="M255.7 93.95c-101.1 0-183.1 81.89-183.1 182.96 0 44.76 16.2 87.98 45.9 121.51.9.98 1.7 1.97 2.6 2.86 3.8 4.03 9 6.4 14.5 6.62 5.4.21 10.7-1.76 14.7-5.46l1.2-1.23c25.4-27.64 60.8-44.04 98.4-45.61 37.5-1.56 74.1 11.83 101.7 37.23 2.9 2.72 5.6 5.5 8.3 8.38 3.7 4.01 8.9 6.4 14.4 6.65 5.4.26 10.8-1.68 14.7-5.35l1.2-1.23 2.7-2.86c67.1-75.65 60-191.41-15.6-258.44-33.5-29.71-76.9-46.08-121.6-46.03" style="stroke:currentcolor;stroke-linecap:round;stroke-linejoin:round;stroke-width:32;fill:none" /><path d="M249.6 151.72v15.66M390.5 276.99h-31.4M155.6 276.99h-31.3M181.6 203.07l-18.4-18.46M329.6 203.07l18.6-18.46" style="stroke:currentcolor;stroke-linecap:round;stroke-miterlimit:10;stroke-width:32;fill:none" /></svg>