<svg xmlns="http://www.w3.org/2000/svg" viewBox="0 0 512 512"><path d="M234.9 57.21c3.2-5.59 8.4-9.7 14.5-11.43 6.2-1.72 12.9-.92 18.5 2.23 3.8 2.21 7 5.38 9.2 9.2l57.8 102.5c1.8 3.09 4.2 5.77 7 7.87 2.9 2.07 6.3 3.48 9.9 4.13l118.1 20.4c4.5.72 8.6 2.68 11.9 5.62 2.5 2.19 4.5 4.87 6 7.85 1.4 3.02 2.2 6.27 2.3 9.6s-.5 6.64-1.7 9.73-3.1 5.88-5.5 8.19l-81.8 81.41c-2.6 2.64-4.6 5.89-5.8 9.48-1.2 3.58-1.5 7.39-1 11.12l16 112.69c.9 6.36-.9 12.8-4.7 17.94-3.8 5.12-9.5 8.54-15.8 9.47-4.6.7-9.3 0-13.6-2l-110.3-50.7c-3.2-1.45-6.6-2.18-10.2-2.18-3.5 0-6.8.73-10 2.18l-110.4 50.7c-2.9 1.32-6 2.08-9.1 2.2-3.2.11-6.3-.38-9.3-1.5-3-1.11-5.7-2.79-8.1-4.94-2.4-2.17-4.3-4.78-5.6-7.66-1.9-4.24-2.6-8.9-2-13.51l16.1-112.69c.5-3.73.2-7.54-1-11.12-1.2-3.59-3.2-6.84-5.9-9.48L28.8 233.1c-2.3-2.22-4.1-4.87-5.3-7.82-1.8-4.42-2.3-9.28-1.4-13.97.9-4.71 3.2-9.01 6.6-12.41 3.6-3.49 8-5.86 12.9-6.79l118.2-20.4c3.5-.59 6.9-1.98 9.9-4.05 3-2.04 5.4-4.77 7.1-7.95z" style="fill:currentcolor" /></svg>