<svg xmlns="http://www.w3.org/2000/svg" viewBox="0 0 512 512"><path d="m255.9 84.9 51.1 90.5c4 7.26 9.7 13.51 16.6 18.32 6.8 4.81 14.6 8.05 22.7 9.49l103.4 17.9-71.1 70.8c-6.2 6.17-10.7 13.69-13.5 21.97s-3.6 17.07-2.4 25.73l13.9 98.6-97.3-44.71a57.1 57.1 0 0 0-23.6-5.09c-8 0-16 1.74-23.4 5.09l-97.4 44.71 14.1-98.6c1.2-8.67.4-17.48-2.4-25.78-2.8-8.29-7.4-15.83-13.7-22.02L62 221.01l103.3-17.9a55.9 55.9 0 0 0 22.9-9.44c6.7-4.81 12.4-11.09 16.5-18.36zm0-40.1c-4.3 0-8.4 1.15-12.1 3.31s-6.8 5.27-8.9 9L177.1 159.6c-1.8 3.1-4.2 5.79-7.1 7.88-3 2.06-6.4 3.47-9.9 4.13L41.9 192c-4.4.77-8.4 2.72-11.7 5.65-2.5 2.18-4.5 4.87-5.9 7.87s-2.2 6.26-2.3 9.56c-.1 3.32.5 6.62 1.7 9.7 1.2 3.07 3.1 5.88 5.4 8.23l81.6 81.4c2.7 2.65 4.7 5.9 5.9 9.48 1.2 3.57 1.5 7.39 1 11.11l-16.1 112.71c-.7 4.6 0 9.3 2 13.5 2.7 5.82 7.7 10.36 13.7 12.59s12.6 1.98 18.4-.7L246 422.41c3.2-1.45 6.5-2.2 10-2.2 3.6 0 7 .75 10.2 2.2l110.3 50.69c3.3 1.48 6.7 2.22 10.2 2.2 1.1 0 2.3-.09 3.4-.2 4.7-.67 9.2-2.74 12.6-5.94 3.6-3.2 6.1-7.39 7.3-12.02.9-3.09 1.1-6.3.6-9.43L394.6 335c-.5-3.72-.2-7.54 1-11.11 1.2-3.58 3.2-6.83 5.8-9.48l81.8-81.4c4.1-4.01 6.6-9.34 7.1-15.03.5-5.71-1-11.4-4.3-16.07-1.9-2.57-4.2-4.79-6.9-6.51-2.7-1.68-5.7-2.83-8.9-3.4l-118.1-20.39c-3.6-.59-7-1.98-9.9-4.05-2.9-2.04-5.3-4.77-7-7.96L277.4 57.11c-2.2-3.83-5.4-6.99-9.2-9.2-3.8-1.99-7.9-3.06-12.3-3.11" style="fill:currentcolor" /></svg>