<svg xmlns="http://www.w3.org/2000/svg" viewBox="0 0 512 512"><path d="M482.6 216.7v-81.31c0-31.89-25.5-40.99-38.8-40.7H66.7c-18 0-37.1 10.81-37.1 38.71v232.39c0 23.9 15.8 38.61 38.7 38.61h275l31 31c3.8 3.7 9 5.76 14.4 5.76 5.5 0 10.7-2.06 14.6-5.76l31-31h17.4c14.5 0 31-9.01 31-36.71zm-33 0v143.19c0 5.81 0 11.6-7.7 11.6h-19.3l-35 32.91-32.8-32.91H72.1c-1.3.02-2.5-.21-3.7-.68-1.2-.49-2.3-1.2-3.2-2.11-.9-.9-1.6-1.97-2.1-3.16s-.7-2.46-.7-3.75v-224.6c0-5.79 0-11.6 7.7-11.6h369.7c6.9 0 9.7 5.81 9.7 9.71v81.4z" style="fill:currentcolor" /><path d="M192.2 249.59h-75.6c-2.3-.01-4.5.42-6.6 1.3-2.2.85-4.1 2.13-5.7 3.74-1.5 1.61-2.8 3.53-3.7 5.62-.8 2.1-1.3 4.36-1.3 6.65v.09c0 2.28.4 4.55 1.3 6.65.9 2.11 2.1 4.03 3.6 5.64 1.7 1.62 3.6 2.9 5.7 3.79 2.1.87 4.3 1.32 6.6 1.32h75.7c3.3.01 6.7-.99 9.6-2.89 2.8-1.9 5.1-4.6 6.4-7.76.8-2.12 1.4-4.37 1.4-6.64v-.11c0-2.29-.5-4.54-1.4-6.67-.9-2.11-2.2-4.03-3.8-5.65s-3.5-2.9-5.6-3.77-4.3-1.32-6.6-1.31M228.8 267.1c0 2.28.4 4.53 1.3 6.65.9 2.11 2.1 4.02 3.7 5.63 1.7 1.62 3.6 2.91 5.7 3.78 2.2.88 4.4 1.34 6.7 1.34h151.1c2.3.01 4.5-.42 6.7-1.3 2.1-.86 3.9-2.13 5.5-3.74s2.9-3.53 3.8-5.62c.8-2.1 1.3-4.37 1.3-6.65v-.09c0-2.29-.4-4.55-1.3-6.65-.8-2.12-2.1-4.03-3.7-5.64-1.6-1.62-3.5-2.9-5.6-3.79-2.1-.87-4.3-1.32-6.6-1.32H244.3c-4.3.42-8.4 2.44-11.2 5.67-2.9 3.23-4.4 7.41-4.3 11.73M321.8 340.6h75.6c2.3.01 4.5-.43 6.7-1.3 2.1-.86 3.9-2.13 5.5-3.74s2.9-3.53 3.8-5.62c.9-2.1 1.3-4.36 1.3-6.65v-.09c0-2.28-.4-4.55-1.3-6.65-.9-2.11-2.1-4.03-3.7-5.64-1.6-1.62-3.5-2.91-5.6-3.79-2.1-.87-4.3-1.32-6.6-1.32h-75.7c-3.4-.01-6.7.99-9.5 2.88-2.9 1.91-5.1 4.61-6.5 7.77-.8 2.11-1.3 4.37-1.3 6.64v.11c0 2.28.4 4.53 1.3 6.65.9 2.11 2.1 4.03 3.7 5.63 1.6 1.62 3.6 2.91 5.7 3.78 2 .88 4.2 1.34 6.5 1.34zM116.5 340.6h153c2.4.01 4.6-.42 6.8-1.3 2.1-.85 4-2.13 5.6-3.74s2.9-3.53 3.8-5.62c.8-2.1 1.2-4.36 1.2-6.65v-.09c0-2.28-.4-4.55-1.2-6.65-.9-2.11-2.1-4.03-3.7-5.64-1.6-1.62-3.5-2.91-5.7-3.79-2.1-.87-4.3-1.32-6.7-1.32H116.5c-3.4-.01-6.8.99-9.6 2.88-2.9 1.91-5 4.61-6.4 7.77-.8 2.11-1.3 4.37-1.3 6.64v.11c0 2.29.4 4.54 1.3 6.67.9 2.1 2.2 4.03 3.7 5.65 1.6 1.62 3.5 2.9 5.6 3.76 2.2.88 4.4 1.33 6.7 1.32" style="fill:currentcolor" /></svg>