<svg width="512" height="512" viewBox="0 0 512 512" fill="none" xmlns="http://www.w3.org/2000/svg">
<path fill-rule="evenodd" clip-rule="evenodd" d="M267.05 52.65C264.043 49.6712 259.982 48 255.75 48C251.518 48 247.456 49.6712 244.45 52.65L52.65 244.45C49.6712 247.456 48 251.517 48 255.75C48 259.982 49.6712 264.043 52.65 267.049L244.45 458.849C247.456 461.828 251.518 463.499 255.75 463.499C259.982 463.499 264.043 461.828 267.05 458.849L458.851 267.049C461.83 264.043 463.501 259.982 463.501 255.75C463.501 251.517 461.83 247.456 458.851 244.45L267.05 52.65ZM327.35 265.15C328.808 264.145 330 262.801 330.824 261.233C331.648 259.665 332.078 257.921 332.078 256.15C332.078 254.379 331.648 252.635 330.824 251.067C330 249.499 328.808 248.155 327.35 247.15L242.851 188.05C241.619 187.186 240.223 186.584 238.749 186.282C237.275 185.979 235.755 185.982 234.283 186.291C232.81 186.6 231.417 187.208 230.189 188.078C228.961 188.947 227.924 190.06 227.144 191.346C226.101 193.066 225.55 195.039 225.55 197.05V315.25C225.549 317.262 226.101 319.235 227.145 320.954C228.188 322.674 229.684 324.074 231.468 325.002C233.253 325.931 235.258 326.351 237.265 326.219C239.272 326.086 241.204 325.405 242.851 324.25L327.35 265.15Z" fill="white"/>
</svg>
