<svg xmlns="http://www.w3.org/2000/svg" viewBox="0 0 512 512"><path d="M284.69 35.26c9.08-.99 18.29.47 26.69 4.25h-.01c8.39 3.77 15.74 9.77 21.23 17.48a53.8 53.8 0 0 1 9.65 25.55l.09.89v.04c.83 9.5-.84 19.02-4.84 27.6a350.5 350.5 0 0 0-22.23 66.27l102.48 8.31c2.25.18 4.43.77 6.46 1.7 9.92 2.44 19.06 7.78 26.2 15.54l.82.91.02.03c8.57 9.79 13.43 22.53 13.42 35.9v.32a52.64 52.64 0 0 1-5.67 23.49c.46.42.93.84 1.37 1.28l.45.44.02.03c9.61 9.62 15.22 22.88 15.22 36.95 0 14.08-5.6 27.34-15.22 36.96v.01a53 53 0 0 1-6.94 5.8 52.7 52.7 0 0 1 3.45 18.74c0 14.07-5.61 27.35-15.24 36.98-5.25 5.23-11.46 9.18-18.17 11.66 1.04 4.17 1.58 8.5 1.57 12.91-.01 13.34-5.07 25.96-13.8 35.42l-.87.9-.01.01c-8.95 9.23-20.88 14.59-33.34 15.29l-1.21.05c-.25.01-.49.01-.74.01l-.74-.02-55.73-2.57c-15.79 1.9-31.69 2.77-47.59 2.59-35.41.94-70.17-9.84-98.92-30.73h-55.07c-21.01-.01-41.33-8.22-56.61-23.14l-.73-.71c-15.39-15.39-24.22-36.5-24.22-58.71V317.6c0-22.23 8.84-43.32 24.22-58.71l.01-.02.73-.72c15.28-14.89 35.59-23.1 56.59-23.13h28.83c1.65-.01 3.27-.37 4.73-1.02.27-.4.63-.97 1.16-1.84.31-.52.59-.99.98-1.64.3-.52.65-1.11 1.03-1.72.01-.01.01-.03.02-.04.08-.13.19-.33.35-.6.31-.54.8-1.35 1.45-2.47 1.29-2.23 3.29-5.67 6.07-10.46 5.56-9.57 14.24-24.55 26.73-46.17l1.23-2.11c12.89-22.04 30.95-48.79 46.48-71.57 8.13-11.89 15.54-22.68 21.44-31.51 6.2-9.28 9.81-15.04 11-17.43l.3-.58c3.19-5.94 8.93-9.89 15.41-10.6m16.5 140.97c-.06 0-.12 0-.18-.01h-.35z" style="fill:currentcolor" /></svg>