<svg xmlns="http://www.w3.org/2000/svg" viewBox="0 0 512 512"><path d="M319.49 102.03a372.6 372.6 0 0 0-26.39 83.67c-.51 4.6 3.04 11.56 7.67 11.56l115.54 9.36-.17.52a32.84 32.84 0 0 1 28.58 32.59v.21c-.04 8.13-3.3 15.9-9.07 21.64a30.77 30.77 0 0 1-21.71 8.96l-19.25-.48-.11.29 30.76 1.14c8.16 0 15.99 3.24 21.75 9.01a30.74 30.74 0 0 1 9.01 21.75c0 8.15-3.24 15.96-9.01 21.74-5.76 5.76-13.59 9-21.75 9l-41.49-.85h-1.73l24.51.87a30.743 30.743 0 0 1 30.76 30.74c0 8.16-3.24 15.97-9.01 21.74-5.77 5.76-13.59 9-21.75 9l-12.62-.24-29.29-1.26 11.17 1.5a30.8 30.8 0 0 1 21.07 9.4c5.54 5.73 8.63 13.4 8.61 21.37a30.77 30.77 0 0 1-8.68 21.36 30.77 30.77 0 0 1-21.1 9.32l-57.31-2.65c-15.6 1.95-31.31 2.83-47.03 2.65-33.42.96-66.1-9.91-92.27-30.72h-61.57a61.65 61.65 0 0 1-43.5-18.04 61.54 61.54 0 0 1-18.01-43.5v-46.09c0-16.3 6.48-31.95 18.01-43.48a61.57 61.57 0 0 1 43.5-18.04h28.88c5.28-.04 10.47-1.41 15.06-3.99 4.61-2.59 7.01-7.65 9.79-12.14 0 0 9.77-16.73 34.76-59.98 24.98-43.25 73.1-108.38 80.77-123.77 5.7-.62 11.46.29 16.69 2.65a32.15 32.15 0 0 1 13.06 10.72 32.3 32.3 0 0 1 5.85 15.84c.5 5.71-.52 11.44-2.98 16.63" style="stroke:currentcolor;stroke-linecap:round;stroke-linejoin:round;stroke-width:40;fill:none" /></svg>