<svg xmlns="http://www.w3.org/2000/svg" viewBox="0 0 512 512"><path d="m434.398 215.39-270.204 2.11c36.8-14.4 74.601-28.91 112.802-43.5 48.701-18.7 97.402-37.3 143.203-55.41a15.36 15.36 0 0 0 8.091-8.41c1.48-3.78 1.41-7.98-.192-11.69L426.199 94a541 541 0 0 0-30.202-67.41 14.8 14.8 0 0 0-7.795-5.46c-3.132-.9-6.474-.74-9.504.46-7.2 2.8-64.402 25.01-129.903 50.2-75.201 29.1-161.202 62.2-194.502 75.21a14.7 14.7 0 0 0-8.038 7.62 14.78 14.78 0 0 0-.463 11.08c5.3 14.69 8.7 24.1 11.2 30.59a48.95 48.95 0 0 0-14.2 23.9l-.8 3.7-.3 1.4a18.5 18.5 0 0 0-.3 3.2v7.61c.088 1.45.323 2.89.7 4.3a50 50 0 0 0 11.9 24.53 50.04 50.04 0 0 0 23 14.66c.2 37.9.7 155.21.7 177.91a14.717 14.717 0 0 0 14.701 14.69c52.3 0 344.405 1.31 344.405 1.31 3.865 0 7.577-1.53 10.329-4.24a14.7 14.7 0 0 0 4.371-10.27c0-1.69 2.3-168.19 2.3-224.69-.2-16.71-15.5-18.91-19.4-18.91m-155.802 68.8 23.9-38.5 53.601-.4-24.101 38.9zm-10.801-38.2-23.7 38.2h-52.901l23.4-37.89zM231.294 160c-16.599 6.39-32.899 12.69-49.2 19l6-52.31 49.201-18.99zm35.201-13.6-4.4 1.69 6-52.4 50.501-19.4-6.1 52.51zm129.103-49.8c-17.002 6.7-34.501 13.4-52.001 20.19l6.101-52.5 27.599-10.59c5.3 11.79 13.2 30.49 18.301 42.9M83.493 183.19l-5.2-14.09c19.4-7.61 47.4-18.4 78.8-30.51l-6 52.41c-6.4 2.49-12.899 5-19.2 7.5a45.5 45.5 0 0 0-16.213-12.17 45.4 45.4 0 0 0-19.887-3.94c-.8 0-1.9.2-2.8.2-2.642-.03-5.283.13-7.9.51q-.804-.015-1.6.09m-12.9 51.2.6-6.99a21.74 21.74 0 0 1 9.297-12.29 21.77 21.77 0 0 1 15.103-3.02c5.217.69 9.978 3.33 13.319 7.41a20.73 20.73 0 0 1 4.681 14.49 19.87 19.87 0 0 1-5.9 12.1 21 21 0 0 1-1.5 1.41 22.08 22.08 0 0 1-13.1 5.2 20.76 20.76 0 0 1-14.482-4.32 20.75 20.75 0 0 1-7.718-12.99c-.06-.34-.16-.67-.3-1m35.6 46c1-.29 1.8-.89 2.8-1.29a48 48 0 0 0 10.2-4.81l.201-.09a52.8 52.8 0 0 0 10.799-9.1c.3-.31.6-.51.8-.71s.7-1 1.101-1.4c.799-1 1.499-2 2.2-2.99a46.1 46.1 0 0 0 7.2-13.01l38.4-.29-23.3 37.6h-50.401zM422.199 444.1c-54.802-.2-248.706-1.11-315.206-1.2-.1-29.51-.3-88.01-.5-129.31h317.404c-.6 49.6-1.298 104.9-1.698 130.51m1.799-159.91h-57.601l24.2-39.2 33.501-.3c.099 11.11-.1 24.7-.1 39.5" style="fill:currentcolor" /></svg>