<svg xmlns="http://www.w3.org/2000/svg" viewBox="0 0 512 512"><path d="M128.24 386.388a193 193 0 0 0 221 45l-133-133z" style="fill:currentcolor" /><path d="m215.24 217.388-101 101-13-13 106-107 124-124a192 192 0 0 0-120.45-1.372 192.02 192.02 0 0 0-97.56 70.646 192 192 0 0 0-36.27 114.859 192 192 0 0 0 39.28 113.867l100-101 7 7 144 144 9-5-160-160-97 97-13-13 110-111 7 7 168 168 8-6-182-182z" style="fill:currentcolor" /><path d="M412.24 385.388a191.9 191.9 0 0 0 42.89-77.971c8-28.991 9.07-59.454 3.14-88.936a192.1 192.1 0 0 0-37.31-80.795 192 192 0 0 0-69.72-55.298l-121 121zm-136-147-13-14 95-95 14 14zm91-131-110 110-14-14 110-110z" style="fill:currentcolor" /></svg>