<svg viewBox="0 0 512 512" fill="none" xmlns="http://www.w3.org/2000/svg">
<path d="M430.1 179.9L304.9 305.2L293.3 293.6L422.5 164.5C421.3 162.1 420 159.9 418.5 157.6L282.3 293.8L299.4 310.9L287.8 322.5L259.1 293.8L409 143.8C407.6 141.7 406 139.6 404.2 137.6L248.2 293.8L282.3 327.9L270.7 339.5L156.7 225.5L168.3 213.9L236.5 282.1L393.5 125C392.5 123.9 391.4 122.8 390.3 121.7C355.9 87.3 308.4 66 256 66C203.6 66 156.1 87.3 121.7 121.7C87.2999 156.1 66 203.6 66 256C66 360.9 151.1 446 256 446C308.4 446 355.9 424.7 390.3 390.3C424.7 356 446 308.5 446 256C446.1 228.9 440.4 203.2 430.1 179.9ZM236.6 271L173.8 208.3L185.4 196.7L248.2 259.4C248.1 259.5 236.6 271 236.6 271ZM253.7 253.9L190.9 191.2L202.5 179.6L265.3 242.3C265.2 242.4 253.7 253.9 253.7 253.9ZM256.1 409.5C171.4 409.5 102.6 340.6 102.6 256C102.6 171.4 171.3 102.5 256.1 102.5C279.1 102.5 301.4 107.5 322 117.4L315 132.3C296.6 123.5 276.7 119 256.2 119C180.6 119 119 180.5 119 256.1C119 331.7 180.6 393.3 256.2 393.3C310.2 393.3 359.4 361.4 381.4 312.2L396.4 318.9C371.7 374.1 316.7 409.8 256.2 409.8L256.1 409.5Z" fill="white"/>
</svg>
