<svg xmlns="http://www.w3.org/2000/svg" viewBox="0 0 512 512"><path d="M374.81 308.8 457.5 367c2.46 1.08 5.14 1.53 7.81 1.3 2.66-.22 5.24-1.08 7.49-2.5 2.23-1.46 4.04-3.45 5.3-5.8 1.25-2.33 1.91-4.95 1.91-7.6V159.6c.04-4.03-1.47-7.92-4.2-10.87a15.73 15.73 0 0 0-10.5-5.03c-2.67-.22-5.35.23-7.81 1.3l-82.69 58.2c-2.11 1.47-3.81 3.43-5.01 5.7-1.18 2.28-1.8 4.82-1.79 7.4v79.4c-.01 2.58.61 5.12 1.79 7.41 1.2 2.26 2.9 4.21 5.01 5.69" style="stroke:currentcolor;stroke-linecap:round;stroke-linejoin:round;stroke-width:32;fill:none" /><path d="M268.01 384H84a51.8 51.8 0 0 1-19.88-3.97A51.7 51.7 0 0 1 47.3 368.7 52.77 52.77 0 0 1 32 332V180.01c0-6.84 1.35-13.58 3.97-19.88A51.6 51.6 0 0 1 47.3 143.3 52.67 52.67 0 0 1 84 128h184.51c13.64.05 26.72 5.48 36.4 15.1a51.3 51.3 0 0 1 11.17 16.69 51.5 51.5 0 0 1 3.93 19.71V332a52.27 52.27 0 0 1-15.3 36.7 52.2 52.2 0 0 1-36.7 15.3Z" style="stroke:currentcolor;stroke-miterlimit:10;stroke-width:32;fill:none" /><path d="M91.4 207.8h83.9M133.4 313.5V207.8" style="stroke:currentcolor;stroke-linecap:round;stroke-miterlimit:10;stroke-width:32;fill:none" /><path d="m180.11 208.8 38.09 104.7 37.81-104.7" style="stroke:currentcolor;stroke-linecap:round;stroke-linejoin:round;stroke-miterlimit:10;stroke-width:32;fill:none" /></svg>