<svg xmlns="http://www.w3.org/2000/svg" viewBox="0 0 512 512"><path d="M466.32 127.95c-5.29-.42-10.59.47-15.45 2.61-.97.42-1.91.94-2.78 1.56l-82.69 58.2a31.8 31.8 0 0 0-10 11.43c-2.36 4.56-3.6 9.62-3.6 14.75v79.34a31.86 31.86 0 0 0 3.59 14.79c2.35 4.57 5.79 8.49 10.01 11.45l82.69 58.2c.86.61 1.79 1.13 2.76 1.56 4.05 1.79 8.46 2.72 12.89 2.72.91 0 1.8-.04 2.68-.12 5.23-.44 10.26-2.11 14.7-4.89.1-.07.2-.13.29-.2 4.44-2.91 8.08-6.89 10.59-11.56a31.96 31.96 0 0 0 3.81-15.19V159.87c.05-8.07-2.96-15.85-8.44-21.78a31.84 31.84 0 0 0-21.05-10.14M268.31 112.2H83.68a68.23 68.23 0 0 0-67.88 68v152.14c.1 17.98 7.29 35.2 20.02 47.9a68.24 68.24 0 0 0 47.93 19.96h184.13a68.43 68.43 0 0 0 47.89-20.07 68.4 68.4 0 0 0 20.03-47.93V179.71a67.53 67.53 0 0 0-19.78-47.72 67.52 67.52 0 0 0-47.71-19.79m2.55 102.23-37.81 104.7a15.9 15.9 0 0 1-5.85 7.65c-2.69 1.9-5.89 2.92-9.18 2.92H218c-3.28 0-6.49-1.01-9.18-2.89a15.94 15.94 0 0 1-5.85-7.64L168.33 224H149.2v89.7c0 4.24-1.69 8.31-4.69 11.31-3 2.99-7.07 4.69-11.31 4.69s-8.31-1.7-11.31-4.69c-3-3-4.69-7.07-4.69-11.31V224h-26c-4.24 0-8.31-1.69-11.31-4.69S75.2 212.24 75.2 208s1.69-8.31 4.69-11.31S86.96 192 91.2 192h83.9c4.96.6 9.78 1.99 14.3 4.12 2.53 1.86 4.46 4.45 5.54 7.41l23 63.22 22.82-63.18c1.45-3.97 4.42-7.2 8.25-8.97 3.84-1.78 8.21-1.98 12.18-.55 3.99 1.44 7.23 4.39 9.03 8.19 1.81 3.83 2.04 8.21.64 12.19" style="fill:currentcolor" /></svg>