<svg xmlns="http://www.w3.org/2000/svg" viewBox="0 0 512 512"><path d="M385.5 325.2c-7.9-25.1-8-25.01-34-23.61h-.8c-4.8 0-7.2 1.6-5.9 7.1 1.8 7.61-1.7 13.3-7.2 18.2-7.81 6.81-17.2 10.8-27 13.8-29.31 8.9-59.2 9.41-89.1 4.8-16.6-2.6-33-6.6-46.51-17.8-4.89-4-8.6-8.7-8.7-15.2-.2-10.9-.1-10.9-11.59-10.79-2.8 0-5.5.29-8.3.09-9.1-.69-14.11 3.4-16.71 12.2-9.7 32.2-19.99 64.1-29.9 96.2a82 82 0 0 0-3.4 16.1c-.6 6.7 2.3 11.11 9.91 11.2 7.4.2 14.79 1.2 22.2 1.2 42.7.11 85.4.14 128.1.11 45.2 0 90.3.09 135.5-.11 23.9-.09 27.2-4.7 20.2-27.5-8.8-28.69-17.7-57.3-26.8-85.99M200.4 196.2c-4.8 16.4-9.7 32.72-14.7 49-3.7 12.2-2.2 16.6 9.3 22.5a91 91 0 0 0 15.3 5.99c14.53 4.41 29.75 6.1 44.9 5 6 0 12.1.5 18.1-.09 16.79-1.6 33.4-4 47.9-13.61 4.2-2.79 8.3-6.39 6.7-12.09-5.7-19.6-11.7-39.01-17.5-58.5-.8-2.61-1.6-4.41-5.2-2.71-23 11.1-47.5 10.21-72 7.8-8.5-.8-17.2-1.89-24.51-6.69-5.19-3.41-6.79-1.81-8.29 3.4M283.3 127.8c5.2-1.31 6.3-4.41 4.7-9.31-2.8-8.59-5-17.4-7.9-26.1-5.1-15.49-7.5-17.2-23.6-17.2-17.4 0-20.81 2.51-25.8 19.1-2.4 8.2-4.7 16.4-7.31 24.5-1.49 4.6-.19 7.6 4.41 8.81 18.19 4.7 37.27 4.78 55.5.2" style="fill:currentcolor" /></svg>