<svg xmlns="http://www.w3.org/2000/svg" viewBox="0 0 512 512"><path d="M121.89 188.9h-72.6c-1.09 0-2.16.21-3.18.63a8.24 8.24 0 0 0-4.49 4.49c-.41 1.01-.62 2.1-.62 3.18V314c0 1.09.21 2.18.62 3.19a8.1 8.1 0 0 0 1.8 2.69c.78.78 1.68 1.39 2.69 1.8a8.3 8.3 0 0 0 3.18.62h72.6c3.88-.01 7.64 1.32 10.61 3.81l95.39 78.09a8.44 8.44 0 0 0 6.22 1.51c2.19-.35 4.17-1.53 5.48-3.31a7.95 7.95 0 0 0 1.61-4.99v-283.9c0-1.1-.21-2.18-.63-3.19a8.6 8.6 0 0 0-1.8-2.68 8.2 8.2 0 0 0-2.7-1.81c-1-.42-2.09-.62-3.18-.62-1.76 0-3.46.57-4.9 1.6L132.6 184.9a16.57 16.57 0 0 1-10.71 4M324.49 322.3a148.9 148.9 0 0 0 16.71-66.7c-.08-23.25-5.81-46.14-16.71-66.7M374.6 372.4A213.56 213.56 0 0 0 408 255.6c.71-41.39-10.93-82.05-33.4-116.79M421.69 415.6c69.41-88.2 61.41-242.3-1.29-321.3" style="stroke:currentcolor;stroke-linecap:round;stroke-linejoin:round;stroke-width:31.897;fill:none" /></svg>