<svg xmlns="http://www.w3.org/2000/svg" viewBox="0 0 512 512"><path d="M236.89 187.01h-72.6c-1.09 0-2.17.21-3.18.63a8.28 8.28 0 0 0-4.49 4.48 8.3 8.3 0 0 0-.63 3.19V312.1c0 1.1.21 2.17.63 3.18a8.2 8.2 0 0 0 1.8 2.69 8.27 8.27 0 0 0 5.87 2.43h72.6a16.46 16.46 0 0 1 10.6 3.8l95.4 78.11a8.4 8.4 0 0 0 6.22 1.49 8.46 8.46 0 0 0 5.49-3.29 8.1 8.1 0 0 0 1.59-5.01V111.6c0-1.09-.21-2.16-.63-3.17a8.2 8.2 0 0 0-1.8-2.7 8.27 8.27 0 0 0-5.87-2.43c-1.76.01-3.47.57-4.9 1.6l-95.4 78.11c-2.95 2.6-6.76 4.03-10.7 4" style="stroke:currentcolor;stroke-linecap:round;stroke-linejoin:round;stroke-width:31.897;fill:none" /></svg>