<svg xmlns="http://www.w3.org/2000/svg" viewBox="0 0 512 512"><path d="M423.8 441.5 54.7 72.3" style="stroke:currentcolor;stroke-linecap:round;stroke-miterlimit:10;stroke-width:33.557;fill:none" /><path d="M222.4 132v35.41c-.01 1.11.41 2.2 1.2 3l25.2 25.19c.48.49 1.08.85 1.73 1.04.67.2 1.37.23 2.04.11.67-.14 1.31-.43 1.84-.88.53-.44.94-1 1.2-1.64.21-.51.31-1.07.29-1.63v-77.69c.05-4.65-1.16-9.23-3.5-13.25a25.8 25.8 0 0 0-9.8-9.56c-4.2-2.26-8.93-3.28-13.69-2.95-4.73.34-9.3 2.02-13.11 4.85-.2.2-.5.31-.7.51l-33.5 27.39c-.44.35-.8.78-1.06 1.26-.27.5-.43 1.02-.49 1.57-.04.56.01 1.11.16 1.63.16.54.43 1.02.78 1.44l.31.31L199.19 146c.75.73 1.72 1.15 2.74 1.2 1.04.05 2.06-.25 2.86-.89zM222.4 381.8l-81.9-67a33.47 33.47 0 0 0-21.3-7.49H54.6V206.6h53.19a4.27 4.27 0 0 0 2.33-.72c.69-.47 1.22-1.13 1.54-1.89.33-.77.42-1.6.27-2.43-.16-.82-.56-1.57-1.14-2.16L85.6 174.2c-.39-.39-.86-.7-1.39-.91-.51-.21-1.07-.3-1.61-.29H46.2c-6.68.01-13.1 2.67-17.82 7.39a25.25 25.25 0 0 0-7.39 17.81v117.41c.01 6.68 2.67 13.08 7.39 17.81a25.3 25.3 0 0 0 17.82 7.38h73.19l95.81 78.4c.21.2.44.37.7.5 3.86 2.87 8.48 4.56 13.28 4.88 4.81.32 9.6-.75 13.82-3.08 3.97-2.27 7.28-5.56 9.57-9.53 2.29-3.98 3.46-8.48 3.42-13.07v-52.6c.01-1.12-.41-2.2-1.19-3l-25.21-25.2c-.79-.77-1.84-1.2-2.95-1.2-1.09 0-2.15.43-2.95 1.2-.39.39-.7.86-.91 1.38-.21.51-.3 1.07-.28 1.62v60.7zM356.7 256.91c0-25.81-6.11-50.2-18.6-74.7-2.1-3.85-5.62-6.71-9.8-8s-8.7-.9-12.59 1.11c-3.9 1.99-6.86 5.42-8.26 9.56-1.41 4.15-1.13 8.67.74 12.62 10.11 19.71 14.9 39.2 14.9 59.5 0 2.8-.1 5.61-.29 8.5-.09 1.21.07 2.42.49 3.56a8.8 8.8 0 0 0 1.91 3.05l20.6 20.6c.79.76 1.84 1.19 2.95 1.19 1.1 0 2.16-.43 2.95-1.19.59-.56.98-1.31 1.1-2.11 2.59-11.04 3.9-22.34 3.9-33.69M423.8 256.9c0-53.69-13.7-88-35.8-125.9a16.76 16.76 0 0 0-10.23-7.56c-4.25-1.09-8.77-.46-12.58 1.76a16.8 16.8 0 0 0-7.74 10.08A16.73 16.73 0 0 0 359 147.9c19.8 34 31.3 62.7 31.3 109 0 25-3.51 45-9.8 63.6a8.6 8.6 0 0 0-.23 4.64 8.53 8.53 0 0 0 2.23 4.06l17.6 17.61c.79.76 1.84 1.2 2.95 1.2 1.1 0 2.15-.44 2.95-1.2.39-.38.69-.81.9-1.31 10.7-25.8 16.9-52.99 16.9-88.6" style="fill:currentcolor" /><path d="M490.9 256.91c0-77.91-21.2-127-53-176.8A16.73 16.73 0 0 0 427.37 73c-4.3-.91-8.79-.09-12.49 2.28a16.83 16.83 0 0 0-7.32 10.38c-.99 4.29-.25 8.8 2.04 12.54 28.7 44.9 47.7 89.01 47.7 158.8 0 49.8-9.3 86.1-24.7 118.5-.37.79-.49 1.67-.35 2.52.13.86.54 1.66 1.15 2.28l18.7 18.7c.58.59 1.32 1 2.13 1.16s1.66.09 2.42-.24a4.37 4.37 0 0 0 2.15-2.02c22.5-44.3 32.1-87.5 32.1-140.99" style="fill:currentcolor" /></svg>