<svg xmlns="http://www.w3.org/2000/svg" viewBox="0 0 512 512"><path d="M186.89 188H114.3c-1.09 0-2.17.21-3.19.64a8.27 8.27 0 0 0-5.11 7.66v116.8c0 1.1.21 2.17.63 3.18a8.2 8.2 0 0 0 1.8 2.69c.77.77 1.68 1.38 2.68 1.8 1.02.42 2.1.63 3.19.63h72.59c3.88-.02 7.64 1.33 10.61 3.8l95.4 78.11a8.4 8.4 0 0 0 6.22 1.49 8.4 8.4 0 0 0 5.48-3.29 8.06 8.06 0 0 0 1.6-5.01V112.6a8.27 8.27 0 0 0-2.43-5.87 8.27 8.27 0 0 0-5.87-2.43c-1.76.01-3.47.57-4.9 1.6l-95.4 78.11c-2.95 2.6-6.76 4.03-10.71 3.99M389.5 321.4a149 149 0 0 0 16.7-66.7c-.08-23.26-5.81-46.15-16.7-66.7" style="stroke:currentcolor;stroke-linecap:round;stroke-linejoin:round;stroke-width:31.897;fill:none" /></svg>