<svg xmlns="http://www.w3.org/2000/svg" viewBox="0 0 512 512"><path d="M152.9 188H80.29c-1.09 0-2.16.21-3.18.64a8.2 8.2 0 0 0-2.69 1.79 7.8 7.8 0 0 0-1.79 2.69 8.3 8.3 0 0 0-.63 3.18v116.8c0 1.1.21 2.17.63 3.18a8 8 0 0 0 1.8 2.69c.77.77 1.67 1.38 2.68 1.8 1.02.42 2.09.63 3.18.63h72.61a16.46 16.46 0 0 1 10.6 3.8l95.4 78.11a8.4 8.4 0 0 0 6.22 1.49 8.37 8.37 0 0 0 5.47-3.29 8 8 0 0 0 1.61-5.01V112.6c0-1.09-.21-2.17-.63-3.18a8.5 8.5 0 0 0-1.8-2.69 8.27 8.27 0 0 0-5.87-2.43c-1.76.01-3.47.57-4.9 1.6l-95.4 78.11a16.6 16.6 0 0 1-10.7 3.99M355.59 321.4a148.86 148.86 0 0 0 16.71-66.7 143.66 143.66 0 0 0-16.71-66.7M405.6 371.51A213.67 213.67 0 0 0 439 254.7c.71-41.39-10.92-82.05-33.4-116.8" style="stroke:currentcolor;stroke-linecap:round;stroke-linejoin:round;stroke-width:31.897;fill:none" /></svg>