<svg xmlns="http://www.w3.org/2000/svg" viewBox="0 0 512 512"><path d="M449.1 399.11 278.7 82.61c-12.1-22.41-44.2-22.41-56.3 0L52 399.11c-2.7 4.85-4 10.35-3.8 15.89.1 5.53 1.7 10.92 4.5 15.68 2.7 4.74 6.7 8.69 11.6 11.42 4.8 2.73 10.3 4.18 15.8 4.21h340.8c5.6.01 11.1-1.44 15.9-4.21 4.8-2.75 8.8-6.68 11.6-11.39 2.8-4.77 4.4-10.17 4.5-15.72.1-5.52-1.2-10.99-3.8-15.88m-198.5-1.9c-3 .01-5.9-.66-8.7-1.92-2.7-1.27-5-3.13-6.9-5.44-1.8-2.28-3.1-4.97-3.8-7.86-.7-2.88-.8-5.88-.2-8.78.7-3.88 2.6-7.45 5.3-10.2 2.8-2.81 6.5-4.73 10.4-5.5 3.9-.76 7.9-.36 11.5 1.14 3.7 1.53 6.8 4.07 8.9 7.36 2.2 3.28 3.4 7.14 3.4 11.09 0 2.65-.5 5.28-1.6 7.7-1.5 3.66-3.9 6.8-7.2 9.01s-7.1 3.39-11.1 3.4m21.6-201.1-5.7 122c0 4.24-1.6 8.31-4.6 11.31s-7.1 4.69-11.3 4.69-8.4-1.69-11.4-4.69-4.6-7.07-4.6-11.31l-5.8-121.9c-.2-5.87 1.9-11.59 5.9-15.9 2-2.05 4.4-3.73 7-5 2.8-1.18 5.7-1.79 8.6-1.8h.2c2.9 0 5.9.58 8.6 1.69 2.7 1.17 5.1 2.86 7 5.01 2.1 2.08 3.7 4.62 4.7 7.4 1 2.72 1.5 5.59 1.4 8.5" style="fill:currentcolor" /></svg>