<svg xmlns="http://www.w3.org/2000/svg" viewBox="0 0 512 512"><path d="M426 457.36c-27.4-3.98-54.8-7.98-82.1-11.98-31.5-4.59-63.1-9.17-94.6-13.74-6.6-.96-13.1-1.95-19.7-2.75-1.9-.25-2.8-.97-2.6-2.91.1-.69.1-1.42 0-2.11V259.2c77.4.41 154.5.84 231.6 1.26v201.6c-10.9-1.58-21.7-3.12-32.6-4.7M24.3 399.98V258.13c57.9.32 115.6.64 173.5.95v165.48c-57.9-8.21-115.6-16.38-173.5-24.58m202.9-169.76c0-1.27-.1-2.51-.2-3.75V66.02c0-3.24 1-4.12 4.1-4.53 42.2-5.81 84.6-11.69 126.9-17.63 33.1-4.63 66.4-9.25 99.6-13.85.3 0 .7.03 1 .09v201.39c-77-.42-154.1-.84-231.4-1.27m-203-1.15V88.67c57.9-7.49 115.6-14.96 173.6-22.46v163.81c-57.9-.31-115.6-.62-173.6-.95" style="fill:currentcolor" /></svg>